# SSTK version 0.8.0
# 40
mtllib original-40.mtl
o ed015820-7a26-43d4-a2cc-91cd9e414514_1/ed015820-7a26-43d4-a2cc-91cd9e414514/mesh84/mesh84-geometry#mesh84-geometry
v -0.454685 0.221696 0.182220
v -0.458850 0.223665 0.182316
v -0.458850 0.221696 0.182220
v -0.454685 0.223665 0.182316
v -0.458850 0.225634 0.182220
v -0.458850 0.219747 0.181931
v -0.454685 0.225634 0.182220
v -0.454685 0.219747 0.181931
v -0.454685 0.227583 0.181931
v -0.458850 0.227583 0.181931
v -0.454685 0.217835 0.181452
v -0.458850 0.217835 0.181452
v -0.454685 0.229496 0.181452
v -0.458850 0.229496 0.181452
v -0.458850 0.215979 0.180788
v -0.454685 0.231351 0.180788
v -0.454685 0.215979 0.180788
v -0.458850 0.231351 0.180788
v -0.458850 0.214197 0.179945
v -0.454685 0.233133 0.179945
v -0.454685 0.214197 0.179945
v -0.458850 0.233133 0.179945
v -0.454685 0.212506 0.178931
v -0.454685 0.234824 0.178931
v -0.458850 0.212506 0.178931
v -0.458850 0.234824 0.178931
v -0.458850 0.210923 0.177757
v -0.454685 0.236407 0.177757
v -0.454685 0.210923 0.177757
v -0.458850 0.236407 0.177757
v -0.458850 0.209462 0.176434
v -0.454685 0.237868 0.176434
v -0.454685 0.209462 0.176434
v -0.458850 0.237868 0.176434
v -0.454685 0.208139 0.174973
v -0.454685 0.239191 0.174973
v -0.458850 0.239191 0.174973
v -0.458850 0.208139 0.174973
v -0.458850 0.206964 0.173390
v -0.454685 0.240365 0.173390
v -0.454685 0.206964 0.173390
v -0.458850 0.240365 0.173390
v -0.458850 0.205951 0.171699
v -0.454685 0.241379 0.171699
v -0.454685 0.205951 0.171699
v -0.458850 0.241379 0.171699
v -0.454685 0.205108 0.169917
v -0.454685 0.242222 0.169917
v -0.458850 0.242222 0.169917
v -0.458850 0.205108 0.169917
v -0.458850 0.204444 0.168061
v -0.454685 0.242886 0.168061
v -0.454685 0.204444 0.168061
v -0.458850 0.242886 0.168061
v -0.458850 0.203965 0.166149
v -0.454685 0.243365 0.166149
v -0.454685 0.203965 0.166149
v -0.458850 0.243365 0.166149
v -0.454685 0.203676 0.164200
v -0.454685 0.243654 0.164200
v -0.458850 0.243654 0.164200
v -0.458850 0.203676 0.164200
v -0.458850 0.203579 0.162231
v -0.454685 0.243751 0.162231
v -0.454685 0.203579 0.162231
v -0.458850 0.243751 0.162231
v -0.458850 0.203676 0.160262
v -0.454685 0.243654 0.160262
v -0.454685 0.203676 0.160262
v -0.458850 0.243654 0.160262
v -0.454685 0.203965 0.158312
v -0.454685 0.243365 0.158312
v -0.458850 0.243365 0.158312
v -0.458850 0.203965 0.158312
v -0.458850 0.204444 0.156400
v -0.454685 0.242886 0.156400
v -0.454685 0.204444 0.156400
v -0.458850 0.242886 0.156400
v -0.458850 0.205108 0.154544
v -0.454685 0.242222 0.154544
v -0.454685 0.205108 0.154544
v -0.458850 0.242222 0.154544
v -0.454685 0.205951 0.152763
v -0.454685 0.241379 0.152763
v -0.458850 0.241379 0.152763
v -0.458850 0.205951 0.152763
v -0.458850 0.206964 0.151072
v -0.454685 0.240365 0.151072
v -0.454685 0.206964 0.151072
v -0.458850 0.240365 0.151072
v -0.458850 0.208139 0.149489
v -0.454685 0.239191 0.149489
v -0.454685 0.208139 0.149489
v -0.458850 0.239191 0.149489
v -0.454685 0.209462 0.148028
v -0.454685 0.237868 0.148028
v -0.458850 0.237868 0.148028
v -0.458850 0.209462 0.148028
v -0.458850 0.210923 0.146705
v -0.454685 0.236407 0.146705
v -0.454685 0.210923 0.146705
v -0.458850 0.236407 0.146705
v -0.458850 0.212506 0.145530
v -0.454685 0.234824 0.145530
v -0.454685 0.212506 0.145530
v -0.458850 0.234824 0.145530
v -0.454685 0.214197 0.144517
v -0.454685 0.233133 0.144517
v -0.458850 0.233133 0.144517
v -0.458850 0.214197 0.144517
v -0.458850 0.215979 0.143674
v -0.454685 0.231351 0.143674
v -0.454685 0.215979 0.143674
v -0.458850 0.231351 0.143674
v -0.458850 0.217835 0.143010
v -0.454685 0.229496 0.143010
v -0.454685 0.217835 0.143010
v -0.458850 0.229496 0.143010
v -0.454685 0.219747 0.142531
v -0.454685 0.227583 0.142531
v -0.458850 0.227583 0.142531
v -0.458850 0.219747 0.142531
v -0.458850 0.221696 0.142242
v -0.454685 0.225634 0.142242
v -0.454685 0.221696 0.142242
v -0.458850 0.225634 0.142242
v -0.454685 0.223665 0.142145
v -0.458850 0.223665 0.142145
vn 0 -0.049065977381276785 0.9987955395693455
vn 0 0.049065977381276785 -0.9987955395693455
vn -1 0 0
vn 1 0 0
vn 0 -0.1467339981121206 0.989175987273262
vn 0 0.1467339981121206 -0.989175987273262
vn 0 0.049069019166705884 0.9987953901365471
vn 0 -0.049069019166705884 -0.9987953901365471
vn 0 -0.2429819522194263 0.9700308092507353
vn 0 0.2429819522194263 -0.9700308092507353
vn 0 0.14673399811212015 0.989175987273262
vn 0 -0.14673399811212015 -0.989175987273262
vn 0 0.24296995358593995 0.9700338146963983
vn 0 -0.24296995358593995 -0.9700338146963983
vn 0 -0.33687898367063407 0.9415479543608178
vn 0 0.33687898367063407 -0.9415479543608178
vn 0 0.33689507095196214 0.9415421982939863
vn 0 -0.33689507095196214 -0.9415421982939863
vn 0 -0.42756201025293733 0.9039860216775849
vn 0 0.42756201025293733 -0.9039860216775849
vn 0 0.42756201025293694 0.9039860216775851
vn 0 -0.42756201025293694 -0.9039860216775851
vn 0 -0.5140881971752245 0.8577373289796403
vn 0 0.5140881971752245 -0.8577373289796403
vn 0 0.514088197175224 0.8577373289796404
vn 0 -0.514088197175224 -0.8577373289796404
vn 0 -0.5957040234612079 0.803204031633388
vn 0 0.5957040234612079 -0.803204031633388
vn 0 0.5957040234612075 0.8032040316333883
vn 0 -0.5957040234612075 -0.8032040316333883
vn 0 -0.6715632284060802 0.7409472520043535
vn 0 0.6715632284060802 -0.7409472520043535
vn 0 0.6715632284060798 0.7409472520043539
vn 0 -0.6715632284060798 -0.7409472520043539
vn 0 -0.7409553382680475 0.6715543065844216
vn 0 0.7409553382680475 -0.6715543065844216
vn 0 0.7409553382680472 0.671554306584422
vn 0 -0.7409553382680472 -0.671554306584422
vn 0 -0.8032167786905148 0.5956868358710243
vn 0 0.8032167786905148 -0.5956868358710243
vn 0 0.8032167786905146 0.5956868358710247
vn 0 -0.8032167786905146 -0.5956868358710247
vn 0 -0.8577122007715802 0.5141301203465641
vn 0 0.8577122007715802 -0.5141301203465641
vn 0 0.8577122007715798 0.5141301203465646
vn 0 -0.8577122007715798 -0.5141301203465646
vn 0 -0.9039953969494381 0.4275421877361671
vn 0 0.9039953969494381 -0.4275421877361671
vn 0 0.9039953969494379 0.4275421877361675
vn 0 -0.9039953969494379 -0.4275421877361675
vn 0 -0.9415443284780395 0.336889117531032
vn 0 0.9415443284780395 -0.336889117531032
vn 0 0.9415443284780395 0.33688911753103246
vn 0 -0.9415443284780395 -0.33688911753103246
vn 0 -0.9700268017590379 0.24299795033936422
vn 0 0.9700268017590379 -0.24299795033936422
vn 0 0.9700268017590379 0.2429979503393647
vn 0 -0.9700268017590379 -0.2429979503393647
vn 0 -0.9891764227063349 0.14673106270281827
vn 0 0.9891764227063349 -0.14673106270281827
vn 0 0.9891764227063349 0.14673106270281874
vn 0 -0.9891764227063349 -0.14673106270281874
vn 0 -0.9987965709001058 0.049044978929447584
vn 0 0.9987965709001058 -0.049044978929447584
vn 0 0.9987965709001058 0.049044978929448035
vn 0 -0.9987965709001058 -0.049044978929448035
vn 0 -0.6715627308131993 -0.7409477030011759
vn 0 0.6715627308131993 0.7409477030011759
vn 0 0.6715627308131996 -0.7409477030011754
vn 0 -0.6715627308131996 0.7409477030011754
vn 0 -0.5957028998522239 -0.8032048649676192
vn 0 0.5957028998522239 0.8032048649676192
vn 0 0.5957028998522242 -0.8032048649676191
vn 0 -0.5957028998522242 0.8032048649676191
vn 0 -0.5140889328882644 -0.8577368880267453
vn 0 0.5140889328882644 0.8577368880267453
vn 0 0.514088932888265 -0.8577368880267452
vn 0 -0.514088932888265 0.8577368880267452
vn 0 -0.3368789836706336 -0.9415479543608178
vn 0 0.3368789836706336 0.9415479543608178
vn 0 0.3368950709519625 -0.9415421982939862
vn 0 -0.3368950709519625 0.9415421982939862
vn 0 -0.24298195221942595 -0.9700308092507355
vn 0 0.24298195221942595 0.9700308092507355
vn 0 0.24296995358594037 -0.9700338146963982
vn 0 -0.24296995358594037 0.9700338146963982
vn 0 -0.04906597738127634 -0.9987955395693455
vn 0 0.04906597738127634 0.9987955395693455
vn 0 0.049069019166706335 -0.9987953901365471
vn 0 -0.049069019166706335 0.9987953901365471
usemtl material_0_0
f 1//1 2//1 3//1
f 3//2 2//2 1//2
f 4//1 2//1 1//1
f 1//2 2//2 4//2
f 5//3 3//3 2//3
f 2//4 3//4 5//4
f 1//5 3//5 6//5
f 6//6 3//6 1//6
f 4//7 5//7 2//7
f 2//8 5//8 4//8
f 7//4 4//4 1//4
f 1//3 4//3 7//3
f 5//3 6//3 3//3
f 3//4 6//4 5//4
f 1//5 6//5 8//5
f 8//6 6//6 1//6
f 7//7 5//7 4//7
f 4//8 5//8 7//8
f 9//4 7//4 1//4
f 1//3 7//3 9//3
f 10//3 6//3 5//3
f 5//4 6//4 10//4
f 8//9 6//9 11//9
f 11//10 6//10 8//10
f 9//4 1//4 8//4
f 8//3 1//3 9//3
f 9//11 5//11 7//11
f 7//12 5//12 9//12
f 10//3 12//3 6//3
f 6//4 12//4 10//4
f 9//11 10//11 5//11
f 5//12 10//12 9//12
f 11//9 6//9 12//9
f 12//10 6//10 11//10
f 13//4 8//4 11//4
f 11//3 8//3 13//3
f 13//4 9//4 8//4
f 8//3 9//3 13//3
f 14//3 12//3 10//3
f 10//4 12//4 14//4
f 9//13 14//13 10//13
f 10//14 14//14 9//14
f 11//15 12//15 15//15
f 15//16 12//16 11//16
f 16//4 13//4 11//4
f 11//3 13//3 16//3
f 13//13 14//13 9//13
f 9//14 14//14 13//14
f 14//3 15//3 12//3
f 12//4 15//4 14//4
f 11//15 15//15 17//15
f 17//16 15//16 11//16
f 16//17 14//17 13//17
f 13//18 14//18 16//18
f 16//4 11//4 17//4
f 17//3 11//3 16//3
f 18//3 15//3 14//3
f 14//4 15//4 18//4
f 17//19 15//19 19//19
f 19//20 15//20 17//20
f 16//17 18//17 14//17
f 14//18 18//18 16//18
f 20//4 16//4 17//4
f 17//3 16//3 20//3
f 18//3 19//3 15//3
f 15//4 19//4 18//4
f 17//19 19//19 21//19
f 21//20 19//20 17//20
f 20//21 18//21 16//21
f 16//22 18//22 20//22
f 20//4 17//4 21//4
f 21//3 17//3 20//3
f 22//3 19//3 18//3
f 18//4 19//4 22//4
f 21//23 19//23 23//23
f 23//24 19//24 21//24
f 20//21 22//21 18//21
f 18//22 22//22 20//22
f 24//4 20//4 21//4
f 21//3 20//3 24//3
f 22//3 25//3 19//3
f 19//4 25//4 22//4
f 23//23 19//23 25//23
f 25//24 19//24 23//24
f 24//4 21//4 23//4
f 23//3 21//3 24//3
f 20//25 26//25 22//25
f 22//26 26//26 20//26
f 24//25 26//25 20//25
f 20//26 26//26 24//26
f 26//3 25//3 22//3
f 22//4 25//4 26//4
f 23//27 25//27 27//27
f 27//28 25//28 23//28
f 28//4 24//4 23//4
f 23//3 24//3 28//3
f 28//29 26//29 24//29
f 24//30 26//30 28//30
f 26//3 27//3 25//3
f 25//4 27//4 26//4
f 23//27 27//27 29//27
f 29//28 27//28 23//28
f 28//4 23//4 29//4
f 29//3 23//3 28//3
f 28//29 30//29 26//29
f 26//30 30//30 28//30
f 30//3 27//3 26//3
f 26//4 27//4 30//4
f 29//31 27//31 31//31
f 31//32 27//32 29//32
f 32//4 28//4 29//4
f 29//3 28//3 32//3
f 32//33 30//33 28//33
f 28//34 30//34 32//34
f 30//3 31//3 27//3
f 27//4 31//4 30//4
f 29//31 31//31 33//31
f 33//32 31//32 29//32
f 32//4 29//4 33//4
f 33//3 29//3 32//3
f 32//33 34//33 30//33
f 30//34 34//34 32//34
f 34//3 31//3 30//3
f 30//4 31//4 34//4
f 31//35 35//35 33//35
f 33//36 35//36 31//36
f 36//4 32//4 33//4
f 33//3 32//3 36//3
f 32//37 37//37 34//37
f 34//38 37//38 32//38
f 34//3 38//3 31//3
f 31//4 38//4 34//4
f 31//35 38//35 35//35
f 35//36 38//36 31//36
f 36//4 33//4 35//4
f 35//3 33//3 36//3
f 32//37 36//37 37//37
f 37//38 36//38 32//38
f 37//3 38//3 34//3
f 34//4 38//4 37//4
f 38//39 39//39 35//39
f 35//40 39//40 38//40
f 40//4 36//4 35//4
f 35//3 36//3 40//3
f 36//41 40//41 37//41
f 37//42 40//42 36//42
f 37//3 39//3 38//3
f 38//4 39//4 37//4
f 35//39 39//39 41//39
f 41//40 39//40 35//40
f 40//4 35//4 41//4
f 41//3 35//3 40//3
f 37//41 40//41 42//41
f 42//42 40//42 37//42
f 42//3 39//3 37//3
f 37//4 39//4 42//4
f 39//43 43//43 41//43
f 41//44 43//44 39//44
f 44//4 40//4 41//4
f 41//3 40//3 44//3
f 40//45 44//45 42//45
f 42//46 44//46 40//46
f 42//3 43//3 39//3
f 39//4 43//4 42//4
f 41//43 43//43 45//43
f 45//44 43//44 41//44
f 44//4 41//4 45//4
f 45//3 41//3 44//3
f 42//45 44//45 46//45
f 46//46 44//46 42//46
f 46//3 43//3 42//3
f 42//4 43//4 46//4
f 43//47 47//47 45//47
f 45//48 47//48 43//48
f 48//4 44//4 45//4
f 45//3 44//3 48//3
f 44//49 49//49 46//49
f 46//50 49//50 44//50
f 46//3 50//3 43//3
f 43//4 50//4 46//4
f 43//47 50//47 47//47
f 47//48 50//48 43//48
f 48//4 45//4 47//4
f 47//3 45//3 48//3
f 44//49 48//49 49//49
f 49//50 48//50 44//50
f 49//3 50//3 46//3
f 46//4 50//4 49//4
f 50//51 51//51 47//51
f 47//52 51//52 50//52
f 52//4 48//4 47//4
f 47//3 48//3 52//3
f 48//53 52//53 49//53
f 49//54 52//54 48//54
f 49//3 51//3 50//3
f 50//4 51//4 49//4
f 47//51 51//51 53//51
f 53//52 51//52 47//52
f 52//4 47//4 53//4
f 53//3 47//3 52//3
f 49//53 52//53 54//53
f 54//54 52//54 49//54
f 54//3 51//3 49//3
f 49//4 51//4 54//4
f 51//55 55//55 53//55
f 53//56 55//56 51//56
f 56//4 52//4 53//4
f 53//3 52//3 56//3
f 52//57 56//57 54//57
f 54//58 56//58 52//58
f 54//3 55//3 51//3
f 51//4 55//4 54//4
f 53//55 55//55 57//55
f 57//56 55//56 53//56
f 56//4 53//4 57//4
f 57//3 53//3 56//3
f 54//57 56//57 58//57
f 58//58 56//58 54//58
f 58//3 55//3 54//3
f 54//4 55//4 58//4
f 55//59 59//59 57//59
f 57//60 59//60 55//60
f 60//4 56//4 57//4
f 57//3 56//3 60//3
f 56//61 61//61 58//61
f 58//62 61//62 56//62
f 58//3 62//3 55//3
f 55//4 62//4 58//4
f 55//59 62//59 59//59
f 59//60 62//60 55//60
f 60//4 57//4 59//4
f 59//3 57//3 60//3
f 56//61 60//61 61//61
f 61//62 60//62 56//62
f 61//3 62//3 58//3
f 58//4 62//4 61//4
f 62//63 63//63 59//63
f 59//64 63//64 62//64
f 64//4 60//4 59//4
f 59//3 60//3 64//3
f 60//65 64//65 61//65
f 61//66 64//66 60//66
f 61//3 63//3 62//3
f 62//4 63//4 61//4
f 59//63 63//63 65//63
f 65//64 63//64 59//64
f 64//4 59//4 65//4
f 65//3 59//3 64//3
f 61//65 64//65 66//65
f 66//66 64//66 61//66
f 66//3 63//3 61//3
f 61//4 63//4 66//4
f 63//66 67//66 65//66
f 65//65 67//65 63//65
f 64//4 65//4 68//4
f 68//3 65//3 64//3
f 64//64 68//64 66//64
f 66//63 68//63 64//63
f 66//3 67//3 63//3
f 63//4 67//4 66//4
f 65//66 67//66 69//66
f 69//65 67//65 65//65
f 68//4 65//4 69//4
f 69//3 65//3 68//3
f 66//64 68//64 70//64
f 70//63 68//63 66//63
f 66//3 70//3 67//3
f 67//4 70//4 66//4
f 67//62 71//62 69//62
f 69//61 71//61 67//61
f 68//4 69//4 72//4
f 72//3 69//3 68//3
f 68//60 73//60 70//60
f 70//59 73//59 68//59
f 70//3 74//3 67//3
f 67//4 74//4 70//4
f 67//62 74//62 71//62
f 71//61 74//61 67//61
f 72//4 69//4 71//4
f 71//3 69//3 72//3
f 68//60 72//60 73//60
f 73//59 72//59 68//59
f 70//3 73//3 74//3
f 74//4 73//4 70//4
f 74//58 75//58 71//58
f 71//57 75//57 74//57
f 72//4 71//4 76//4
f 76//3 71//3 72//3
f 72//56 76//56 73//56
f 73//55 76//55 72//55
f 73//3 75//3 74//3
f 74//4 75//4 73//4
f 71//58 75//58 77//58
f 77//57 75//57 71//57
f 76//4 71//4 77//4
f 77//3 71//3 76//3
f 73//56 76//56 78//56
f 78//55 76//55 73//55
f 73//3 78//3 75//3
f 75//4 78//4 73//4
f 75//54 79//54 77//54
f 77//53 79//53 75//53
f 76//4 77//4 80//4
f 80//3 77//3 76//3
f 76//52 80//52 78//52
f 78//51 80//51 76//51
f 78//3 79//3 75//3
f 75//4 79//4 78//4
f 77//54 79//54 81//54
f 81//53 79//53 77//53
f 80//4 77//4 81//4
f 81//3 77//3 80//3
f 78//52 80//52 82//52
f 82//51 80//51 78//51
f 78//3 82//3 79//3
f 79//4 82//4 78//4
f 79//50 83//50 81//50
f 81//49 83//49 79//49
f 80//4 81//4 84//4
f 84//3 81//3 80//3
f 80//48 85//48 82//48
f 82//47 85//47 80//47
f 82//3 86//3 79//3
f 79//4 86//4 82//4
f 79//50 86//50 83//50
f 83//49 86//49 79//49
f 84//4 81//4 83//4
f 83//3 81//3 84//3
f 80//48 84//48 85//48
f 85//47 84//47 80//47
f 82//3 85//3 86//3
f 86//4 85//4 82//4
f 86//46 87//46 83//46
f 83//45 87//45 86//45
f 84//4 83//4 88//4
f 88//3 83//3 84//3
f 84//44 88//44 85//44
f 85//43 88//43 84//43
f 85//3 87//3 86//3
f 86//4 87//4 85//4
f 83//46 87//46 89//46
f 89//45 87//45 83//45
f 88//4 83//4 89//4
f 89//3 83//3 88//3
f 85//44 88//44 90//44
f 90//43 88//43 85//43
f 85//3 90//3 87//3
f 87//4 90//4 85//4
f 87//42 91//42 89//42
f 89//41 91//41 87//41
f 88//4 89//4 92//4
f 92//3 89//3 88//3
f 88//40 92//40 90//40
f 90//39 92//39 88//39
f 90//3 91//3 87//3
f 87//4 91//4 90//4
f 89//42 91//42 93//42
f 93//41 91//41 89//41
f 92//4 89//4 93//4
f 93//3 89//3 92//3
f 90//40 92//40 94//40
f 94//39 92//39 90//39
f 90//3 94//3 91//3
f 91//4 94//4 90//4
f 91//38 95//38 93//38
f 93//37 95//37 91//37
f 92//4 93//4 96//4
f 96//3 93//3 92//3
f 92//36 97//36 94//36
f 94//35 97//35 92//35
f 94//3 98//3 91//3
f 91//4 98//4 94//4
f 91//38 98//38 95//38
f 95//37 98//37 91//37
f 96//4 93//4 95//4
f 95//3 93//3 96//3
f 92//36 96//36 97//36
f 97//35 96//35 92//35
f 94//3 97//3 98//3
f 98//4 97//4 94//4
f 95//67 98//67 99//67
f 99//68 98//68 95//68
f 96//4 95//4 100//4
f 100//3 95//3 96//3
f 100//69 97//69 96//69
f 96//70 97//70 100//70
f 97//3 99//3 98//3
f 98//4 99//4 97//4
f 95//67 99//67 101//67
f 101//68 99//68 95//68
f 100//4 95//4 101//4
f 101//3 95//3 100//3
f 100//69 102//69 97//69
f 97//70 102//70 100//70
f 97//3 102//3 99//3
f 99//4 102//4 97//4
f 101//71 99//71 103//71
f 103//72 99//72 101//72
f 100//4 101//4 104//4
f 104//3 101//3 100//3
f 104//73 102//73 100//73
f 100//74 102//74 104//74
f 102//3 103//3 99//3
f 99//4 103//4 102//4
f 101//71 103//71 105//71
f 105//72 103//72 101//72
f 104//4 101//4 105//4
f 105//3 101//3 104//3
f 104//73 106//73 102//73
f 102//74 106//74 104//74
f 102//3 106//3 103//3
f 103//4 106//4 102//4
f 105//75 103//75 107//75
f 107//76 103//76 105//76
f 104//4 105//4 108//4
f 108//3 105//3 104//3
f 104//77 109//77 106//77
f 106//78 109//78 104//78
f 106//3 110//3 103//3
f 103//4 110//4 106//4
f 107//75 103//75 110//75
f 110//76 103//76 107//76
f 108//4 105//4 107//4
f 107//3 105//3 108//3
f 108//77 109//77 104//77
f 104//78 109//78 108//78
f 106//3 109//3 110//3
f 110//4 109//4 106//4
f 107//22 110//22 111//22
f 111//21 110//21 107//21
f 108//4 107//4 112//4
f 112//3 107//3 108//3
f 112//20 109//20 108//20
f 108//19 109//19 112//19
f 109//3 111//3 110//3
f 110//4 111//4 109//4
f 107//22 111//22 113//22
f 113//21 111//21 107//21
f 112//4 107//4 113//4
f 113//3 107//3 112//3
f 112//20 114//20 109//20
f 109//19 114//19 112//19
f 109//3 114//3 111//3
f 111//4 114//4 109//4
f 113//79 111//79 115//79
f 115//80 111//80 113//80
f 112//4 113//4 116//4
f 116//3 113//3 112//3
f 116//81 114//81 112//81
f 112//82 114//82 116//82
f 114//3 115//3 111//3
f 111//4 115//4 114//4
f 113//79 115//79 117//79
f 117//80 115//80 113//80
f 116//4 113//4 117//4
f 117//3 113//3 116//3
f 116//81 118//81 114//81
f 114//82 118//82 116//82
f 114//3 118//3 115//3
f 115//4 118//4 114//4
f 117//83 115//83 119//83
f 119//84 115//84 117//84
f 116//4 117//4 120//4
f 120//3 117//3 116//3
f 116//85 121//85 118//85
f 118//86 121//86 116//86
f 118//3 122//3 115//3
f 115//4 122//4 118//4
f 119//83 115//83 122//83
f 122//84 115//84 119//84
f 120//4 117//4 119//4
f 119//3 117//3 120//3
f 120//85 121//85 116//85
f 116//86 121//86 120//86
f 118//3 121//3 122//3
f 122//4 121//4 118//4
f 119//12 122//12 123//12
f 123//11 122//11 119//11
f 120//4 119//4 124//4
f 124//3 119//3 120//3
f 124//6 121//6 120//6
f 120//5 121//5 124//5
f 121//3 123//3 122//3
f 122//4 123//4 121//4
f 119//12 123//12 125//12
f 125//11 123//11 119//11
f 124//4 119//4 125//4
f 125//3 119//3 124//3
f 124//6 126//6 121//6
f 121//5 126//5 124//5
f 121//3 126//3 123//3
f 123//4 126//4 121//4
f 125//87 123//87 127//87
f 127//88 123//88 125//88
f 124//4 125//4 127//4
f 127//3 125//3 124//3
f 124//89 128//89 126//89
f 126//90 128//90 124//90
f 126//3 128//3 123//3
f 123//4 128//4 126//4
f 127//87 123//87 128//87
f 128//88 123//88 127//88
f 127//89 128//89 124//89
f 124//90 128//90 127//90
