# SSTK version 0.8.0
# 31
mtllib original-31.mtl
o mesh66/mesh66-geometry#mesh66-geometry
v 0.470475 0.286693 0.264157
v 0.458824 0.287145 0.259765
v 0.463771 0.279798 0.316467
v 0.468395 0.290764 0.204295
v 0.463771 0.296536 0.316467
v 0.474196 0.278889 0.321928
v 0.455901 0.290860 0.201367
v 0.484620 0.277981 0.327390
v 0.458824 0.303883 0.259765
v 0.467789 0.290545 0.143673
v 0.455901 0.307598 0.201367
v 0.484620 0.294719 0.327390
v 0.454839 0.290492 0.142338
v 0.509317 0.294051 0.331228
v 0.468490 0.286030 0.083617
v 0.454839 0.307230 0.142338
v 0.509317 0.277313 0.331228
v 0.455470 0.286044 0.083745
v 0.455470 0.302782 0.083745
v 0.534015 0.277981 0.327390
v 0.509317 0.279460 0.316332
v 0.534015 0.294719 0.327390
v 0.534638 0.280046 0.312680
v 0.483996 0.280046 0.312680
v 0.456009 0.284025 0.069473
v 0.554864 0.296536 0.316467
v 0.544439 0.278889 0.321928
v 0.473265 0.280841 0.307485
v 0.481889 0.283900 0.068682
v 0.456547 0.298744 0.055201
v 0.554864 0.279798 0.316467
v 0.545369 0.280841 0.307485
v 0.482269 0.298522 0.053875
v 0.481509 0.286016 0.083489
v 0.559811 0.287145 0.259765
v 0.509317 0.283862 0.068450
v 0.559811 0.303883 0.259765
v 0.509317 0.298451 0.053457
v 0.509317 0.286011 0.083443
v 0.548160 0.286693 0.264157
v 0.562734 0.307598 0.201367
v 0.536751 0.298522 0.052791
v 0.537324 0.283900 0.067056
v 0.562734 0.290860 0.201367
v 0.537896 0.286016 0.081321
v 0.550240 0.290764 0.204295
v 0.563795 0.291213 0.142338
v 0.562626 0.284025 0.069473
v 0.563795 0.307951 0.142338
v 0.562087 0.298744 0.055201
v 0.563164 0.286044 0.083745
v 0.550846 0.290906 0.143673
v 0.563164 0.302782 0.083745
v 0.550530 0.286030 0.082533
vn -0.010363001113121127 0.991542106504518 0.1293710138961297
vn 0.010363001113121127 -0.991542106504518 -0.1293710138961297
vn 0.013239005432190094 0.9976394093484935 0.06738202764799733
vn -0.013239005432190094 -0.9976394093484935 -0.06738202764799733
vn -0.9962149462038963 0 0.0869239953060607
vn 0.9962149462038963 0 -0.0869239953060607
vn 0.01682400335103893 0.9910021973898192 0.13278402644819082
vn -0.01682400335103893 -0.9910021973898192 -0.13278402644819082
vn -0.0073430036025775944 0.9979324895992716 0.06385003132569525
vn 0.0073430036025775944 -0.9979324895992716 -0.06385003132569525
vn 0.4640920014310279 0 -0.885787002731324
vn -0.4640920014310279 0 0.885787002731324
vn 0.00850799985728256 0.9999569832262217 -0.0036939999380347747
vn -0.00850799985728256 -0.9999569832262217 0.0036939999380347747
vn 0.9987501683588307 0 -0.04998100842527408
vn -0.9987501683588307 0 0.04998100842527408
vn -0.0034779998400033155 0.9999749539986533 -0.0061639997164403895
vn 0.0034779998400033155 -0.9999749539986533 0.0061639997164403895
vn -0.9998382027732071 0 0.017988003648075214
vn 0.9998382027732071 0 -0.017988003648075214
vn -0.15356004937562964 0 0.9881393177258733
vn 0.15356004937562964 0 -0.9881393177258733
vn 0.0036229986031586095 0.9971816155381981 -0.074937971107783
vn -0.0036229986031586095 -0.9971816155381981 0.074937971107783
vn 0.0003339998862199689 0.9971306603185243 -0.07569897421246731
vn -0.0003339998862199689 -0.9971306603185243 0.07569897421246731
vn 0.9999420018678917 0 0.010770000020118582
vn -0.9999420018678917 0 -0.010770000020118582
vn -0.1535590729557791 0 -0.9881394694641854
vn 0.1535590729557791 0 0.9881394694641854
vn 0.004604001930361698 0.9897554149837476 0.14269905983073186
vn -0.004604001930361698 -0.9897554149837476 -0.14269905983073186
vn -0.00522200000924036 0.9903040017523429 0.13881900024564045
vn 0.00522200000924036 -0.9903040017523429 -0.13881900024564045
vn 0.0028789991516094265 0.9902997081760492 0.1389179590633148
vn -0.0028789991516094265 -0.9902997081760492 -0.1389179590633148
vn -0.002321000611340069 0.9897632606987284 0.1427000375864816
vn 0.002321000611340069 -0.9897632606987284 -0.1427000375864816
vn -0.9992888761096718 0 -0.03770599532526777
vn 0.9992888761096718 0 0.03770599532526777
vn 0.4640920014310275 0 0.8857870027313244
vn -0.4640920014310275 0 -0.8857870027313244
vn -0.013780003725886173 0.9902732677535881 0.13845203743515175
vn 0.013780003725886173 -0.9902732677535881 -0.13845203743515175
vn 0.006130000750076102 0.9903041211751051 0.13878101698145467
vn -0.006130000750076102 -0.9903041211751051 -0.13878101698145467
vn 0.0005009997910836628 0.9901455871103664 -0.14004094160307934
vn -0.0005009997910836628 -0.9901455871103664 0.14004094160307934
vn -0.9992889514655361 -9.999999514226316e-7 -0.037703998168754776
vn 0.9992889514655361 9.999999514226316e-7 0.037703998168754776
vn -0.008833996102053113 0.9910355627116006 0.1333059411795665
vn 0.008833996102053113 -0.9910355627116006 -0.1333059411795665
vn 0.016811997811985842 0.9910018710250789 0.13278798271817652
vn -0.016811997811985842 -0.9910018710250789 -0.13278798271817652
vn 0.02489798463249541 0.7109965611595489 0.7027545662466634
vn -0.02489798463249541 -0.7109965611595489 -0.7027545662466634
vn -0.00031900006536516223 0.9899452028462276 -0.14145102898423803
vn 0.00031900006536516223 -0.9899452028462276 0.14145102898423803
vn 0.042990992732674066 0.6946708825707597 0.7180418786200571
vn -0.042990992732674066 -0.6946708825707597 -0.7180418786200571
vn -0.9962149462038962 0 -0.08692399530606114
vn 0.9962149462038962 0 0.08692399530606114
vn -0.006940003408291875 -0.7114303493892217 -0.7027223451126504
vn 0.006940003408291875 0.7114303493892217 0.7027223451126504
vn 0.00019000001835849906 0.9899470956521578 -0.14143801366623635
vn -0.00019000001835849906 -0.9899470956521578 0.14143801366623635
vn -0.020053002534910266 0.9917331253654881 0.12674101602139642
vn 0.020053002534910266 -0.9917331253654881 -0.12674101602139642
vn -0.012670001532537984 -0.7166400866833568 -0.6973280843474157
vn 0.012670001532537984 0.7166400866833568 0.6973280843474157
vn -0.00005399998502758371 0.989883725538442 -0.14188096066116784
vn 0.00005399998502758371 -0.989883725538442 0.14188096066116784
vn 0.012377005087327607 0.9908174072562579 0.13463905534076984
vn -0.012377005087327607 -0.9908174072562579 -0.13463905534076984
vn 0.9987501683588307 0 0.049981008425274524
vn -0.9987501683588307 0 -0.049981008425274524
vn 0.01506399162585391 0.7166166016293586 0.6973046123649873
vn -0.01506399162585391 -0.7166166016293586 -0.6973046123649873
vn -0.008419996890592522 0.9898486344603502 -0.1418759476068536
vn 0.008419996890592522 -0.9898486344603502 0.1418759476068536
vn -0.015002995475892419 0.9979176990809568 0.06273098108366391
vn 0.015002995475892419 -0.9979176990809568 -0.06273098108366391
vn 0.03461900437063211 0.6985880881964022 0.7146860902287675
vn -0.03461900437063211 -0.6985880881964022 -0.7146860902287675
vn -0.011037005069595561 0.9891844543592322 -0.1462610671816724
vn 0.011037005069595561 -0.9891844543592322 0.1462610671816724
vn 0.008349002603340462 0.9976413110790749 0.06813302124486748
vn -0.008349002603340462 -0.9976413110790749 -0.06813302124486748
vn -0.9998382027732071 0 -0.01798800364807566
vn 0.9998382027732071 0 0.01798800364807566
vn 0.07175601177595198 -0.6950711140688248 -0.715351117396997
vn -0.07175601177595198 0.6950711140688248 0.715351117396997
vn 0.009163003879809119 0.9890854187996259 -0.14705806226748477
vn -0.009163003879809119 -0.9890854187996259 0.14705806226748477
vn -0.006264000621056902 0.9999630991433465 0.005879000582885521
vn 0.006264000621056902 -0.9999630991433465 -0.005879000582885521
vn 0.0742800517639664 -0.6928004827958509 -0.7172934998644407
vn -0.0742800517639664 0.6928004827958509 0.7172934998644407
vn 0.012375004221869565 0.9900023377502452 -0.1405070479355329
vn -0.012375004221869565 -0.9900023377502452 0.1405070479355329
vn -0.023513007505129822 0.9997213191015987 0.0021030006712581596
vn 0.023513007505129822 -0.9997213191015987 -0.0021030006712581596
vn 0.9999420018678917 0 -0.010770000020118138
vn -0.9999420018678917 0 0.010770000020118138
vn -0.9992889891427252 0 0.037702999590356695
vn 0.9992889891427252 0 -0.037702999590356695
vn -0.03265299730003803 0.9956299176748502 -0.08749199276559341
vn 0.03265299730003803 -0.9956299176748502 0.08749199276559341
vn 0.006518997906169935 0.996810679835426 -0.07953597445392378
vn -0.006518997906169935 -0.996810679835426 0.07953597445392378
usemtl material_0_0
f 1//1 2//1 3//1
f 3//2 2//2 1//2
f 4//3 2//3 1//3
f 1//4 2//4 4//4
f 2//5 3//5 5//5
f 5//6 3//6 2//6
f 1//7 3//7 6//7
f 6//8 3//8 1//8
f 4//9 7//9 2//9
f 2//10 7//10 4//10
f 5//11 8//11 3//11
f 3//12 8//12 5//12
f 2//5 5//5 9//5
f 9//6 5//6 2//6
f 10//13 7//13 4//13
f 4//14 7//14 10//14
f 2//15 7//15 11//15
f 11//16 7//16 2//16
f 12//11 8//11 5//11
f 5//12 8//12 12//12
f 9//15 2//15 11//15
f 11//16 2//16 9//16
f 10//17 13//17 7//17
f 7//18 13//18 10//18
f 13//19 7//19 11//19
f 11//20 7//20 13//20
f 8//21 14//21 12//21
f 12//22 14//22 8//22
f 15//23 13//23 10//23
f 10//24 13//24 15//24
f 16//19 13//19 11//19
f 11//20 13//20 16//20
f 17//21 14//21 8//21
f 8//22 14//22 17//22
f 15//25 18//25 13//25
f 13//26 18//26 15//26
f 13//27 19//27 16//27
f 16//28 19//28 13//28
f 14//29 20//29 17//29
f 17//30 20//30 14//30
f 21//31 8//31 17//31
f 17//32 8//32 21//32
f 13//27 18//27 19//27
f 19//28 18//28 13//28
f 22//29 20//29 14//29
f 14//30 20//30 22//30
f 20//33 23//33 17//33
f 17//34 23//34 20//34
f 21//35 24//35 8//35
f 8//36 24//36 21//36
f 23//37 21//37 17//37
f 17//38 21//38 23//38
f 25//39 18//39 19//39
f 19//40 18//40 25//40
f 20//41 26//41 22//41
f 22//42 26//42 20//42
f 27//43 23//43 20//43
f 20//44 23//44 27//44
f 24//45 28//45 8//45
f 8//46 28//46 24//46
f 29//47 25//47 18//47
f 18//48 25//48 29//48
f 30//49 25//49 19//49
f 19//50 25//50 30//50
f 31//41 26//41 20//41
f 20//42 26//42 31//42
f 32//51 23//51 27//51
f 27//52 23//52 32//52
f 28//53 6//53 8//53
f 8//54 6//54 28//54
f 29//55 33//55 25//55
f 25//56 33//56 29//56
f 34//57 29//57 18//57
f 18//58 29//58 34//58
f 33//59 30//59 25//59
f 25//60 30//60 33//60
f 35//61 31//61 26//61
f 26//62 31//62 35//62
f 33//63 36//63 29//63
f 29//64 36//64 33//64
f 36//65 29//65 34//65
f 34//66 29//66 36//66
f 31//67 35//67 27//67
f 27//68 35//68 31//68
f 35//61 26//61 37//61
f 37//62 26//62 35//62
f 33//69 38//69 36//69
f 36//70 38//70 33//70
f 39//71 36//71 34//71
f 34//72 36//72 39//72
f 35//73 40//73 27//73
f 27//74 40//74 35//74
f 37//75 35//75 41//75
f 41//76 35//76 37//76
f 42//77 38//77 36//77
f 36//78 38//78 42//78
f 43//79 36//79 39//79
f 39//80 36//80 43//80
f 35//81 44//81 40//81
f 40//82 44//82 35//82
f 35//75 44//75 41//75
f 41//76 44//76 35//76
f 43//83 42//83 36//83
f 36//84 42//84 43//84
f 45//85 43//85 39//85
f 39//86 43//86 45//86
f 44//87 46//87 40//87
f 40//88 46//88 44//88
f 47//89 44//89 41//89
f 41//90 44//90 47//90
f 48//91 43//91 42//91
f 42//92 43//92 48//92
f 48//93 43//93 45//93
f 45//94 43//94 48//94
f 44//95 47//95 46//95
f 46//96 47//96 44//96
f 47//89 41//89 49//89
f 49//90 41//90 47//90
f 50//97 48//97 42//97
f 42//98 48//98 50//98
f 48//99 45//99 51//99
f 51//100 45//100 48//100
f 47//101 52//101 46//101
f 46//102 52//102 47//102
f 47//103 53//103 49//103
f 49//104 53//104 47//104
f 50//105 48//105 53//105
f 53//106 48//106 50//106
f 48//105 51//105 53//105
f 53//106 51//106 48//106
f 47//107 51//107 52//107
f 52//108 51//108 47//108
f 47//103 51//103 53//103
f 53//104 51//104 47//104
f 51//109 54//109 52//109
f 52//110 54//110 51//110
