# SSTK version 0.8.0
# 10
mtllib original-10.mtl
o mesh25/mesh25-geometry#mesh25-geometry
v -0.314693 -0.697900 -0.346574
v -0.314933 -0.703286 -0.346462
v -0.325651 -0.703286 -0.369447
v -0.314933 -0.692515 -0.346462
v -0.315650 -0.708620 -0.346128
v -0.325411 -0.697900 -0.369558
v -0.326368 -0.708620 -0.369112
v -0.325651 -0.692515 -0.369447
v -0.315650 -0.687181 -0.346128
v -0.327555 -0.713851 -0.368559
v -0.326368 -0.687181 -0.369112
v -0.316837 -0.713851 -0.345574
v -0.327555 -0.681950 -0.368559
v -0.316837 -0.681950 -0.345574
v -0.318484 -0.718928 -0.344806
v -0.329202 -0.676873 -0.367791
v -0.329202 -0.718928 -0.367791
v -0.318484 -0.676873 -0.344806
v -0.320573 -0.723803 -0.343832
v -0.331291 -0.671998 -0.366816
v -0.331291 -0.723803 -0.366816
v -0.320573 -0.671998 -0.343832
v -0.333804 -0.728428 -0.365645
v -0.333804 -0.667373 -0.365645
v -0.323086 -0.728428 -0.342660
v -0.323086 -0.667373 -0.342660
v -0.325997 -0.732759 -0.341303
v -0.336715 -0.663042 -0.364287
v -0.336715 -0.732759 -0.364287
v -0.325997 -0.663042 -0.341303
v -0.329279 -0.736755 -0.339772
v -0.339997 -0.659046 -0.362757
v -0.339997 -0.736755 -0.362757
v -0.329279 -0.659046 -0.339772
v -0.343618 -0.740376 -0.361068
v -0.343618 -0.655425 -0.361068
v -0.332900 -0.655425 -0.338084
v -0.332900 -0.740376 -0.338084
v -0.336826 -0.743588 -0.336253
v -0.347543 -0.652213 -0.359238
v -0.347543 -0.743588 -0.359238
v -0.336826 -0.652213 -0.336253
v -0.341017 -0.746360 -0.334299
v -0.351735 -0.649441 -0.357283
v -0.351735 -0.746360 -0.357283
v -0.341017 -0.649441 -0.334299
v -0.356153 -0.748666 -0.355223
v -0.356153 -0.647135 -0.355223
v -0.345435 -0.647135 -0.332239
v -0.345435 -0.748666 -0.332239
v -0.350037 -0.750482 -0.330093
v -0.360755 -0.645319 -0.353077
v -0.360755 -0.750482 -0.353077
v -0.350037 -0.645319 -0.330093
v -0.354777 -0.751793 -0.327882
v -0.365495 -0.644008 -0.350867
v -0.365495 -0.751793 -0.350867
v -0.354777 -0.644008 -0.327882
v -0.370329 -0.752584 -0.348613
v -0.370329 -0.643217 -0.348613
v -0.359612 -0.643217 -0.325628
v -0.359612 -0.752584 -0.325628
v -0.364493 -0.752848 -0.323352
v -0.375211 -0.642953 -0.346336
v -0.375211 -0.752848 -0.346336
v -0.364493 -0.642953 -0.323352
v -0.369374 -0.752584 -0.321076
v -0.380092 -0.643217 -0.344060
v -0.380092 -0.752584 -0.344060
v -0.369374 -0.643217 -0.321076
v -0.384926 -0.751793 -0.341806
v -0.384926 -0.644008 -0.341806
v -0.374208 -0.644008 -0.318822
v -0.374208 -0.751793 -0.318822
v -0.378949 -0.750482 -0.316611
v -0.389667 -0.645319 -0.339595
v -0.389667 -0.750482 -0.339595
v -0.378949 -0.645319 -0.316611
v -0.383550 -0.748666 -0.314465
v -0.394268 -0.647135 -0.337450
v -0.394268 -0.748666 -0.337450
v -0.383550 -0.647135 -0.314465
v -0.398686 -0.746360 -0.335390
v -0.398686 -0.649441 -0.335390
v -0.387968 -0.649441 -0.312405
v -0.387968 -0.746360 -0.312405
v -0.392160 -0.743588 -0.310451
v -0.402878 -0.652213 -0.333435
v -0.402878 -0.743588 -0.333435
v -0.392160 -0.652213 -0.310451
v -0.396085 -0.740376 -0.308620
v -0.406803 -0.655425 -0.331605
v -0.406803 -0.740376 -0.331605
v -0.396085 -0.655425 -0.308620
v -0.410424 -0.736755 -0.329916
v -0.410424 -0.659046 -0.329916
v -0.399707 -0.659046 -0.306932
v -0.399707 -0.736755 -0.306932
v -0.402989 -0.732759 -0.305401
v -0.413706 -0.663042 -0.328386
v -0.413706 -0.732759 -0.328386
v -0.402989 -0.663042 -0.305401
v -0.405900 -0.728428 -0.304044
v -0.416618 -0.667373 -0.327028
v -0.416618 -0.728428 -0.327028
v -0.405900 -0.667373 -0.304044
v -0.419130 -0.723803 -0.325857
v -0.419130 -0.671998 -0.325857
v -0.408412 -0.671998 -0.302872
v -0.408412 -0.723803 -0.302872
v -0.421220 -0.676873 -0.324882
v -0.410502 -0.718928 -0.301898
v -0.421220 -0.718928 -0.324882
v -0.410502 -0.676873 -0.301898
v -0.422866 -0.681950 -0.324114
v -0.412148 -0.713851 -0.301130
v -0.422866 -0.713851 -0.324114
v -0.412148 -0.681950 -0.301130
v -0.424054 -0.687181 -0.323561
v -0.424054 -0.708620 -0.323561
v -0.413336 -0.687181 -0.300576
v -0.413336 -0.708620 -0.300576
v -0.424771 -0.692515 -0.323226
v -0.414053 -0.703286 -0.300242
v -0.424771 -0.703286 -0.323226
v -0.414053 -0.692515 -0.300242
v -0.425010 -0.697900 -0.323114
v -0.414293 -0.697900 -0.300130
vn 0.9052160853450012 -0.04906802166946657 -0.42210918976269174
vn -0.9052160853450012 0.04906802166946657 0.42210918976269174
vn 0.42261825917587076 0 0.9063077882326493
vn -0.42261825917587076 0 -0.9063077882326493
vn 0.8964982957972233 -0.14673106298279176 -0.418044017764415
vn -0.8964982957972233 0.14673106298279176 0.418044017764415
vn 0.9052160853450012 0.04906802166946676 -0.42210918976269174
vn -0.9052160853450012 -0.04906802166946676 0.42210918976269174
vn 0.8791469043802685 -0.24298007074473296 -0.40995293112682546
vn -0.8791469043802685 0.24298007074473296 0.40995293112682546
vn 0.8964984468535414 0.14672993937025872 -0.41804408820313244
vn -0.8964984468535414 -0.14672993937025872 0.41804408820313244
vn 0.8791469043802685 0.24298007074473313 -0.4099529311268253
vn -0.8791469043802685 -0.24298007074473313 0.4099529311268253
vn 0.8533286701994457 -0.3368900046190093 -0.3979136908972211
vn -0.8533286701994457 0.3368900046190093 0.3979136908972211
vn 0.8533286701994458 0.33689000461900953 -0.39791369089722095
vn -0.8533286701994458 -0.33689000461900953 0.39791369089722095
vn 0.8192925207090344 -0.42755513105446596 -0.3820423738529998
vn -0.8192925207090344 0.42755513105446596 0.3820423738529998
vn 0.8192925207090341 0.427555131054466 -0.38204237385299944
vn -0.8192925207090341 -0.427555131054466 0.38204237385299944
vn 0.7773665098661854 -0.5141020254542993 -0.3624919540655389
vn -0.7773665098661854 0.5141020254542993 0.3624919540655389
vn 0.7773661102203879 0.514102761152876 -0.36249176770764413
vn -0.7773661102203879 -0.514102761152876 0.36249176770764413
vn 0.7279532019551123 -0.5956993630985673 -0.33945015034207987
vn -0.7279532019551123 0.5956993630985673 0.33945015034207987
vn 0.7279535235652457 0.5956988846283663 -0.33945030031134665
vn -0.7279535235652457 -0.5956988846283663 0.33945030031134665
vn 0.6715297034184151 -0.6715590427310325 -0.3131394410689184
vn -0.6715297034184151 0.6715590427310325 0.3131394410689184
vn 0.6715297034184151 0.6715590427310327 -0.3131394410689181
vn -0.6715297034184151 -0.6715590427310327 0.3131394410689181
vn 0.6086387384103061 -0.740951497995867 -0.2838129026735595
vn -0.6086387384103061 0.740951497995867 0.2838129026735595
vn 0.6086391893819827 0.740951047004794 -0.283813112965104
vn -0.6086391893819827 -0.740951047004794 0.283813112965104
vn 0.5398875555603332 -0.8032070106565441 -0.2517536998402733
vn -0.5398875555603332 0.8032070106565441 0.2517536998402733
vn 0.5398865372217665 0.8032078439845154 -0.25175322498120417
vn -0.5398865372217665 -0.8032078439845154 0.25175322498120417
vn 0.46593533504785006 -0.8577286007191981 -0.21726921333252525
vn -0.46593533504785006 0.8577286007191981 0.21726921333252525
vn 0.46593533504785006 0.8577286007191981 -0.21726921333252489
vn -0.46593533504785006 -0.8577286007191981 0.21726921333252489
vn 0.38749654393848076 -0.903989275973031 -0.18069260461205394
vn -0.38749654393848076 0.903989275973031 0.18069260461205394
vn 0.3874965439384809 0.9039892759730312 -0.18069260461205358
vn -0.3874965439384809 -0.9039892759730312 0.18069260461205358
vn 0.3053260339082861 -0.9415440114899642 -0.14237586679357686
vn -0.3053260339082861 0.9415440114899642 0.14237586679357686
vn 0.3053260339082861 0.9415440114899642 -0.14237586679357647
vn -0.3053260339082861 -0.9415440114899642 0.14237586679357647
vn 0.2202138768925624 -0.9700315164586224 -0.10268741646829395
vn -0.2202138768925624 0.9700315164586224 0.10268741646829395
vn 0.22021472969311617 0.9700312807606852 -0.10268781413571967
vn -0.22021472969311617 -0.9700312807606852 0.10268781413571967
vn 0.132984391444635 -0.9891762776044333 -0.06201163968754005
vn -0.132984391444635 0.9891762776044333 0.06201163968754005
vn 0.1329824863106895 0.9891765894200696 -0.06201075130899759
vn -0.1329824863106895 -0.9891765894200696 0.06201075130899759
vn 0.04446887735138992 -0.9987955395740346 -0.020736177905298612
vn -0.04446887735138992 0.9987955395740346 0.020736177905298612
vn 0.04447073001918281 0.99879543915067 -0.020737041818471625
vn -0.04447073001918281 -0.99879543915067 0.020737041818471625
vn -0.04446887735138992 -0.9987955395740346 0.020736177905298164
vn 0.04446887735138992 0.9987955395740346 -0.020736177905298164
vn -0.04447073001918281 0.99879543915067 0.02073704181847207
vn 0.04447073001918281 -0.99879543915067 -0.02073704181847207
vn -0.132984391444635 -0.9891762776044333 0.06201163968753962
vn 0.132984391444635 0.9891762776044333 -0.06201163968753962
vn -0.13298337310540068 0.989176444277847 0.06201116482815998
vn 0.13298337310540068 -0.989176444277847 -0.06201116482815998
vn -0.22021366327824843 -0.9700315754974249 0.10268731685830373
vn 0.22021366327824843 0.9700315754974249 -0.10268731685830373
vn -0.22021472969311617 0.9700312807606852 0.10268781413572013
vn 0.22021472969311617 -0.9700312807606852 -0.10268781413572013
vn -0.4659346682785008 0.8577290416795437 0.21726890241287375
vn 0.4659346682785008 -0.8577290416795437 -0.21726890241287375
vn -0.5398875555603332 -0.8032070106565442 0.2517536998402729
vn 0.5398875555603332 0.8032070106565442 -0.2517536998402729
vn -0.5398869708630364 0.8032074891269971 0.25175342719144805
vn 0.5398869708630364 -0.8032074891269971 -0.25175342719144805
vn -0.6086382408388997 -0.740951995587969 0.28381267065220356
vn 0.6086382408388997 0.740951995587969 -0.28381267065220356
vn -0.6086391893819825 0.7409510470047936 0.28381311296510425
vn 0.6086391893819825 -0.7409510470047936 -0.28381311296510425
vn -0.6715305631267364 -0.6715579961295426 0.3131398419574892
vn 0.6715305631267364 0.6715579961295426 -0.3131398419574892
vn -0.6715305631267366 0.6715579961295426 0.3131398419574895
vn 0.6715305631267366 -0.6715579961295426 -0.3131398419574895
vn -0.7279527683136128 -0.5957000082406532 0.339449948131729
vn 0.7279527683136128 0.5957000082406532 -0.339449948131729
vn -0.7279527683136128 0.595700008240653 0.3394499481317293
vn 0.7279527683136128 -0.595700008240653 -0.3394499481317293
vn -0.7773661102203879 0.5141027611528759 0.3624917677076444
vn 0.7773661102203879 -0.5141027611528759 -0.3624917677076444
vn -0.853328382721261 0.3368908911236983 0.397913556843943
vn 0.853328382721261 -0.3368908911236983 -0.397913556843943
vn -0.8964984468535414 0.14672993937025852 0.41804408820313244
vn 0.8964984468535414 -0.14672993937025852 -0.41804408820313244
vn -0.8964982957972233 -0.14673106298279195 0.418044017764415
vn 0.8964982957972233 0.14673106298279195 -0.418044017764415
vn -0.9052161297617339 0.04906702407662333 0.42210921047455424
vn 0.9052161297617339 -0.04906702407662333 -0.42210921047455424
vn -0.9052161297617339 -0.04906702407662353 0.42210921047455424
vn 0.9052161297617339 0.04906702407662353 -0.42210921047455424
usemtl material_0_0
f 1//1 2//1 3//1
f 3//2 2//2 1//2
f 1//3 4//3 2//3
f 2//4 4//4 1//4
f 2//5 5//5 3//5
f 3//6 5//6 2//6
f 1//1 3//1 6//1
f 6//2 3//2 1//2
f 4//7 1//7 6//7
f 6//8 1//8 4//8
f 4//3 5//3 2//3
f 2//4 5//4 4//4
f 3//5 5//5 7//5
f 7//6 5//6 3//6
f 6//4 3//4 8//4
f 8//3 3//3 6//3
f 4//7 6//7 8//7
f 8//8 6//8 4//8
f 4//3 9//3 5//3
f 5//4 9//4 4//4
f 5//9 10//9 7//9
f 7//10 10//10 5//10
f 3//4 7//4 11//4
f 11//3 7//3 3//3
f 3//4 11//4 8//4
f 8//3 11//3 3//3
f 11//11 4//11 8//11
f 8//12 4//12 11//12
f 9//11 4//11 11//11
f 11//12 4//12 9//12
f 9//3 12//3 5//3
f 5//4 12//4 9//4
f 5//9 12//9 10//9
f 10//10 12//10 5//10
f 7//4 10//4 13//4
f 13//3 10//3 7//3
f 7//4 13//4 11//4
f 11//3 13//3 7//3
f 14//13 9//13 11//13
f 11//14 9//14 14//14
f 9//3 14//3 12//3
f 12//4 14//4 9//4
f 12//15 15//15 10//15
f 10//16 15//16 12//16
f 10//4 16//4 13//4
f 13//3 16//3 10//3
f 14//13 11//13 13//13
f 13//14 11//14 14//14
f 14//3 15//3 12//3
f 12//4 15//4 14//4
f 10//15 15//15 17//15
f 17//16 15//16 10//16
f 10//4 17//4 16//4
f 16//3 17//3 10//3
f 16//17 14//17 13//17
f 13//18 14//18 16//18
f 14//3 18//3 15//3
f 15//4 18//4 14//4
f 15//19 19//19 17//19
f 17//20 19//20 15//20
f 17//4 20//4 16//4
f 16//3 20//3 17//3
f 18//17 14//17 16//17
f 16//18 14//18 18//18
f 18//3 19//3 15//3
f 15//4 19//4 18//4
f 17//19 19//19 21//19
f 21//20 19//20 17//20
f 17//4 21//4 20//4
f 20//3 21//3 17//3
f 20//21 18//21 16//21
f 16//22 18//22 20//22
f 18//3 22//3 19//3
f 19//4 22//4 18//4
f 19//23 23//23 21//23
f 21//24 23//24 19//24
f 21//4 24//4 20//4
f 20//3 24//3 21//3
f 22//21 18//21 20//21
f 20//22 18//22 22//22
f 22//3 25//3 19//3
f 19//4 25//4 22//4
f 19//23 25//23 23//23
f 23//24 25//24 19//24
f 21//4 23//4 24//4
f 24//3 23//3 21//3
f 26//25 20//25 24//25
f 24//26 20//26 26//26
f 26//25 22//25 20//25
f 20//26 22//26 26//26
f 22//3 26//3 25//3
f 25//4 26//4 22//4
f 25//27 27//27 23//27
f 23//28 27//28 25//28
f 23//4 28//4 24//4
f 24//3 28//3 23//3
f 28//29 26//29 24//29
f 24//30 26//30 28//30
f 26//3 27//3 25//3
f 25//4 27//4 26//4
f 23//27 27//27 29//27
f 29//28 27//28 23//28
f 23//4 29//4 28//4
f 28//3 29//3 23//3
f 30//29 26//29 28//29
f 28//30 26//30 30//30
f 26//3 30//3 27//3
f 27//4 30//4 26//4
f 27//31 31//31 29//31
f 29//32 31//32 27//32
f 29//4 32//4 28//4
f 28//3 32//3 29//3
f 32//33 30//33 28//33
f 28//34 30//34 32//34
f 30//3 31//3 27//3
f 27//4 31//4 30//4
f 29//31 31//31 33//31
f 33//32 31//32 29//32
f 29//4 33//4 32//4
f 32//3 33//3 29//3
f 34//33 30//33 32//33
f 32//34 30//34 34//34
f 30//3 34//3 31//3
f 31//4 34//4 30//4
f 31//35 35//35 33//35
f 33//36 35//36 31//36
f 33//4 36//4 32//4
f 32//3 36//3 33//3
f 34//37 32//37 37//37
f 37//38 32//38 34//38
f 34//3 38//3 31//3
f 31//4 38//4 34//4
f 38//35 35//35 31//35
f 31//36 35//36 38//36
f 33//4 35//4 36//4
f 36//3 35//3 33//3
f 37//37 32//37 36//37
f 36//38 32//38 37//38
f 34//3 37//3 38//3
f 38//4 37//4 34//4
f 39//39 35//39 38//39
f 38//40 35//40 39//40
f 35//4 40//4 36//4
f 36//3 40//3 35//3
f 37//41 36//41 40//41
f 40//42 36//42 37//42
f 37//3 39//3 38//3
f 38//4 39//4 37//4
f 39//39 41//39 35//39
f 35//40 41//40 39//40
f 35//4 41//4 40//4
f 40//3 41//3 35//3
f 37//41 40//41 42//41
f 42//42 40//42 37//42
f 37//3 42//3 39//3
f 39//4 42//4 37//4
f 43//43 41//43 39//43
f 39//44 41//44 43//44
f 41//4 44//4 40//4
f 40//3 44//3 41//3
f 42//45 40//45 44//45
f 44//46 40//46 42//46
f 42//3 43//3 39//3
f 39//4 43//4 42//4
f 43//43 45//43 41//43
f 41//44 45//44 43//44
f 41//4 45//4 44//4
f 44//3 45//3 41//3
f 42//45 44//45 46//45
f 46//46 44//46 42//46
f 42//3 46//3 43//3
f 43//4 46//4 42//4
f 43//47 47//47 45//47
f 45//48 47//48 43//48
f 45//4 48//4 44//4
f 44//3 48//3 45//3
f 46//49 44//49 49//49
f 49//50 44//50 46//50
f 46//3 50//3 43//3
f 43//4 50//4 46//4
f 50//47 47//47 43//47
f 43//48 47//48 50//48
f 45//4 47//4 48//4
f 48//3 47//3 45//3
f 49//49 44//49 48//49
f 48//50 44//50 49//50
f 46//3 49//3 50//3
f 50//4 49//4 46//4
f 51//51 47//51 50//51
f 50//52 47//52 51//52
f 47//4 52//4 48//4
f 48//3 52//3 47//3
f 49//53 48//53 52//53
f 52//54 48//54 49//54
f 49//3 51//3 50//3
f 50//4 51//4 49//4
f 51//51 53//51 47//51
f 47//52 53//52 51//52
f 47//4 53//4 52//4
f 52//3 53//3 47//3
f 49//53 52//53 54//53
f 54//54 52//54 49//54
f 49//3 54//3 51//3
f 51//4 54//4 49//4
f 55//55 53//55 51//55
f 51//56 53//56 55//56
f 53//4 56//4 52//4
f 52//3 56//3 53//3
f 54//57 52//57 56//57
f 56//58 52//58 54//58
f 54//3 55//3 51//3
f 51//4 55//4 54//4
f 55//55 57//55 53//55
f 53//56 57//56 55//56
f 53//4 57//4 56//4
f 56//3 57//3 53//3
f 54//57 56//57 58//57
f 58//58 56//58 54//58
f 54//3 58//3 55//3
f 55//4 58//4 54//4
f 55//59 59//59 57//59
f 57//60 59//60 55//60
f 57//4 60//4 56//4
f 56//3 60//3 57//3
f 58//61 56//61 61//61
f 61//62 56//62 58//62
f 58//3 62//3 55//3
f 55//4 62//4 58//4
f 62//59 59//59 55//59
f 55//60 59//60 62//60
f 57//4 59//4 60//4
f 60//3 59//3 57//3
f 61//61 56//61 60//61
f 60//62 56//62 61//62
f 58//3 61//3 62//3
f 62//4 61//4 58//4
f 63//63 59//63 62//63
f 62//64 59//64 63//64
f 59//4 64//4 60//4
f 60//3 64//3 59//3
f 61//65 60//65 64//65
f 64//66 60//66 61//66
f 61//3 63//3 62//3
f 62//4 63//4 61//4
f 63//63 65//63 59//63
f 59//64 65//64 63//64
f 59//4 65//4 64//4
f 64//3 65//3 59//3
f 61//65 64//65 66//65
f 66//66 64//66 61//66
f 61//3 66//3 63//3
f 63//4 66//4 61//4
f 67//67 65//67 63//67
f 63//68 65//68 67//68
f 65//4 68//4 64//4
f 64//3 68//3 65//3
f 66//69 64//69 68//69
f 68//70 64//70 66//70
f 66//3 67//3 63//3
f 63//4 67//4 66//4
f 67//67 69//67 65//67
f 65//68 69//68 67//68
f 65//4 69//4 68//4
f 68//3 69//3 65//3
f 66//69 68//69 70//69
f 70//70 68//70 66//70
f 66//3 70//3 67//3
f 67//4 70//4 66//4
f 67//71 71//71 69//71
f 69//72 71//72 67//72
f 69//4 72//4 68//4
f 68//3 72//3 69//3
f 70//73 68//73 73//73
f 73//74 68//74 70//74
f 70//3 74//3 67//3
f 67//4 74//4 70//4
f 74//71 71//71 67//71
f 67//72 71//72 74//72
f 69//4 71//4 72//4
f 72//3 71//3 69//3
f 73//73 68//73 72//73
f 72//74 68//74 73//74
f 70//3 73//3 74//3
f 74//4 73//4 70//4
f 75//75 71//75 74//75
f 74//76 71//76 75//76
f 71//4 76//4 72//4
f 72//3 76//3 71//3
f 73//77 72//77 76//77
f 76//78 72//78 73//78
f 73//3 75//3 74//3
f 74//4 75//4 73//4
f 75//75 77//75 71//75
f 71//76 77//76 75//76
f 71//4 77//4 76//4
f 76//3 77//3 71//3
f 73//77 76//77 78//77
f 78//78 76//78 73//78
f 73//3 78//3 75//3
f 75//4 78//4 73//4
f 79//54 77//54 75//54
f 75//53 77//53 79//53
f 77//4 80//4 76//4
f 76//3 80//3 77//3
f 78//52 76//52 80//52
f 80//51 76//51 78//51
f 78//3 79//3 75//3
f 75//4 79//4 78//4
f 79//54 81//54 77//54
f 77//53 81//53 79//53
f 77//4 81//4 80//4
f 80//3 81//3 77//3
f 78//52 80//52 82//52
f 82//51 80//51 78//51
f 78//3 82//3 79//3
f 79//4 82//4 78//4
f 79//50 83//50 81//50
f 81//49 83//49 79//49
f 81//4 84//4 80//4
f 80//3 84//3 81//3
f 82//48 80//48 85//48
f 85//47 80//47 82//47
f 82//3 86//3 79//3
f 79//4 86//4 82//4
f 86//50 83//50 79//50
f 79//49 83//49 86//49
f 81//4 83//4 84//4
f 84//3 83//3 81//3
f 85//48 80//48 84//48
f 84//47 80//47 85//47
f 82//3 85//3 86//3
f 86//4 85//4 82//4
f 87//46 83//46 86//46
f 86//45 83//45 87//45
f 83//4 88//4 84//4
f 84//3 88//3 83//3
f 85//79 84//79 88//79
f 88//80 84//80 85//80
f 85//3 87//3 86//3
f 86//4 87//4 85//4
f 87//46 89//46 83//46
f 83//45 89//45 87//45
f 83//4 89//4 88//4
f 88//3 89//3 83//3
f 85//79 88//79 90//79
f 90//80 88//80 85//80
f 85//3 90//3 87//3
f 87//4 90//4 85//4
f 91//81 89//81 87//81
f 87//82 89//82 91//82
f 89//4 92//4 88//4
f 88//3 92//3 89//3
f 90//83 88//83 92//83
f 92//84 88//84 90//84
f 90//3 91//3 87//3
f 87//4 91//4 90//4
f 91//81 93//81 89//81
f 89//82 93//82 91//82
f 89//4 93//4 92//4
f 92//3 93//3 89//3
f 90//83 92//83 94//83
f 94//84 92//84 90//84
f 90//3 94//3 91//3
f 91//4 94//4 90//4
f 91//85 95//85 93//85
f 93//86 95//86 91//86
f 93//4 96//4 92//4
f 92//3 96//3 93//3
f 94//87 92//87 97//87
f 97//88 92//88 94//88
f 94//3 98//3 91//3
f 91//4 98//4 94//4
f 98//85 95//85 91//85
f 91//86 95//86 98//86
f 93//4 95//4 96//4
f 96//3 95//3 93//3
f 97//87 92//87 96//87
f 96//88 92//88 97//88
f 94//3 97//3 98//3
f 98//4 97//4 94//4
f 99//89 95//89 98//89
f 98//90 95//90 99//90
f 95//4 100//4 96//4
f 96//3 100//3 95//3
f 96//91 100//91 97//91
f 97//92 100//92 96//92
f 97//3 99//3 98//3
f 98//4 99//4 97//4
f 101//89 95//89 99//89
f 99//90 95//90 101//90
f 95//4 101//4 100//4
f 100//3 101//3 95//3
f 97//91 100//91 102//91
f 102//92 100//92 97//92
f 97//3 102//3 99//3
f 99//4 102//4 97//4
f 103//93 101//93 99//93
f 99//94 101//94 103//94
f 101//4 104//4 100//4
f 100//3 104//3 101//3
f 100//95 104//95 102//95
f 102//96 104//96 100//96
f 102//3 103//3 99//3
f 99//4 103//4 102//4
f 105//93 101//93 103//93
f 103//94 101//94 105//94
f 101//4 105//4 104//4
f 104//3 105//3 101//3
f 102//95 104//95 106//95
f 106//96 104//96 102//96
f 102//3 106//3 103//3
f 103//4 106//4 102//4
f 107//26 105//26 103//26
f 103//25 105//25 107//25
f 105//4 108//4 104//4
f 104//3 108//3 105//3
f 104//97 109//97 106//97
f 106//98 109//98 104//98
f 106//3 110//3 103//3
f 103//4 110//4 106//4
f 105//4 107//4 108//4
f 108//3 107//3 105//3
f 107//26 103//26 110//26
f 110//25 103//25 107//25
f 104//97 108//97 109//97
f 109//98 108//98 104//98
f 106//3 109//3 110//3
f 110//4 109//4 106//4
f 107//4 111//4 108//4
f 108//3 111//3 107//3
f 112//22 107//22 110//22
f 110//21 107//21 112//21
f 108//20 111//20 109//20
f 109//19 111//19 108//19
f 109//3 112//3 110//3
f 110//4 112//4 109//4
f 107//4 113//4 111//4
f 111//3 113//3 107//3
f 113//22 107//22 112//22
f 112//21 107//21 113//21
f 109//20 111//20 114//20
f 114//19 111//19 109//19
f 109//3 114//3 112//3
f 112//4 114//4 109//4
f 113//4 115//4 111//4
f 111//3 115//3 113//3
f 116//18 113//18 112//18
f 112//17 113//17 116//17
f 111//99 115//99 114//99
f 114//100 115//100 111//100
f 114//3 116//3 112//3
f 112//4 116//4 114//4
f 113//4 117//4 115//4
f 115//3 117//3 113//3
f 117//18 113//18 116//18
f 116//17 113//17 117//17
f 114//99 115//99 118//99
f 118//100 115//100 114//100
f 114//3 118//3 116//3
f 116//4 118//4 114//4
f 117//4 119//4 115//4
f 115//3 119//3 117//3
f 120//14 117//14 116//14
f 116//13 117//13 120//13
f 115//10 121//10 118//10
f 118//9 121//9 115//9
f 118//3 122//3 116//3
f 116//4 122//4 118//4
f 117//4 120//4 119//4
f 119//3 120//3 117//3
f 115//10 119//10 121//10
f 121//9 119//9 115//9
f 120//14 116//14 122//14
f 122//13 116//13 120//13
f 118//3 121//3 122//3
f 122//4 121//4 118//4
f 120//4 123//4 119//4
f 119//3 123//3 120//3
f 119//101 123//101 121//101
f 121//102 123//102 119//102
f 124//103 120//103 122//103
f 122//104 120//104 124//104
f 121//3 124//3 122//3
f 122//4 124//4 121//4
f 120//4 125//4 123//4
f 123//3 125//3 120//3
f 121//101 123//101 126//101
f 126//102 123//102 121//102
f 125//103 120//103 124//103
f 124//104 120//104 125//104
f 121//3 126//3 124//3
f 124//4 126//4 121//4
f 125//4 127//4 123//4
f 123//3 127//3 125//3
f 123//105 128//105 126//105
f 126//106 128//106 123//106
f 127//107 125//107 124//107
f 124//108 125//108 127//108
f 126//3 128//3 124//3
f 124//4 128//4 126//4
f 123//105 127//105 128//105
f 128//106 127//106 123//106
f 127//107 124//107 128//107
f 128//108 124//108 127//108
