# SSTK version 0.8.0
# 43
mtllib original-43.mtl
o mesh93/mesh93-geometry#mesh93-geometry
v 0.029007 -0.455690 0.128083
v 0.012830 -0.455690 0.130936
v 0.024241 -0.455690 0.119119
v 0.027595 -0.455690 0.138137
v 0.015116 -0.455690 0.114668
v 0.035652 -0.455690 0.107302
v 0.045185 -0.455690 0.125230
v 0.020542 -0.455690 0.145440
v 0.005117 -0.455690 0.116431
v 0.017402 -0.455690 0.098400
v 0.042359 -0.455690 0.145338
v 0.010543 -0.455690 0.147203
v -0.001935 -0.455690 0.123734
v -0.002595 -0.455690 0.101926
v 0.035652 -0.384935 0.107302
v 0.017402 -0.384935 0.098400
v 0.045185 -0.384935 0.125230
v 0.028254 -0.455690 0.159945
v 0.001418 -0.455690 0.142752
v -0.003348 -0.455690 0.133788
v -0.016700 -0.455690 0.116533
v -0.002595 -0.384935 0.101926
v 0.042359 -0.384935 0.145338
v 0.008257 -0.455690 0.163471
v -0.019526 -0.455690 0.136641
v -0.016700 -0.384935 0.116533
v 0.035652 -0.314180 0.107302
v 0.017402 -0.314180 0.098400
v -0.002595 -0.314180 0.101926
v 0.045185 -0.314180 0.125230
v 0.028254 -0.384935 0.159945
v -0.009993 -0.455690 0.154569
v -0.019526 -0.384935 0.136641
v -0.016700 -0.314180 0.116533
v 0.042359 -0.314180 0.145338
v 0.008257 -0.384935 0.163471
v -0.009993 -0.384935 0.154569
v -0.019526 -0.314180 0.136641
v 0.035652 -0.243425 0.107302
v 0.017402 -0.243425 0.098400
v -0.002595 -0.243425 0.101926
v -0.016700 -0.243425 0.116533
v 0.045185 -0.243425 0.125230
v 0.028254 -0.314180 0.159945
v -0.009993 -0.314180 0.154569
v -0.019526 -0.243425 0.136641
v 0.042359 -0.243425 0.145338
v 0.008257 -0.314180 0.163471
v -0.009993 -0.243425 0.154569
v 0.035652 -0.172670 0.107302
v 0.017402 -0.172670 0.098400
v -0.002595 -0.172670 0.101926
v -0.016700 -0.172670 0.116533
v -0.019526 -0.172670 0.136641
v 0.045185 -0.172670 0.125230
v 0.028254 -0.243425 0.159945
v 0.008257 -0.243425 0.163471
v -0.009993 -0.172670 0.154569
v 0.042359 -0.172670 0.145338
v 0.008257 -0.172670 0.163471
v 0.035652 -0.101915 0.107302
v 0.017402 -0.101915 0.098400
v -0.002595 -0.101915 0.101926
v -0.016700 -0.101915 0.116533
v -0.019526 -0.101915 0.136641
v -0.009993 -0.101915 0.154569
v 0.045185 -0.101915 0.125230
v 0.028254 -0.172670 0.159945
v 0.008257 -0.101915 0.163471
v 0.042359 -0.101915 0.145338
v 0.028254 -0.101915 0.159945
v 0.024241 -0.101915 0.119119
v 0.015116 -0.101915 0.114668
v 0.005117 -0.101915 0.116431
v -0.001935 -0.101915 0.123734
v -0.003348 -0.101915 0.133788
v 0.001418 -0.101915 0.142752
v 0.010543 -0.101915 0.147203
v 0.029007 -0.101915 0.128083
v 0.020542 -0.101915 0.145440
v 0.027595 -0.101915 0.138137
v 0.012830 -0.101915 0.130936
vn 0 -1 0
vn 0 1 0
vn 0.8829479158793487 0 -0.4694709552723307
vn -0.8829479158793487 0 0.4694709552723307
vn 0.43837185428083614 0 -0.8987937012320354
vn -0.43837185428083614 0 0.8987937012320354
vn 0.9902683569596232 0 0.13917105016664955
vn -0.9902683569596232 0 -0.13917105016664955
vn -0.17365007382309017 0 -0.9848074186668354
vn 0.17365007382309017 0 0.9848074186668354
vn 0.7193420462896621 0 0.6946560447011181
vn -0.7193420462896621 0 -0.6946560447011181
vn 0.17364990281130233 0 0.9848074488211518
vn -0.17364990281130233 0 -0.9848074488211518
usemtl material_0_0
f 1//1 2//1 3//1
f 3//2 2//2 1//2
f 1//1 4//1 2//1
f 2//2 4//2 1//2
f 3//1 2//1 5//1
f 5//2 2//2 3//2
f 6//1 1//1 3//1
f 3//2 1//2 6//2
f 7//1 4//1 1//1
f 1//2 4//2 7//2
f 4//1 8//1 2//1
f 2//2 8//2 4//2
f 5//1 2//1 9//1
f 9//2 2//2 5//2
f 3//1 5//1 10//1
f 10//2 5//2 3//2
f 7//1 1//1 6//1
f 6//2 1//2 7//2
f 6//1 3//1 10//1
f 10//2 3//2 6//2
f 7//1 11//1 4//1
f 4//2 11//2 7//2
f 11//1 8//1 4//1
f 4//2 8//2 11//2
f 8//1 12//1 2//1
f 2//2 12//2 8//2
f 2//1 13//1 9//1
f 9//2 13//2 2//2
f 5//1 9//1 14//1
f 14//2 9//2 5//2
f 10//1 5//1 14//1
f 14//2 5//2 10//2
f 15//3 7//3 6//3
f 6//4 7//4 15//4
f 16//5 6//5 10//5
f 10//6 6//6 16//6
f 17//7 11//7 7//7
f 7//8 11//8 17//8
f 11//1 18//1 8//1
f 8//2 18//2 11//2
f 18//1 12//1 8//1
f 8//2 12//2 18//2
f 2//1 12//1 19//1
f 19//2 12//2 2//2
f 2//1 20//1 13//1
f 13//2 20//2 2//2
f 9//1 13//1 21//1
f 21//2 13//2 9//2
f 9//1 21//1 14//1
f 14//2 21//2 9//2
f 22//9 10//9 14//9
f 14//10 10//10 22//10
f 15//3 17//3 7//3
f 7//4 17//4 15//4
f 15//5 6//5 16//5
f 16//6 6//6 15//6
f 16//9 10//9 22//9
f 22//10 10//10 16//10
f 17//7 23//7 11//7
f 11//8 23//8 17//8
f 23//11 18//11 11//11
f 11//12 18//12 23//12
f 18//1 24//1 12//1
f 12//2 24//2 18//2
f 12//1 24//1 19//1
f 19//2 24//2 12//2
f 2//1 19//1 20//1
f 20//2 19//2 2//2
f 13//1 20//1 25//1
f 25//2 20//2 13//2
f 13//1 25//1 21//1
f 21//2 25//2 13//2
f 14//12 21//12 26//12
f 26//11 21//11 14//11
f 14//12 26//12 22//12
f 22//11 26//11 14//11
f 27//3 17//3 15//3
f 15//4 17//4 27//4
f 28//5 15//5 16//5
f 16//6 15//6 28//6
f 29//9 16//9 22//9
f 22//10 16//10 29//10
f 30//7 23//7 17//7
f 17//8 23//8 30//8
f 23//11 31//11 18//11
f 18//12 31//12 23//12
f 31//13 24//13 18//13
f 18//14 24//14 31//14
f 24//1 32//1 19//1
f 19//2 32//2 24//2
f 19//1 32//1 20//1
f 20//2 32//2 19//2
f 20//1 32//1 25//1
f 25//2 32//2 20//2
f 21//8 25//8 33//8
f 33//7 25//7 21//7
f 21//8 33//8 26//8
f 26//7 33//7 21//7
f 22//12 26//12 34//12
f 34//11 26//11 22//11
f 27//3 30//3 17//3
f 17//4 30//4 27//4
f 27//5 15//5 28//5
f 28//6 15//6 27//6
f 28//9 16//9 29//9
f 29//10 16//10 28//10
f 22//12 34//12 29//12
f 29//11 34//11 22//11
f 30//7 35//7 23//7
f 23//8 35//8 30//8
f 35//11 31//11 23//11
f 23//12 31//12 35//12
f 36//13 24//13 31//13
f 31//14 24//14 36//14
f 36//6 32//6 24//6
f 24//5 32//5 36//5
f 25//4 32//4 37//4
f 37//3 32//3 25//3
f 25//4 37//4 33//4
f 33//3 37//3 25//3
f 26//8 33//8 38//8
f 38//7 33//7 26//7
f 26//8 38//8 34//8
f 34//7 38//7 26//7
f 39//3 30//3 27//3
f 27//4 30//4 39//4
f 40//5 27//5 28//5
f 28//6 27//6 40//6
f 41//9 28//9 29//9
f 29//10 28//10 41//10
f 29//12 34//12 42//12
f 42//11 34//11 29//11
f 43//7 35//7 30//7
f 30//8 35//8 43//8
f 35//11 44//11 31//11
f 31//12 44//12 35//12
f 44//13 36//13 31//13
f 31//14 36//14 44//14
f 37//6 32//6 36//6
f 36//5 32//5 37//5
f 33//4 37//4 45//4
f 45//3 37//3 33//3
f 33//4 45//4 38//4
f 38//3 45//3 33//3
f 34//8 38//8 46//8
f 46//7 38//7 34//7
f 39//3 43//3 30//3
f 30//4 43//4 39//4
f 39//5 27//5 40//5
f 40//6 27//6 39//6
f 40//9 28//9 41//9
f 41//10 28//10 40//10
f 29//12 42//12 41//12
f 41//11 42//11 29//11
f 34//8 46//8 42//8
f 42//7 46//7 34//7
f 43//7 47//7 35//7
f 35//8 47//8 43//8
f 47//11 44//11 35//11
f 35//12 44//12 47//12
f 48//13 36//13 44//13
f 44//14 36//14 48//14
f 48//6 37//6 36//6
f 36//5 37//5 48//5
f 45//6 37//6 48//6
f 48//5 37//5 45//5
f 38//4 45//4 49//4
f 49//3 45//3 38//3
f 38//4 49//4 46//4
f 46//3 49//3 38//3
f 50//3 43//3 39//3
f 39//4 43//4 50//4
f 51//5 39//5 40//5
f 40//6 39//6 51//6
f 52//9 40//9 41//9
f 41//10 40//10 52//10
f 41//12 42//12 53//12
f 53//11 42//11 41//11
f 42//8 46//8 54//8
f 54//7 46//7 42//7
f 55//7 47//7 43//7
f 43//8 47//8 55//8
f 47//11 56//11 44//11
f 44//12 56//12 47//12
f 56//13 48//13 44//13
f 44//14 48//14 56//14
f 57//6 45//6 48//6
f 48//5 45//5 57//5
f 49//6 45//6 57//6
f 57//5 45//5 49//5
f 46//4 49//4 58//4
f 58//3 49//3 46//3
f 50//3 55//3 43//3
f 43//4 55//4 50//4
f 50//5 39//5 51//5
f 51//6 39//6 50//6
f 51//9 40//9 52//9
f 52//10 40//10 51//10
f 41//12 53//12 52//12
f 52//11 53//11 41//11
f 42//8 54//8 53//8
f 53//7 54//7 42//7
f 46//4 58//4 54//4
f 54//3 58//3 46//3
f 55//7 59//7 47//7
f 47//8 59//8 55//8
f 59//11 56//11 47//11
f 47//12 56//12 59//12
f 57//13 48//13 56//13
f 56//14 48//14 57//14
f 60//6 49//6 57//6
f 57//5 49//5 60//5
f 58//6 49//6 60//6
f 60//5 49//5 58//5
f 61//3 55//3 50//3
f 50//4 55//4 61//4
f 62//5 50//5 51//5
f 51//6 50//6 62//6
f 63//9 51//9 52//9
f 52//10 51//10 63//10
f 52//12 53//12 64//12
f 64//11 53//11 52//11
f 53//8 54//8 65//8
f 65//7 54//7 53//7
f 54//4 58//4 66//4
f 66//3 58//3 54//3
f 67//7 59//7 55//7
f 55//8 59//8 67//8
f 59//11 68//11 56//11
f 56//12 68//12 59//12
f 68//13 57//13 56//13
f 56//14 57//14 68//14
f 60//13 57//13 68//13
f 68//14 57//14 60//14
f 69//6 58//6 60//6
f 60//5 58//5 69//5
f 61//3 67//3 55//3
f 55//4 67//4 61//4
f 61//5 50//5 62//5
f 62//6 50//6 61//6
f 62//9 51//9 63//9
f 63//10 51//10 62//10
f 52//12 64//12 63//12
f 63//11 64//11 52//11
f 53//8 65//8 64//8
f 64//7 65//7 53//7
f 54//4 66//4 65//4
f 65//3 66//3 54//3
f 66//6 58//6 69//6
f 69//5 58//5 66//5
f 67//7 70//7 59//7
f 59//8 70//8 67//8
f 70//11 68//11 59//11
f 59//12 68//12 70//12
f 71//13 60//13 68//13
f 68//14 60//14 71//14
f 69//13 60//13 71//13
f 71//14 60//14 69//14
f 67//2 61//2 72//2
f 72//1 61//1 67//1
f 61//2 62//2 73//2
f 73//1 62//1 61//1
f 62//2 63//2 74//2
f 74//1 63//1 62//1
f 75//2 63//2 64//2
f 64//1 63//1 75//1
f 76//2 64//2 65//2
f 65//1 64//1 76//1
f 77//2 65//2 66//2
f 66//1 65//1 77//1
f 78//2 66//2 69//2
f 69//1 66//1 78//1
f 67//2 79//2 70//2
f 70//1 79//1 67//1
f 70//11 71//11 68//11
f 68//12 71//12 70//12
f 71//2 80//2 69//2
f 69//1 80//1 71//1
f 61//2 73//2 72//2
f 72//1 73//1 61//1
f 67//2 72//2 79//2
f 79//1 72//1 67//1
f 62//2 74//2 73//2
f 73//1 74//1 62//1
f 74//2 63//2 75//2
f 75//1 63//1 74//1
f 75//2 64//2 76//2
f 76//1 64//1 75//1
f 77//2 76//2 65//2
f 65//1 76//1 77//1
f 78//2 77//2 66//2
f 66//1 77//1 78//1
f 80//2 78//2 69//2
f 69//1 78//1 80//1
f 70//2 79//2 81//2
f 81//1 79//1 70//1
f 70//2 81//2 71//2
f 71//1 81//1 70//1
f 71//2 81//2 80//2
f 80//1 81//1 71//1
f 72//2 73//2 82//2
f 82//1 73//1 72//1
f 79//2 72//2 82//2
f 82//1 72//1 79//1
f 73//2 74//2 82//2
f 82//1 74//1 73//1
f 82//2 74//2 75//2
f 75//1 74//1 82//1
f 82//2 75//2 76//2
f 76//1 75//1 82//1
f 82//2 76//2 77//2
f 77//1 76//1 82//1
f 82//2 77//2 78//2
f 78//1 77//1 82//1
f 80//2 82//2 78//2
f 78//1 82//1 80//1
f 79//2 82//2 81//2
f 81//1 82//1 79//1
f 81//2 82//2 80//2
f 80//1 82//1 81//1
