# SSTK version 0.8.0
# 38
mtllib original-38.mtl
o mesh80/mesh80-geometry#mesh80-geometry
v -0.441905 0.279798 0.316467
v -0.436957 0.287145 0.259765
v -0.448608 0.286693 0.264157
v -0.441905 0.296536 0.316467
v -0.446528 0.290764 0.204295
v -0.452329 0.278889 0.321928
v -0.462753 0.277981 0.327390
v -0.436957 0.303883 0.259765
v -0.434035 0.290860 0.201367
v -0.462753 0.294719 0.327390
v -0.434035 0.307598 0.201367
v -0.445922 0.290545 0.143673
v -0.487451 0.294051 0.331228
v -0.432973 0.290492 0.142338
v -0.487451 0.277313 0.331228
v -0.432973 0.307230 0.142338
v -0.446623 0.286030 0.083617
v -0.512148 0.277981 0.327390
v -0.487451 0.279460 0.316332
v -0.433604 0.302782 0.083745
v -0.433604 0.286044 0.083745
v -0.512772 0.280046 0.312680
v -0.512148 0.294719 0.327390
v -0.462130 0.280046 0.312680
v -0.522573 0.278889 0.321928
v -0.532997 0.296536 0.316467
v -0.451399 0.280841 0.307485
v -0.434142 0.284025 0.069473
v -0.523503 0.280841 0.307485
v -0.532997 0.279798 0.316467
v -0.460023 0.283900 0.068682
v -0.434681 0.298744 0.055201
v -0.537945 0.287145 0.259765
v -0.460403 0.298522 0.053875
v -0.459643 0.286016 0.083489
v -0.537945 0.303883 0.259765
v -0.487451 0.283862 0.068450
v -0.526293 0.286693 0.264157
v -0.540867 0.307598 0.201367
v -0.487451 0.298451 0.053457
v -0.487451 0.286011 0.083443
v -0.540867 0.290860 0.201367
v -0.514884 0.298522 0.052791
v -0.515457 0.283900 0.067056
v -0.528374 0.290764 0.204295
v -0.541929 0.291213 0.142338
v -0.516030 0.286016 0.081321
v -0.541929 0.307951 0.142338
v -0.540759 0.284025 0.069473
v -0.528979 0.290906 0.143673
v -0.541298 0.302782 0.083745
v -0.540221 0.298744 0.055201
v -0.541298 0.286044 0.083745
v -0.528664 0.286030 0.082533
vn 0.010363001113121127 0.991542106504518 0.1293710138961297
vn -0.010363001113121127 -0.991542106504518 -0.1293710138961297
vn 0.9962149462038963 0 0.0869239953060607
vn -0.9962149462038963 0 -0.0869239953060607
vn -0.013239005432190094 0.9976394093484935 0.06738202764799733
vn 0.013239005432190094 -0.9976394093484935 -0.06738202764799733
vn -0.01682400335103893 0.9910021973898192 0.13278402644819082
vn 0.01682400335103893 -0.9910021973898192 -0.13278402644819082
vn -0.4640920014310279 0 -0.885787002731324
vn 0.4640920014310279 0 0.885787002731324
vn 0.0073430036025775944 0.9979324895992716 0.06385003132569525
vn -0.0073430036025775944 -0.9979324895992716 -0.06385003132569525
vn -0.9987501683588307 0 -0.04998100842527408
vn 0.9987501683588307 0 0.04998100842527408
vn -0.00850799985728256 0.9999569832262217 -0.0036939999380347747
vn 0.00850799985728256 -0.9999569832262217 0.0036939999380347747
vn 0.15356004937562964 0 0.9881393177258733
vn -0.15356004937562964 0 -0.9881393177258733
vn 0.9998382027732071 0 0.017988003648075214
vn -0.9998382027732071 0 -0.017988003648075214
vn 0.0034779998400033155 0.9999749539986533 -0.0061639997164403895
vn -0.0034779998400033155 -0.9999749539986533 0.0061639997164403895
vn -0.0036229986031586095 0.9971816155381981 -0.074937971107783
vn 0.0036229986031586095 -0.9971816155381981 0.074937971107783
vn 0.1535590729557791 0 -0.9881394694641854
vn -0.1535590729557791 0 0.9881394694641854
vn -0.004604001930361698 0.9897554149837476 0.14269905983073186
vn 0.004604001930361698 -0.9897554149837476 -0.14269905983073186
vn -0.9999420018678917 0 0.010770000020118582
vn 0.9999420018678917 0 -0.010770000020118582
vn -0.0003339998862199689 0.9971306603185243 -0.07569897421246731
vn 0.0003339998862199689 -0.9971306603185243 0.07569897421246731
vn 0.00522200000924036 0.9903040017523429 0.13881900024564045
vn -0.00522200000924036 -0.9903040017523429 -0.13881900024564045
vn -0.0028789991516094265 0.9902997081760492 0.1389179590633148
vn 0.0028789991516094265 -0.9902997081760492 -0.1389179590633148
vn 0.002321000611340069 0.9897632606987284 0.1427000375864816
vn -0.002321000611340069 -0.9897632606987284 -0.1427000375864816
vn 0.013780003725886173 0.9902732677535881 0.13845203743515175
vn -0.013780003725886173 -0.9902732677535881 -0.13845203743515175
vn -0.4640920014310275 0 0.8857870027313244
vn 0.4640920014310275 0 -0.8857870027313244
vn -0.006130000750076102 0.9903041211751051 0.13878101698145467
vn 0.006130000750076102 -0.9903041211751051 -0.13878101698145467
vn 0.9992888761096718 0 -0.03770599532526777
vn -0.9992888761096718 0 0.03770599532526777
vn 0.008833996102053113 0.9910355627116006 0.1333059411795665
vn -0.008833996102053113 -0.9910355627116006 -0.1333059411795665
vn -0.016811997811985842 0.9910018710250789 0.13278798271817652
vn 0.016811997811985842 -0.9910018710250789 -0.13278798271817652
vn -0.0005009997910836628 0.9901455871103664 -0.14004094160307934
vn 0.0005009997910836628 -0.9901455871103664 0.14004094160307934
vn 0.9992889514655361 -9.999999514226316e-7 -0.037703998168754776
vn -0.9992889514655361 9.999999514226316e-7 0.037703998168754776
vn 0.9962149462038962 0 -0.08692399530606114
vn -0.9962149462038962 0 0.08692399530606114
vn -0.02489798463249541 0.7109965611595489 0.7027545662466634
vn 0.02489798463249541 -0.7109965611595489 -0.7027545662466634
vn 0.00031900006536516223 0.9899452028462276 -0.14145102898423803
vn -0.00031900006536516223 -0.9899452028462276 0.14145102898423803
vn -0.042990992732674066 0.6946708825707597 0.7180418786200571
vn 0.042990992732674066 -0.6946708825707597 -0.7180418786200571
vn 0.020053002534910266 0.9917331253654881 0.12674101602139642
vn -0.020053002534910266 -0.9917331253654881 -0.12674101602139642
vn 0.006940003408291875 -0.7114303493892217 -0.7027223451126504
vn -0.006940003408291875 0.7114303493892217 0.7027223451126504
vn -0.00019000001835849906 0.9899470956521578 -0.14143801366623635
vn 0.00019000001835849906 -0.9899470956521578 0.14143801366623635
vn -0.012377005087327607 0.9908174072562579 0.13463905534076984
vn 0.012377005087327607 -0.9908174072562579 -0.13463905534076984
vn -0.9987501683588307 0 0.049981008425274524
vn 0.9987501683588307 0 -0.049981008425274524
vn 0.012670001532537984 -0.7166400866833568 -0.6973280843474157
vn -0.012670001532537984 0.7166400866833568 0.6973280843474157
vn 0.00005399998502758371 0.989883725538442 -0.14188096066116784
vn -0.00005399998502758371 -0.989883725538442 0.14188096066116784
vn 0.015002995475892419 0.9979176990809568 0.06273098108366391
vn -0.015002995475892419 -0.9979176990809568 -0.06273098108366391
vn -0.01506399162585391 0.7166166016293586 0.6973046123649873
vn 0.01506399162585391 -0.7166166016293586 -0.6973046123649873
vn 0.008419996890592522 0.9898486344603502 -0.1418759476068536
vn -0.008419996890592522 -0.9898486344603502 0.1418759476068536
vn -0.008349002603340462 0.9976413110790749 0.06813302124486748
vn 0.008349002603340462 -0.9976413110790749 -0.06813302124486748
vn 0.9998382027732071 0 -0.01798800364807566
vn -0.9998382027732071 0 0.01798800364807566
vn -0.03461900437063211 0.6985880881964022 0.7146860902287675
vn 0.03461900437063211 -0.6985880881964022 -0.7146860902287675
vn 0.011037005069595561 0.9891844543592322 -0.1462610671816724
vn -0.011037005069595561 -0.9891844543592322 0.1462610671816724
vn 0.006264000621056902 0.9999630991433465 0.005879000582885521
vn -0.006264000621056902 -0.9999630991433465 -0.005879000582885521
vn -0.07175601177595198 -0.6950711140688248 -0.715351117396997
vn 0.07175601177595198 0.6950711140688248 0.715351117396997
vn -0.009163003879809119 0.9890854187996259 -0.14705806226748477
vn 0.009163003879809119 -0.9890854187996259 0.14705806226748477
vn 0.023513007505129822 0.9997213191015987 0.0021030006712581596
vn -0.023513007505129822 -0.9997213191015987 -0.0021030006712581596
vn -0.9999420018678917 0 -0.010770000020118138
vn 0.9999420018678917 0 0.010770000020118138
vn -0.0742800517639664 -0.6928004827958509 -0.7172934998644407
vn 0.0742800517639664 0.6928004827958509 0.7172934998644407
vn -0.012375004221869565 0.9900023377502452 -0.1405070479355329
vn 0.012375004221869565 -0.9900023377502452 0.1405070479355329
vn 0.03265299730003803 0.9956299176748502 -0.08749199276559341
vn -0.03265299730003803 -0.9956299176748502 0.08749199276559341
vn 0.9992889891427252 0 0.037702999590356695
vn -0.9992889891427252 0 -0.037702999590356695
vn -0.006518997906169935 0.996810679835426 -0.07953597445392378
vn 0.006518997906169935 -0.996810679835426 0.07953597445392378
usemtl material_0_0
f 1//1 2//1 3//1
f 3//2 2//2 1//2
f 4//3 1//3 2//3
f 2//4 1//4 4//4
f 3//5 2//5 5//5
f 5//6 2//6 3//6
f 6//7 1//7 3//7
f 3//8 1//8 6//8
f 1//9 7//9 4//9
f 4//10 7//10 1//10
f 8//3 4//3 2//3
f 2//4 4//4 8//4
f 2//11 9//11 5//11
f 5//12 9//12 2//12
f 4//9 7//9 10//9
f 10//10 7//10 4//10
f 11//13 2//13 8//13
f 8//14 2//14 11//14
f 11//13 9//13 2//13
f 2//14 9//14 11//14
f 5//15 9//15 12//15
f 12//16 9//16 5//16
f 10//17 13//17 7//17
f 7//18 13//18 10//18
f 11//19 9//19 14//19
f 14//20 9//20 11//20
f 9//21 14//21 12//21
f 12//22 14//22 9//22
f 7//17 13//17 15//17
f 15//18 13//18 7//18
f 11//19 14//19 16//19
f 16//20 14//20 11//20
f 12//23 14//23 17//23
f 17//24 14//24 12//24
f 15//25 18//25 13//25
f 13//26 18//26 15//26
f 15//27 7//27 19//27
f 19//28 7//28 15//28
f 16//29 20//29 14//29
f 14//30 20//30 16//30
f 14//31 21//31 17//31
f 17//32 21//32 14//32
f 15//33 22//33 18//33
f 18//34 22//34 15//34
f 13//25 18//25 23//25
f 23//26 18//26 13//26
f 7//35 24//35 19//35
f 19//36 24//36 7//36
f 15//37 19//37 22//37
f 22//38 19//38 15//38
f 20//29 21//29 14//29
f 14//30 21//30 20//30
f 18//39 22//39 25//39
f 25//40 22//40 18//40
f 23//41 26//41 18//41
f 18//42 26//42 23//42
f 7//43 27//43 24//43
f 24//44 27//44 7//44
f 20//45 21//45 28//45
f 28//46 21//46 20//46
f 25//47 22//47 29//47
f 29//48 22//48 25//48
f 18//41 26//41 30//41
f 30//42 26//42 18//42
f 7//49 6//49 27//49
f 27//50 6//50 7//50
f 21//51 28//51 31//51
f 31//52 28//52 21//52
f 20//53 28//53 32//53
f 32//54 28//54 20//54
f 26//55 30//55 33//55
f 33//56 30//56 26//56
f 28//57 34//57 31//57
f 31//58 34//58 28//58
f 21//59 31//59 35//59
f 35//60 31//60 21//60
f 28//61 32//61 34//61
f 34//62 32//62 28//62
f 25//63 33//63 30//63
f 30//64 33//64 25//64
f 36//55 26//55 33//55
f 33//56 26//56 36//56
f 31//65 37//65 34//65
f 34//66 37//66 31//66
f 35//67 31//67 37//67
f 37//68 31//68 35//68
f 25//69 38//69 33//69
f 33//70 38//70 25//70
f 39//71 33//71 36//71
f 36//72 33//72 39//72
f 37//73 40//73 34//73
f 34//74 40//74 37//74
f 35//75 37//75 41//75
f 41//76 37//76 35//76
f 38//77 42//77 33//77
f 33//78 42//78 38//78
f 39//71 42//71 33//71
f 33//72 42//72 39//72
f 37//79 40//79 43//79
f 43//80 40//80 37//80
f 41//81 37//81 44//81
f 44//82 37//82 41//82
f 38//83 45//83 42//83
f 42//84 45//84 38//84
f 39//85 42//85 46//85
f 46//86 42//86 39//86
f 37//87 43//87 44//87
f 44//88 43//88 37//88
f 41//89 44//89 47//89
f 47//90 44//90 41//90
f 45//91 46//91 42//91
f 42//92 46//92 45//92
f 48//85 39//85 46//85
f 46//86 39//86 48//86
f 43//93 44//93 49//93
f 49//94 44//94 43//94
f 47//95 44//95 49//95
f 49//96 44//96 47//96
f 45//97 50//97 46//97
f 46//98 50//98 45//98
f 48//99 51//99 46//99
f 46//100 51//100 48//100
f 43//101 49//101 52//101
f 52//102 49//102 43//102
f 53//103 47//103 49//103
f 49//104 47//104 53//104
f 50//105 53//105 46//105
f 46//106 53//106 50//106
f 51//99 53//99 46//99
f 46//100 53//100 51//100
f 51//107 49//107 52//107
f 52//108 49//108 51//108
f 51//107 53//107 49//107
f 49//108 53//108 51//108
f 50//109 54//109 53//109
f 53//110 54//110 50//110
