# SSTK version 0.8.0
# 4
mtllib original-4.mtl
o _01f3655f-566b-46e6-ac85-a1f70038a674_1/_01f3655f-566b-46e6-ac85-a1f70038a674/mesh17/mesh17-geometry#mesh17-geometry
v 0.058279 -0.431614 0.129625
v 0.057386 -0.431614 0.138695
v 0.057386 -0.702127 0.138695
v 0.059125 -0.431614 0.129625
v 0.054740 -0.431614 0.147417
v 0.058279 -0.702127 0.129625
v 0.058215 -0.431614 0.138860
v 0.057386 -0.431614 0.120554
v 0.054740 -0.702127 0.147417
v -0.033816 -0.702127 0.138695
v 0.059125 -0.380893 0.129625
v 0.058215 -0.431614 0.120389
v 0.055521 -0.431614 0.147741
v 0.050444 -0.431614 0.155456
v -0.031170 -0.702127 0.147417
v -0.034709 -0.702127 0.129625
v 0.057386 -0.702127 0.120554
v 0.058215 -0.380893 0.138860
v 0.058215 -0.380893 0.120389
v 0.054740 -0.431614 0.111832
v 0.055521 -0.380893 0.147741
v 0.050444 -0.702127 0.155456
v -0.026874 -0.702127 0.155456
v -0.033816 -0.431614 0.138695
v 0.054740 -0.702127 0.111832
v -0.035555 -0.380893 0.129625
v -0.034645 -0.380893 0.120389
v 0.055521 -0.431614 0.111508
v 0.051147 -0.380893 0.155925
v 0.051147 -0.431614 0.155925
v 0.044661 -0.431614 0.162501
v -0.031170 -0.431614 0.147417
v -0.034709 -0.431614 0.129625
v -0.033816 -0.702127 0.120554
v -0.034645 -0.380893 0.138860
v -0.031951 -0.380893 0.111508
v 0.050444 -0.702127 0.103794
v 0.050444 -0.431614 0.103794
v 0.055521 -0.380893 0.111508
v -0.031951 -0.380893 0.147741
v 0.044661 -0.702127 0.162501
v -0.021092 -0.702127 0.162501
v -0.026874 -0.431614 0.155456
v -0.034645 -0.431614 0.138860
v -0.031170 -0.702127 0.111832
v -0.034645 -0.431614 0.120389
v -0.035555 -0.431614 0.129625
v 0.051147 -0.431614 0.103324
v -0.027577 -0.380893 0.155925
v 0.045259 -0.380893 0.163099
v 0.045259 -0.431614 0.163099
v 0.037616 -0.431614 0.168283
v -0.031951 -0.431614 0.147741
v -0.033816 -0.431614 0.120554
v -0.031170 -0.431614 0.111832
v -0.027577 -0.380893 0.103324
v -0.031951 -0.431614 0.111508
v 0.044661 -0.702127 0.096748
v -0.026874 -0.702127 0.103794
v 0.044661 -0.431614 0.096748
v 0.051147 -0.380893 0.103324
v -0.027577 -0.431614 0.155925
v 0.037616 -0.702127 0.168283
v -0.014046 -0.702127 0.168283
v -0.021092 -0.431614 0.162501
v -0.026874 -0.431614 0.103794
v 0.045259 -0.431614 0.096150
v -0.021689 -0.431614 0.163099
v -0.021689 -0.380893 0.163099
v 0.038086 -0.380893 0.168986
v 0.038086 -0.431614 0.168986
v 0.029578 -0.702127 0.172580
v -0.021689 -0.380893 0.096150
v -0.027577 -0.431614 0.103324
v 0.037616 -0.702127 0.090966
v -0.021092 -0.702127 0.096748
v -0.021092 -0.431614 0.096748
v 0.037616 -0.431614 0.090966
v 0.045259 -0.380893 0.096150
v 0.029578 -0.431614 0.172580
v -0.006008 -0.702127 0.172580
v -0.014046 -0.431614 0.168283
v 0.038086 -0.431614 0.090263
v -0.014516 -0.431614 0.168986
v -0.014516 -0.380893 0.168986
v 0.029901 -0.431614 0.173361
v 0.020856 -0.431614 0.175226
v 0.002714 -0.702127 0.175226
v -0.006008 -0.431614 0.172580
v -0.014516 -0.380893 0.090263
v -0.021689 -0.431614 0.096150
v -0.014046 -0.702127 0.090966
v 0.029578 -0.431614 0.086669
v -0.014046 -0.431614 0.090966
v 0.038086 -0.380893 0.090263
v 0.029901 -0.380893 0.173361
v 0.020856 -0.702127 0.175226
v 0.029578 -0.702127 0.086669
v 0.029901 -0.431614 0.085888
v 0.029901 -0.380893 0.085888
v -0.006331 -0.380893 0.173361
v 0.021021 -0.380893 0.176055
v 0.021021 -0.431614 0.176055
v 0.011785 -0.431614 0.176119
v 0.011785 -0.702127 0.176119
v 0.002714 -0.431614 0.175226
v -0.006331 -0.431614 0.173361
v -0.006331 -0.380893 0.085888
v -0.014516 -0.431614 0.090263
v -0.006008 -0.702127 0.086669
v 0.020856 -0.702127 0.084024
v 0.020856 -0.431614 0.084024
v -0.006331 -0.431614 0.085888
v -0.006008 -0.431614 0.086669
v 0.021021 -0.431614 0.083194
v 0.002549 -0.380893 0.083194
v 0.002549 -0.431614 0.176055
v 0.002549 -0.380893 0.176055
v 0.011785 -0.380893 0.176964
v 0.011785 -0.431614 0.176964
v 0.002714 -0.431614 0.084024
v 0.002714 -0.702127 0.084024
v 0.011785 -0.702127 0.083130
v 0.011785 -0.431614 0.083130
v 0.021021 -0.380893 0.083194
v 0.002549 -0.431614 0.083194
v 0.011785 -0.431614 0.082285
v 0.011785 -0.380893 0.082285
vt 0.106121 7.480315
vt -0.106121 7.480315
vt -0.106121 1.181102
vt 0 0.093333
vt 0.017883 0.089905
vt 0 0.091667
vt 0.106121 1.181102
vt 0.018208 0.09154
vt -0.017883 0.089905
vt 0.035079 0.084689
vt 0.017883 -0.089905
vt 0.108051 8.661417
vt -0.10805 7.480315
vt 0.108051 7.480315
vt -0.018208 0.09154
vt 0.035717 0.086229
vt 0.035079 -0.084689
vt 0 -0.091667
vt -0.10805 8.661417
vt 0.10805 8.661417
vt -0.108051 8.661417
vt -0.108051 7.480315
vt -0.035079 0.084689
vt 0.10805 7.480315
vt 0.050927 0.076218
vt 0.050927 -0.076218
vt 0 -0.093333
vt -0.018208 -0.09154
vt -0.035717 0.086229
vt 0.051853 0.077604
vt -0.017883 -0.089905
vt 0.018208 -0.09154
vt -0.035717 -0.086229
vt -0.050927 0.076218
vt 0.035717 -0.086229
vt 0.064818 0.064818
vt 0.064818 -0.064818
vt -0.035079 -0.084689
vt -0.051853 0.077604
vt 0.051853 -0.077604
vt 0.065997 0.065997
vt -0.051853 -0.077604
vt -0.050927 -0.076218
vt -0.064818 0.064818
vt 0.076218 0.050927
vt 0.076218 -0.050927
vt -0.065997 0.065997
vt 0.065997 -0.065997
vt 0.077604 0.051853
vt -0.065997 -0.065997
vt -0.064818 -0.064818
vt -0.076218 0.050927
vt 0.084689 0.035079
vt 0.084689 -0.035079
vt -0.077604 0.051853
vt 0.077604 -0.051853
vt 0.086229 0.035717
vt 0.089905 -0.017883
vt -0.077604 -0.051853
vt -0.076218 -0.050927
vt -0.084689 0.035079
vt 0.089905 0.017883
vt -0.086229 0.035717
vt 0.086229 -0.035717
vt 0.09154 0.018208
vt 0.091667 0
vt -0.086229 -0.035717
vt -0.084689 -0.035079
vt -0.089905 0.017883
vt -0.09154 0.018208
vt -0.09154 -0.018208
vt 0.09154 -0.018208
vt 0.093333 0
vt -0.089905 -0.017883
vt -0.091667 0
vt -0.093333 0
vn 0.9951847429866071 0 0.09801697468643346
vn -0.9951847429866071 0 -0.09801697468643346
vn 0 -1 0
vn 0 1 0
vn 0.9569402177876565 0 0.29028506606526
vn -0.9569402177876565 0 -0.29028506606526
vn 0.9951847429866071 0 -0.09801697468643346
vn -0.9951847429866071 0 0.09801697468643346
vn 0.8819210961955488 0 0.4713970514176362
vn -0.8819210961955488 0 -0.4713970514176362
vn -0.9569402177876565 0 0.29028506606526
vn 0.9569402177876565 0 -0.29028506606526
vn 0.7730104102564453 0 0.6343933366888101
vn -0.7730104102564453 0 -0.6343933366888101
vn -0.8819210961955488 0 0.4713970514176362
vn 0.8819210961955488 0 -0.4713970514176362
vn 0.6343933366888101 0 0.7730104102564453
vn -0.6343933366888101 0 -0.7730104102564453
vn -0.7730104102564453 0 0.6343933366888101
vn 0.7730104102564453 0 -0.6343933366888101
vn 0.4713970514176362 0 0.8819210961955488
vn -0.4713970514176362 0 -0.8819210961955488
vn -0.6343933366888101 0 0.7730104102564453
vn 0.6343933366888101 0 -0.7730104102564453
vn 0.29028506606526 0 0.9569402177876565
vn -0.29028506606526 0 -0.9569402177876565
vn -0.4713970514176362 0 0.8819210961955488
vn 0.4713970514176362 0 -0.8819210961955488
vn -0.29028506606526 0 0.9569402177876565
vn 0.29028506606526 0 -0.9569402177876565
vn 0.09801697468643346 0 0.9951847429866071
vn -0.09801697468643346 0 -0.9951847429866071
vn -0.09801697468643346 0 0.9951847429866071
vn 0.09801697468643346 0 -0.9951847429866071
usemtl material_0_0
f 1/1/1 2/2/1 3/3/1
f 3/3/2 2/2/2 1/1/2
f 4/4/3 2/5/3 1/6/3
f 1/6/4 2/5/4 4/4/4
f 2/1/5 5/2/5 3/7/5
f 3/7/6 5/2/6 2/1/6
f 1/1/1 3/3/1 6/7/1
f 6/7/2 3/3/2 1/1/2
f 4/4/3 7/8/3 2/5/3
f 2/5/4 7/8/4 4/4/4
f 4/4/3 1/6/3 8/9/3
f 8/9/4 1/6/4 4/4/4
f 7/8/3 5/10/3 2/5/3
f 2/5/4 5/10/4 7/8/4
f 3/7/5 5/2/5 9/3/5
f 9/3/6 5/2/6 3/7/6
f 6/6/3 3/5/3 10/11/3
f 10/11/4 3/5/4 6/6/4
f 8/1/7 1/2/7 6/3/7
f 6/3/8 1/2/8 8/1/8
f 11/12/1 7/13/1 4/14/1
f 4/14/2 7/13/2 11/12/2
f 4/4/3 8/9/3 12/15/3
f 12/15/4 8/9/4 4/4/4
f 7/8/3 13/16/3 5/10/3
f 5/10/4 13/16/4 7/8/4
f 5/1/9 14/2/9 9/7/9
f 9/7/10 14/2/10 5/1/10
f 3/5/3 9/10/3 15/17/3
f 15/17/4 9/10/4 3/5/4
f 3/5/3 15/17/3 10/11/3
f 10/11/4 15/17/4 3/5/4
f 6/6/3 10/11/3 16/18/3
f 16/18/4 10/11/4 6/6/4
f 8/1/7 6/3/7 17/7/7
f 17/7/8 6/3/8 8/1/8
f 11/12/1 18/19/1 7/13/1
f 7/13/2 18/19/2 11/12/2
f 19/20/7 11/21/7 4/22/7
f 4/22/8 11/21/8 19/20/8
f 12/15/3 8/9/3 20/23/3
f 20/23/4 8/9/4 12/15/4
f 19/20/7 4/22/7 12/24/7
f 12/24/8 4/22/8 19/20/8
f 7/24/5 21/19/5 13/13/5
f 13/13/6 21/19/6 7/24/6
f 13/16/3 14/25/3 5/10/3
f 5/10/4 14/25/4 13/16/4
f 9/7/9 14/2/9 22/3/9
f 22/3/10 14/2/10 9/7/10
f 9/10/3 23/26/3 15/17/3
f 15/17/4 23/26/4 9/10/4
f 10/3/11 15/7/11 24/2/11
f 24/2/12 15/7/12 10/3/12
f 16/3/8 10/7/8 24/1/8
f 24/1/7 10/7/7 16/3/7
f 6/6/3 16/18/3 17/9/3
f 17/9/4 16/18/4 6/6/4
f 25/7/12 8/2/12 17/3/12
f 17/3/11 8/2/11 25/7/11
f 11/4/4 26/27/4 18/8/4
f 18/8/3 26/27/3 11/4/3
f 18/20/5 21/19/5 7/24/5
f 7/24/6 21/19/6 18/20/6
f 11/4/4 19/15/4 27/28/4
f 27/28/3 19/15/3 11/4/3
f 20/1/12 8/2/12 25/7/12
f 25/7/11 8/2/11 20/1/11
f 12/15/3 20/23/3 28/29/3
f 28/29/4 20/23/4 12/15/4
f 28/24/12 19/19/12 12/13/12
f 12/13/11 19/19/11 28/24/11
f 21/20/9 29/21/9 13/24/9
f 13/24/10 29/21/10 21/20/10
f 13/16/3 30/30/3 14/25/3
f 14/25/4 30/30/4 13/16/4
f 14/1/13 31/2/13 22/7/13
f 22/7/14 31/2/14 14/1/14
f 9/10/3 22/25/3 23/26/3
f 23/26/4 22/25/4 9/10/4
f 15/3/15 23/7/15 32/2/15
f 32/2/16 23/7/16 15/3/16
f 24/2/11 15/7/11 32/1/11
f 32/1/12 15/7/12 24/2/12
f 16/3/8 24/1/8 33/2/8
f 33/2/7 24/1/7 16/3/7
f 17/9/3 16/18/3 34/31/3
f 34/31/4 16/18/4 17/9/4
f 17/9/3 34/31/3 25/23/3
f 25/23/4 34/31/4 17/9/4
f 11/4/4 27/28/4 26/27/4
f 26/27/3 27/28/3 11/4/3
f 18/8/4 26/27/4 35/32/4
f 35/32/3 26/27/3 18/8/3
f 18/8/4 35/32/4 21/16/4
f 21/16/3 35/32/3 18/8/3
f 19/15/4 36/33/4 27/28/4
f 27/28/3 36/33/3 19/15/3
f 37/7/16 20/2/16 25/3/16
f 25/3/15 20/2/15 37/7/15
f 28/29/3 20/23/3 38/34/3
f 38/34/4 20/23/4 28/29/4
f 39/20/12 19/19/12 28/24/12
f 28/24/11 19/19/11 39/20/11
f 21/16/4 40/35/4 29/30/4
f 29/30/3 40/35/3 21/16/3
f 13/24/9 29/21/9 30/22/9
f 30/22/10 29/21/10 13/24/10
f 30/30/3 31/36/3 14/25/3
f 14/25/4 31/36/4 30/30/4
f 22/7/13 31/2/13 41/3/13
f 41/3/14 31/2/14 22/7/14
f 22/25/3 42/37/3 23/26/3
f 23/26/4 42/37/4 22/25/4
f 32/2/15 23/7/15 43/1/15
f 43/1/16 23/7/16 32/2/16
f 32/17/3 44/32/3 24/11/3
f 24/11/4 44/32/4 32/17/4
f 24/11/3 44/32/3 33/18/3
f 33/18/4 44/32/4 24/11/4
f 34/3/2 16/7/2 33/1/2
f 33/1/1 16/7/1 34/3/1
f 25/23/3 34/31/3 45/38/3
f 45/38/4 34/31/4 25/23/4
f 46/13/2 26/12/2 27/19/2
f 27/19/1 26/12/1 46/13/1
f 47/22/8 35/20/8 26/21/8
f 26/21/7 35/20/7 47/22/7
f 21/16/4 35/32/4 40/35/4
f 40/35/3 35/32/3 21/16/3
f 19/15/4 39/29/4 36/33/4
f 36/33/3 39/29/3 19/15/3
f 36/19/6 46/24/6 27/20/6
f 27/20/5 46/24/5 36/19/5
f 38/1/16 20/2/16 37/7/16
f 37/7/15 20/2/15 38/1/15
f 25/23/3 45/38/3 37/34/3
f 37/34/4 45/38/4 25/23/4
f 28/29/3 38/34/3 48/39/3
f 48/39/4 38/34/4 28/29/4
f 48/14/16 39/19/16 28/13/16
f 28/13/15 39/19/15 48/14/15
f 29/30/4 40/35/4 49/40/4
f 49/40/3 40/35/3 29/30/3
f 29/20/13 50/19/13 30/24/13
f 30/24/14 50/19/14 29/20/14
f 30/30/3 51/41/3 31/36/3
f 31/36/4 51/41/4 30/30/4
f 52/2/17 41/7/17 31/1/17
f 31/1/18 41/7/18 52/2/18
f 22/25/3 41/36/3 42/37/3
f 42/37/4 41/36/4 22/25/4
f 23/3/19 42/7/19 43/2/19
f 43/2/20 42/7/20 23/3/20
f 43/26/3 53/35/3 32/17/3
f 32/17/4 53/35/4 43/26/4
f 32/17/3 53/35/3 44/32/3
f 44/32/4 53/35/4 32/17/4
f 44/32/3 47/27/3 33/18/3
f 33/18/4 47/27/4 44/32/4
f 34/3/2 33/1/2 54/2/2
f 54/2/1 33/1/1 34/3/1
f 45/3/6 34/7/6 55/2/6
f 55/2/5 34/7/5 45/3/5
f 46/13/2 47/14/2 26/12/2
f 26/12/1 47/14/1 46/13/1
f 47/22/8 44/24/8 35/20/8
f 35/20/7 44/24/7 47/22/7
f 35/19/11 53/24/11 40/20/11
f 40/20/12 53/24/12 35/19/12
f 39/29/4 56/42/4 36/33/4
f 36/33/3 56/42/3 39/29/3
f 57/13/6 46/24/6 36/19/6
f 36/19/5 46/24/5 57/13/5
f 58/7/20 38/2/20 37/3/20
f 37/3/19 38/2/19 58/7/19
f 37/34/3 45/38/3 59/43/3
f 59/43/4 45/38/4 37/34/4
f 48/39/3 38/34/3 60/44/3
f 60/44/4 38/34/4 48/39/4
f 61/12/16 39/19/16 48/14/16
f 48/14/15 39/19/15 61/12/15
f 40/19/15 62/14/15 49/12/15
f 49/12/16 62/14/16 40/19/16
f 29/30/4 49/40/4 50/41/4
f 50/41/3 49/40/3 29/30/3
f 30/24/13 50/19/13 51/13/13
f 51/13/14 50/19/14 30/24/14
f 51/41/3 52/45/3 31/36/3
f 31/36/4 52/45/4 51/41/4
f 52/2/17 63/3/17 41/7/17
f 41/7/18 63/3/18 52/2/18
f 41/36/3 64/46/3 42/37/3
f 42/37/4 64/46/4 41/36/4
f 43/2/19 42/7/19 65/1/19
f 65/1/20 42/7/20 43/2/20
f 43/26/3 62/40/3 53/35/3
f 53/35/4 62/40/4 43/26/4
f 44/13/11 53/24/11 35/19/11
f 35/19/12 53/24/12 44/13/12
f 54/31/3 33/18/3 47/27/3
f 47/27/4 33/18/4 54/31/4
f 55/2/6 34/7/6 54/1/6
f 54/1/5 34/7/5 55/2/5
f 66/2/10 45/7/10 55/1/10
f 55/1/9 45/7/9 66/2/9
f 54/31/3 47/27/3 46/28/3
f 46/28/4 47/27/4 54/31/4
f 53/13/15 62/14/15 40/19/15
f 40/19/16 62/14/16 53/13/16
f 39/29/4 61/39/4 56/42/4
f 56/42/3 61/39/3 39/29/3
f 56/21/10 57/24/10 36/20/10
f 36/20/9 57/24/9 56/21/9
f 55/38/3 46/28/3 57/33/3
f 57/33/4 46/28/4 55/38/4
f 60/1/20 38/2/20 58/7/20
f 58/7/19 38/2/19 60/1/19
f 37/34/3 59/43/3 58/44/3
f 58/44/4 59/43/4 37/34/4
f 59/3/10 45/7/10 66/2/10
f 66/2/9 45/7/9 59/3/9
f 48/39/3 60/44/3 67/47/3
f 67/47/4 60/44/4 48/39/4
f 67/24/20 61/19/20 48/13/20
f 48/13/19 61/19/19 67/24/19
f 62/13/19 68/24/19 49/19/19
f 49/19/20 68/24/20 62/13/20
f 50/41/4 49/40/4 69/48/4
f 69/48/3 49/40/3 50/41/3
f 70/19/17 51/24/17 50/20/17
f 50/20/18 51/24/18 70/19/18
f 51/41/3 71/49/3 52/45/3
f 52/45/4 71/49/4 51/41/4
f 52/1/21 72/3/21 63/7/21
f 63/7/22 72/3/22 52/1/22
f 41/36/3 63/45/3 64/46/3
f 64/46/4 63/45/4 41/36/4
f 65/2/23 42/3/23 64/7/23
f 64/7/24 42/3/24 65/2/24
f 65/37/3 62/40/3 43/26/3
f 43/26/4 62/40/4 65/37/4
f 55/38/3 54/31/3 46/28/3
f 46/28/4 54/31/4 55/38/4
f 66/43/3 55/38/3 57/33/3
f 57/33/4 55/38/4 66/43/4
f 61/39/4 73/50/4 56/42/4
f 56/42/3 73/50/3 61/39/3
f 74/22/10 57/24/10 56/21/10
f 56/21/9 57/24/9 74/22/9
f 60/2/24 58/3/24 75/7/24
f 75/7/23 58/3/23 60/2/23
f 58/44/3 59/43/3 76/51/3
f 76/51/4 59/43/4 58/44/4
f 77/2/14 59/7/14 66/1/14
f 66/1/13 59/7/13 77/2/13
f 67/47/3 60/44/3 78/52/3
f 78/52/4 60/44/4 67/47/4
f 79/20/20 61/19/20 67/24/20
f 67/24/19 61/19/19 79/20/19
f 65/37/3 68/48/3 62/40/3
f 62/40/4 68/48/4 65/37/4
f 49/19/19 68/24/19 69/20/19
f 69/20/20 68/24/20 49/19/20
f 50/41/4 69/48/4 70/49/4
f 70/49/3 69/48/3 50/41/3
f 70/19/17 71/13/17 51/24/17
f 51/24/18 71/13/18 70/19/18
f 71/49/3 80/53/3 52/45/3
f 52/45/4 80/53/4 71/49/4
f 80/2/21 72/3/21 52/1/21
f 52/1/22 72/3/22 80/2/22
f 63/45/3 72/53/3 81/54/3
f 81/54/4 72/53/4 63/45/4
f 63/45/3 81/54/3 64/46/3
f 64/46/4 81/54/4 63/45/4
f 65/2/23 64/7/23 82/1/23
f 82/1/24 64/7/24 65/2/24
f 66/43/3 57/33/3 74/42/3
f 74/42/4 57/33/4 66/43/4
f 61/39/4 79/47/4 73/50/4
f 73/50/3 79/47/3 61/39/3
f 73/19/14 74/24/14 56/20/14
f 56/20/13 74/24/13 73/19/13
f 58/44/3 76/51/3 75/52/3
f 75/52/4 76/51/4 58/44/4
f 60/2/24 75/7/24 78/1/24
f 78/1/23 75/7/23 60/2/23
f 76/3/14 59/7/14 77/2/14
f 77/2/13 59/7/13 76/3/13
f 77/51/3 66/43/3 74/42/3
f 74/42/4 66/43/4 77/51/4
f 67/47/3 78/52/3 83/55/3
f 83/55/4 78/52/4 67/47/4
f 79/19/24 67/13/24 83/24/24
f 83/24/23 67/13/23 79/19/23
f 82/46/3 68/48/3 65/37/3
f 65/37/4 68/48/4 82/46/4
f 69/19/23 68/13/23 84/24/23
f 84/24/24 68/13/24 69/19/24
f 70/49/4 69/48/4 85/56/4
f 85/56/3 69/48/3 70/49/3
f 70/12/21 86/13/21 71/14/21
f 71/14/22 86/13/22 70/12/22
f 71/49/3 86/57/3 80/53/3
f 80/53/4 86/57/4 71/49/4
f 87/2/25 72/7/25 80/1/25
f 80/1/26 72/7/26 87/2/26
f 72/53/3 88/58/3 81/54/3
f 81/54/4 88/58/4 72/53/4
f 89/1/27 64/3/27 81/7/27
f 81/7/28 64/3/28 89/1/28
f 82/2/27 64/3/27 89/1/27
f 89/1/28 64/3/28 82/2/28
f 79/47/4 90/59/4 73/50/4
f 73/50/3 90/59/3 79/47/3
f 91/13/14 74/24/14 73/19/14
f 73/19/13 74/24/13 91/13/13
f 75/52/3 76/51/3 92/60/3
f 92/60/4 76/51/4 75/52/4
f 78/2/28 75/3/28 93/1/28
f 93/1/27 75/3/27 78/2/27
f 94/2/18 76/7/18 77/1/18
f 77/1/17 76/7/17 94/2/17
f 77/51/3 74/42/3 91/50/3
f 91/50/4 74/42/4 77/51/4
f 83/55/3 78/52/3 93/61/3
f 93/61/4 78/52/4 83/55/4
f 79/19/24 83/24/24 95/20/24
f 95/20/23 83/24/23 79/19/23
f 82/46/3 84/56/3 68/48/3
f 68/48/4 84/56/4 82/46/4
f 69/19/23 84/24/23 85/20/23
f 85/20/24 84/24/24 69/19/24
f 70/49/4 85/56/4 96/57/4
f 96/57/3 85/56/3 70/49/3
f 96/19/21 86/13/21 70/12/21
f 70/12/22 86/13/22 96/19/22
f 86/57/3 87/62/3 80/53/3
f 80/53/4 87/62/4 86/57/4
f 87/2/25 97/3/25 72/7/25
f 72/7/26 97/3/26 87/2/26
f 72/53/3 97/62/3 88/58/3
f 88/58/4 97/62/4 72/53/4
f 89/2/29 81/3/29 88/7/29
f 88/7/30 81/3/30 89/2/30
f 89/54/3 84/56/3 82/46/3
f 82/46/4 84/56/4 89/54/4
f 79/47/4 95/55/4 90/59/4
f 90/59/3 95/55/3 79/47/3
f 90/19/18 91/24/18 73/20/18
f 73/20/17 91/24/17 90/19/17
f 94/2/18 92/3/18 76/7/18
f 76/7/17 92/3/17 94/2/17
f 75/52/3 92/60/3 98/61/3
f 98/61/4 92/60/4 75/52/4
f 93/1/28 75/3/28 98/7/28
f 98/7/27 75/3/27 93/1/27
f 94/60/3 77/51/3 91/50/3
f 91/50/4 77/51/4 94/60/4
f 83/55/3 93/61/3 99/63/3
f 99/63/4 93/61/4 83/55/4
f 95/21/28 83/22/28 100/20/28
f 100/20/27 83/22/27 95/21/27
f 85/21/27 84/22/27 101/20/27
f 101/20/28 84/22/28 85/21/28
f 96/57/4 85/56/4 101/64/4
f 101/64/3 85/56/3 96/57/3
f 102/19/25 86/24/25 96/20/25
f 96/20/26 86/24/26 102/19/26
f 86/57/3 103/65/3 87/62/3
f 87/62/4 103/65/4 86/57/4
f 104/2/31 97/7/31 87/1/31
f 87/1/32 97/7/32 104/2/32
f 97/62/3 105/66/3 88/58/3
f 88/58/4 105/66/4 97/62/4
f 89/2/29 88/7/29 106/1/29
f 106/1/30 88/7/30 89/2/30
f 89/54/3 107/64/3 84/56/3
f 84/56/4 107/64/4 89/54/4
f 95/55/4 108/67/4 90/59/4
f 90/59/3 108/67/3 95/55/3
f 90/19/18 109/13/18 91/24/18
f 91/24/17 109/13/17 90/19/17
f 94/1/22 110/3/22 92/7/22
f 92/7/21 110/3/21 94/1/21
f 98/61/3 92/60/3 110/68/3
f 110/68/4 92/60/4 98/61/4
f 93/2/30 98/3/30 111/7/30
f 111/7/29 98/3/29 93/2/29
f 94/60/3 91/50/3 109/59/3
f 109/59/4 91/50/4 94/60/4
f 99/63/3 93/61/3 112/69/3
f 112/69/4 93/61/4 99/63/4
f 100/20/28 83/22/28 99/24/28
f 99/24/27 83/22/27 100/20/27
f 95/55/4 100/63/4 108/67/4
f 108/67/3 100/63/3 95/55/3
f 101/20/27 84/22/27 107/24/27
f 107/24/28 84/22/28 101/20/28
f 96/57/4 101/64/4 102/65/4
f 102/65/3 101/64/3 96/57/3
f 102/19/25 103/13/25 86/24/25
f 86/24/26 103/13/26 102/19/26
f 103/65/3 104/66/3 87/62/3
f 87/62/4 104/66/4 103/65/4
f 104/2/31 105/3/31 97/7/31
f 97/7/32 105/3/32 104/2/32
f 106/2/33 88/3/33 105/7/33
f 105/7/34 88/3/34 106/2/34
f 106/58/3 107/64/3 89/54/3
f 89/54/4 107/64/4 106/58/4
f 108/19/22 113/13/22 90/12/22
f 90/12/21 113/13/21 108/19/21
f 90/12/22 113/13/22 109/14/22
f 109/14/21 113/13/21 90/12/21
f 114/2/22 110/3/22 94/1/22
f 94/1/21 110/3/21 114/2/21
f 98/61/3 110/68/3 111/69/3
f 111/69/4 110/68/4 98/61/4
f 93/2/30 111/7/30 112/1/30
f 112/1/29 111/7/29 93/2/29
f 114/68/3 94/60/3 109/59/3
f 109/59/4 94/60/4 114/68/4
f 99/63/3 112/69/3 115/70/3
f 115/70/4 112/69/4 99/63/4
f 100/19/30 99/13/30 115/24/30
f 115/24/29 99/13/29 100/19/29
f 100/63/4 116/71/4 108/67/4
f 108/67/3 116/71/3 100/63/3
f 101/19/29 107/13/29 117/24/29
f 117/24/30 107/13/30 101/19/30
f 102/65/4 101/64/4 118/72/4
f 118/72/3 101/64/3 102/65/3
f 119/21/31 103/24/31 102/20/31
f 102/20/32 103/24/32 119/21/32
f 103/65/3 120/73/3 104/66/3
f 104/66/4 120/73/4 103/65/4
f 106/2/33 105/7/33 104/1/33
f 104/1/34 105/7/34 106/2/34
f 106/58/3 117/72/3 107/64/3
f 107/64/4 117/72/4 106/58/4
f 116/19/26 113/24/26 108/20/26
f 108/20/25 113/24/25 116/19/25
f 114/68/3 109/59/3 113/67/3
f 113/67/4 109/59/4 114/68/4
f 121/2/26 110/7/26 114/1/26
f 114/1/25 110/7/25 121/2/25
f 111/69/3 110/68/3 122/74/3
f 122/74/4 110/68/4 111/69/4
f 112/2/34 111/3/34 123/7/34
f 123/7/33 111/3/33 112/2/33
f 115/70/3 112/69/3 124/75/3
f 124/75/4 112/69/4 115/70/4
f 100/19/30 115/24/30 125/20/30
f 125/20/29 115/24/29 100/19/29
f 100/63/4 125/70/4 116/71/4
f 116/71/3 125/70/3 100/63/3
f 101/19/29 117/24/29 118/20/29
f 118/20/30 117/24/30 101/19/30
f 102/65/4 118/72/4 119/73/4
f 119/73/3 118/72/3 102/65/3
f 119/21/31 120/22/31 103/24/31
f 103/24/32 120/22/32 119/21/32
f 104/66/3 120/73/3 117/72/3
f 117/72/4 120/73/4 104/66/4
f 104/66/3 117/72/3 106/58/3
f 106/58/4 117/72/4 104/66/4
f 116/19/26 126/13/26 113/24/26
f 113/24/25 126/13/25 116/19/25
f 121/74/3 114/68/3 113/67/3
f 113/67/4 114/68/4 121/74/4
f 121/2/26 122/3/26 110/7/26
f 110/7/25 122/3/25 121/2/25
f 111/69/3 122/74/3 123/75/3
f 123/75/4 122/74/4 111/69/4
f 112/2/34 123/7/34 124/1/34
f 124/1/33 123/7/33 112/2/33
f 115/70/3 124/75/3 127/76/3
f 127/76/4 124/75/4 115/70/4
f 125/19/34 115/13/34 127/14/34
f 127/14/33 115/13/33 125/19/33
f 125/70/4 128/76/4 116/71/4
f 116/71/3 128/76/3 125/70/3
f 118/19/33 117/13/33 120/14/33
f 120/14/34 117/13/34 118/19/34
f 118/19/33 120/14/33 119/12/33
f 119/12/34 120/14/34 118/19/34
f 128/21/32 126/24/32 116/20/32
f 116/20/31 126/24/31 128/21/31
f 121/74/3 113/67/3 126/71/3
f 126/71/4 113/67/4 121/74/4
f 124/2/32 122/7/32 121/1/32
f 121/1/31 122/7/31 124/2/31
f 124/2/32 123/3/32 122/7/32
f 122/7/31 123/3/31 124/2/31
f 127/76/3 124/75/3 126/71/3
f 126/71/4 124/75/4 127/76/4
f 125/19/34 127/14/34 128/12/34
f 128/12/33 127/14/33 125/19/33
f 128/21/32 127/22/32 126/24/32
f 126/24/31 127/22/31 128/21/31
f 124/75/3 121/74/3 126/71/3
f 126/71/4 121/74/4 124/75/4
