# Aspose.3D Wavefront OBJ Exporter
# Copyright 2004-2022 Aspose Pty Ltd.
# File created: 8/15/2022 3:24:20 AM


#
# object obj_38233411
#
mtllib Link1.mtl
usemtl material_0_0

v 0.3849999904632568 0.28999999165534972 0.52499997615814208
v 0.3849999904632568 0.28999999165534972 0.27750000357627868
v 0.3849999904632568 0.00100000004749745 0.52499997615814208
v 0.3849999904632568 0.00100000004749745 0.27750000357627868
v 0.03750000521540642 0.28249999880790712 0.52499997615814208
v 0.03716505691409111 0.2837499976158142 0.52499997615814208
v 0.03716505691409111 0.28125 0.52499997615814208
v 0.03625000640749931 0.2803349494934082 0.52499997615814208
v 0.03625000640749931 0.2846650779247284 0.52499997615814208
v 0.03499999269843101 0.28499999642372132 0.52499997615814208
v 0.01499999780207872 0.28999999165534972 0.52499997615814208
v 0.03374999389052391 0.2846650779247284 0.52499997615814208
v 0.03283492848277092 0.2837499976158142 0.52499997615814208
v 0.0324999950826168 0.28249999880790712 0.52499997615814208
v 0.03283492848277092 0.28125 0.52499997615814208
v 0.01499999780207872 0.00100000004749745 0.52499997615814208
v 0.03374999389052391 0.2803349494934082 0.52499997615814208
v 0.03499999269843101 0.28000000119209288 0.52499997615814208
v 0.01499999780207872 0.00100000004749745 0.27750000357627868
v 0.01499999780207872 0.28999999165534972 0.27750000357627868
v -2.9802322831784522E-09 0 0.54000002145767208
v -2.9802322831784522E-09 0.28999999165534972 0.54000002145767208
v -2.9802320611338473E-09 0 -1.0728836485895954E-08
v -2.9802320611338473E-09 0.28999999165534972 -1.0728836485895954E-08
v 0.40000000596046448 0 0.54000002145767208
v 0.40000000596046448 0.28999999165534972 0.54000002145767208
v 0.40000000596046448 0 -1.0728836485895954E-08
v 0.40000000596046448 0.28999999165534972 -1.0728836485895954E-08
v 0.3849999904632568 0.28999999165534972 0.26249998807907104
v 0.3849999904632568 0.28999999165534972 0.01500000432133674
v 0.3849999904632568 0.00100000004749745 0.26249998807907104
v 0.3849999904632568 0.00100000004749745 0.01500000432133674
v 0.03750000521540642 0.28249999880790712 0.26249998807907104
v 0.03716505691409111 0.2837499976158142 0.26249998807907104
v 0.03716505691409111 0.28125 0.26249998807907104
v 0.03625000640749931 0.2803349494934082 0.26249998807907104
v 0.03625000640749931 0.2846650779247284 0.26249998807907104
v 0.03499999269843101 0.28499999642372132 0.26249998807907104
v 0.01499999780207872 0.28999999165534972 0.26249998807907104
v 0.03374999389052391 0.2846650779247284 0.26249998807907104
v 0.03283492848277092 0.2837499976158142 0.26249998807907104
v 0.0324999950826168 0.28249999880790712 0.26249998807907104
v 0.03283492848277092 0.28125 0.26249998807907104
v 0.01499999780207872 0.00100000004749745 0.26249998807907104
v 0.03374999389052391 0.2803349494934082 0.26249998807907104
v 0.03499999269843101 0.28000000119209288 0.26249998807907104
v 0.01499999780207872 0.00100000004749745 0.01500000432133674
v 0.01499999780207872 0.28999999165534972 0.01500000432133674
v 0.0324999950826168 0.28249999880790712 0.01500000432133674
v 0.03283492848277092 0.2837499976158142 0.01500000432133674
v 0.03625000640749931 0.2803349494934082 0.01500000432133674
v 0.03716505691409111 0.28125 0.01500000432133674
v 0.03750000521540642 0.28249999880790712 0.01500000432133674
v 0.03716505691409111 0.2837499976158142 0.01500000432133674
v 0.03499999269843101 0.28000000119209288 0.01500000432133674
v 0.03374999389052391 0.2803349494934082 0.01500000432133674
v 0.03283492848277092 0.28125 0.01500000432133674
v 0.03374999389052391 0.2846650779247284 0.01500000432133674
v 0.03499999269843101 0.28499999642372132 0.01500000432133674
v 0.03625000640749931 0.2846650779247284 0.01500000432133674
v 0.0324999950826168 0.28249999880790712 0.27750000357627868
v 0.03283492848277092 0.2837499976158142 0.27750000357627868
v 0.03625000640749931 0.2803349494934082 0.27750000357627868
v 0.03716505691409111 0.28125 0.27750000357627868
v 0.03750000521540642 0.28249999880790712 0.27750000357627868
v 0.03716505691409111 0.2837499976158142 0.27750000357627868
v 0.03499999269843101 0.28000000119209288 0.27750000357627868
v 0.03374999389052391 0.2803349494934082 0.27750000357627868
v 0.03283492848277092 0.28125 0.27750000357627868
v 0.03374999389052391 0.2846650779247284 0.27750000357627868
v 0.03499999269843101 0.28499999642372132 0.27750000357627868
v 0.03625000640749931 0.2846650779247284 0.27750000357627868
# 72 vertices

vn -1 0 -2.993248337729697E-17
vn 1.3877787807814457E-16 0 -1
vn 1 0 8.435517741899832E-17
vn -1 0 1.5419758348731707E-17
vn 4.930380657631324E-32 0 1
vn 1 0 8.737866152422254E-17
vn 2.6255268507804734E-17 0 -1
vn -4.930380657631324E-32 0 -1
vn -1.3877787807814457E-16 0 1
vn -2.6255268507804734E-17 0 1
vn 0 1 0
vn 0 -1 0
vn 0.93907082080841072 0.34372377395629884 2.4655564068853733E-17
vn 0.76720887422561648 0.64139729738235472 2.014327893812594E-17
vn 0.64139729738235472 0.76720887422561648 1.6840062202070983E-17
vn 0.34372377395629884 0.93907082080841072 9.024563644010683E-18
vn 0.17186188697814942 0.9851210713386536 4.512281822005342E-18
vn -0.17186188697814942 0.9851210713386536 -4.512281822005342E-18
vn -0.34372377395629884 0.93907082080841072 -9.024563644010683E-18
vn -0.64139729738235472 0.76720887422561648 -1.6840062202070983E-17
vn -0.76720887422561648 0.64139729738235472 -2.014327893812594E-17
vn -0.93907082080841072 0.34372377395629884 -2.4655564068853733E-17
vn -0.9851210713386536 0.17186188697814942 -2.5864615919914316E-17
vn -0.9851210713386536 -0.17186188697814942 -2.5864615919914316E-17
vn -0.93907082080841072 -0.34372377395629884 -2.4655564068853733E-17
vn -0.76720887422561648 -0.64139729738235472 -2.014327893812594E-17
vn -0.64139729738235472 -0.76720887422561648 -1.6840062202070983E-17
vn -0.34372377395629884 -0.93907082080841072 -9.024563644010683E-18
vn -0.17186188697814942 -0.9851210713386536 -4.512281822005342E-18
vn 0.17186188697814942 -0.9851210713386536 4.512281822005342E-18
vn 0.34372377395629884 -0.93907082080841072 9.024563644010683E-18
vn 0.64139729738235472 -0.76720887422561648 1.6840062202070983E-17
vn 0.76720887422561648 -0.64139729738235472 2.014327893812594E-17
vn 0.93907082080841072 -0.34372377395629884 2.4655564068853733E-17
vn 0.9851210713386536 -0.17186188697814942 2.5864615919914316E-17
vn 0.9851210713386536 0.17186188697814942 2.5864615919914316E-17
# 36 vertex normals

g obj_38233411
s 1
f 1//1 2//1 3//1
f 3//1 2//1 4//1
f 1//2 5//2 6//2
f 5//2 1//2 7//2
f 7//2 1//2 3//2
f 7//2 3//2 8//2
f 6//2 9//2 1//2
f 1//2 9//2 10//2
f 1//2 10//2 11//2
f 11//2 10//2 12//2
f 11//2 12//2 13//2
f 13//2 14//2 11//2
f 11//2 14//2 15//2
f 11//2 15//2 16//2
f 16//2 15//2 17//2
f 16//2 17//2 3//2
f 3//2 17//2 18//2
f 3//2 18//2 8//2
f 19//3 20//3 16//3
f 16//3 20//3 11//3
f 21//4 22//4 23//4
f 23//4 22//4 24//4
f 25//5 26//5 21//5
f 21//5 26//5 22//5
f 27//6 28//6 25//6
f 25//6 28//6 26//6
f 29//1 30//1 31//1
f 31//1 30//1 32//1
f 29//7 33//7 34//7
f 33//7 29//7 35//7
f 35//7 29//7 31//7
f 35//7 31//7 36//7
f 34//7 37//7 29//7
f 29//7 37//7 38//7
f 29//7 38//7 39//7
f 39//7 38//7 40//7
f 39//7 40//7 41//7
f 41//7 42//7 39//7
f 39//7 42//7 43//7
f 39//7 43//7 44//7
f 44//7 43//7 45//7
f 44//7 45//7 31//7
f 31//7 45//7 46//7
f 31//7 46//7 36//7
f 47//3 48//3 44//3
f 44//3 48//3 39//3
f 23//8 24//8 27//8
f 27//8 24//8 28//8
f 48//9 49//9 50//9
f 51//9 47//9 52//9
f 52//9 47//9 32//9
f 52//9 32//9 53//9
f 53//9 32//9 30//9
f 53//9 30//9 54//9
f 51//9 55//9 47//9
f 47//9 55//9 56//9
f 47//9 56//9 48//9
f 48//9 56//9 57//9
f 48//9 57//9 49//9
f 50//9 58//9 48//9
f 48//9 58//9 59//9
f 48//9 59//9 30//9
f 30//9 59//9 60//9
f 30//9 60//9 54//9
f 20//10 61//10 62//10
f 63//10 19//10 64//10
f 64//10 19//10 4//10
f 64//10 4//10 65//10
f 65//10 4//10 2//10
f 65//10 2//10 66//10
f 63//10 67//10 19//10
f 19//10 67//10 68//10
f 19//10 68//10 20//10
f 20//10 68//10 69//10
f 20//10 69//10 61//10
f 62//10 70//10 20//10
f 20//10 70//10 71//10
f 20//10 71//10 2//10
f 2//10 71//10 72//10
f 2//10 72//10 66//10
f 29//11 26//11 28//11
f 39//11 48//11 24//11
f 24//11 48//11 28//11
f 28//11 48//11 30//11
f 28//11 30//11 29//11
f 24//11 22//11 39//11
f 39//11 22//11 20//11
f 39//11 20//11 29//11
f 29//11 20//11 2//11
f 29//11 2//11 26//11
f 26//11 2//11 1//11
f 26//11 1//11 22//11
f 22//11 1//11 11//11
f 22//11 11//11 20//11
f 27//12 25//12 23//12
f 23//12 25//12 21//12
f 4//11 19//11 3//11
f 3//11 19//11 16//11
f 32//11 47//11 31//11
f 31//11 47//11 44//11
f 5//13 66//13 6//13
f 6//14 66//14 72//14
f 6//15 72//15 9//15
f 9//16 72//16 71//16
f 9//17 71//17 10//17
f 10//18 71//18 70//18
f 10//19 70//19 12//19
f 12//20 70//20 62//20
f 12//21 62//21 13//21
f 13//22 62//22 61//22
f 13//23 61//23 14//23
f 14//24 61//24 69//24
f 14//25 69//25 15//25
f 15//26 69//26 68//26
f 15//27 68//27 17//27
f 17//28 68//28 67//28
f 17//29 67//29 18//29
f 18//30 67//30 63//30
f 18//31 63//31 8//31
f 8//32 63//32 64//32
f 8//33 64//33 7//33
f 7//34 64//34 65//34
f 7//35 65//35 5//35
f 5//36 65//36 66//36
f 33//13 54//13 34//13
f 34//14 54//14 60//14
f 34//15 60//15 37//15
f 37//16 60//16 59//16
f 37//17 59//17 38//17
f 38//18 59//18 58//18
f 38//19 58//19 40//19
f 40//20 58//20 50//20
f 40//21 50//21 41//21
f 41//22 50//22 49//22
f 41//23 49//23 42//23
f 42//24 49//24 57//24
f 42//25 57//25 43//25
f 43//26 57//26 56//26
f 43//27 56//27 45//27
f 45//28 56//28 55//28
f 45//29 55//29 46//29
f 46//30 55//30 51//30
f 46//31 51//31 36//31
f 36//32 51//32 52//32
f 36//33 52//33 35//33
f 35//34 52//34 53//34
f 35//35 53//35 33//35
f 33//36 53//36 54//36
#148 polygons

