# Aspose.3D Wavefront OBJ Exporter
# Copyright 2004-2022 Aspose Pty Ltd.
# File created: 8/15/2022 3:25:12 AM


#
# object obj_46011470
#
mtllib Link3.mtl
usemtl material_0_0

v 0.01674999482929706 0.00966506358236074 0.2475000023841858
v 0.01799999363720417 0.00999999977648258 0.2475000023841858
v 1.6689299942029834E-09 0.01499999966472387 0.2475000023841858
v 0.02016505785286426 0.0087500000372529 0.2475000023841858
v 0.02050000615417957 0.00749999983236193 0.2475000023841858
v 0.36700001358985904 0.01499999966472387 0.2475000023841858
v 0.36700001358985904 1.676381256032755E-10 0.2475000023841858
v 0.01925000734627246 0.00966506358236074 0.2475000023841858
v 0.01674999482929706 0.00533493654802441 0.2475000023841858
v 0.01583492942154407 0.00625000009313225 0.2475000023841858
v 1.6689299942029834E-09 1.676381256032755E-10 0.2475000023841858
v 0.01549999602138996 0.00749999983236193 0.2475000023841858
v 0.01583492942154407 0.0087500000372529 0.2475000023841858
v 0.02016505785286426 0.00625000009313225 0.2475000023841858
v 0.01925000734627246 0.00533493654802441 0.2475000023841858
v 0.01799999363720417 0.00499999988824129 0.2475000023841858
v 0.36700001358985904 1.676381256032755E-10 -5.551115123125783E-17
v 0.02016505785286426 0.00625000009313225 0
v 0.36700001358985904 0.01499999966472387 0
v 0.02050000615417957 0.00749999983236193 0
v 0.02016505785286426 0.0087500000372529 0
v 0.01583492942154407 0.00625000009313225 0
v 0.01674999482929706 0.00533493654802441 0
v 1.6689299942029834E-09 1.6763807009212428E-10 0
v 0.01799999363720417 0.00499999988824129 0
v 0.01925000734627246 0.00533493654802441 0
v 0.01925000734627246 0.00966506358236074 0
v 0.01799999363720417 0.00999999977648258 0
v 1.6689299942029834E-09 0.01499999966472387 0
v 0.01674999482929706 0.00966506358236074 0
v 0.01583492942154407 0.0087500000372529 0
v 0.01549999602138996 0.00749999983236193 0
v 0.36700001358985904 0.01499999966472387 5.551115123125783E-17
v 0.36700001358985904 1.676381256032755E-10 0
v 1.6689299942029834E-09 1.6763807009212428E-10 5.551115123125783E-17
v 1.6689299942029834E-09 0.01499999966472387 5.551115123125783E-17
# 36 vertices

vn 2.2996816409625373E-25 -2.678247607730983E-25 1
vn -2.2996816409625373E-25 2.678247607730983E-25 -1
vn 1 7.474385554928631E-09 -1.7993848222762072E-25
vn -7.474385554928631E-09 1 -2.7004026183426953E-24
vn -1 -7.474385554928631E-09 1.7993848222762072E-25
vn 7.474385554928631E-09 -1 2.7004026183426953E-24
vn 0.17186188697814942 0.9851210713386536 -3.0641112774298215E-24
vn 0.34372377395629884 0.93907082080841072 -1.2604451098057535E-24
vn 0.64139729738235472 0.76720887422561648 -6.613482057666844E-24
vn 0.76720893383026128 0.64139729738235472 9.068781254022392E-24
vn 0.93907082080841072 0.3437238037586212 -2.924894090952549E-24
vn 0.9851210713386536 0.17186188697814942 3.964800315714059E-24
vn 0.9851210713386536 -0.17186188697814942 -2.58966764927888E-24
vn 0.93907082080841072 -0.34372377395629884 8.08300173419649E-24
vn 0.76720887422561648 -0.64139729738235472 -8.121128959467632E-24
vn 0.64139729738235472 -0.76720893383026128 -2.781769281981264E-24
vn 0.3437238037586212 -0.93907082080841072 1.2859194498914096E-25
vn 0.17186188697814942 -0.9851210713386536 -2.646657722085214E-24
vn -0.17186188697814942 -0.9851210713386536 3.0641112774298215E-24
vn -0.34372377395629884 -0.93907082080841072 1.2604451098057535E-24
vn -0.64139729738235472 -0.76720887422561648 6.613482057666844E-24
vn -0.76720893383026128 -0.64139729738235472 -9.068781254022392E-24
vn -0.93907082080841072 -0.3437238037586212 2.924894090952549E-24
vn -0.9851210713386536 -0.17186188697814942 -3.964800315714059E-24
vn -0.9851210713386536 0.17186188697814942 2.58966764927888E-24
vn -0.93907082080841072 0.34372377395629884 -8.08300173419649E-24
vn -0.76720887422561648 0.64139729738235472 8.121128959467632E-24
vn -0.64139729738235472 0.76720893383026128 2.781769281981264E-24
vn -0.3437238037586212 0.93907082080841072 -1.2859194498914096E-25
vn -0.17186188697814942 0.9851210713386536 2.646657722085214E-24
# 30 vertex normals

g obj_46011470
s 1
f 1//1 2//1 3//1
f 4//1 5//1 6//1
f 6//1 5//1 7//1
f 3//1 2//1 6//1
f 6//1 2//1 8//1
f 6//1 8//1 4//1
f 9//1 10//1 11//1
f 11//1 10//1 12//1
f 11//1 12//1 3//1
f 3//1 12//1 13//1
f 3//1 13//1 1//1
f 5//1 14//1 7//1
f 7//1 14//1 15//1
f 7//1 15//1 11//1
f 11//1 15//1 16//1
f 11//1 16//1 9//1
f 17//2 18//2 19//2
f 19//2 18//2 20//2
f 19//2 20//2 21//2
f 22//2 23//2 24//2
f 24//2 23//2 25//2
f 24//2 25//2 17//2
f 17//2 25//2 26//2
f 17//2 26//2 18//2
f 21//2 27//2 19//2
f 19//2 27//2 28//2
f 19//2 28//2 29//2
f 28//2 30//2 29//2
f 29//2 30//2 31//2
f 29//2 31//2 24//2
f 24//2 31//2 32//2
f 24//2 32//2 22//2
f 6//3 7//3 33//3
f 33//3 7//3 34//3
f 3//4 6//4 29//4
f 29//4 6//4 19//4
f 11//5 3//5 35//5
f 35//5 3//5 36//5
f 7//6 11//6 17//6
f 17//6 11//6 24//6
f 16//7 25//7 9//7
f 9//8 25//8 23//8
f 9//9 23//9 10//9
f 10//10 23//10 22//10
f 10//11 22//11 12//11
f 12//12 22//12 32//12
f 12//13 32//13 13//13
f 13//14 32//14 31//14
f 13//15 31//15 1//15
f 1//16 31//16 30//16
f 1//17 30//17 2//17
f 2//18 30//18 28//18
f 2//19 28//19 8//19
f 8//20 28//20 27//20
f 8//21 27//21 4//21
f 4//22 27//22 21//22
f 4//23 21//23 5//23
f 5//24 21//24 20//24
f 5//25 20//25 14//25
f 14//26 20//26 18//26
f 14//27 18//27 15//27
f 15//28 18//28 26//28
f 15//29 26//29 16//29
f 16//30 26//30 25//30
#64 polygons

