# Blender v3.2.2 OBJ File: ''
# www.blender.org
mtllib Link1-texture.mtl
o Link1.001
v 0.385000 0.290000 0.525000
v 0.385000 0.290000 0.277500
v 0.385000 0.001000 0.525000
v 0.385000 0.001000 0.277500
v 0.037500 0.282500 0.525000
v 0.037165 0.283750 0.525000
v 0.037165 0.281250 0.525000
v 0.036250 0.280335 0.525000
v 0.036250 0.284665 0.525000
v 0.035000 0.285000 0.525000
v 0.015000 0.290000 0.525000
v 0.033750 0.284665 0.525000
v 0.032835 0.283750 0.525000
v 0.032500 0.282500 0.525000
v 0.032835 0.281250 0.525000
v 0.015000 0.001000 0.525000
v 0.033750 0.280335 0.525000
v 0.035000 0.280000 0.525000
v 0.015000 0.001000 0.277500
v 0.015000 0.290000 0.277500
v -0.000000 -0.000000 0.540000
v -0.000000 0.290000 0.540000
v -0.000000 0.000000 -0.000000
v -0.000000 0.290000 0.000000
v 0.400000 -0.000000 0.540000
v 0.400000 0.290000 0.540000
v 0.400000 0.000000 -0.000000
v 0.400000 0.290000 0.000000
v 0.385000 0.290000 0.262500
v 0.385000 0.290000 0.015000
v 0.385000 0.001000 0.262500
v 0.385000 0.001000 0.015000
v 0.037500 0.282500 0.262500
v 0.037165 0.283750 0.262500
v 0.037165 0.281250 0.262500
v 0.036250 0.280335 0.262500
v 0.036250 0.284665 0.262500
v 0.035000 0.285000 0.262500
v 0.015000 0.290000 0.262500
v 0.033750 0.284665 0.262500
v 0.032835 0.283750 0.262500
v 0.032500 0.282500 0.262500
v 0.032835 0.281250 0.262500
v 0.015000 0.001000 0.262500
v 0.033750 0.280335 0.262500
v 0.035000 0.280000 0.262500
v 0.015000 0.001000 0.015000
v 0.015000 0.290000 0.015000
v 0.032500 0.282500 0.015000
v 0.032835 0.283750 0.015000
v 0.036250 0.280335 0.015000
v 0.037165 0.281250 0.015000
v 0.037500 0.282500 0.015000
v 0.037165 0.283750 0.015000
v 0.035000 0.280000 0.015000
v 0.033750 0.280335 0.015000
v 0.032835 0.281250 0.015000
v 0.033750 0.284665 0.015000
v 0.035000 0.285000 0.015000
v 0.036250 0.284665 0.015000
v 0.032500 0.282500 0.277500
v 0.032835 0.283750 0.277500
v 0.036250 0.280335 0.277500
v 0.037165 0.281250 0.277500
v 0.037500 0.282500 0.277500
v 0.037165 0.283750 0.277500
v 0.035000 0.280000 0.277500
v 0.033750 0.280335 0.277500
v 0.032835 0.281250 0.277500
v 0.033750 0.284665 0.277500
v 0.035000 0.285000 0.277500
v 0.036250 0.284665 0.277500
vt 0.712237 0.919443
vt 0.741217 0.919443
vt 0.712237 0.953282
vt 0.741217 0.953282
vt 0.738687 0.815806
vt 0.733907 0.594328
vt 0.734704 0.594114
vt 0.733110 0.594114
vt 0.594908 0.765645
vt 0.596170 0.815806
vt 0.554493 0.815806
vt 0.594776 0.765513
vt 0.735287 0.593531
vt 0.735500 0.592734
vt 0.738687 0.579987
vt 0.735287 0.591938
vt 0.734704 0.591354
vt 0.733907 0.591141
vt 0.733110 0.591354
vt 0.554493 0.579987
vt 0.732527 0.591938
vt 0.554493 0.762449
vt 0.594776 0.765153
vt 0.594728 0.765333
vt 0.045235 0.819711
vt 0.045235 0.872530
vt 0.000000 0.819711
vt 0.000000 0.872530
vt 0.717586 0.995697
vt 0.184831 0.995698
vt 0.717586 0.003672
vt 0.184831 0.003672
vt 0.077863 0.000000
vt 0.792761 0.000000
vt 0.077863 0.986066
vt 0.792761 0.986066
vt 0.000000 0.004751
vt 0.532410 0.004751
vt 0.000000 0.996134
vt 0.532410 0.996134
vt 0.822365 0.762540
vt 0.855053 0.762540
vt 0.822365 0.800709
vt 0.855053 0.800709
vt 0.738687 0.579987
vt 0.733907 0.358509
vt 0.734704 0.358295
vt 0.733110 0.358295
vt 0.749938 0.318573
vt 0.750933 0.358135
vt 0.718062 0.358135
vt 0.749834 0.318469
vt 0.735287 0.357712
vt 0.735500 0.356915
vt 0.738687 0.344168
vt 0.735287 0.356119
vt 0.734704 0.355535
vt 0.733907 0.355322
vt 0.733110 0.355535
vt 0.554493 0.344168
vt 0.732527 0.356119
vt 0.718062 0.316052
vt 0.749834 0.318184
vt 0.749796 0.318326
vt 0.856668 0.818514
vt 0.856668 0.870650
vt 0.812019 0.818514
vt 0.812019 0.870650
vt 0.044405 0.020817
vt 0.748469 0.020817
vt 0.044405 0.991939
vt 0.748469 0.991939
vt 0.553856 0.834927
vt 0.549076 0.823773
vt 0.549873 0.823560
vt 0.547696 0.821383
vt 0.369662 0.834927
vt 0.548279 0.820800
vt 0.414433 0.831386
vt 0.369662 0.775819
vt 0.414632 0.831332
vt 0.415831 0.775819
vt 0.549076 0.820586
vt 0.553856 0.599108
vt 0.549873 0.820800
vt 0.547483 0.822180
vt 0.547696 0.822976
vt 0.548279 0.823560
vt 0.550456 0.822976
vt 0.550669 0.822180
vt 0.550456 0.821383
vt 0.878904 0.235819
vt 0.874124 0.224665
vt 0.874920 0.224452
vt 0.872744 0.222275
vt 0.694710 0.235819
vt 0.873327 0.221692
vt 0.736098 0.232546
vt 0.694710 0.181176
vt 0.736283 0.232496
vt 0.737390 0.181176
vt 0.874124 0.221479
vt 0.878904 0.000000
vt 0.874920 0.221692
vt 0.872530 0.223072
vt 0.872744 0.223869
vt 0.873327 0.224452
vt 0.875504 0.223869
vt 0.875717 0.223072
vt 0.875504 0.222275
vt 0.264500 0.167304
vt 0.254940 0.344168
vt 0.254940 0.000000
vt 0.500319 0.167304
vt 0.500319 0.009560
vt 0.509879 0.000000
vt 0.264500 0.009560
vt 0.509879 0.344168
vt 0.500319 0.176864
vt 0.264500 0.176864
vt 0.264500 0.334608
vt 0.500319 0.334608
vt 0.891884 0.005640
vt 0.891884 0.194786
vt 0.763321 0.005640
vt 0.763321 0.194786
vt 0.845528 0.707455
vt 0.845528 0.768804
vt 0.804491 0.707455
vt 0.804491 0.768804
vt 0.772220 0.529858
vt 0.772220 0.579987
vt 0.738687 0.529858
vt 0.738687 0.579987
vt 0.316867 0.846080
vt 0.317664 0.688337
vt 0.317664 0.846080
vt 0.318247 0.688337
vt 0.318247 0.846080
vt 0.365892 0.846080
vt 0.365892 0.688337
vt 0.366689 0.688337
vt 0.366689 0.846080
vt 0.367486 0.688337
vt 0.367486 0.846080
vt 0.321007 0.846080
vt 0.321007 0.688337
vt 0.321590 0.688337
vt 0.321590 0.846080
vt 0.322387 0.688337
vt 0.322387 0.846080
vt 0.323184 0.688337
vt 0.323184 0.846080
vt 0.325360 0.846080
vt 0.325360 0.688337
vt 0.325944 0.688337
vt 0.325944 0.846080
vt 0.326740 0.688337
vt 0.326740 0.846080
vt 0.327537 0.688337
vt 0.327537 0.846080
vt 0.315488 0.846080
vt 0.315488 0.688337
vt 0.316071 0.688337
vt 0.316071 0.846080
vt 0.316867 0.688337
vt 0.319627 0.846080
vt 0.320424 0.688337
vt 0.320424 0.846080
vt 0.321007 0.688337
vt 0.321007 0.846080
vt 0.364299 0.846080
vt 0.364299 0.688337
vt 0.365096 0.688337
vt 0.365096 0.846080
vt 0.365892 0.688337
vt 0.365892 0.846080
vt 0.367486 0.846080
vt 0.367486 0.688337
vt 0.368069 0.688337
vt 0.368069 0.846080
vt 0.368866 0.688337
vt 0.368866 0.846080
vt 0.369662 0.688337
vt 0.369662 0.846080
vt 0.323184 0.846080
vt 0.323184 0.688337
vt 0.323767 0.688337
vt 0.323767 0.846080
vt 0.324564 0.688337
vt 0.324564 0.846080
vt 0.325360 0.688337
vt 0.325360 0.846080
vt 0.318247 0.846080
vt 0.318247 0.688337
vt 0.318831 0.688337
vt 0.318831 0.846080
vt 0.319627 0.688337
vn -1.0000 0.0000 0.0000
vn -0.0000 0.0000 -1.0000
vn 1.0000 0.0000 0.0000
vn 0.0000 -0.0000 1.0000
vn 0.0000 1.0000 0.0000
vn 0.0000 -1.0000 -0.0000
vn 0.9391 0.3437 0.0000
vn 0.7672 0.6414 0.0000
vn 0.6414 0.7672 0.0000
vn 0.3437 0.9391 0.0000
vn 0.1719 0.9851 0.0000
vn -0.1719 0.9851 0.0000
vn -0.3437 0.9391 0.0000
vn -0.6414 0.7672 0.0000
vn -0.7672 0.6414 -0.0000
vn -0.9391 0.3437 0.0000
vn -0.9851 0.1719 0.0000
vn -0.9851 -0.1719 0.0000
vn -0.9391 -0.3437 -0.0000
vn -0.7672 -0.6414 0.0000
vn -0.6414 -0.7672 -0.0000
vn -0.3437 -0.9391 0.0000
vn -0.1719 -0.9851 0.0000
vn 0.1719 -0.9851 0.0000
vn 0.3437 -0.9391 0.0000
vn 0.6414 -0.7672 0.0000
vn 0.7672 -0.6414 -0.0000
vn 0.9391 -0.3437 0.0000
vn 0.9851 -0.1719 -0.0000
vn 0.9851 0.1719 0.0000
usemtl material_0_0.005
s 1
f 1/1/1 2/2/1 3/3/1
f 3/3/1 2/2/1 4/4/1
f 1/5/2 5/6/2 6/7/2
f 5/6/2 1/5/2 7/8/2
f 7/9/2 1/10/2 3/11/2
f 7/9/2 3/11/2 8/12/2
f 6/7/2 9/13/2 1/5/2
f 1/5/2 9/13/2 10/14/2
f 1/5/2 10/14/2 11/15/2
f 11/15/2 10/14/2 12/16/2
f 11/15/2 12/16/2 13/17/2
f 13/17/2 14/18/2 11/15/2
f 11/15/2 14/18/2 15/19/2
f 11/15/2 15/19/2 16/20/2
f 16/20/2 15/19/2 17/21/2
f 16/22/2 17/23/2 3/11/2
f 3/11/2 17/23/2 18/24/2
f 3/11/2 18/24/2 8/12/2
f 19/25/3 20/26/3 16/27/3
f 16/27/3 20/26/3 11/28/3
f 21/29/1 22/30/1 23/31/1
f 23/31/1 22/30/1 24/32/1
f 25/33/4 26/34/4 21/35/4
f 21/35/4 26/34/4 22/36/4
f 27/37/3 28/38/3 25/39/3
f 25/39/3 28/38/3 26/40/3
f 29/41/1 30/42/1 31/43/1
f 31/43/1 30/42/1 32/44/1
f 29/45/2 33/46/2 34/47/2
f 33/46/2 29/45/2 35/48/2
f 35/49/2 29/50/2 31/51/2
f 35/49/2 31/51/2 36/52/2
f 34/47/2 37/53/2 29/45/2
f 29/45/2 37/53/2 38/54/2
f 29/45/2 38/54/2 39/55/2
f 39/55/2 38/54/2 40/56/2
f 39/55/2 40/56/2 41/57/2
f 41/57/2 42/58/2 39/55/2
f 39/55/2 42/58/2 43/59/2
f 39/55/2 43/59/2 44/60/2
f 44/60/2 43/59/2 45/61/2
f 44/62/2 45/63/2 31/51/2
f 31/51/2 45/63/2 46/64/2
f 31/51/2 46/64/2 36/52/2
f 47/65/3 48/66/3 44/67/3
f 44/67/3 48/66/3 39/68/3
f 23/69/2 24/70/2 27/71/2
f 27/71/2 24/70/2 28/72/2
f 48/73/4 49/74/4 50/75/4
f 51/76/4 47/77/4 52/78/4
f 52/79/4 47/77/4 32/80/4
f 52/79/4 32/80/4 53/81/4
f 53/81/4 32/80/4 30/82/4
f 53/83/4 30/84/4 54/85/4
f 51/76/4 55/86/4 47/77/4
f 47/77/4 55/86/4 56/87/4
f 47/77/4 56/87/4 48/73/4
f 48/73/4 56/87/4 57/88/4
f 48/73/4 57/88/4 49/74/4
f 50/75/4 58/89/4 48/73/4
f 48/73/4 58/89/4 59/90/4
f 48/73/4 59/90/4 30/84/4
f 30/84/4 59/90/4 60/91/4
f 30/84/4 60/91/4 54/85/4
f 20/92/4 61/93/4 62/94/4
f 63/95/4 19/96/4 64/97/4
f 64/98/4 19/96/4 4/99/4
f 64/98/4 4/99/4 65/100/4
f 65/100/4 4/99/4 2/101/4
f 65/102/4 2/103/4 66/104/4
f 63/95/4 67/105/4 19/96/4
f 19/96/4 67/105/4 68/106/4
f 19/96/4 68/106/4 20/92/4
f 20/92/4 68/106/4 69/107/4
f 20/92/4 69/107/4 61/93/4
f 62/94/4 70/108/4 20/92/4
f 20/92/4 70/108/4 71/109/4
f 20/92/4 71/109/4 2/103/4
f 2/103/4 71/109/4 72/110/4
f 2/103/4 72/110/4 66/104/4
f 29/111/5 26/112/5 28/113/5
f 39/114/5 48/115/5 24/116/5
f 24/116/5 48/115/5 28/113/5
f 28/113/5 48/115/5 30/117/5
f 28/113/5 30/117/5 29/111/5
f 24/116/5 22/118/5 39/114/5
f 39/114/5 22/118/5 20/119/5
f 39/114/5 20/119/5 29/111/5
f 29/111/5 20/119/5 2/120/5
f 29/111/5 2/120/5 26/112/5
f 26/112/5 2/120/5 1/121/5
f 26/112/5 1/121/5 22/118/5
f 22/118/5 1/121/5 11/122/5
f 22/118/5 11/122/5 20/119/5
f 27/123/6 25/124/6 23/125/6
f 23/125/6 25/124/6 21/126/6
f 4/127/5 19/128/5 3/129/5
f 3/129/5 19/128/5 16/130/5
f 32/131/5 47/132/5 31/133/5
f 31/133/5 47/132/5 44/134/5
f 5/135/7 66/136/7 6/137/7
f 6/137/8 66/136/8 72/138/8
f 6/137/9 72/138/9 9/139/9
f 9/140/10 72/141/10 71/142/10
f 9/140/11 71/142/11 10/143/11
f 10/143/12 71/142/12 70/144/12
f 10/143/13 70/144/13 12/145/13
f 12/146/14 70/147/14 62/148/14
f 12/146/15 62/148/15 13/149/15
f 13/149/16 62/148/16 61/150/16
f 13/149/17 61/150/17 14/151/17
f 14/151/18 61/150/18 69/152/18
f 14/151/19 69/152/19 15/153/19
f 15/154/20 69/155/20 68/156/20
f 15/154/21 68/156/21 17/157/21
f 17/157/22 68/156/22 67/158/22
f 17/157/23 67/158/23 18/159/23
f 18/159/24 67/158/24 63/160/24
f 18/159/25 63/160/25 8/161/25
f 8/162/26 63/163/26 64/164/26
f 8/162/27 64/164/27 7/165/27
f 7/165/28 64/164/28 65/166/28
f 7/165/29 65/166/29 5/135/29
f 5/135/30 65/166/30 66/136/30
f 33/167/7 54/168/7 34/169/7
f 34/169/8 54/168/8 60/170/8
f 34/169/9 60/170/9 37/171/9
f 37/172/10 60/173/10 59/174/10
f 37/172/11 59/174/11 38/175/11
f 38/175/12 59/174/12 58/176/12
f 38/175/13 58/176/13 40/177/13
f 40/178/14 58/179/14 50/180/14
f 40/178/15 50/180/15 41/181/15
f 41/181/16 50/180/16 49/182/16
f 41/181/17 49/182/17 42/183/17
f 42/183/18 49/182/18 57/184/18
f 42/183/19 57/184/19 43/185/19
f 43/186/20 57/187/20 56/188/20
f 43/186/21 56/188/21 45/189/21
f 45/189/22 56/188/22 55/190/22
f 45/189/23 55/190/23 46/191/23
f 46/191/24 55/190/24 51/192/24
f 46/191/25 51/192/25 36/193/25
f 36/194/26 51/195/26 52/196/26
f 36/194/27 52/196/27 35/197/27
f 35/197/28 52/196/28 53/198/28
f 35/197/29 53/198/29 33/167/29
f 33/167/30 53/198/30 54/168/30
