# Blender v3.2.2 OBJ File: ''
# www.blender.org
mtllib Link3-texture.mtl
o Link3.002
v 0.016750 0.009665 0.247500
v 0.018000 0.010000 0.247500
v 0.000000 0.015000 0.247500
v 0.020165 0.008750 0.247500
v 0.020500 0.007500 0.247500
v 0.367000 0.015000 0.247500
v 0.367000 -0.000000 0.247500
v 0.019250 0.009665 0.247500
v 0.016750 0.005335 0.247500
v 0.015835 0.006250 0.247500
v 0.000000 -0.000000 0.247500
v 0.015500 0.007500 0.247500
v 0.015835 0.008750 0.247500
v 0.020165 0.006250 0.247500
v 0.019250 0.005335 0.247500
v 0.018000 0.005000 0.247500
v 0.367000 0.000000 -0.000000
v 0.020165 0.006250 0.000000
v 0.367000 0.015000 0.000000
v 0.020500 0.007500 0.000000
v 0.020165 0.008750 0.000000
v 0.015835 0.006250 0.000000
v 0.016750 0.005335 0.000000
v 0.000000 0.000000 0.000000
v 0.018000 0.005000 0.000000
v 0.019250 0.005335 0.000000
v 0.019250 0.009665 0.000000
v 0.018000 0.010000 0.000000
v 0.000000 0.015000 0.000000
v 0.016750 0.009665 0.000000
v 0.015835 0.008750 0.000000
v 0.015500 0.007500 0.000000
v 0.367000 0.015000 0.000000
v 0.367000 0.000000 0.000000
v 0.000000 0.000000 0.000000
v 0.000000 0.015000 0.000000
vt 0.950322 0.640510
vt 0.950935 0.638224
vt 0.960079 0.671141
vt 0.948649 0.634264
vt 0.946363 0.633652
vt 0.960079 0.000000
vt 0.932648 0.000000
vt 0.950322 0.635938
vt 0.942404 0.640510
vt 0.944077 0.642183
vt 0.932648 0.671141
vt 0.946363 0.642796
vt 0.948649 0.642183
vt 0.944077 0.634264
vt 0.942404 0.635938
vt 0.941791 0.638224
vt 0.932648 0.000000
vt 0.921218 0.634264
vt 0.905217 0.000000
vt 0.918932 0.633652
vt 0.916646 0.634264
vt 0.921218 0.642183
vt 0.922892 0.640510
vt 0.932648 0.671141
vt 0.923504 0.638224
vt 0.922892 0.635938
vt 0.914973 0.635938
vt 0.914361 0.638224
vt 0.905217 0.671141
vt 0.914973 0.640510
vt 0.916646 0.642183
vt 0.918932 0.642796
vt 0.987509 0.905217
vt 0.960079 0.905217
vt 0.987509 0.452608
vt 0.960079 0.452608
vt 0.992244 0.672076
vt 0.007851 0.672932
vt 0.991667 0.008215
vt 0.007274 0.009071
vt 0.987509 0.452608
vt 0.960079 0.452608
vt 0.987509 0.000000
vt 0.960079 0.000000
vt 0.991461 0.993599
vt 0.004747 0.984569
vt 0.997551 0.328173
vt 0.010837 0.319142
vt 0.989796 0.905217
vt 0.989795 0.452608
vt 0.992081 0.905217
vt 0.992081 0.452608
vt 0.993755 0.905217
vt 0.993755 0.452608
vt 0.995428 0.452608
vt 0.995428 0.000000
vt 0.997714 0.452608
vt 0.997714 0.000000
vt 1.000000 0.452608
vt 1.000000 0.000000
vt 0.993755 0.905217
vt 0.993755 0.452608
vt 0.995428 0.905217
vt 0.995428 0.452608
vt 0.997714 0.905217
vt 0.997714 0.452608
vt 1.000000 0.905217
vt 1.000000 0.452608
vt 0.987510 0.452608
vt 0.987509 0.000000
vt 0.989183 0.452608
vt 0.989183 0.000000
vt 0.991469 0.452608
vt 0.991469 0.000000
vt 0.993755 0.452608
vt 0.993755 0.000000
vt 0.995428 0.452608
vt 0.995428 0.000000
vt 0.987510 0.905217
vt 0.987510 0.452608
vn -0.0000 0.0000 1.0000
vn 0.0003 0.0000 1.0000
vn 0.0000 0.0000 -1.0000
vn 1.0000 0.0000 0.0000
vn 0.0000 1.0000 0.0000
vn -1.0000 0.0000 0.0000
vn 0.0000 -1.0000 -0.0000
vn 0.1719 0.9851 0.0000
vn 0.3437 0.9391 -0.0000
vn 0.6414 0.7672 0.0000
vn 0.7672 0.6414 -0.0000
vn 0.9391 0.3437 0.0000
vn 0.9851 0.1719 -0.0000
vn 0.9851 -0.1719 -0.0000
vn 0.9391 -0.3437 -0.0000
vn 0.7672 -0.6414 -0.0000
vn 0.6414 -0.7672 -0.0000
vn 0.3437 -0.9391 -0.0000
vn 0.1719 -0.9851 -0.0000
vn -0.1719 -0.9851 -0.0000
vn -0.3437 -0.9391 -0.0000
vn -0.6414 -0.7672 -0.0000
vn -0.7672 -0.6414 -0.0000
vn -0.9391 -0.3437 -0.0000
vn -0.9851 -0.1719 -0.0000
vn -0.9851 0.1719 0.0000
vn -0.9391 0.3437 -0.0000
vn -0.7672 0.6414 0.0000
vn -0.6414 0.7672 -0.0000
vn -0.3437 0.9391 0.0000
vn -0.1719 0.9851 -0.0000
usemtl material_0_1
s 1
f 1/1/1 2/2/1 3/3/1
f 4/4/1 5/5/1 6/6/1
f 6/6/1 5/5/1 7/7/1
f 3/3/1 2/2/1 6/6/1
f 6/6/1 2/2/1 8/8/1
f 6/6/1 8/8/1 4/4/1
f 9/9/1 10/10/1 11/11/1
f 11/11/1 10/10/1 12/12/1
f 11/11/1 12/12/1 3/3/1
f 3/3/1 12/12/1 13/13/1
f 3/3/1 13/13/1 1/1/1
f 5/5/1 14/14/1 7/7/1
f 7/7/1 14/14/1 15/15/1
f 7/7/1 15/15/1 11/11/1
f 11/11/1 15/15/1 16/16/2
f 11/11/1 16/16/2 9/9/1
f 17/17/3 18/18/3 19/19/3
f 19/19/3 18/18/3 20/20/3
f 19/19/3 20/20/3 21/21/3
f 22/22/3 23/23/3 24/24/3
f 24/24/3 23/23/3 25/25/3
f 24/24/3 25/25/3 17/17/3
f 17/17/3 25/25/3 26/26/3
f 17/17/3 26/26/3 18/18/3
f 21/21/3 27/27/3 19/19/3
f 19/19/3 27/27/3 28/28/3
f 19/19/3 28/28/3 29/29/3
f 28/28/3 30/30/3 29/29/3
f 29/29/3 30/30/3 31/31/3
f 29/29/3 31/31/3 24/24/3
f 24/24/3 31/31/3 32/32/3
f 24/24/3 32/32/3 22/22/3
f 6/33/4 7/34/4 33/35/4
f 33/35/4 7/34/4 34/36/4
f 3/37/5 6/38/5 29/39/5
f 29/39/5 6/38/5 19/40/5
f 11/41/6 3/42/6 35/43/6
f 35/43/6 3/42/6 36/44/6
f 7/45/7 11/46/7 17/47/7
f 17/47/7 11/46/7 24/48/7
f 16/49/8 25/50/8 9/51/8
f 9/51/9 25/50/9 23/52/9
f 9/51/10 23/52/10 10/53/10
f 10/53/11 23/52/11 22/54/11
f 10/55/12 22/56/12 12/57/12
f 12/57/13 22/56/13 32/58/13
f 12/57/14 32/58/14 13/59/14
f 13/59/15 32/58/15 31/60/15
f 13/61/16 31/62/16 1/63/16
f 1/63/17 31/62/17 30/64/17
f 1/63/18 30/64/18 2/65/18
f 2/65/19 30/64/19 28/66/19
f 2/65/20 28/66/20 8/67/20
f 8/67/21 28/66/21 27/68/21
f 8/69/22 27/70/22 4/71/22
f 4/71/23 27/70/23 21/72/23
f 4/71/24 21/72/24 5/73/24
f 5/73/25 21/72/25 20/74/25
f 5/73/26 20/74/26 14/75/26
f 14/75/27 20/74/27 18/76/27
f 14/75/28 18/76/28 15/77/28
f 15/77/29 18/76/29 26/78/29
f 15/79/30 26/80/30 16/49/30
f 16/49/31 26/80/31 25/50/31
