mtllib new-7.mtl
v 0.473878 0.074792 -0.147161
v 0.468442 0.074792 -0.147161
v 0.473878 0.074792 0.374884
v 0.473878 0.073989 -0.147161
v 0.468445 0.074792 -0.132186
v 0.468445 0.073989 -0.147161
v 0.468442 0.074792 0.374884
v 0.467596 0.074565 -0.147161
v 0.467643 0.074792 -0.132186
v 0.473878 0.073989 0.374884
v 0.468218 0.074792 -0.148008
v 0.467551 0.073989 -0.147161
v 0.467596 0.074565 0.374884
v 0.468445 -0.008075 -0.132186
v 0.468445 0.067305 -0.147161
v 0.468218 0.067305 -0.148008
v 0.467551 0.073989 0.374884
v 0.466976 0.073945 -0.147161
v 0.467643 0.074792 -0.148583
v 0.467643 -0.008075 -0.132186
v 0.468445 -0.004956 -0.147161
v 0.468445 0.045314 -0.147161
v 0.467599 0.067305 -0.148627
v 0.467551 0.055522 0.352516
v 0.467551 -0.010749 -0.147161
v 0.466976 0.073945 0.374884
v 0.467643 0.074792 -0.149746
v 0.468445 -0.008075 -0.147161
v 0.467643 -0.004956 -0.147161
v 0.468445 0.017059 -0.147161
v 0.468445 0.042194 -0.147161
v 0.467643 0.067305 -0.147161
v 0.467643 0.067305 -0.148052
v 0.467551 0.055522 0.357863
v 0.467551 0.029682 0.352516
v 0.467324 -0.011596 -0.147161
v 0.466749 0.073098 -0.147161
v 0.467643 0.074565 -0.148899
v 0.467599 0.074792 -0.148627
v 0.468218 -0.008075 -0.148008
v 0.467643 0.017059 -0.147161
v 0.467643 -0.004956 -0.148052
v 0.468218 -0.004956 -0.148008
v 0.468445 0.020179 -0.147161
v 0.468218 0.042194 -0.148008
v 0.467643 0.045314 -0.147161
v 0.466752 0.067305 -0.148052
v 0.467551 0.029682 0.357863
v 0.466749 0.055522 0.357863
v 0.466749 0.055522 0.352516
v 0.466752 -0.012443 -0.147161
v 0.467551 -0.010749 0.374884
v 0.466749 0.073098 0.374884
v 0.467643 0.073945 -0.148279
v 0.466752 0.074792 -0.148854
v 0.467643 -0.008075 -0.148052
v 0.467643 0.020179 -0.147161
v 0.468218 0.017059 -0.148008
v 0.467643 0.042194 -0.147161
v 0.468218 0.045314 -0.148008
v 0.466752 0.067305 -0.148854
v 0.467643 0.073098 -0.148052
v 0.466749 0.029682 0.352516
v 0.467324 -0.011596 0.374884
v 0.466749 0.029682 0.357863
v 0.466749 -0.011641 -0.147161
v 0.466752 0.073989 -0.148854
v 0.467599 -0.008075 -0.148627
v 0.467643 0.017059 -0.148052
v 0.467599 -0.004956 -0.148627
v 0.466749 -0.008075 -0.148052
v 0.468218 0.020179 -0.148008
v 0.467643 0.042194 -0.148052
v 0.467599 0.045314 -0.148627
v 0.467643 0.045314 -0.148052
v 0.466752 0.045314 -0.148854
v 0.466752 -0.012443 0.374884
v 0.466752 -0.012216 -0.148008
v 0.467643 0.020179 -0.148052
v 0.466752 -0.004956 -0.148052
v 0.467599 0.020179 -0.148627
v 0.467599 0.017059 -0.148627
v 0.467599 0.042194 -0.148627
v 0.466752 0.045314 -0.148052
v 0.466752 0.020179 -0.148052
v 0.466749 -0.011641 -0.148052
v 0.466749 -0.008075 -0.148854
v 0.466752 0.017059 -0.148052
v 0.466752 -0.004956 -0.148854
v 0.466752 0.042194 -0.148052
v 0.466752 0.042194 -0.148854
v 0.466749 -0.011641 0.374884
v 0.466751 -0.011596 -0.148627
v 0.466750 -0.010749 -0.148854
v 0.466752 0.017059 -0.148854
v 0.466752 0.020179 -0.148854
vn 0.000000 1.000000 0.000000
vn 0.416464 0.723395 -0.550689
vn 0.000000 -1.000000 0.000000
vn -0.416464 -0.723395 0.550689
vn -0.000006 -0.000039 -1.000000
vn 0.000006 0.000039 1.000000
vn 0.242512 0.970148 -0.000007
vn -0.242512 -0.970148 0.000007
vn 1.000000 0.000000 0.000000
vn -1.000000 0.000000 0.000000
vn 0.656699 0.000032 -0.754153
vn -0.656699 -0.000032 0.754153
vn -0.130401 0.991461 0.000000
vn 0.130401 -0.991461 0.000000
vn -0.258575 0.965991 0.000000
vn 0.258575 -0.965991 0.000000
vn 0.966163 0.000124 -0.257932
vn -0.966163 -0.000124 0.257932
vn 0.000017 0.000000 -1.000000
vn -0.000017 0.000000 1.000000
vn 0.000000 0.000000 1.000000
vn 0.000000 0.000000 -1.000000
vn 0.842348 0.000057 -0.538934
vn -0.842348 -0.000057 0.538934
vn -0.707107 0.707107 0.000000
vn 0.707107 -0.707107 0.000000
vn 1.000000 0.000010 -0.000020
vn 0.842146 0.000004 -0.539250
vn -0.842146 -0.000004 0.539250
vn -1.000000 -0.000010 0.000020
vn 0.707107 0.000000 -0.707107
vn -0.707107 0.000000 0.707107
vn 0.991444 0.000005 -0.130536
vn -0.991444 -0.000005 0.130536
vn 0.991445 -0.130526 0.000000
vn -0.991445 0.130526 0.000000
vn -0.965921 0.258837 0.000000
vn 0.965921 -0.258837 0.000000
vn 0.965926 0.000000 -0.258819
vn -0.965926 0.000000 0.258819
vn 0.965926 -0.258819 0.000000
vn -0.965926 0.258819 0.000000
vn 0.258819 0.000000 -0.965926
vn -0.258819 0.000000 0.965926
vn 0.000000 0.000001 1.000000
vn 0.000000 0.130527 0.991445
vn 0.000000 -0.000001 -1.000000
vn 0.000000 -0.130527 -0.991445
vn 0.828536 -0.559935 0.000000
vn -0.828536 0.559935 0.000000
vn 1.000000 0.000514 0.000265
vn -1.000000 -0.000514 -0.000265
vn 0.130526 0.000000 -0.991445
vn -0.130526 0.000000 0.991445
vn 0.258401 -0.000076 -0.966038
vn 0.130312 -0.000038 -0.991473
vn -0.258401 0.000076 0.966038
vn -0.130312 0.000038 0.991473
vt 0.000000 0.018701
vt -0.060027 0.018701
vt 0.000000 5.783542
vt 0.000000 0.963310
vt 0.000000 0.954453
vt -0.060027 0.963310
vt -0.059995 0.184063
vt -0.963311 0.018701
vt -0.963311 5.783542
vt -0.954454 0.018701
vt -0.059995 0.954453
vt -0.060027 5.783542
vt 0.191103 0.018701
vt 0.181423 0.018701
vt 0.191134 0.184063
vt -0.068852 0.184063
vt -0.963312 0.018700
vt -0.963312 0.184062
vt -0.954455 0.018700
vt -0.954454 5.783542
vt -0.963319 0.002617
vt -0.954462 0.002626
vt -0.963319 -0.007053
vt -0.059994 0.954454
vt -0.069871 0.954454
vt -0.060027 0.963311
vt 0.059995 0.018701
vt 0.191103 5.783542
vt 0.181423 5.783542
vt -0.069377 0.960806
vt -0.062500 0.009352
vt 0.059995 0.963311
vt 0.068852 0.963311
vt 0.059995 0.048228
vt -0.880643 0.018701
vt -0.880650 -0.007056
vt 0.069871 0.018701
vt 0.069871 5.783542
vt -0.076222 0.953961
vt 0.630335 0.018701
vt 0.620655 0.018701
vt 0.630335 5.783542
vt -0.068852 0.003000
vt 0.068852 0.048228
vt -0.048229 0.184062
vt -0.082678 0.018701
vt -0.637796 0.018701
vt -0.880650 0.002624
vt -0.880642 -0.037582
vt -0.880642 -0.047262
vt -0.963311 -0.037582
vt -0.750521 5.536534
vt -0.069871 0.018701
vt 0.620655 5.783542
vt 0.963311 0.003000
vt 0.963311 -0.009843
vt 0.963311 0.184063
vt -0.963311 -0.046564
vt 0.059995 0.184063
vt 0.068852 0.184063
vt 0.059995 0.018702
vt 0.082677 0.018702
vt 0.048228 0.184063
vt -0.048229 0.018701
vt -0.325788 0.018701
vt -0.603347 0.018701
vt -0.059995 0.880642
vt -0.059995 0.637795
vt -0.068852 0.880642
vt -0.059995 0.018702
vt -0.068852 0.018702
vt -0.069345 0.002507
vt -0.068852 0.008858
vt -0.750521 5.595580
vt -0.465173 5.536534
vt -0.072376 0.009350
vt -0.018701 0.018701
vt 0.901721 0.018701
vt 0.892042 0.018701
vt 0.901721 5.783542
vt 0.960805 -0.000492
vt -0.963311 -0.047262
vt 0.062500 0.009352
vt 0.325787 0.018702
vt 0.082677 0.008858
vt -0.082677 0.002537
vt -0.048228 0.002537
vt -0.082677 -0.007143
vt -0.360237 0.018701
vt -0.059995 0.325787
vt -0.059995 0.082677
vt -0.068852 0.325787
vt -0.603346 0.002537
vt -0.603346 -0.007143
vt -0.637795 0.002537
vt -0.068852 0.637795
vt -0.078695 0.008858
vt -0.465173 5.595579
vt 0.069870 5.595579
vt 0.078728 5.595579
vt 0.069870 5.536534
vt 0.069870 0.750523
vt 0.078728 0.750523
vt 0.069870 0.465175
vt -0.078695 0.000000
vt 0.000020 0.018701
vt 0.000020 5.783542
vt 0.009701 0.018701
vt -0.078727 0.944612
vt 0.892041 5.783542
vt 0.953961 0.006353
vt -0.963311 -0.066333
vt -0.880642 -0.066333
vt -0.963311 -0.076014
vt 0.068852 0.008858
vt -0.048228 -0.007143
vt -0.068852 0.082677
vt 0.360236 0.018702
vt 0.048228 0.008858
vt -0.325787 0.002537
vt -0.325787 -0.007143
vt -0.360236 0.002537
vt 0.068852 0.018702
vt -0.059995 0.360236
vt -0.068852 0.360236
vt -0.059995 0.603346
vt -0.637795 -0.007143
vt 0.880642 0.018702
vt 0.637795 0.018702
vt 0.880642 0.008858
vt -0.078695 0.000001
vt 0.068852 0.880642
vt 0.068852 0.944610
vt 0.078695 0.880642
vt -0.018701 5.783542
vt -0.069870 0.750523
vt -0.069870 0.465175
vt -0.078728 0.750523
vt 0.078728 5.536534
vt 0.078728 0.465175
vt 0.032779 0.018701
vt 0.032779 5.783542
vt 0.044064 0.018701
vt 0.009701 5.783542
vt -0.069870 5.595579
vt -0.069870 5.536533
vt -0.078728 5.595579
vt -0.078727 0.008858
vt 0.944610 5.783542
vt 0.944612 0.018701
vt 0.750521 5.536534
vt 0.944610 0.008858
vt -0.954453 -0.076014
vt 0.069345 0.002507
vt -0.048228 -0.037582
vt -0.048228 -0.047262
vt -0.082677 -0.037582
vt 0.325787 0.008858
vt 0.603346 0.018702
vt 0.068852 0.082677
vt 0.078728 0.048228
vt -0.360236 -0.007143
vt -0.068852 0.603346
vt -0.637795 -0.037582
vt -0.603346 -0.037582
vt -0.637795 -0.047262
vt 0.603346 0.008858
vt -0.880642 0.000001
vt -0.880642 0.008858
vt -0.637795 0.000001
vt -0.880642 -0.076014
vt -0.078728 0.465175
vt 0.750521 5.595580
vt -0.078728 5.536533
vt 0.465173 5.536534
vt 0.044064 5.783542
vt 0.008858 0.018701
vt -0.000040 0.018722
vt -0.002546 0.009373
vt -0.008899 0.018722
vt 0.078728 0.008860
vt -0.082677 -0.047262
vt 0.360236 0.008858
vt 0.078695 0.082677
vt -0.360236 -0.037582
vt -0.325787 -0.037582
vt -0.360236 -0.047262
vt -0.603346 -0.047262
vt 0.637795 0.008858
vt -0.637795 0.008858
vt 0.078695 0.360236
vt 0.465173 5.595579
vt -0.008899 0.008881
vt 0.078695 0.000001
vt 0.078728 0.000001
vt -0.048208 -0.066356
vt -0.048205 -0.076067
vt -0.082657 -0.066366
vt 0.068852 0.325787
vt 0.068852 0.360236
vt 0.078695 0.325787
vt -0.325787 -0.047262
vt 0.078695 0.008858
vt -0.637795 -0.066333
vt -0.603346 -0.066333
vt -0.637795 -0.076014
vt 0.068852 0.603346
vt 0.068852 0.637795
vt 0.078695 0.603346
vt 0.078695 0.637795
vt -0.078695 0.603346
vt 0.008857 5.783542
vt -0.009391 0.002528
vt -0.048269 0.000022
vt -0.048269 0.008881
vt -0.018741 0.000022
vt -0.082654 -0.076046
vt -0.082677 0.000001
vt -0.325787 0.000001
vt -0.082677 0.008858
vt -0.325787 0.008858
vt -0.360236 -0.066333
vt -0.325787 -0.066333
vt -0.360236 -0.076014
vt -0.603346 -0.076014
vt -0.078728 0.048228
vt -0.078695 0.082677
vt -0.078695 0.325787
vt -0.325787 -0.076014
vt -0.603346 0.008858
vt -0.360236 0.008858
vt -0.603346 0.000001
vt -0.078695 0.360236
vt -0.360236 0.000001
usemtl material-0
f 1/1/1 2/2/2 3/3/1
f 3/3/3 2/2/4 1/1/3
f 1/4/5 4/5/5 2/6/2
f 2/6/4 4/5/6 1/4/6
f 5/7/7 3/3/1 2/2/2
f 2/2/4 3/3/3 5/7/8
f 1/8/9 3/9/9 4/10/9
f 4/10/10 3/9/10 1/8/10
f 6/11/11 2/6/2 4/5/5
f 4/5/6 2/6/4 6/11/12
f 7/12/13 3/3/1 5/7/7
f 5/7/8 3/3/3 7/12/14
f 2/13/2 8/14/15 5/15/7
f 5/15/8 8/14/16 2/13/4
f 5/7/7 2/2/2 9/16/1
f 9/16/3 2/2/4 5/7/8
f 2/17/2 5/18/7 6/19/11
f 6/19/12 5/18/8 2/17/4
f 10/20/9 4/10/9 3/9/9
f 3/9/10 4/10/10 10/20/10
f 2/21/2 6/22/11 11/23/17
f 11/23/18 6/22/12 2/21/4
f 6/24/11 12/25/19 2/26/2
f 2/26/4 12/25/20 6/24/12
f 4/1/3 10/3/3 6/27/3
f 6/27/1 10/3/1 4/1/1
f 7/28/13 5/15/7 13/29/15
f 13/29/16 5/15/8 7/28/14
f 8/30/19 2/26/2 12/25/19
f 12/25/20 2/26/4 8/30/20
f 13/29/15 5/15/7 8/14/15
f 8/14/16 5/15/8 13/29/16
f 2/2/2 11/31/1 9/16/1
f 9/16/3 11/31/3 2/2/4
f 5/32/21 9/33/21 14/34/21
f 14/34/22 9/33/22 5/32/22
f 6/19/11 5/18/7 15/35/23
f 15/35/24 5/18/8 6/19/12
f 11/23/17 6/22/11 16/36/17
f 16/36/18 6/22/12 11/23/18
f 12/37/3 6/27/3 17/38/3
f 17/38/1 6/27/1 12/37/1
f 17/38/3 6/27/3 10/3/3
f 10/3/1 6/27/1 17/38/1
f 18/39/19 8/30/19 12/25/19
f 12/25/20 8/30/20 18/39/20
f 8/40/25 18/41/25 13/42/25
f 13/42/26 18/41/26 8/40/26
f 19/43/1 9/16/1 11/31/1
f 11/31/3 9/16/3 19/43/3
f 20/44/21 14/34/21 9/33/21
f 9/33/22 14/34/22 20/44/22
f 5/18/7 14/45/27 21/46/28
f 21/46/29 14/45/30 5/18/8
f 15/35/23 5/18/7 22/47/28
f 22/47/29 5/18/8 15/35/24
f 15/48/23 16/36/17 6/22/11
f 6/22/12 16/36/18 15/48/24
f 16/49/31 23/50/31 11/51/31
f 11/51/32 23/50/32 16/49/32
f 17/20/9 24/52/9 12/10/9
f 12/10/10 24/52/10 17/20/10
f 25/53/19 18/39/19 12/25/19
f 12/25/20 18/39/20 25/53/20
f 26/54/25 13/42/25 18/41/25
f 18/41/26 13/42/26 26/54/26
f 19/55/10 27/56/10 9/57/10
f 9/57/9 27/56/9 19/55/9
f 19/58/31 11/51/31 23/50/31
f 23/50/32 11/51/32 19/58/32
f 14/59/3 20/60/3 28/61/3
f 28/61/1 20/60/1 14/59/1
f 9/57/10 29/62/10 20/63/10
f 20/63/9 29/62/9 9/57/9
f 28/64/33 21/46/28 14/45/27
f 14/45/30 21/46/29 28/64/34
f 30/65/28 5/18/7 21/46/28
f 21/46/29 5/18/8 30/65/29
f 22/47/28 5/18/7 31/66/28
f 31/66/29 5/18/8 22/47/29
f 15/67/23 22/68/28 32/69/22
f 32/69/21 22/68/29 15/67/24
f 15/70/1 16/31/1 32/71/1
f 32/71/3 16/31/3 15/70/3
f 23/72/1 33/73/1 16/31/1
f 16/31/3 33/73/3 23/72/3
f 24/52/9 17/20/9 34/74/9
f 34/74/10 17/20/10 24/52/10
f 24/52/9 35/75/9 12/10/9
f 12/10/10 35/75/10 24/52/10
f 36/76/19 18/39/19 25/53/19
f 25/53/20 18/39/20 36/76/20
f 12/10/9 35/75/9 25/77/35
f 25/77/36 35/75/10 12/10/10
f 18/78/37 37/79/37 26/80/37
f 26/80/38 37/79/38 18/78/38
f 27/56/10 38/81/10 9/57/10
f 9/57/9 38/81/9 27/56/9
f 39/82/31 19/58/31 23/50/31
f 23/50/32 19/58/32 39/82/32
f 28/61/3 20/60/3 40/83/3
f 40/83/1 20/60/1 28/61/1
f 41/84/10 29/62/10 9/57/10
f 9/57/9 29/62/9 41/84/9
f 29/62/10 42/85/10 20/63/10
f 20/63/9 42/85/9 29/62/9
f 21/86/28 28/87/33 43/88/39
f 43/88/40 28/87/34 21/86/29
f 44/89/28 5/18/7 30/65/28
f 30/65/29 5/18/8 44/89/29
f 30/90/28 21/91/28 41/92/22
f 41/92/21 21/91/29 30/90/29
f 31/66/28 5/18/7 44/89/28
f 44/89/29 5/18/8 31/66/29
f 31/93/28 45/94/39 22/95/28
f 22/95/29 45/94/40 31/93/29
f 46/96/22 32/69/22 22/68/28
f 22/68/29 32/69/21 46/96/21
f 32/71/1 16/31/1 33/73/1
f 33/73/3 16/31/3 32/71/3
f 33/73/1 23/72/1 47/97/1
f 47/97/3 23/72/3 33/73/3
f 34/74/9 17/20/9 48/98/9
f 48/98/10 17/20/10 34/74/10
f 34/99/3 49/100/3 24/101/3
f 24/101/1 49/100/1 34/99/1
f 24/102/21 50/103/21 35/104/21
f 35/104/22 50/103/22 24/102/22
f 51/105/19 18/39/19 36/76/19
f 36/76/20 18/39/20 51/105/20
f 25/106/35 52/107/35 36/108/41
f 36/108/42 52/107/36 25/106/36
f 48/98/9 25/77/35 35/75/9
f 35/75/10 25/77/36 48/98/10
f 37/109/19 18/39/19 51/105/19
f 51/105/20 18/39/20 37/109/20
f 53/110/37 26/80/37 37/79/37
f 37/79/38 26/80/38 53/110/38
f 38/81/10 54/111/10 9/57/10
f 9/57/9 54/111/9 38/81/9
f 39/112/43 23/113/43 55/114/43
f 55/114/44 23/113/44 39/112/44
f 20/60/3 56/115/3 40/83/3
f 40/83/1 56/115/1 20/60/1
f 40/116/39 43/88/39 28/87/33
f 28/87/34 43/88/40 40/116/40
f 29/117/22 41/92/22 21/91/28
f 21/91/29 41/92/21 29/117/21
f 57/118/10 41/84/10 9/57/10
f 9/57/9 41/84/9 57/118/9
f 29/71/1 43/31/1 42/73/1
f 42/73/3 43/31/3 29/71/3
f 56/119/10 20/63/10 42/85/10
f 42/85/9 20/63/9 56/119/9
f 21/70/1 43/31/1 29/71/1
f 29/71/3 43/31/3 21/70/3
f 30/120/28 58/121/39 44/122/28
f 44/122/29 58/121/40 30/120/29
f 30/61/3 41/123/3 58/83/3
f 58/83/1 41/123/1 30/61/1
f 44/124/28 57/125/22 31/126/28
f 31/126/29 57/125/21 44/124/29
f 31/70/1 45/31/1 59/71/1
f 59/71/3 45/31/3 31/70/3
f 60/127/39 22/95/28 45/94/39
f 45/94/40 22/95/29 60/127/40
f 32/128/10 46/129/10 9/57/10
f 9/57/9 46/129/9 32/128/9
f 22/70/1 60/31/1 46/71/1
f 46/71/3 60/31/3 22/70/3
f 33/130/10 32/128/10 9/57/10
f 9/57/9 32/128/9 33/130/9
f 61/131/1 47/97/1 23/72/1
f 23/72/3 47/97/3 61/131/3
f 33/132/45 62/133/46 47/134/45
f 47/134/47 62/133/48 33/132/47
f 17/20/9 52/135/35 48/98/9
f 48/98/10 52/135/36 17/20/10
f 34/136/22 48/137/22 49/138/22
f 49/138/21 48/137/21 34/136/21
f 50/139/3 24/101/3 49/100/3
f 49/100/1 24/101/1 50/139/1
f 63/140/21 35/104/21 50/103/21
f 50/103/22 35/104/22 63/140/22
f 36/141/49 64/142/49 51/143/49
f 51/143/50 64/142/50 36/141/50
f 25/77/35 48/98/9 52/135/35
f 52/135/36 48/98/10 25/77/36
f 64/144/41 36/108/41 52/107/35
f 52/107/36 36/108/42 64/144/42
f 48/145/1 35/146/1 65/147/1
f 65/147/3 35/146/3 48/145/3
f 66/148/19 37/109/19 51/105/19
f 51/105/20 37/109/20 66/148/20
f 53/149/10 37/150/10 50/151/10
f 50/151/9 37/150/9 53/149/9
f 54/111/10 62/152/10 9/57/10
f 9/57/9 62/152/9 54/111/9
f 67/153/43 55/114/43 23/113/43
f 23/113/44 55/114/44 67/153/44
f 68/154/3 40/83/3 56/115/3
f 56/115/1 40/83/1 68/154/1
f 40/155/31 68/156/31 43/157/31
f 43/157/32 68/156/32 40/155/32
f 69/158/10 41/84/10 57/118/10
f 57/118/9 41/84/9 69/158/9
f 59/159/10 57/118/10 9/57/10
f 9/57/9 57/118/9 59/159/9
f 43/31/1 70/72/1 42/73/1
f 42/73/3 70/72/3 43/31/3
f 56/44/45 42/160/45 71/161/45
f 71/161/47 42/160/47 56/44/47
f 72/162/39 44/122/28 58/121/39
f 58/121/40 44/122/29 72/162/40
f 41/123/3 69/115/3 58/83/3
f 58/83/1 69/115/1 41/123/1
f 44/70/1 72/31/1 57/71/1
f 57/71/3 72/31/3 44/70/3
f 59/163/22 31/126/28 57/125/22
f 57/125/21 31/126/29 59/163/21
f 59/71/1 45/31/1 73/73/1
f 73/73/3 45/31/3 59/71/3
f 60/164/31 45/165/31 74/166/31
f 74/166/32 45/165/32 60/164/32
f 46/129/10 73/167/10 9/57/10
f 9/57/9 73/167/9 46/129/9
f 46/71/1 60/31/1 75/73/1
f 75/73/3 60/31/3 46/71/3
f 62/152/10 33/130/10 9/57/10
f 9/57/9 33/130/9 62/152/9
f 61/168/9 47/169/9 76/170/9
f 76/170/10 47/169/10 61/168/10
f 67/153/43 23/113/43 61/171/43
f 61/171/44 23/113/44 67/153/44
f 65/172/22 49/138/22 48/137/22
f 48/137/21 49/138/21 65/172/21
f 50/151/10 49/173/10 53/149/10
f 53/149/9 49/173/9 50/151/9
f 63/174/1 65/147/1 35/146/1
f 35/146/3 65/147/3 63/174/3
f 50/151/10 37/150/10 63/175/10
f 63/175/9 37/150/9 50/151/9
f 77/176/49 51/143/49 64/142/49
f 64/142/50 51/143/50 77/176/50
f 37/150/10 66/177/10 63/175/10
f 63/175/9 66/177/9 37/150/9
f 51/178/51 78/179/51 66/180/51
f 66/180/52 78/179/52 51/178/52
f 56/115/3 71/181/3 68/154/3
f 68/154/1 71/181/1 56/115/1
f 70/182/31 43/157/31 68/156/31
f 68/156/32 43/157/32 70/182/32
f 79/183/10 69/158/10 57/118/10
f 57/118/9 69/158/9 79/183/9
f 73/167/10 59/159/10 9/57/10
f 9/57/9 59/159/9 73/167/9
f 42/73/1 70/72/1 80/97/1
f 80/97/3 70/72/3 42/73/3
f 80/184/45 71/161/45 42/160/45
f 42/160/47 71/161/47 80/184/47
f 72/185/31 58/186/31 81/187/31
f 81/187/32 58/186/32 72/185/32
f 58/83/3 69/115/3 82/154/3
f 82/154/1 69/115/1 58/83/1
f 57/71/1 72/31/1 79/73/1
f 79/73/3 72/31/3 57/71/3
f 45/31/1 83/72/1 73/73/1
f 73/73/3 83/72/3 45/31/3
f 83/188/31 74/166/31 45/165/31
f 45/165/32 74/166/32 83/188/32
f 60/31/1 74/72/1 75/73/1
f 75/73/3 74/72/3 60/31/3
f 75/189/10 73/167/10 46/129/10
f 46/129/9 73/167/9 75/189/9
f 84/190/9 76/170/9 47/169/9
f 47/169/10 76/170/10 84/190/10
f 49/173/10 65/192/10 53/149/10
f 53/149/9 65/192/9 49/173/9
f 65/192/10 63/175/10 66/177/10
f 66/177/9 63/175/9 65/192/9
f 86/193/51 66/180/51 78/179/51
f 78/179/52 66/180/52 86/193/52
f 87/195/3 68/154/3 71/181/3
f 71/181/1 68/154/1 87/195/1
f 68/196/55 87/197/56 70/198/55
f 70/198/57 87/197/58 68/196/57
f 69/199/45 79/200/45 88/201/45
f 88/201/47 79/200/47 69/199/47
f 89/131/1 80/97/1 70/72/1
f 70/72/3 80/97/3 89/131/3
f 88/201/45 71/161/45 80/184/45
f 80/184/47 71/161/47 88/201/47
f 82/202/31 81/187/31 58/186/31
f 58/186/32 81/187/32 82/202/32
f 72/31/1 81/72/1 79/73/1
f 79/73/3 81/72/3 72/31/3
f 69/115/3 88/203/3 82/154/3
f 82/154/1 88/203/1 69/115/1
f 73/73/1 83/72/1 90/97/1
f 90/97/3 83/72/3 73/73/3
f 74/204/43 83/205/43 76/206/53
f 76/206/54 83/205/44 74/204/44
f 75/73/1 74/72/1 84/97/1
f 84/97/3 74/72/3 75/73/3
f 73/207/45 75/208/45 90/209/45
f 90/209/47 75/208/47 73/207/47
f 76/131/1 84/97/1 74/72/1
f 74/72/3 84/97/3 76/131/3
f 47/134/45 85/191/45 84/210/45
f 84/210/47 85/191/47 47/134/47
f 53/149/10 65/192/10 92/212/10
f 92/212/9 65/192/9 53/149/9
f 66/177/10 92/212/10 65/192/10
f 65/192/9 92/212/9 66/177/9
f 78/179/51 93/213/51 86/193/51
f 86/193/52 93/213/52 78/179/52
f 87/214/51 71/215/51 94/216/51
f 94/216/52 71/215/52 87/214/52
f 89/217/56 70/198/55 87/197/56
f 87/197/58 70/198/57 89/217/58
f 85/191/45 88/201/45 79/200/45
f 79/200/47 88/201/47 85/191/47
f 89/218/9 95/219/9 80/220/9
f 80/220/10 95/219/10 89/218/10
f 85/191/45 71/161/45 88/201/45
f 88/201/47 71/161/47 85/191/47
f 88/221/9 80/220/9 95/219/9
f 95/219/10 80/220/10 88/221/10
f 81/222/43 82/223/43 96/224/53
f 96/224/54 82/223/44 81/222/44
f 79/73/1 81/72/1 85/97/1
f 85/97/3 81/72/3 79/73/3
f 95/194/3 82/154/3 88/203/3
f 88/203/1 82/154/1 95/194/1
f 91/131/1 90/97/1 83/72/1
f 83/72/3 90/97/3 91/131/3
f 91/225/53 76/206/53 83/205/43
f 83/205/44 76/206/54 91/225/54
f 84/210/45 90/209/45 75/208/45
f 75/208/47 90/209/47 84/210/47
f 85/191/45 90/209/45 84/210/45
f 84/210/47 90/209/47 85/191/47
f 71/215/51 86/193/51 93/213/51
f 93/213/52 86/193/52 71/215/52
f 94/216/51 71/215/51 93/213/51
f 93/213/52 71/215/52 94/216/52
f 87/226/56 91/211/53 89/227/56
f 89/227/58 91/211/54 87/226/58
f 89/227/56 91/211/53 95/228/53
f 95/228/54 91/211/54 89/227/58
f 95/229/53 96/224/53 82/223/43
f 82/223/44 96/224/54 95/229/54
f 96/131/1 85/97/1 81/72/1
f 81/72/3 85/97/3 96/131/3
f 90/230/9 85/231/9 91/232/9
f 91/232/10 85/231/10 90/230/10
f 96/233/53 95/228/53 91/211/53
f 91/211/54 95/228/54 96/233/54
f 96/234/9 91/232/9 85/231/9
f 85/231/10 91/232/10 96/234/10