mtllib new-5.mtl
v 0.467643 0.074792 -0.149746
v 0.467643 0.074565 -0.148899
v 0.466752 0.067305 -0.148052
v 0.466752 0.074792 -0.149746
v 0.467643 0.073945 -0.148279
v 0.466752 0.074792 -0.148854
v 0.466752 0.067305 -0.148854
v 0.467643 0.073098 -0.148052
v 0.090674 0.074792 -0.149746
v 0.090674 0.074565 -0.148899
v 0.466752 0.073989 -0.148854
v 0.466749 -0.008075 -0.148052
v 0.466752 0.045314 -0.148854
v 0.090674 0.073098 -0.148052
v 0.090674 0.074792 -0.155183
v 0.090674 0.073945 -0.148279
v 0.466752 0.073989 -0.155183
v 0.090674 0.073989 -0.148854
v 0.466752 0.020179 -0.148052
v 0.466749 -0.011641 -0.148052
v 0.466752 0.074792 -0.155183
v 0.090674 0.073989 -0.155183
v 0.466749 -0.008075 -0.148854
v 0.466752 0.042194 -0.148854
v 0.090675 -0.011596 -0.148627
v 0.466751 -0.011596 -0.148627
v 0.466750 -0.010749 -0.148854
v 0.090674 0.070425 -0.148052
v 0.090677 -0.011641 -0.148052
v 0.090676 -0.010749 -0.148854
v 0.090677 -0.008075 -0.148854
v 0.090677 -0.008075 -0.148052
v 0.090674 0.070425 -0.148854
v 0.090674 0.067305 -0.148052
v 0.090450 0.073945 -0.147161
v 0.090674 0.045314 -0.148854
v 0.090674 0.045314 -0.148052
v 0.090674 0.067305 -0.148854
v 0.089875 0.073989 -0.147161
v 0.089830 0.074565 -0.147161
v 0.083547 0.073989 -0.147161
vn 0.000000 1.000000 0.000000
vn 0.000000 -1.000000 0.000000
vn 1.000000 0.000000 0.000000
vn -1.000000 0.000000 0.000000
vn 0.000000 0.000000 1.000000
vn 0.000000 0.000000 -1.000000
vn 0.000000 0.991445 0.130526
vn 0.000000 0.996214 0.086934
vn 0.000000 0.965926 0.258819
vn 0.000000 -0.965926 -0.258819
vn 0.000000 -0.996214 -0.086934
vn 0.000000 -0.991445 -0.130526
vn 0.000000 0.000001 1.000000
vn 0.000000 0.130527 0.991445
vn 0.000000 -0.000001 -1.000000
vn 0.000000 -0.130527 -0.991445
vn 0.000000 0.707107 0.707107
vn 0.000000 -0.707107 -0.707107
vn 0.000000 0.258819 0.965926
vn 0.000000 -0.258819 -0.965926
vn 0.130526 0.000000 -0.991445
vn -0.130526 0.000000 0.991445
vn 0.130312 -0.000038 -0.991473
vn -0.130312 0.000038 0.991473
vn 0.000000 -0.130526 -0.991445
vn 0.000000 0.130526 0.991445
vn -0.130526 0.000000 -0.991445
vn 0.130526 0.000000 0.991445
vt 0.963311 -0.009843
vt 0.960805 -0.000492
vt -0.068852 -0.258830
vt -0.078695 -0.258830
vt -0.068852 -0.249150
vt 0.953961 0.006353
vt 0.880642 0.008858
vt 0.068852 0.944610
vt 0.078695 0.880642
vt -4.231651 -0.258830
vt -0.068852 -0.679740
vt -4.231651 -0.679740
vt -0.068852 -0.670060
vt 0.944610 0.008858
vt 0.078728 0.048228
vt 4.231651 0.944610
vt -4.231651 -0.249150
vt -4.231651 -0.009843
vt -0.078695 -0.009843
vt -4.231651 -0.069880
vt -4.231651 -0.670060
vt -0.068852 -0.919811
vt -4.231651 -0.919811
vt -0.068852 -0.910131
vt -0.954453 0.000001
vt -0.954453 -0.069880
vt -0.963311 0.000001
vt 0.637795 0.008858
vt -0.078695 0.637795
vt -4.231651 0.954453
vt -0.078695 0.880642
vt -0.078695 0.954453
vt 0.078695 0.360236
vt -4.231651 -0.910131
vt 0.963311 -0.069880
vt -0.078695 -0.069880
vt 0.954453 0.000001
vt 0.078695 -0.069880
vt 0.078695 0.000001
vt 4.231651 -0.069880
vt -0.963311 -0.009843
vt -0.078695 0.603346
vt 4.231651 0.000001
vt 0.954453 -0.069880
vt -4.231651 0.963311
vt -0.078695 0.963311
vt -0.963311 -0.069880
vt -0.078728 0.048228
vt 0.078728 0.008858
vt 0.915091 0.008858
vt -0.078717 0.018701
vt -4.231630 0.018701
vt -4.231619 0.048228
vt 4.231619 0.048228
vt -4.234125 0.953961
vt 0.078706 -0.008383
vt 4.231641 -0.008383
vt 0.078717 -0.018063
vt 4.231619 0.008858
vt 4.231630 -0.018063
vt -4.231651 0.637795
vt -4.231651 0.915091
vt -4.231651 0.880642
vt 0.880642 0.000001
vt -4.240476 0.954454
vt 0.637795 0.000001
vt -4.240970 0.960805
vt -4.310347 0.954454
usemtl material-0
f 1/3/7 4/4/8 2/5/9
f 2/5/10 4/4/11 1/3/12
f 9/10/7 2/5/9 4/4/8
f 4/4/11 2/5/10 9/10/12
f 2/11/17 10/12/17 5/13/17
f 5/13/18 10/12/18 2/11/18
f 14/16/14 3/9/13 8/8/14
f 8/8/16 3/9/15 14/16/16
f 10/17/9 2/5/9 9/10/7
f 9/10/12 2/5/10 10/17/10
f 9/18/7 4/19/8 15/20/1
f 15/20/2 4/19/11 9/18/12
f 16/21/17 5/13/17 10/12/17
f 10/12/18 5/13/18 16/21/18
f 5/22/19 16/23/19 8/24/14
f 8/24/16 16/23/20 5/22/20
f 11/25/3 17/26/3 6/27/3
f 6/27/4 17/26/4 11/25/4
f 13/29/21 18/30/6 7/31/6
f 7/31/5 18/30/5 13/29/22
f 11/32/6 7/31/6 18/30/6
f 18/30/5 7/31/5 11/32/5
f 19/33/13 3/9/13 14/16/14
f 14/16/16 3/9/15 19/33/15
f 14/34/14 8/24/14 16/23/19
f 16/23/20 8/24/16 14/34/16
f 9/1/4 15/35/4 10/2/4
f 10/2/3 15/35/3 9/1/3
f 21/36/1 15/20/1 4/19/8
f 4/19/11 15/20/2 21/36/2
f 10/2/4 18/37/4 16/6/4
f 16/6/3 18/37/3 10/2/3
f 17/38/2 11/39/2 22/40/2
f 22/40/1 11/39/1 17/38/1
f 4/41/3 6/27/3 17/26/3
f 17/26/4 6/27/4 4/41/4
f 24/42/21 18/30/6 13/29/21
f 13/29/22 18/30/5 24/42/22
f 18/43/2 22/40/2 11/39/2
f 11/39/1 22/40/1 18/43/1
f 12/15/13 19/33/13 14/16/14
f 14/16/16 19/33/15 12/15/15
f 16/6/4 18/37/4 14/14/4
f 14/14/3 18/37/3 16/6/3
f 15/35/4 22/44/4 10/2/4
f 10/2/3 22/44/3 15/35/3
f 15/45/6 21/46/6 22/30/6
f 22/30/5 21/46/5 15/45/5
f 21/47/3 4/41/3 17/26/3
f 17/26/4 4/41/4 21/47/4
f 22/44/4 18/37/4 10/2/4
f 10/2/3 18/37/3 22/44/3
f 17/32/6 22/30/6 21/46/6
f 21/46/5 22/30/5 17/32/5
f 23/48/23 18/30/6 24/42/21
f 24/42/22 18/30/5 23/48/24
f 20/49/13 12/15/13 14/16/14
f 14/16/16 12/15/15 20/49/15
f 14/14/4 18/37/4 28/50/4
f 28/50/3 18/37/3 14/14/3
f 27/51/25 30/52/25 23/48/23
f 23/48/24 30/52/26 27/51/26
f 31/53/6 18/30/6 23/48/23
f 23/48/24 18/30/5 31/53/5
f 32/54/13 20/49/13 14/16/14
f 14/16/16 20/49/15 32/54/15
f 26/56/20 25/57/20 27/58/25
f 27/58/26 25/57/19 26/56/19
f 20/49/13 32/54/13 29/59/13
f 29/59/15 32/54/15 20/49/15
f 30/60/25 27/58/25 25/57/20
f 25/57/19 27/58/26 30/60/26
f 31/53/6 23/48/23 30/52/25
f 30/52/26 23/48/24 31/53/5
f 18/30/6 36/61/27 33/62/6
f 33/62/5 36/61/28 18/30/5
f 38/63/6 33/62/6 36/61/27
f 36/61/28 33/62/5 38/63/5
f 34/7/4 38/64/4 37/28/4
f 37/28/3 38/64/3 34/7/3
f 36/66/4 37/28/4 38/64/4
f 38/64/3 37/28/3 36/66/3
f 40/67/6 35/55/6 39/65/6
f 39/65/5 35/55/5 40/67/5
f 41/68/6 40/67/6 39/65/6
f 39/65/5 40/67/5 41/68/5