# SSTK version 0.8.0
# 63
mtllib original-63.mtl
o mesh273/mesh273-geometry#mesh273-geometry
v 0.630922 0.091724 0.453339
v -0.732777 0.091724 0.454230
v -0.732777 0.091724 0.453339
v 0.630922 0.091724 0.454230
v -0.732777 0.134137 0.453339
v -0.731886 0.091724 -0.258815
v 0.630922 0.134507 0.454230
v -0.732777 0.134507 0.454230
v -0.732777 0.135398 0.452078
v -0.732777 0.091724 -0.257924
v 0.630031 0.091724 -0.258815
v 0.630922 0.134137 0.453339
v -0.732777 0.136289 0.452448
v -0.731886 0.135398 -0.258815
v 0.630922 0.091724 -0.257924
v 0.630922 0.136289 0.452448
v -0.732777 0.135398 0.439078
v -0.732777 0.136289 0.439078
v -0.732777 0.135398 -0.257924
v 0.630031 0.135398 -0.258815
v 0.630922 0.135398 -0.257924
v 0.630922 0.135398 0.452078
v -0.731886 0.136289 -0.257924
v 0.630031 0.136289 -0.257924
v 0.630922 0.135398 0.439078
v 0.630922 0.136289 0.439078
v -0.731886 0.136289 0.439078
v 0.630031 0.136289 0.439078
vt 5.537729 3.671957
vt 5.806478 3.852073
vt 5.80636 3.852248
vt 5.537847 3.671781
vt 5.797582 3.846356
vt 5.797699 3.846181
vt 5.805937 3.851964
vt 6.083771 4.038432
vt 6.075461 4.0326
vt 6.083889 4.038256
vt 6.467097 4.103454
vt 5.867345 3.691021
vt 5.880861 3.672629
vt 5.806127 3.851837
vt 6.075416 4.032824
vt 6.453581 4.121846
vt 5.806243 3.852424
vt 5.806018 3.852379
vt 6.074874 4.032715
vt 6.467331 4.103137
vt 5.880298 3.673395
vt 5.881095 3.672312
vt 5.804475 3.855057
vt 6.075001 4.032906
vt 6.466534 4.104221
vt 5.804299 3.85494
vt 6.073107 4.035349
vt 5.794633 3.855057
vt 5.804475 3.845215
vt 5.804651 3.855175
vt 6.073282 4.035467
vt 6.072931 4.035231
vt 0 0.002377
vt 0 0.001685
vt -1.9125 0.002377
vt -1.9125 0.001685
vt -0.004294 0.032934
vt -0.003044 0
vt -0.004294 0
vt 0.993885 0.997795
vt 1.992635 0.998448
vt 0.993885 1.997524
vt -0.00125 0.555369
vt 0.003044 0
vt 0.003044 0.033221
vt 0.004294 0
vt 0 0
vt 0 0.033221
vt 1.9125 0
vt -0.003044 0.033221
vt 1.888407 0.86077
vt 2.017605 0.861307
vt 1.892136 0.861307
vt -0.006061 0.033913
vt 1.991385 0.997795
vt 0 0.554677
vt 1.992635 1.996871
vt -1.91125 0.555369
vt 0.004294 0.032934
vt 1.9125 0.033221
vt -0.005544 0.034605
vt 2.017605 0.558386
vt -1.001794 0
vt 1.888407 0.556322
vt 2.017605 0.556322
vt -0.710143 0
vt -0.710143 0.033913
vt -0.708375 0
vt -0.00125 0
vt -1.91125 0
vt -0.00125 0.033913
vt 1.991385 1.997524
vt -1.9125 0.554677
vt 2.015634 0.887745
vt 1.890165 0.584824
vt 2.015634 0.584824
vt 1.001794 0
vt 0.005544 0.034605
vt 0 0.024682
vt 0 0.02664
vt 1.9125 0.024682
vt 1.888407 0.855234
vt -0.024294 0.033913
vt -0.024294 0.034605
vt 1.888407 0.558386
vt -0.708375 0.033913
vt -1.91125 0.033913
vt -0.643967 0
vt -0.643967 0.033913
vt -0.642199 0
vt 1.886436 0.585361
vt 0.006061 0.033913
vt 1.9125 0.02664
vt -1.001794 0.033913
vt 0 0.003069
vt 0 0.013451
vt 1.9125 0.003069
vt 2.772178 0.646684
vt 2.772178 0.647221
vt 2.768948 0.646953
vt -0.709259 -0.197908
vt -0.708375 -0.198756
vt -0.710143 -0.198756
vt -1.91125 -0.368725
vt -1.91125 -0.367746
vt -0.00125 -0.368725
vt -0.642199 0.033913
vt 1.886436 0.590898
vt 1.886436 0.887745
vt 1.001794 0.033913
vt 0.024294 0.033913
vt 0.024294 0.034605
vt 0 0.033913
vt -0.00125 0.034605
vt 0 0.034605
vt 1.887437 0.855234
vt -0.024294 0.02398
vt -1.001794 0.02398
vt -0.024294 0.024959
vt 0.00125 0.013451
vt 1.887437 0.558386
vt -1.001794 0.024959
vt -0.00125 -0.367746
vt -0.643967 -0.631059
vt -0.643083 -0.630211
vt -0.642199 -0.631059
vt 1.885467 0.590898
vt 0.024294 -0.72479
vt 0.024294 -0.723811
vt 1.001794 -0.72479
vt 1.9125 0.013451
vt 1.91125 0.013451
vt 1.013885 -0.001129
vt 1.991385 0.8789
vt 1.013885 0.8789
vt 0.00125 0.554677
vt 1.991385 -0.001129
vt 1.91125 0.554677
vt 1.885467 0.887745
vt 1.001794 -0.723811
vt -1.9125 0.034605
vt -1.9125 0.033913
vt -1.91125 0.034605
vt -0.002407 0.15675
vt -3.679715 0
vt -0.002407 0
vt -3.679715 0.15675
vt 1.92741 0
vt 1.922886 0.15675
vt 1.922886 0
vt -3.679715 0.160153
vt 1.92741 0.15675
vt -0.002407 0.160153
vt -1.240564 -2.913634
vt -1.242266 -2.909717
vt -1.243968 -2.913634
vn 0 -1 0
vn -1 0 0
vn 1 0 0
vn 0 0 1
vn 0 0.7071067811865474 0.7071067811865477
vn 0 1 0
vn 0 0 -1
vn -0.7071067811865475 0 -0.7071067811865475
vn 0.7071067811865475 0 0.7071067811865475
vn 0 -0.7071067811865474 -0.7071067811865477
vn -0.7071067811865475 0 0.7071067811865475
vn -0.5773502691896257 0.5773502691896258 -0.5773502691896256
vn 0.5773502691896257 -0.5773502691896258 0.5773502691896256
vn 0 -0.7071067811865477 0.7071067811865474
vn -0.7071067811865475 0.7071067811865475 0
vn 0.7071067811865475 -0.7071067811865475 0
vn -0.5773502691896257 -0.5773502691896258 0.5773502691896256
vn 0.7071067811865475 0.7071067811865475 0
vn -0.7071067811865475 -0.7071067811865475 0
vn 0.7071067811865475 0 -0.7071067811865475
vn 0 0.7071067811865477 -0.7071067811865474
vn 0.5773502691896257 0.5773502691896258 -0.5773502691896256
usemtl material_0_0
f 1/1/1 2/2/1 3/3/1
f 2/2/1 1/1/1 4/4/1
f 3/5/2 2/6/2 5/7/2
f 1/8/3 7/9/3 4/10/3
f 4/11/4 8/12/4 2/13/4
f 8/14/2 5/7/2 2/6/2
f 7/9/3 1/8/3 12/15/3
f 8/12/4 4/11/4 7/16/4
f 5/7/2 8/14/2 13/17/2
f 5/7/2 13/17/2 9/18/2
f 7/9/3 12/15/3 16/19/3
f 7/20/5 13/21/5 8/22/5
f 9/18/2 13/17/2 18/23/2
f 16/19/3 12/15/3 22/24/3
f 13/21/5 7/20/5 16/25/5
f 9/18/2 18/23/2 17/26/2
f 16/19/6 18/23/6 13/17/6
f 16/19/3 22/24/3 26/27/3
f 18/23/7 27/28/7 17/29/7
f 18/23/6 16/19/6 27/30/6
f 26/27/3 22/24/3 25/31/3
f 28/32/6 16/19/6 26/27/6
f 27/30/6 16/19/6 28/32/6
usemtl material_1_0
f 3/33/6 2/34/6 1/35/6
f 4/36/6 1/35/6 2/34/6
f 5/37/3 2/38/3 3/39/3
f 3/40/1 6/41/1 1/42/1
f 1/35/6 6/43/6 3/33/6
f 4/44/2 7/45/2 1/46/2
f 2/47/7 8/48/7 4/49/7
f 2/38/3 5/37/3 8/50/3
f 9/51/2 3/52/2 5/53/2
f 5/37/3 3/39/3 9/54/3
f 6/41/1 3/40/1 10/55/1
f 10/56/6 3/33/6 6/43/6
f 1/42/1 6/41/1 11/57/1
f 11/58/6 6/43/6 1/35/6
f 12/59/2 1/46/2 7/45/2
f 7/60/7 4/49/7 8/48/7
f 13/61/3 8/50/3 5/37/3
f 3/52/2 9/51/2 10/62/2
f 10/63/3 9/54/3 3/39/3
f 9/54/3 13/61/3 5/37/3
f 10/62/8 14/64/8 6/65/8
f 6/66/9 14/67/9 10/68/9
f 6/69/4 11/70/4 14/71/4
f 1/42/1 11/57/1 15/72/1
f 15/73/6 11/58/6 1/35/6
f 15/74/3 12/75/3 1/76/3
f 1/46/2 12/59/2 15/77/2
f 16/78/2 12/59/2 7/45/2
f 8/79/10 13/80/10 7/81/10
f 10/62/2 9/51/2 17/82/2
f 17/83/3 9/54/3 10/63/3
f 18/84/3 13/61/3 9/54/3
f 14/64/8 10/62/8 19/85/8
f 19/86/9 10/68/9 14/67/9
f 20/87/4 14/71/4 11/70/4
f 15/88/11 21/89/11 11/90/11
f 12/75/3 15/74/3 22/91/3
f 22/92/2 15/77/2 12/59/2
f 22/92/2 12/59/2 16/78/2
f 16/93/10 7/81/10 13/80/10
f 17/83/3 18/84/3 9/54/3
f 10/62/2 17/82/2 19/85/2
f 19/94/3 17/83/3 10/63/3
f 13/95/1 18/96/1 16/97/1
f 14/98/12 19/99/12 23/100/12
f 23/101/13 19/102/13 14/103/13
f 20/104/14 24/105/14 14/106/14
f 20/107/11 11/90/11 21/89/11
f 25/108/3 15/74/3 21/109/3
f 21/110/2 15/77/2 25/111/2
f 22/91/3 15/74/3 25/108/3
f 25/111/2 15/77/2 22/92/2
f 26/112/2 22/92/2 16/78/2
f 17/113/4 27/114/4 18/115/4
f 27/116/15 19/85/15 17/82/15
f 17/117/16 19/118/16 27/119/16
f 27/120/1 16/97/1 18/96/1
f 19/85/15 27/116/15 23/121/15
f 23/122/16 27/119/16 19/118/16
f 23/123/14 14/106/14 24/105/14
f 21/124/17 24/125/17 20/126/17
f 21/109/18 28/127/18 25/108/18
f 25/128/19 28/129/19 21/130/19
f 25/111/2 22/92/2 26/112/2
f 26/131/1 16/97/1 28/132/1
f 28/132/1 16/97/1 27/120/1
f 28/133/6 23/134/6 27/135/6
f 27/120/1 23/136/1 28/132/1
f 23/134/6 28/133/6 24/137/6
f 24/138/1 28/132/1 23/136/1
f 28/127/18 21/109/18 24/139/18
f 24/140/19 21/130/19 28/129/19
f 26/141/7 25/142/7 28/143/7
f 28/143/4 25/142/4 26/141/4
usemtl material_2_0
f 14/144/7 11/145/7 6/146/7
f 11/145/7 14/144/7 20/147/7
f 11/148/20 21/149/20 15/150/20
f 14/144/21 24/151/21 20/147/21
f 21/149/20 11/148/20 20/152/20
f 24/151/21 14/144/21 23/153/21
f 20/154/22 24/155/22 21/156/22
