# SSTK version 0.8.0
# 5
mtllib original-5.mtl
o mesh4/mesh4-geometry#mesh4-geometry
v -0.651995 0.687830 -0.257567
v -0.653109 0.687830 -0.258904
v -0.653109 0.687830 -0.257567
v -0.651950 0.687830 -0.258904
v -0.653109 0.689167 -0.257567
v -0.660685 0.683819 -0.257567
v -0.651326 0.687830 -0.257746
v -0.659348 0.683819 -0.258904
v -0.653109 0.689167 -0.258904
v -0.660685 0.691841 -0.257567
v -0.659348 0.683819 -0.257567
v -0.651995 0.670004 -0.257567
v -0.650658 0.687830 -0.269154
v -0.659348 0.675797 -0.258904
v -0.660685 0.691841 -0.258904
v -0.650435 0.689167 -0.257567
v -0.650435 0.691841 -0.257567
v -0.659348 0.675797 -0.257567
v -0.661354 0.683819 -0.257746
v -0.651326 0.670004 -0.257746
v -0.653109 0.670004 -0.257567
v -0.651950 0.687830 -0.269154
v -0.650837 0.687830 -0.258236
v -0.660696 0.672221 -0.258904
v -0.660685 0.683819 -0.258904
v -0.650435 0.689167 -0.258904
v -0.650435 0.691841 -0.258904
v -0.660696 0.672221 -0.257567
v -0.661354 0.691841 -0.257746
v -0.660685 0.683819 -0.262024
v -0.651950 0.670004 -0.258904
v -0.650837 0.670004 -0.258236
v -0.660696 0.670015 -0.257567
v -0.653109 0.670004 -0.258904
v -0.650658 0.687233 -0.271383
v -0.650658 0.687830 -0.258904
v -0.660239 0.671118 -0.258904
v -0.661799 0.672677 -0.258904
v -0.662022 0.675797 -0.258904
v -0.660685 0.691841 -0.262024
v -0.660239 0.671118 -0.257567
v -0.661799 0.672677 -0.257567
v -0.661843 0.691841 -0.258236
v -0.661843 0.683819 -0.258236
v -0.650658 0.670004 -0.269154
v -0.661799 0.669558 -0.257567
v -0.653109 0.668667 -0.258904
v -0.651950 0.687233 -0.271383
v -0.650658 0.670601 -0.271383
v -0.651950 0.670004 -0.269154
v -0.660696 0.670015 -0.258904
v -0.650658 0.670004 -0.258904
v -0.664696 0.673123 -0.258904
v -0.662022 0.675797 -0.257567
v -0.664696 0.673123 -0.257567
v -0.662022 0.683819 -0.258904
v -0.664696 0.668667 -0.257567
v -0.661799 0.669558 -0.258904
v -0.653109 0.668667 -0.257567
v -0.650658 0.685601 -0.273014
v -0.650658 0.672232 -0.273014
v -0.662902 0.672221 -0.258904
v -0.660685 0.679959 -0.264252
v -0.662902 0.672221 -0.257567
v -0.662022 0.691841 -0.258904
v -0.662022 0.683819 -0.262024
v -0.662902 0.670015 -0.257567
v -0.662902 0.670015 -0.258904
v -0.650435 0.668667 -0.257567
v -0.664696 0.668667 -0.258904
v -0.651950 0.685601 -0.273014
v -0.651950 0.670601 -0.271383
v -0.651950 0.672232 -0.273014
v -0.663359 0.671118 -0.258904
v -0.660685 0.679362 -0.262024
v -0.660685 0.691243 -0.264252
v -0.663359 0.671118 -0.257567
v -0.662022 0.691841 -0.262024
v -0.662022 0.679362 -0.262024
v -0.650435 0.668667 -0.258904
v -0.650658 0.683373 -0.273611
v -0.650658 0.674460 -0.273611
v -0.651950 0.674460 -0.273611
v -0.660685 0.689612 -0.265883
v -0.662022 0.665993 -0.257567
v -0.650435 0.665993 -0.258904
v -0.651950 0.683373 -0.273611
v -0.662022 0.679959 -0.264252
v -0.660685 0.681590 -0.265883
v -0.662022 0.691243 -0.264252
v -0.650435 0.665993 -0.257567
v -0.662022 0.665993 -0.258904
v -0.662022 0.681590 -0.265883
v -0.660685 0.687384 -0.266480
v -0.662022 0.689612 -0.265883
v -0.662022 0.683819 -0.266480
v -0.660685 0.683819 -0.266480
v -0.662022 0.687384 -0.266480
vt 0.0115 0.001
vt -0.001 0.016
vt -0.001 0.001
vt 0.012 0.016
vt 0.016 5.936
vt 0.001 5.951
vt 0.001 5.936
vt -0.086 5.891
vt 0.0115 5.936
vt -0.001 5.936
vt 0.019 0.00301
vt -0.012 5.936
vt 0.071 5.891
vt 0.016 5.951
vt -0.086 5.981
vt -0.001 5.951
vt -0.071 5.891
vt 0.011367 5.736
vt 0.019132 5.936
vt 0.011367 5.936
vt 0.0265 0.131
vt 0.071 5.801
vt 0.086 5.981
vt 0.001 0.016
vt -0.029 0.001
vt 0.001 0.001
vt 0.029 5.981
vt -0.071 5.801
vt 0.086 0.001
vt 0.071 0.016
vt 0.071 0.001
vt -0.083328 5.981
vt -0.091093 5.891
vt -0.083328 5.891
vt 0.019132 5.736
vt -0.001 5.736
vt 0.0115 5.736
vt 0.012 0.131
vt 0.02449 0.0085
vt 0.086126 5.760874
vt -0.001 5.801
vt -0.016 5.891
vt -0.016 5.801
vt 0.086 5.891
vt -0.029 5.951
vt -0.029 0.016
vt 0.029 5.951
vt 0.029 0.016
vt -0.086 0.001
vt 0.029 0.001
vt -0.086126 5.760874
vt -0.001 5.891
vt 0.086 0.016
vt -0.091093 5.981
vt 0.0935 0.00301
vt 0.086 0.051
vt -0.0115 0.001
vt -0.012 0.016
vt -0.019 0.00301
vt 0.023328 5.736
vt 0.015563 5.936
vt 0.015563 5.736
vt -0.086126 5.736126
vt -0.0265 1.383932
vt -0.012 1.409814
vt -0.0265 1.409814
vt -0.131 5.936
vt -0.016 5.736
vt -0.016 5.936
vt 0.023328 5.936
vt 0.0265 0.016
vt 0.081 5.7485
vt 0.0985 5.766
vt -0.101 0.016
vt -0.071 0.001
vt -0.071 0.016
vt 0.016 5.891
vt 0.051 5.981
vt 0.016 5.981
vt -0.029 5.981
vt 0.001 5.981
vt -0.086 0.016
vt -0.081 5.7485
vt -0.0985 5.766
vt -0.086 0.051
vt -0.0935 0.00301
vt -0.076007 5.981
vt -0.068243 5.891
vt -0.068243 5.981
vt 0.09899 0.0085
vt -0.0265 0.131
vt -0.02449 0.0085
vt -0.0985 5.731
vt 0.001 5.736
vt 0.016 5.721
vt 0.016 5.736
vt -0.012 1.383932
vt 0.131 5.936
vt 0.156 5.742699
vt 0.156 5.929301
vt -0.131 5.736
vt -0.012 5.736
vt 0.086126 5.736126
vt 0.022314 5.736
vt 0.014549 5.936
vt 0.014549 5.736
vt 0.022314 5.936
vt 0.131 5.736
vt -0.001 5.341919
vt -0.016 5.355313
vt -0.016 5.341919
vt -0.001 2.284161
vt -0.016 2.297555
vt -0.016 2.284161
vt 0.131 5.771
vt -0.101 0.001
vt 0.101 5.801
vt 0.051 5.891
vt -0.001 5.355313
vt -0.131 5.771
vt -0.001 2.297555
vt -0.09899 0.0085
vt -0.076007 5.891
vt 0.101 0.016
vt -0.012 0.131
vt -0.0265 0.016
vt -0.001 5.279924
vt -0.016 5.26653
vt -0.001 5.26653
vt -0.131 5.721
vt -0.001 2.115551
vt -0.016 2.102157
vt -0.001 2.102157
vt 0.001 5.721
vt 0.0985 5.731
vt -0.0265 4.056459
vt -0.012 4.08234
vt -0.0265 4.08234
vt -0.156 5.929301
vt 0.174301 5.761
vt -0.016 5.279924
vt 0.110874 5.760874
vt -0.016 3.988082
vt -0.001 4.030509
vt -0.016 4.030509
vt -0.101 5.801
vt 0.076 5.847699
vt -0.110874 5.760874
vt 0.001 2.115551
vt 0.016 2.102157
vt 0.016 2.115551
vt -0.041596 5.981
vt -0.033831 5.891
vt -0.033831 5.981
vt 0.101 0.051
vt -0.041596 5.891
vt -0.012 1.611122
vt -0.0265 1.637004
vt -0.0265 1.611122
vt -0.016 2.115551
vt -0.001 5.721
vt -0.110874 5.736126
vt 0.016 2.297555
vt 0.001 2.284161
vt 0.016 2.284161
vt 0.131 5.721
vt -0.012 4.056459
vt 0.174301 5.911
vt -0.156 5.742699
vt -0.0265 4.17101
vt -0.012 4.196892
vt -0.0265 4.196892
vt 0.116 5.7485
vt -0.001 3.988082
vt 0.051 5.841
vt 0.076 5.974301
vt -0.116 5.7485
vt 0.001 2.102157
vt -0.101 0.051
vt -0.051 5.981
vt -0.051 5.891
vt -0.101 5.841
vt -0.101 5.891
vt -0.016 5.981
vt -0.012 1.637004
vt 0.029 5.721
vt 0.001 2.297555
vt 0.110874 5.736126
vt -0.029 5.721
vt -0.0265 5.638593
vt -0.012 5.664475
vt -0.0265 5.664475
vt -0.174301 5.911
vt 0.181 5.786
vt -0.012 4.17101
vt -0.012 5.635693
vt -0.0265 5.609811
vt -0.012 5.609811
vt 0.016 5.279924
vt 0.001 5.26653
vt 0.016 5.26653
vt -0.016 5.771
vt -0.001 5.771
vt -0.086 5.841
vt 0.101 1.561024
vt 0.086 1.586906
vt 0.086 1.561024
vt 0.094301 5.956
vt 0.086 1.472853
vt 0.101 1.498734
vt 0.086 1.498734
vt 0.001 5.279924
vt -0.051 5.841
vt -0.101 5.691
vt 0.016 5.341919
vt 0.001 5.355313
vt 0.001 5.341919
vt 0.016 5.691
vt -0.029 5.691
vt -0.012 5.638593
vt 0.181 5.886
vt -0.174301 5.761
vt -0.0265 5.635693
vt -0.181 5.886
vt -0.181 5.786
vt 0.016 5.355313
vt -0.016 5.721
vt 0.101 1.586906
vt 0.094301 5.866
vt 0.086 4.144847
vt 0.101 4.170729
vt 0.086 4.170729
vt 0.101 1.472853
vt -0.076 5.847699
vt 0.029 5.691
vt -0.016 4.137989
vt -0.001 4.095562
vt -0.001 4.137989
vt 0.001 5.691
vt 0.101 5.691
vt -0.0265 5.786
vt -0.012 5.886
vt -0.0265 5.886
vt -0.012 5.786
vt 0.101 4.214569
vt 0.086 4.188688
vt 0.101 4.188688
vt 0.086 4.214569
vt 0.101 5.931
vt 0.101 4.144847
vt -0.076 5.974301
vt 0.101 0.001
vt -0.016 4.095562
vt -0.094301 5.866
vt 0.101 5.71641
vt 0.086 5.690528
vt 0.101 5.690528
vt 0.101 5.891
vt 0.086 5.702765
vt 0.101 5.728647
vt 0.086 5.728647
vt -0.094301 5.956
vt 0.086 5.71641
vt 0.086 5.931
vt 0.101 5.702765
vt -0.101 5.931
vn 0 1 0
vn 0 -1 0
vn 1 0 0
vn -1 0 0
vn -0.13052598533534113 0 0.9914448886106773
vn 0.13052598533534113 0 0.9914448886106773
vn 0 0 1
vn 0 0 -1
vn -0.13052598533534113 0 -0.9914448886106773
vn 0.13052598533534113 0 -0.9914448886106773
vn 0.2588189595935754 0 0.965925849201117
vn -0.2588189595935754 0 -0.965925849201117
vn 0 0.9914448886106773 -0.1305259853353409
vn 0 -0.9914448886106773 0.1305259853353409
vn -0.2588189595935754 0 0.965925849201117
vn 0.2588189595935754 0 -0.965925849201117
vn 0.7071067811865475 0 0.7071067811865475
vn -0.7071067811865475 0 -0.7071067811865475
vn 0 0.965925849201117 -0.2588189595935752
vn 0 -0.965925849201117 0.2588189595935752
vn -0.7071067811865475 0 0.7071067811865475
vn 0.7071067811865475 0 -0.7071067811865475
vn 0 -0.9914448886106773 -0.13052598533534135
vn 0 0.9914448886106773 0.13052598533534135
vn 0.9914448886106773 0 0.13052598533534113
vn 0.965925849201117 0 0.2588189595935754
vn -0.965925849201117 0 -0.2588189595935754
vn -0.9914448886106773 0 -0.13052598533534113
vn -0.9238797538373538 -0.38268289803626016 0
vn 0.9238797538373538 0.38268289803626016 0
vn -0.38268289803626016 -0.9238797538373538 0
vn 0.38268289803626016 0.9238797538373538 0
vn -0.9238797538373538 0.38268289803626016 0
vn 0.9238797538373538 -0.38268289803626016 0
vn -0.38268289803626016 0.9238797538373538 0
vn 0.38268289803626016 -0.9238797538373538 0
vn 0 0.7071067811865477 -0.7071067811865474
vn 0 -0.7071067811865477 0.7071067811865474
vn -0.7071067811865475 0.7071067811865475 0
vn 0.7071067811865475 -0.7071067811865475 0
vn -0.9914448886106773 0 0.13052598533534113
vn -0.965925849201117 0 0.2588189595935754
vn 0.965925849201117 0 -0.2588189595935754
vn 0.9914448886106773 0 -0.13052598533534113
vn 0 -0.965925849201117 -0.25881895959357565
vn 0 0.965925849201117 0.25881895959357565
vn 0 -0.7071067811865474 -0.7071067811865477
vn 0 0.7071067811865474 0.7071067811865477
vn 0 0.13052598533534135 -0.9914448886106773
vn 0 0.25881895959357565 -0.965925849201117
vn 0 -0.25881895959357565 0.965925849201117
vn 0 -0.13052598533534135 0.9914448886106773
vn 0 -0.1305259853353409 -0.9914448886106773
vn 0 -0.2588189595935752 -0.965925849201117
vn 0 0.2588189595935752 0.965925849201117
vn 0 0.1305259853353409 0.9914448886106773
vn -0.7071067811865475 -0.7071067811865475 0
vn 0.7071067811865475 0.7071067811865475 0
usemtl material_0_0
f 1/1/1 2/2/1 3/3/1
f 2/2/1 1/1/1 4/4/1
f 3/3/2 2/2/2 1/1/2
f 4/4/2 1/1/2 2/2/2
f 2/5/3 5/6/3 3/7/3
f 3/7/4 5/6/4 2/5/4
f 6/8/5 1/9/6 3/10/7
f 3/10/8 1/9/9 6/8/10
f 4/4/1 1/1/1 7/11/1
f 7/11/2 1/1/2 4/4/2
f 4/12/8 8/13/8 2/7/8
f 2/7/7 8/13/7 4/12/7
f 5/6/3 2/5/3 9/14/3
f 9/14/4 2/5/4 5/6/4
f 10/15/5 3/10/7 5/16/7
f 5/16/8 3/10/8 10/15/10
f 11/17/7 1/9/6 6/8/5
f 6/8/10 1/9/9 11/17/8
f 6/8/5 3/10/7 10/15/5
f 10/15/10 3/10/8 6/8/10
f 12/18/6 7/19/11 1/20/6
f 1/20/9 7/19/12 12/18/9
f 13/21/13 4/4/1 7/11/1
f 7/11/2 4/4/2 13/21/14
f 4/12/8 14/22/8 8/13/8
f 8/13/7 14/22/7 4/12/7
f 8/13/8 15/23/8 2/7/8
f 2/7/7 15/23/7 8/13/7
f 2/7/8 15/23/8 9/6/8
f 9/6/7 15/23/7 2/7/7
f 9/24/2 16/25/2 5/26/2
f 5/26/1 16/25/1 9/24/1
f 10/15/5 5/16/7 17/27/7
f 17/27/8 5/16/8 10/15/10
f 18/28/7 1/9/6 11/17/7
f 11/17/8 1/9/9 18/28/8
f 6/29/2 8/30/2 11/31/2
f 11/31/1 8/30/1 6/29/1
f 10/32/5 19/33/15 6/34/5
f 6/34/10 19/33/16 10/32/10
f 7/19/11 12/18/6 20/35/11
f 20/35/12 12/18/9 7/19/12
f 1/9/6 21/36/7 12/37/6
f 12/37/9 21/36/8 1/9/9
f 4/4/1 13/21/13 22/38/13
f 22/38/14 13/21/14 4/4/2
f 13/21/13 7/11/1 23/39/1
f 23/39/2 7/11/2 13/21/14
f 4/12/8 24/40/8 14/22/8
f 14/22/7 24/40/7 4/12/7
f 18/41/4 8/42/4 14/43/4
f 14/43/3 8/42/3 18/41/3
f 15/23/8 8/13/8 25/44/8
f 25/44/7 8/13/7 15/23/7
f 9/6/8 15/23/8 26/45/8
f 26/45/7 15/23/7 9/6/7
f 16/25/2 9/24/2 26/46/2
f 26/46/1 9/24/1 16/25/1
f 17/27/7 5/16/7 16/47/7
f 16/47/8 5/16/8 17/27/8
f 27/48/1 10/49/1 17/50/1
f 17/50/2 10/49/2 27/48/2
f 28/51/7 1/9/6 18/28/7
f 18/28/8 1/9/9 28/51/8
f 8/42/4 18/41/4 11/52/4
f 11/52/3 18/41/3 8/42/3
f 6/29/2 25/53/2 8/30/2
f 8/30/1 25/53/1 6/29/1
f 19/33/15 10/32/5 29/54/15
f 29/54/16 10/32/10 19/33/16
f 19/55/2 30/56/2 6/29/2
f 6/29/1 30/56/1 19/55/1
f 12/57/2 31/58/2 20/59/2
f 20/59/1 31/58/1 12/57/1
f 32/60/17 7/61/17 20/62/17
f 20/62/18 7/61/18 32/60/18
f 21/36/7 1/9/6 33/63/7
f 33/63/8 1/9/9 21/36/8
f 34/24/2 12/57/2 21/26/2
f 21/26/1 12/57/1 34/24/1
f 35/64/19 22/65/13 13/66/13
f 13/66/14 22/65/14 35/64/20
f 22/67/4 31/68/4 4/69/4
f 4/69/3 31/68/3 22/67/3
f 7/61/17 32/60/17 23/70/17
f 23/70/18 32/60/18 7/61/18
f 13/21/13 23/39/1 36/71/1
f 36/71/2 23/39/2 13/21/14
f 4/12/8 37/72/8 24/40/8
f 24/40/7 37/72/7 4/12/7
f 14/22/8 24/40/8 38/73/8
f 38/73/7 24/40/7 14/22/7
f 39/74/1 18/75/1 14/76/1
f 14/76/2 18/75/2 39/74/2
f 25/77/3 40/78/3 15/79/3
f 15/79/4 40/78/4 25/77/4
f 26/45/8 15/23/8 27/80/8
f 27/80/7 15/23/7 26/45/7
f 26/14/3 17/81/3 16/6/3
f 16/6/4 17/81/4 26/14/4
f 15/82/1 10/49/1 27/48/1
f 27/48/2 10/49/2 15/82/2
f 17/81/3 26/14/3 27/79/3
f 27/79/4 26/14/4 17/81/4
f 41/83/7 1/9/6 28/51/7
f 28/51/8 1/9/9 41/83/8
f 28/51/7 18/28/7 42/84/7
f 42/84/8 18/28/8 28/51/8
f 6/29/2 30/56/2 25/53/2
f 25/53/1 30/56/1 6/29/1
f 40/85/13 29/86/1 10/49/1
f 10/49/2 29/86/2 40/85/14
f 43/87/21 19/88/21 29/89/21
f 29/89/22 19/88/22 43/87/22
f 44/90/2 30/56/2 19/55/2
f 19/55/1 30/56/1 44/90/1
f 12/57/2 34/24/2 31/58/2
f 31/58/1 34/24/1 12/57/1
f 31/58/2 45/91/23 20/59/2
f 20/59/1 45/91/24 31/58/1
f 20/59/2 45/91/23 32/92/2
f 32/92/1 45/91/24 20/59/1
f 33/63/7 1/9/6 41/83/7
f 41/83/8 1/9/9 33/63/8
f 46/93/7 21/36/7 33/63/7
f 33/63/8 21/36/8 46/93/8
f 21/94/3 47/95/3 34/96/3
f 34/96/4 47/95/4 21/94/4
f 22/65/13 35/64/19 48/97/19
f 48/97/20 35/64/20 22/65/14
f 13/98/3 49/99/3 35/100/3
f 35/100/4 49/99/4 13/98/4
f 31/68/4 22/67/4 50/101/4
f 50/101/3 22/67/3 31/68/3
f 31/102/8 51/103/8 4/12/8
f 4/12/7 51/103/7 31/102/7
f 52/104/25 23/105/26 32/106/26
f 32/106/27 23/105/27 52/104/28
f 23/105/26 52/104/25 36/107/25
f 36/107/28 52/104/28 23/105/27
f 36/5/25 45/108/3 13/98/3
f 13/98/4 45/108/4 36/5/28
f 4/12/8 51/103/8 37/72/8
f 37/72/7 51/103/7 4/12/7
f 41/109/29 24/110/29 37/111/29
f 37/111/30 24/110/30 41/109/30
f 28/112/31 38/113/31 24/114/31
f 24/114/32 38/113/32 28/112/32
f 14/22/8 38/73/8 53/115/8
f 53/115/7 38/73/7 14/22/7
f 18/75/1 39/74/1 54/116/1
f 54/116/2 39/74/2 18/75/2
f 14/22/8 53/115/8 39/117/8
f 39/117/7 53/115/7 14/22/7
f 40/78/3 25/77/3 30/118/3
f 30/118/4 25/77/4 40/78/4
f 40/85/13 10/49/1 15/82/1
f 15/82/2 10/49/2 40/85/14
f 24/110/29 41/109/29 28/119/29
f 28/119/30 41/109/30 24/110/30
f 42/84/7 18/28/7 55/120/7
f 55/120/8 18/28/8 42/84/8
f 38/113/31 28/112/31 42/121/31
f 42/121/32 28/112/32 38/113/32
f 40/85/13 43/122/1 29/86/1
f 29/86/2 43/122/2 40/85/14
f 19/88/21 43/87/21 44/123/21
f 44/123/22 43/87/22 19/88/22
f 56/124/2 30/56/2 44/90/2
f 44/90/1 30/56/1 56/124/1
f 34/94/8 51/103/8 31/102/8
f 31/102/7 51/103/7 34/94/7
f 45/91/23 31/58/2 50/125/23
f 50/125/24 31/58/1 45/91/24
f 32/92/2 45/91/23 52/126/2
f 52/126/1 45/91/24 32/92/1
f 41/127/33 51/128/33 33/129/33
f 33/129/34 51/128/34 41/127/34
f 57/130/7 21/36/7 46/93/7
f 46/93/8 21/36/8 57/130/8
f 33/131/35 58/132/35 46/133/35
f 46/133/36 58/132/36 33/131/36
f 47/95/3 21/94/3 59/134/3
f 59/134/4 21/94/4 47/95/4
f 58/135/8 34/94/8 47/134/8
f 47/134/7 34/94/7 58/135/7
f 60/136/37 48/137/37 35/138/37
f 35/138/38 48/137/38 60/136/38
f 50/101/4 22/67/4 48/139/4
f 48/139/3 22/67/3 50/101/3
f 13/98/3 45/108/3 49/99/3
f 49/99/4 45/108/4 13/98/4
f 35/100/3 49/99/3 61/140/3
f 61/140/4 49/99/4 35/100/4
f 45/108/3 36/5/25 52/96/25
f 52/96/28 36/5/28 45/108/4
f 51/128/33 41/127/33 37/141/33
f 37/141/34 41/127/34 51/128/34
f 62/142/8 53/115/8 38/73/8
f 38/73/7 53/115/7 62/142/7
f 53/143/39 54/144/39 39/145/39
f 39/145/40 54/144/40 53/143/40
f 54/146/7 55/120/7 18/28/7
f 18/28/8 55/120/8 54/146/8
f 30/118/3 63/147/3 40/78/3
f 40/78/4 63/147/4 30/118/4
f 55/120/7 64/148/7 42/84/7
f 42/84/8 64/148/8 55/120/8
f 42/149/36 62/150/36 38/151/36
f 38/151/35 62/150/35 42/149/35
f 40/85/13 65/74/1 43/122/1
f 43/122/2 65/74/2 40/85/14
f 65/152/41 44/153/42 43/154/42
f 43/154/43 44/153/43 65/152/44
f 30/56/2 56/124/2 66/155/2
f 66/155/1 56/124/1 30/56/1
f 44/153/42 65/152/41 56/156/41
f 56/156/44 65/152/44 44/153/43
f 34/94/8 58/135/8 51/103/8
f 51/103/7 58/135/7 34/94/7
f 50/157/23 49/158/45 45/159/23
f 45/159/24 49/158/46 50/157/24
f 58/132/35 33/131/35 51/160/35
f 51/160/36 33/131/36 58/132/36
f 57/130/7 59/161/7 21/36/7
f 21/36/8 59/161/8 57/130/8
f 67/162/7 57/130/7 46/93/7
f 46/93/8 57/130/8 67/162/8
f 68/163/32 46/164/32 58/165/32
f 58/165/31 46/164/31 68/163/31
f 69/50/1 47/2/1 59/3/1
f 59/3/2 47/2/2 69/50/2
f 70/166/8 58/135/8 47/134/8
f 47/134/7 58/135/7 70/166/7
f 48/137/37 60/136/37 71/167/37
f 71/167/38 60/136/38 48/137/38
f 35/100/3 61/140/3 60/168/3
f 60/168/4 61/140/4 35/100/4
f 50/101/4 48/139/4 72/169/4
f 72/169/3 48/139/3 50/101/3
f 49/170/47 73/171/47 61/172/47
f 61/172/48 73/171/48 49/170/48
f 74/173/8 53/115/8 62/142/8
f 62/142/7 53/115/7 74/173/7
f 54/144/39 53/143/39 55/174/39
f 55/174/40 53/143/40 54/144/40
f 63/147/3 30/118/3 75/175/3
f 75/175/4 30/118/4 63/147/4
f 40/78/3 63/147/3 76/176/3
f 76/176/4 63/147/4 40/78/4
f 55/120/7 77/177/7 64/148/7
f 64/148/8 77/177/8 55/120/8
f 62/150/36 42/149/36 64/178/36
f 64/178/35 42/149/35 62/150/35
f 65/74/1 40/85/13 78/179/13
f 78/179/14 40/85/14 65/74/2
f 56/42/41 78/180/4 66/181/4
f 66/181/3 78/180/3 56/42/44
f 79/182/7 30/8/7 66/183/7
f 66/183/8 30/8/8 79/182/8
f 78/180/4 56/42/41 65/184/41
f 65/184/44 56/42/44 78/180/3
f 49/158/45 50/157/23 72/185/45
f 72/185/46 50/157/24 49/158/46
f 57/130/7 69/186/7 59/161/7
f 59/161/8 69/186/8 57/130/8
f 57/130/7 67/162/7 55/120/7
f 55/120/8 67/162/8 57/130/8
f 46/164/32 68/163/32 67/187/32
f 67/187/31 68/163/31 46/164/31
f 58/135/8 70/166/8 68/188/8
f 68/188/7 70/166/7 58/135/7
f 47/2/1 69/50/1 80/48/1
f 80/48/2 69/50/2 47/2/2
f 80/189/8 70/166/8 47/134/8
f 47/134/7 70/166/7 80/189/7
f 81/190/49 71/191/50 60/192/50
f 60/192/51 71/191/51 81/190/52
f 72/169/4 48/139/4 71/193/4
f 71/193/3 48/139/3 72/169/3
f 60/168/3 61/140/3 82/194/3
f 82/194/4 61/140/4 60/168/4
f 73/171/47 49/170/47 72/195/47
f 72/195/48 49/170/48 73/171/48
f 83/196/53 61/197/54 73/198/54
f 73/198/55 61/197/55 83/196/56
f 68/188/8 53/115/8 74/173/8
f 74/173/7 53/115/7 68/188/7
f 62/199/34 77/200/34 74/201/34
f 74/201/33 77/200/33 62/199/33
f 53/202/4 57/161/4 55/203/4
f 55/203/3 57/161/3 53/202/3
f 30/8/7 79/182/7 75/204/7
f 75/204/8 79/182/8 30/8/8
f 79/205/45 63/206/45 75/207/45
f 75/207/46 63/206/46 79/205/46
f 76/176/3 63/147/3 84/208/3
f 84/208/4 63/147/4 76/176/4
f 76/209/19 78/210/13 40/211/13
f 40/211/14 78/210/14 76/209/20
f 55/120/7 67/162/7 77/177/7
f 77/177/8 67/162/8 55/120/8
f 77/200/34 62/199/34 64/212/34
f 64/212/33 62/199/33 77/200/33
f 66/181/4 78/180/4 79/213/4
f 79/213/3 78/180/3 66/181/3
f 85/214/7 69/186/7 57/130/7
f 57/130/8 69/186/8 85/214/8
f 68/215/30 77/216/30 67/217/30
f 67/217/29 77/216/29 68/215/29
f 68/188/8 70/166/8 53/115/8
f 53/115/7 70/166/7 68/188/7
f 69/134/3 86/218/3 80/95/3
f 80/95/4 86/218/4 69/134/4
f 86/219/8 70/166/8 80/189/8
f 80/189/7 70/166/7 86/219/7
f 71/191/50 81/190/49 87/220/49
f 87/220/52 81/190/52 71/191/51
f 60/168/3 82/194/3 81/221/3
f 81/221/4 82/194/4 60/168/4
f 72/169/4 71/193/4 73/222/4
f 73/222/3 71/193/3 72/169/3
f 61/197/54 83/196/53 82/223/53
f 82/223/56 83/196/56 61/197/55
f 73/222/4 87/224/4 83/225/4
f 83/225/3 87/224/3 73/222/3
f 77/216/30 68/215/30 74/226/30
f 74/226/29 68/215/29 77/216/29
f 57/161/4 53/202/4 70/227/4
f 70/227/3 53/202/3 57/161/3
f 63/206/45 79/205/45 88/228/45
f 88/228/46 79/205/46 63/206/46
f 84/208/3 63/147/3 89/229/3
f 89/229/4 63/147/4 84/208/4
f 84/230/37 90/231/37 76/232/37
f 76/232/38 90/231/38 84/230/38
f 78/210/13 76/209/19 90/233/19
f 90/233/20 76/209/20 78/210/14
f 79/213/4 78/180/4 88/234/4
f 88/234/3 78/180/3 79/213/3
f 69/186/7 85/214/7 91/235/7
f 91/235/8 85/214/8 69/186/8
f 70/236/57 85/237/57 57/238/57
f 57/238/58 85/237/58 70/236/58
f 86/218/3 69/134/3 91/239/3
f 91/239/4 69/134/4 86/218/4
f 70/166/8 86/219/8 92/240/8
f 92/240/7 86/219/7 70/166/7
f 82/241/53 87/242/49 81/243/49
f 81/243/52 87/242/52 82/241/56
f 73/222/4 71/193/4 87/224/4
f 87/224/3 71/193/3 73/222/3
f 87/242/49 82/241/53 83/244/53
f 83/244/56 82/241/56 87/242/52
f 93/245/47 63/246/47 88/247/47
f 88/247/48 63/246/48 93/245/48
f 63/246/47 93/245/47 89/248/47
f 89/248/48 93/245/48 63/246/48
f 84/208/3 89/229/3 94/249/3
f 94/249/4 89/229/4 84/208/4
f 90/231/37 84/230/37 95/250/37
f 95/250/38 84/230/38 90/231/38
f 88/234/4 78/180/4 90/251/4
f 90/251/3 78/180/3 88/234/3
f 92/124/2 91/25/2 85/252/2
f 85/252/1 91/25/1 92/124/1
f 85/237/57 70/236/57 92/253/57
f 92/253/58 70/236/58 85/237/58
f 91/25/2 92/124/2 86/46/2
f 86/46/1 92/124/1 91/25/1
f 88/234/4 90/251/4 93/254/4
f 93/254/3 90/251/3 88/234/3
f 96/255/53 89/256/54 93/257/54
f 93/257/55 89/256/55 96/255/56
f 94/249/3 89/229/3 97/258/3
f 97/258/4 89/229/4 94/249/4
f 94/259/49 95/260/50 84/261/50
f 84/261/51 95/260/51 94/259/52
f 93/254/4 90/251/4 95/262/4
f 95/262/3 90/251/3 93/254/3
f 89/256/54 96/255/53 97/263/53
f 97/263/56 96/255/56 89/256/55
f 93/254/4 95/262/4 96/183/4
f 96/183/3 95/262/3 93/254/3
f 97/44/53 98/249/49 94/264/49
f 94/264/52 98/249/52 97/44/56
f 95/260/50 94/259/49 98/265/49
f 98/265/52 94/259/52 95/260/51
f 98/249/49 97/44/53 96/258/53
f 96/258/56 97/44/56 98/249/52
f 96/183/4 95/262/4 98/266/4
f 98/266/3 95/262/3 96/183/3
