# SSTK version 0.8.0
# 49
mtllib original-49.mtl
o Group32/mesh252/mesh252-geometry#mesh252-geometry
v -0.635936 -0.287226 -0.224946
v -0.631480 -0.287226 -0.242772
v -0.631480 -0.287226 -0.224946
v -0.635936 -0.287226 -0.242772
v -0.631480 -0.286629 -0.222718
v -0.635936 -0.286629 -0.222718
v -0.631480 -0.286629 -0.245001
v -0.635936 -0.286629 -0.245001
v -0.631480 -0.284998 -0.246632
v -0.631480 -0.284998 -0.221087
v -0.635936 -0.284998 -0.246632
v -0.635936 -0.284998 -0.221087
v -0.631480 -0.282770 -0.247229
v -0.635936 -0.282770 -0.220490
v -0.635936 -0.282770 -0.247229
v -0.631480 -0.282770 -0.220490
v -0.631480 -0.175813 -0.247229
v -0.635936 -0.175813 -0.220490
v -0.635936 -0.175813 -0.247229
v -0.631480 -0.175813 -0.220490
v -0.631480 -0.173585 -0.246632
v -0.631480 -0.173585 -0.221087
v -0.635936 -0.173585 -0.221087
v -0.635936 -0.173585 -0.246632
v -0.631480 -0.171953 -0.245001
v -0.631480 -0.171953 -0.222718
v -0.635936 -0.171953 -0.245001
v -0.635936 -0.171953 -0.222718
v -0.635936 -0.171356 -0.242772
v -0.631480 -0.171356 -0.242772
v -0.631480 -0.171356 -0.224946
v -0.635936 -0.171356 -0.224946
vt 0.05 0.05
vt 0 0.25
vt 0 0.05
vt 0.05 0.25
vt -0.006699 0.025
vt 0 0.048296
vt 0.05 0.022414
vt 0.05 0.048296
vt 0.006699 0.025
vt 0.05 0.241481
vt 0 0.267363
vt 0 0.241481
vt -0.006699 0.275
vt 0 0.022414
vt 0.006699 0.275
vt 0.05 0.267363
vt -0.025 0.293301
vt 0 -0.012941
vt 0.05 0.012941
vt 0 0.012941
vt 0.025 0.293301
vt 0.05 0.199191
vt 0 0.225073
vt 0 0.199191
vt -0.025 0.006699
vt 0.05 -0.012941
vt 0.025 0.006699
vt 0.05 0.225073
vt -0.05 0.3
vt 0 -0.022414
vt 0.05 -0.048296
vt 0.05 -0.022414
vt 0.05 0.3
vt 0.05 0.10006
vt 0 0.125942
vt 0 0.10006
vt -0.05 0
vt 0 -0.048296
vt 0.05 0
vt 0.05 0.125942
vt -1.25 0.3
vt -0.05 1.25
vt -0.05 0.05
vt 1.25 0.3
vt 0.05 1.25
vt 0 1.25
vt -1.25 0
vt 1.25 0
vt -0.05 -1.129762
vt 0 -1.155643
vt 0 -1.129762
vt -1.275 0.006699
vt 0 1.207407
vt -0.05 1.233289
vt -0.05 1.207407
vt 1.275 0.006699
vt -0.05 -1.155643
vt -1.275 0.293301
vt 0 1.233289
vt 1.275 0.293301
vt -0.05 -0.694166
vt 0 -0.720048
vt 0 -0.694166
vt -1.293301 0.275
vt 0 0.93218
vt -0.05 0.906298
vt 0 0.906298
vt 1.293301 0.275
vt -0.05 -0.720048
vt -1.293301 0.025
vt -0.05 0.93218
vt 1.293301 0.025
vt -0.05 -0.094983
vt 0 -0.069101
vt -0.05 -0.069101
vt -1.3 0.25
vt 0 0.384761
vt -0.05 0.358879
vt 0 0.358879
vt 1.3 0.05
vt 0 -0.094983
vt 1.3 0.25
vt -1.3 0.05
vt -0.05 0.384761
vt -0.05 0.25
vn 0 -0.9914448886106773 0.13052598533534068
vn 0 -0.9914448886106771 -0.13052598533534154
vn 1 0 0
vn 0 -0.9659258492011172 0.258818959593575
vn -1 0 0
vn 0 -0.965925849201117 -0.2588189595935759
vn 0 -0.7071067811865479 0.7071067811865471
vn 0 -0.7071067811865471 -0.7071067811865479
vn 0 -0.2588189595935759 0.965925849201117
vn 0 -0.13052598533534154 0.9914448886106771
vn 0 -0.258818959593575 -0.9659258492011172
vn 0 -0.13052598533534068 -0.9914448886106773
vn 0 0.13052598533534068 0.9914448886106773
vn 0 0.13052598533534154 -0.9914448886106771
vn 0 0.2588189595935759 -0.965925849201117
vn 0 0.258818959593575 0.9659258492011172
vn 0 0.7071067811865479 -0.7071067811865471
vn 0 0.7071067811865471 0.7071067811865479
vn 0 0.9914448886106773 -0.13052598533534068
vn 0 0.9659258492011172 -0.258818959593575
vn 0 0.9914448886106771 0.13052598533534154
vn 0 0.965925849201117 0.2588189595935759
usemtl material_0_0
f 1/1/1 2/2/2 3/3/1
f 2/2/2 1/1/1 4/4/2
f 2/2/3 5/5/3 3/3/3
f 3/6/1 6/7/4 1/8/1
f 6/9/5 4/2/5 1/3/5
f 4/10/2 7/11/6 2/12/2
f 5/5/3 2/2/3 7/13/3
f 6/7/4 3/6/1 5/14/4
f 4/2/5 6/9/5 8/15/5
f 7/11/6 4/10/2 8/16/6
f 5/5/3 7/13/3 9/17/3
f 10/18/7 6/19/7 5/20/7
f 8/15/5 6/9/5 11/21/5
f 8/22/8 9/23/8 7/24/8
f 5/5/3 9/17/3 10/25/3
f 6/19/7 10/18/7 12/26/7
f 11/21/5 6/9/5 12/27/5
f 9/23/8 8/22/8 11/28/8
f 10/25/3 9/17/3 13/29/3
f 10/30/9 14/31/10 12/32/9
f 11/21/5 12/27/5 15/33/5
f 11/34/11 13/35/12 9/36/11
f 10/25/3 13/29/3 16/37/3
f 14/31/10 10/30/9 16/38/10
f 15/33/5 12/27/5 14/39/5
f 13/35/12 11/34/11 15/40/12
f 16/37/3 13/29/3 17/41/3
f 16/3/10 18/42/13 14/43/10
f 15/33/5 14/39/5 19/44/5
f 19/45/14 13/3/12 15/1/12
f 13/3/12 19/45/14 17/46/14
f 16/37/3 17/41/3 20/47/3
f 18/42/13 16/3/10 20/46/13
f 19/44/5 14/39/5 18/48/5
f 19/49/14 21/50/15 17/51/14
f 20/47/3 17/41/3 22/52/3
f 20/53/13 23/54/16 18/55/13
f 19/44/5 18/48/5 23/56/5
f 21/50/15 19/49/14 24/57/15
f 22/52/3 17/41/3 21/58/3
f 23/54/16 20/53/13 22/59/16
f 19/44/5 23/56/5 24/60/5
f 24/61/17 25/62/17 21/63/17
f 22/52/3 21/58/3 25/64/3
f 26/65/18 23/66/18 22/67/18
f 24/60/5 23/56/5 27/68/5
f 25/62/17 24/61/17 27/69/17
f 22/52/3 25/64/3 26/70/3
f 23/66/18 26/65/18 28/71/18
f 27/68/5 23/56/5 28/72/5
f 29/73/19 25/74/20 27/75/20
f 26/70/3 25/64/3 30/76/3
f 31/77/21 28/78/22 26/79/22
f 27/68/5 28/72/5 32/80/5
f 25/74/20 29/73/19 30/81/19
f 27/68/5 32/80/5 29/82/5
f 26/70/3 30/76/3 31/83/3
f 28/78/22 31/77/21 32/84/21
f 32/43/21 30/2/19 29/85/19
f 30/2/19 32/43/21 31/3/21
usemtl material_1_0
f 3//19 2//21 1//19
f 4//21 1//19 2//21
f 3//5 5//5 2//5
f 1//19 6//20 3//19
f 1//3 4//3 6//3
f 2//21 7//22 4//21
f 7//5 2//5 5//5
f 5//20 3//19 6//20
f 8//3 6//3 4//3
f 8//22 4//21 7//22
f 9//5 7//5 5//5
f 5//17 6//17 10//17
f 11//3 6//3 8//3
f 7//18 9//18 8//18
f 10//5 9//5 5//5
f 12//17 10//17 6//17
f 12//3 6//3 11//3
f 11//18 8//18 9//18
f 13//5 9//5 10//5
f 12//15 14//14 10//15
f 15//3 12//3 11//3
f 9//16 13//13 11//16
f 16//5 13//5 10//5
f 16//14 10//15 14//14
f 14//3 12//3 15//3
f 15//13 11//16 13//13
f 17//5 13//5 16//5
f 14//14 18//12 16//14
f 19//3 14//3 15//3
f 15//13 13//13 19//10
f 17//10 19//10 13//13
f 20//5 17//5 16//5
f 20//12 16//14 18//12
f 18//3 14//3 19//3
f 17//10 21//9 19//10
f 22//5 17//5 20//5
f 18//12 23//11 20//12
f 23//3 18//3 19//3
f 24//9 19//10 21//9
f 21//5 17//5 22//5
f 22//11 20//12 23//11
f 24//3 23//3 19//3
f 21//7 25//7 24//7
f 25//5 21//5 22//5
f 22//8 23//8 26//8
f 27//3 23//3 24//3
f 27//7 24//7 25//7
f 26//5 25//5 22//5
f 28//8 26//8 23//8
f 28//3 23//3 27//3
f 27//4 25//4 29//1
f 30//5 25//5 26//5
f 26//6 28//6 31//2
f 32//3 28//3 27//3
f 30//1 29//1 25//4
f 29//3 32//3 27//3
f 31//5 30//5 26//5
f 32//2 31//2 28//6
f 29//1 30//1 32//2
f 31//2 32//2 30//1
