# SSTK version 0.8.0
# 15
mtllib original-15.mtl
o Group8/mesh85/mesh85-geometry#mesh85-geometry
v 0.565723 -0.636474 0.380920
v 0.562414 -0.639148 0.382291
v 0.565723 -0.639148 0.380920
v 0.562414 -0.636474 0.382291
v 0.531854 -0.639148 0.361534
v 0.569032 -0.636474 0.382291
v 0.531854 -0.636474 0.361534
v 0.561044 -0.636474 0.385600
v 0.561044 -0.639148 0.385600
v 0.599593 -0.639148 0.361534
v 0.569032 -0.639148 0.382291
v 0.599593 -0.636474 0.361534
v 0.562414 -0.639148 0.388908
v 0.565723 -0.639148 0.360478
v 0.570403 -0.639148 0.385600
v 0.570403 -0.636474 0.385600
v 0.562414 -0.636474 0.388908
v 0.565723 -0.636474 0.360478
v 0.531875 -0.639148 0.401643
v 0.562414 -0.639148 0.359107
v 0.569032 -0.639148 0.359107
v 0.569032 -0.636474 0.388908
v 0.531875 -0.636474 0.401643
v 0.569032 -0.636474 0.359107
v 0.562414 -0.636474 0.359107
v 0.565723 -0.639148 0.390279
v 0.569032 -0.639148 0.388908
v 0.546114 -0.639148 0.347273
v 0.585332 -0.639148 0.347273
v 0.599593 -0.636474 0.401643
v 0.565723 -0.636474 0.390279
v 0.585332 -0.636474 0.347273
v 0.546114 -0.636474 0.347273
v 0.599593 -0.639148 0.401643
v 0.532114 -0.636474 0.402534
v 0.561044 -0.639148 0.355798
v 0.561044 -0.636474 0.355798
v 0.570403 -0.639148 0.355798
v 0.570403 -0.636474 0.355798
v 0.599354 -0.639148 0.402534
v 0.532114 -0.639148 0.402534
v 0.599354 -0.636474 0.402534
v 0.562414 -0.639148 0.352490
v 0.569032 -0.639148 0.352490
v 0.569032 -0.636474 0.352490
v 0.562414 -0.636474 0.352490
v 0.532767 -0.639148 0.403187
v 0.532767 -0.636474 0.403187
v 0.565723 -0.639148 0.351119
v 0.565723 -0.636474 0.351119
v 0.598702 -0.639148 0.403187
v 0.598702 -0.636474 0.403187
v 0.533658 -0.639148 0.403426
v 0.597810 -0.639148 0.403426
v 0.533658 -0.636474 0.403426
v 0.597810 -0.636474 0.403426
vt -0.254447 0.03
vt -0.294628 0
vt -0.254447 0
vt -0.294628 0.03
vt -0.237123 0.417123
vt -0.47 0.76
vt -0.2525 0.38
vt -0.447702 0
vt -0.40752 0.03
vt -0.447702 0.03
vt 0.47 0.76
vt 0.237123 0.417123
vt 0.2525 0.38
vt 0.019265 0.03
vt 0.059447 0
vt 0.059447 0.03
vt -0.2 0.4325
vt -0.47 0
vt -0.40752 0
vt 0.237123 0.342877
vt 0.47 0
vt 0.2 0.4325
vt 0.019265 0
vt -0.162877 0.417123
vt -0.237123 0.342877
vt -0.481854 0.38
vt -0.310105 0
vt -0.350286 0.03
vt -0.350286 0
vt 0.2 0.3275
vt 0.162877 0.417123
vt 0.481854 0.38
vt 0.350286 0.03
vt 0.310105 0
vt 0.350286 0
vt -0.02 0.759764
vt -0.2 0.3275
vt -0.497231 0.417123
vt -0.497231 0.342877
vt -0.310105 0.03
vt 0.162877 0.342877
vt 0.02 0.759764
vt 0.310105 0.03
vt 0.497231 0.342877
vt 0.497231 0.417123
vt -0.1475 0.38
vt -0.020398 0.03
vt -0.470398 0
vt -0.020398 0
vt -0.162877 0.342877
vt -0.63 0.6
vt 0.575653 0.03
vt 0.535472 0
vt 0.575653 0
vt -0.63 0.16
vt 0.166677 0.03
vt 0.126495 0
vt 0.166677 0
vt -0.059447 0
vt -0.019265 0.03
vt -0.059447 0.03
vt 0.02 0
vt 0.1475 0.38
vt -0.470398 0.03
vt 0.40752 0.03
vt 0.447702 0
vt 0.447702 0.03
vt 0.63 0.16
vt 0.126495 0.03
vt 0.63 0.6
vt 0.535472 0.03
vt -0.02 0
vt 0.40752 0
vt -0.216316 0
vt -0.205962 0.03
vt -0.216316 0.03
vt -0.019265 0
vt 0.205061 0.03
vt -0.021213 0
vt 0.205061 0
vt -0.534354 0.4325
vt 0.619007 0
vt 0.659189 0.03
vt 0.619007 0.03
vt -0.534354 0.3275
vt 0.558614 0.03
vt 0.33234 0
vt 0.558614 0
vt 0.47 0.03
vt 0.02 0.03
vt 0.33234 0.03
vt 0.534354 0.3275
vt -0.328168 0.03
vt -0.36835 0
vt -0.328168 0
vt 0.534354 0.4325
vt -0.021213 0.03
vt -0.01 0.002679
vt 0.254447 0.03
vt 0.294628 0
vt 0.294628 0.03
vt -0.205962 0
vt 0.01 0.75708
vt 0.01 0.002679
vt 0.254447 0
vt -0.571477 0.417123
vt 0.659189 0
vt -0.571477 0.342877
vt 0.16 0
vt 0.6 0.03
vt 0.16 0.03
vt 0.019319 0.03
vt 0.008966 0
vt 0.019319 0
vt 0.571477 0.342877
vt -0.36835 0.03
vt 0.571477 0.417123
vt 0.6 0
vt -0.01 0.75708
vt -0.53219 0
vt -0.542545 0.03
vt -0.542545 0
vt 0.002679 0.749755
vt -0.586854 0.38
vt 0.36835 0
vt 0.328168 0.03
vt 0.328168 0
vt -0.619007 0.03
vt -0.659189 0
vt -0.619007 0
vt 0.586854 0.38
vt 0.008966 0.03
vt -0.659189 0.03
vt 0.36835 0.03
vt -0.002679 0.01
vt -0.53219 0.03
vt -0.002679 0.749755
vt 0.002679 0.01
vt -0.126495 0
vt -0.166677 0.03
vt -0.166677 0
vt -0.535472 0
vt -0.575653 0.03
vt -0.575653 0
vt -0.005176 0.03
vt 0.005176 0
vt 0.005176 0.03
vt -0.535472 0.03
vt -0.126495 0.03
vt -0.005176 0
vt -0.714554 0
vt -0.724908 0.03
vt -0.724908 0
vt 0 0.02
vt 0 0.739754
vt -0.019319 0.03
vt -0.008966 0
vt -0.008966 0.03
vt -0.714554 0.03
vt -0.019319 0
vt -0.739754 0.03
vt -0.739754 0
vt -0.02 0.03
vn 0 0 1
vn 0.7071067811865475 0 0.7071067811865475
vn 0 0 -1
vn -0.7071067811865475 0 -0.7071067811865475
vn 0 -1 0
vn 0 1 0
vn -0.7071067811865475 0 0.7071067811865475
vn 0.7071067811865475 0 -0.7071067811865475
vn 1 0 0
vn -1 0 0
vn -0.9999998627120282 0 0.0005239999280611029
vn 0.9999998627120282 0 -0.0005239999280611029
vn -0.9657992264403473 0 0.2592910607931299
vn -0.8658377628171977 0 0.5003248629437775
vn 0.9657992264403473 0 -0.2592910607931299
vn 0.8658377628171977 0 -0.5003248629437775
vn 0.965925849201117 0 0.2588189595935754
vn 0.8660253028382762 0 0.5000001748438417
vn -0.965925849201117 0 -0.2588189595935754
vn -0.8660253028382762 0 -0.5000001748438417
vn -0.49987094335437804 0 0.8660999018531317
vn 0.49987094335437804 0 -0.8660999018531317
vn 0.5000001748438417 0 0.8660253028382762
vn -0.5000001748438417 0 -0.8660253028382762
vn -0.2587849870025243 0 0.9659349514859181
vn 0.2587849870025243 0 -0.9659349514859181
vn 0.2588189595935754 0 0.965925849201117
vn -0.2588189595935754 0 -0.965925849201117
usemtl material_0_0
f 1/1/1 2/2/2 3/3/1
f 2/2/2 1/1/1 4/4/2
f 3/3/3 2/2/4 1/1/3
f 4/4/4 1/1/3 2/2/4
f 2/5/5 5/6/5 3/7/5
f 3/7/6 5/6/6 2/5/6
f 3/8/1 6/9/7 1/10/1
f 1/10/3 6/9/8 3/8/3
f 7/11/6 4/12/6 1/13/6
f 1/13/5 4/12/5 7/11/5
f 8/14/9 2/15/2 4/16/2
f 4/16/4 2/15/4 8/14/10
f 9/17/5 5/6/5 2/5/5
f 2/5/6 5/6/6 9/17/6
f 10/18/5 3/7/5 5/6/5
f 5/6/6 3/7/6 10/18/6
f 6/9/7 3/8/1 11/19/7
f 11/19/8 3/8/3 6/9/8
f 6/20/6 12/21/6 1/13/6
f 1/13/5 12/21/5 6/20/5
f 7/11/6 8/22/6 4/12/6
f 4/12/5 8/22/5 7/11/5
f 7/11/6 1/13/6 12/21/6
f 12/21/5 1/13/5 7/11/5
f 2/15/2 8/14/9 9/23/9
f 9/23/10 8/14/10 2/15/4
f 13/24/5 5/6/5 9/17/5
f 9/17/6 5/6/6 13/24/6
f 10/18/5 11/25/5 3/7/5
f 3/7/6 11/25/6 10/18/6
f 10/18/5 5/6/5 14/26/5
f 14/26/6 5/6/6 10/18/6
f 15/27/10 6/28/7 11/29/7
f 11/29/8 6/28/8 15/27/9
f 16/30/6 12/21/6 6/20/6
f 6/20/5 12/21/5 16/30/5
f 7/11/6 17/31/6 8/22/6
f 8/22/5 17/31/5 7/11/5
f 7/11/6 12/21/6 18/32/6
f 18/32/5 12/21/5 7/11/5
f 8/33/9 13/34/8 9/35/9
f 9/35/10 13/34/7 8/33/10
f 13/24/5 19/36/5 5/6/5
f 5/6/6 19/36/6 13/24/6
f 10/18/5 15/37/5 11/25/5
f 11/25/6 15/37/6 10/18/6
f 14/26/5 5/6/5 20/38/5
f 20/38/6 5/6/6 14/26/6
f 21/39/5 10/18/5 14/26/5
f 14/26/6 10/18/6 21/39/6
f 6/28/7 15/27/10 16/40/10
f 16/40/9 15/27/9 6/28/8
f 22/41/6 12/21/6 16/30/6
f 16/30/5 12/21/5 22/41/5
f 23/42/6 17/31/6 7/11/6
f 7/11/5 17/31/5 23/42/5
f 13/34/8 8/33/9 17/43/8
f 17/43/7 8/33/10 13/34/7
f 18/32/6 12/21/6 24/44/6
f 24/44/5 12/21/5 18/32/5
f 25/45/6 7/11/6 18/32/6
f 18/32/5 7/11/5 25/45/5
f 26/46/5 19/36/5 13/24/5
f 13/24/6 19/36/6 26/46/6
f 23/47/11 5/48/11 19/49/11
f 19/49/12 5/48/12 23/47/12
f 10/18/5 27/50/5 15/37/5
f 15/37/6 27/50/6 10/18/6
f 20/38/5 5/6/5 28/51/5
f 28/51/6 5/6/6 20/38/6
f 25/52/8 14/53/3 20/54/8
f 20/54/7 14/53/1 25/52/7
f 10/18/5 21/39/5 29/55/5
f 29/55/6 21/39/6 10/18/6
f 18/56/3 21/57/4 14/58/3
f 14/58/1 21/57/2 18/56/1
f 15/59/10 22/60/4 16/61/10
f 16/61/9 22/60/2 15/59/9
f 22/41/6 30/62/6 12/21/6
f 12/21/5 30/62/5 22/41/5
f 17/31/6 23/42/6 31/63/6
f 31/63/5 23/42/5 17/31/5
f 5/48/11 23/47/11 7/64/11
f 7/64/12 23/47/12 5/48/12
f 31/65/3 13/66/8 17/67/8
f 17/67/7 13/66/7 31/65/1
f 24/44/6 12/21/6 32/68/6
f 32/68/5 12/21/5 24/44/5
f 21/57/4 18/56/3 24/69/4
f 24/69/2 18/56/1 21/57/2
f 7/11/6 25/45/6 33/70/6
f 33/70/5 25/45/5 7/11/5
f 14/53/3 25/52/8 18/71/3
f 18/71/1 25/52/7 14/53/1
f 34/72/5 19/36/5 26/46/5
f 26/46/6 19/36/6 34/72/6
f 13/66/8 31/65/3 26/73/3
f 26/73/1 31/65/1 13/66/7
f 19/74/13 35/75/14 23/76/13
f 23/76/15 35/75/16 19/74/15
f 34/72/5 27/50/5 10/18/5
f 10/18/6 27/50/6 34/72/6
f 22/60/4 15/59/10 27/77/4
f 27/77/2 15/59/9 22/60/2
f 7/78/4 28/79/4 5/80/4
f 5/80/2 28/79/2 7/78/2
f 20/38/5 28/51/5 36/81/5
f 36/81/6 28/51/6 20/38/6
f 20/82/8 37/83/9 25/84/8
f 25/84/7 37/83/10 20/82/7
f 29/55/5 21/39/5 38/85/5
f 38/85/6 21/39/6 29/55/6
f 32/86/8 10/87/8 29/88/8
f 29/88/7 10/87/7 32/86/7
f 31/63/6 30/62/6 22/41/6
f 22/41/5 30/62/5 31/63/5
f 34/62/9 12/89/9 30/90/9
f 30/90/10 12/89/10 34/62/10
f 23/42/6 30/62/6 31/63/6
f 31/63/5 30/62/5 23/42/5
f 10/87/8 32/86/8 12/91/8
f 12/91/7 32/86/7 10/87/7
f 24/44/6 32/68/6 39/92/6
f 39/92/5 32/68/5 24/44/5
f 24/93/4 38/94/10 21/95/4
f 21/95/2 38/94/9 24/93/2
f 33/70/6 25/45/6 37/96/6
f 37/96/5 25/45/5 33/70/5
f 28/79/4 7/78/4 33/97/4
f 33/97/2 7/78/2 28/79/2
f 40/98/5 19/36/5 34/72/5
f 34/72/6 19/36/6 40/98/6
f 27/50/5 34/72/5 26/46/5
f 26/46/6 34/72/6 27/50/6
f 22/99/4 26/100/3 31/101/3
f 31/101/1 26/100/1 22/99/2
f 35/75/14 19/74/13 41/102/14
f 41/102/16 19/74/15 35/75/16
f 35/103/6 42/104/6 23/42/6
f 23/42/5 42/104/5 35/103/5
f 12/89/9 34/62/9 10/21/9
f 10/21/10 34/62/10 12/89/10
f 26/100/3 22/99/4 27/105/4
f 27/105/2 22/99/2 26/100/1
f 36/81/5 28/51/5 43/106/5
f 43/106/6 28/51/6 36/81/6
f 37/83/9 20/82/8 36/107/9
f 36/107/10 20/82/7 37/83/10
f 29/55/5 38/85/5 44/108/5
f 44/108/6 38/85/6 29/55/6
f 29/109/3 33/110/3 32/111/3
f 32/111/1 33/110/1 29/109/1
f 30/112/17 40/113/18 34/114/17
f 34/114/19 40/113/20 30/112/19
f 23/42/6 42/104/6 30/62/6
f 30/62/5 42/104/5 23/42/5
f 39/92/6 32/68/6 45/115/6
f 45/115/5 32/68/5 39/92/5
f 38/94/10 24/93/4 39/116/10
f 39/116/9 24/93/2 38/94/9
f 33/70/6 37/96/6 46/117/6
f 46/117/5 37/96/5 33/70/5
f 33/110/3 29/109/3 28/118/3
f 28/118/1 29/109/1 33/110/1
f 40/98/5 41/119/5 19/36/5
f 19/36/6 41/119/6 40/98/6
f 47/120/21 35/121/14 41/122/14
f 41/122/16 35/121/16 47/120/22
f 48/123/6 42/104/6 35/103/6
f 35/103/5 42/104/5 48/123/5
f 43/106/5 28/51/5 49/124/5
f 49/124/6 28/51/6 43/106/6
f 43/125/2 37/126/9 36/127/9
f 36/127/10 37/126/10 43/125/4
f 39/128/10 44/129/7 38/130/10
f 38/130/9 44/129/8 39/128/9
f 29/55/5 44/108/5 49/124/5
f 49/124/6 44/108/6 29/55/6
f 33/70/6 50/131/6 32/68/6
f 32/68/5 50/131/5 33/70/5
f 40/113/18 30/112/17 42/132/18
f 42/132/20 30/112/19 40/113/20
f 45/115/6 32/68/6 50/131/6
f 50/131/5 32/68/5 45/115/5
f 44/129/7 39/128/10 45/133/7
f 45/133/8 39/128/9 44/129/8
f 37/126/9 43/125/2 46/134/2
f 46/134/4 43/125/4 37/126/10
f 33/70/6 46/117/6 50/131/6
f 50/131/5 46/117/5 33/70/5
f 29/55/5 49/124/5 28/51/5
f 28/51/6 49/124/6 29/55/6
f 51/135/5 41/119/5 40/98/5
f 40/98/6 41/119/6 51/135/6
f 35/121/14 47/120/21 48/136/21
f 48/136/22 47/120/22 35/121/16
f 51/135/5 47/137/5 41/119/5
f 41/119/6 47/137/6 51/135/6
f 48/123/6 52/138/6 42/104/6
f 42/104/5 52/138/5 48/123/5
f 49/139/1 46/140/2 43/141/2
f 43/141/4 46/140/4 49/139/3
f 44/142/7 50/143/1 49/144/1
f 49/144/3 50/143/3 44/142/8
f 52/145/23 40/146/18 42/147/18
f 42/147/20 40/146/20 52/145/24
f 50/143/1 44/142/7 45/148/7
f 45/148/8 44/142/8 50/143/3
f 46/140/2 49/139/1 50/149/1
f 50/149/3 49/139/3 46/140/4
f 40/146/18 52/145/23 51/150/23
f 51/150/24 52/145/24 40/146/20
f 53/151/25 48/152/21 47/153/21
f 47/153/22 48/152/22 53/151/26
f 54/154/5 47/137/5 51/135/5
f 51/135/6 47/137/6 54/154/6
f 55/155/6 52/138/6 48/123/6
f 48/123/5 52/138/5 55/155/5
f 56/156/27 51/157/23 52/158/23
f 52/158/24 51/157/24 56/156/28
f 48/152/21 53/151/25 55/159/25
f 55/159/26 53/151/26 48/152/22
f 47/137/5 54/154/5 53/155/5
f 53/155/6 54/154/6 47/137/6
f 51/157/23 56/156/27 54/160/27
f 54/160/28 56/156/28 51/157/24
f 52/138/6 55/155/6 56/154/6
f 56/154/5 55/155/5 52/138/5
f 54/72/1 55/161/1 53/162/1
f 53/162/3 55/161/3 54/72/3
f 55/161/1 54/72/1 56/163/1
f 56/163/3 54/72/3 55/161/3
