# SSTK version 0.8.0
# 32
mtllib original-32.mtl
o Group18/mesh176/mesh176-geometry#mesh176-geometry
v 0.555161 -0.159625 -0.312672
v 0.555161 -0.147101 -0.312672
v 0.576553 -0.159625 -0.312672
v 0.555161 0.730791 -0.312672
v 0.576553 -0.147101 -0.312672
v 0.553824 -0.159625 -0.312314
v 0.553824 0.730791 -0.312314
v 0.577890 -0.159625 -0.312314
v 0.577890 0.730791 -0.312314
v 0.576553 0.730791 -0.312672
v 0.552846 -0.159625 -0.311335
v 0.578868 0.730791 -0.311335
v 0.578868 -0.159625 -0.311335
v 0.552846 0.730791 -0.311335
v 0.555396 -0.159625 -0.310889
v 0.552487 -0.159625 -0.309998
v 0.577444 0.730791 -0.310889
v 0.579226 0.730791 -0.309998
v 0.576318 -0.159625 -0.310889
v 0.554747 -0.159625 -0.310716
v 0.554444 -0.159625 -0.310412
v 0.552487 0.730791 -0.309998
v 0.554270 0.730791 -0.310889
v 0.579226 -0.159625 -0.309998
v 0.576967 -0.159625 -0.310716
v 0.554270 -0.159625 -0.309763
v 0.552487 -0.159625 -0.261868
v 0.579226 0.730791 -0.261868
v 0.577270 -0.159625 -0.310412
v 0.554270 -0.159625 -0.262102
v 0.552487 0.730791 -0.261868
v 0.577444 0.730791 -0.260976
v 0.577444 -0.159625 -0.309763
v 0.579226 -0.159625 -0.261868
v 0.554270 0.730791 -0.260976
v 0.554444 -0.159625 -0.261453
v 0.552846 -0.159625 -0.260531
v 0.578868 0.730791 -0.260531
v 0.577444 -0.159625 -0.262102
v 0.552846 0.730791 -0.260531
v 0.554747 -0.159625 -0.261150
v 0.577270 -0.159625 -0.261453
v 0.578868 -0.159625 -0.260531
v 0.555396 -0.159625 -0.260976
v 0.553824 0.730791 -0.259552
v 0.576967 -0.159625 -0.261150
v 0.577890 -0.159625 -0.259552
v 0.577890 0.730791 -0.259552
v 0.576318 -0.159625 -0.260976
v 0.553824 -0.159625 -0.259552
v 0.555161 0.730791 -0.259194
v 0.576553 0.730791 -0.259194
v 0.576553 -0.159625 -0.259194
v 0.555161 -0.159625 -0.259194
v 0.576553 -0.147101 -0.259194
v 0.555161 -0.147101 -0.259194
vt 0.03 0
vt 0.03 0.140509
vt 0.27 0
vt 0.204975 0.140509
vt 0.204975 0
vt 0.204975 9.99
vt 0.27 0.140509
vt -0.68 0.03
vt -0.68 0.27
vt -0.675981 0.015
vt 0.189446 9.99
vt 0.084803 0
vt 0.084803 0.140509
vt 0.100332 0
vt -0.675981 0.285
vt 0.189446 0
vt 0.68 0.03
vt 0.675981 0.015
vt 0.675981 0.285
vt 0.084803 9.99
vt -0.665 0.004019
vt 0.488597 0
vt 0.473068 0
vt 0.488597 9.99
vt 0.665 0.295981
vt 0.68 0.27
vt 0.100332 9.99
vt -0.665 0.295981
vt 0.473068 9.99
vt 0.665 0.004019
vt -0.260936 9.99
vt -0.260936 0
vt -0.276465 9.99
vt -0.276465 0
vt -0.66 0.032633
vt 0.643381 0
vt 0.627852 0
vt 0.643381 9.99
vt 0.66 0.28
vt -0.565735 9.99
vt -0.550206 9.99
vt -0.565735 0
vt -0.66 0.267367
vt -0.658049 0.025353
vt -0.654647 0.021951
vt -0.65 0
vt 0.627852 9.99
vt 0.66 0.02
vt 0.65 0.3
vt -0.550206 0
vt -0.658049 0.274647
vt -0.647367 0.02
vt 0.65 0
vt 0.11 0
vt 0.65 9.99
vt 0.11 0.3
vt -0.65 0.3
vt -0.654647 0.278049
vt -0.65 9.99
vt -0.11 9.99
vt -0.112633 0.02
vt -0.11 0
vt 0.11 9.99
vt 0.1 0.28
vt -0.647367 0.28
vt 0.1 0.02
vt -0.105353 0.021951
vt 0.106252 0
vt 0.090723 0
vt 0.106252 9.99
vt 0.095 0.295981
vt -0.112633 0.28
vt -0.11 0.3
vt -0.183898 9.99
vt -0.168368 9.99
vt -0.183898 0
vt 0.095 0.004019
vt -0.101951 0.025353
vt -0.095 0.004019
vt 0.090723 9.99
vt -0.105353 0.278049
vt -0.168368 0
vt -0.1 0.032633
vt 0.064333 9.99
vt 0.064333 0
vt 0.048804 9.99
vt -0.101951 0.274647
vt -0.095 0.295981
vt 0.084019 0.285
vt -0.1 0.267367
vt 0.048804 0
vt 0.084019 0.015
vt -0.084019 0.285
vt 0.007257 9.99
vt 0.007257 0
vt -0.008272 9.99
vt -0.084019 0.015
vt 0.08 0.27
vt -0.297035 0
vt -0.297035 9.99
vt -0.281505 0
vt -0.008272 0
vt 0.08 0.03
vt -0.08 0.03
vt -0.281505 9.99
vt -0.281505 0.140509
vt -0.08 0.27
vt -0.008272 0.140509
vt -0.27 0
vt -0.27 0.140509
vt -0.03 0
vt -0.03 0.140509
vt -0.665335 0.014764
vt -0.669291 0.265748
vt -0.669291 0.029528
vt -0.665335 0.280512
vt -0.654528 0.003956
vt -0.654528 0.29132
vt -0.649606 0.032119
vt -0.649606 0.263156
vt -0.647686 0.024954
vt -0.639764 0
vt -0.644338 0.021605
vt -0.647686 0.270322
vt -0.637172 0.019685
vt -0.644338 0.273671
vt -0.639764 0.295276
vt -0.110859 0.019685
vt -0.108268 0
vt -0.637172 0.275591
vt -0.103694 0.021605
vt -0.110859 0.275591
vt -0.108268 0.295276
vt -0.100345 0.024954
vt -0.093504 0.003956
vt -0.103694 0.273671
vt -0.098425 0.032119
vt -0.100345 0.270322
vt -0.093504 0.29132
vt -0.098425 0.263156
vt -0.082696 0.280512
vt -0.082696 0.014764
vt -0.07874 0.029528
vt -0.07874 0.265748
vt -0.001944 -0.077297
vt -0.001941 17.556883
vt 0.998056 -0.077297
vt 0.998059 17.556882
vt 0.000002 17.552638
vt 0 -0.081542
vt -0.999998 17.552638
vt -1 -0.081542
vn 0 0 -1
vn 0 0 1
vn -0.25881895959357565 0 -0.965925849201117
vn 0.25881895959357565 0 0.965925849201117
vn 0 -1 0
vn -0.5000001748438418 0 -0.866025302838276
vn 0.5000001748438418 0 0.866025302838276
vn 0.2588189595935752 0 -0.965925849201117
vn 0.5000001748438414 0 -0.8660253028382762
vn -0.5000001748438414 0 0.8660253028382762
vn -0.2588189595935752 0 0.965925849201117
vn 0 1 0
vn -0.8660253028382762 0 -0.5000001748438414
vn 0.8660253028382762 0 0.5000001748438414
vn 0.866025302838276 0 -0.5000001748438418
vn -0.866025302838276 0 0.5000001748438418
vn -0.965925849201117 0 -0.2588189595935752
vn 0.965925849201117 0 0.2588189595935752
vn 0.965925849201117 0 -0.25881895959357565
vn -0.965925849201117 0 0.25881895959357565
vn -1 0 0
vn 1 0 0
usemtl material_0_0
f 1/1/1 2/2/1 3/3/1
f 3/3/2 2/2/2 1/1/2
f 2/4/3 1/5/3 4/6/3
f 4/6/4 1/5/4 2/4/4
f 5/7/1 3/3/1 2/2/1
f 2/2/2 3/3/2 5/7/2
f 1/8/5 3/9/5 6/10/5
f 4/6/3 1/5/3 7/11/6
f 7/11/7 1/5/4 4/6/4
f 3/12/8 5/13/8 8/14/9
f 8/14/10 5/13/11 3/12/11
f 3/9/5 8/15/5 6/10/5
f 6/16/6 7/11/6 1/5/3
f 1/5/4 7/11/7 6/16/7
f 4/17/12 7/18/12 9/19/12
f 10/20/8 8/14/9 5/13/8
f 5/13/11 8/14/10 10/20/11
f 6/10/5 8/15/5 11/21/5
f 6/22/6 11/23/13 7/24/6
f 7/24/7 11/23/14 6/22/7
f 9/19/12 7/18/12 12/25/12
f 10/26/12 4/17/12 9/19/12
f 9/27/9 8/14/9 10/20/8
f 10/20/11 8/14/10 9/27/10
f 8/15/5 13/28/5 11/21/5
f 14/29/13 7/24/6 11/23/13
f 11/23/14 7/24/7 14/29/14
f 7/18/12 14/30/12 12/25/12
f 12/31/15 13/32/15 9/33/9
f 9/33/10 13/32/16 12/31/16
f 8/34/9 9/33/9 13/32/15
f 13/32/16 9/33/10 8/34/10
f 13/28/5 15/35/5 11/21/5
f 11/36/13 16/37/17 14/38/13
f 14/38/14 16/37/18 11/36/14
f 14/30/12 17/39/12 12/25/12
f 12/40/15 18/41/19 13/42/15
f 13/42/16 18/41/20 12/40/16
f 15/35/5 13/28/5 19/43/5
f 15/35/5 20/44/5 11/21/5
f 11/21/5 21/45/5 16/46/5
f 22/47/17 14/38/13 16/37/17
f 16/37/18 14/38/14 22/47/18
f 17/39/12 14/30/12 23/48/12
f 12/25/12 17/39/12 18/49/12
f 24/50/19 13/42/15 18/41/19
f 18/41/20 13/42/16 24/50/20
f 19/43/5 13/28/5 25/51/5
f 20/44/5 21/45/5 11/21/5
f 21/45/5 26/52/5 16/46/5
f 14/30/12 22/53/12 23/48/12
f 16/53/21 27/54/21 22/55/21
f 22/55/22 27/54/22 16/53/22
f 18/49/12 17/39/12 28/56/12
f 13/28/5 24/57/5 29/58/5
f 18/59/22 28/60/22 24/46/22
f 24/46/21 28/60/21 18/59/21
f 25/51/5 13/28/5 29/58/5
f 26/52/5 30/61/5 16/46/5
f 22/53/12 31/54/12 23/48/12
f 16/46/5 30/61/5 27/62/5
f 31/63/21 22/55/21 27/54/21
f 27/54/22 22/55/22 31/63/22
f 17/39/12 32/64/12 28/56/12
f 29/58/5 24/57/5 33/65/5
f 34/62/22 24/46/22 28/60/22
f 28/60/21 24/46/21 34/62/21
f 23/48/12 31/54/12 35/66/12
f 30/61/5 36/67/5 27/62/5
f 27/68/20 37/69/16 31/70/20
f 31/70/19 37/69/15 27/68/19
f 28/56/12 32/64/12 38/71/12
f 33/65/5 24/57/5 39/72/5
f 24/57/5 34/73/5 39/72/5
f 28/74/18 38/75/14 34/76/18
f 34/76/17 38/75/13 28/74/17
f 31/54/12 40/77/12 35/66/12
f 36/67/5 41/78/5 27/62/5
f 27/62/5 41/78/5 37/79/5
f 40/80/16 31/70/20 37/69/16
f 37/69/15 31/70/19 40/80/15
f 35/66/12 38/71/12 32/64/12
f 39/72/5 34/73/5 42/81/5
f 43/82/14 34/76/18 38/75/14
f 38/75/13 34/76/17 43/82/13
f 35/66/12 40/77/12 38/71/12
f 44/83/5 37/79/5 41/78/5
f 40/84/16 37/85/16 45/86/10
f 45/86/9 37/85/15 40/84/15
f 42/81/5 34/73/5 46/87/5
f 34/73/5 43/88/5 46/87/5
f 43/34/14 38/33/14 47/32/7
f 47/32/6 38/33/13 43/34/13
f 38/71/12 40/77/12 48/89/12
f 49/90/5 37/79/5 44/83/5
f 50/91/10 45/86/10 37/85/16
f 37/85/15 45/86/9 50/91/9
f 40/77/12 45/92/12 48/89/12
f 46/87/5 43/88/5 49/90/5
f 48/31/7 47/32/7 38/33/14
f 38/33/13 47/32/6 48/31/6
f 43/88/5 47/93/5 37/79/5
f 49/90/5 43/88/5 37/79/5
f 45/94/10 50/95/10 51/96/11
f 51/96/8 50/95/9 45/94/9
f 37/79/5 47/93/5 50/97/5
f 48/89/12 45/92/12 52/98/12
f 47/99/7 48/100/7 53/101/4
f 53/101/3 48/100/6 47/99/6
f 54/102/11 51/96/11 50/95/10
f 50/95/9 51/96/8 54/102/8
f 51/103/12 52/98/12 45/92/12
f 50/97/5 47/93/5 54/104/5
f 52/105/4 55/106/4 48/100/7
f 48/100/6 55/106/3 52/105/3
f 53/101/4 48/100/7 55/106/4
f 55/106/3 48/100/6 53/101/3
f 53/107/5 54/104/5 47/93/5
f 56/108/11 51/96/11 54/102/11
f 54/102/8 51/96/8 56/108/8
f 53/109/2 55/110/2 54/111/2
f 54/111/1 55/110/1 53/109/1
f 56/112/2 54/111/2 55/110/2
f 55/110/1 54/111/1 56/112/1
usemtl material_1_0
f 6/113/12 3/114/12 1/115/12
f 6/113/12 8/116/12 3/114/12
f 11/117/12 8/116/12 6/113/12
f 11/117/12 13/118/12 8/116/12
f 11/117/12 15/119/12 13/118/12
f 19/120/12 13/118/12 15/119/12
f 11/117/12 20/121/12 15/119/12
f 16/122/12 21/123/12 11/117/12
f 25/124/12 13/118/12 19/120/12
f 11/117/12 21/123/12 20/121/12
f 16/122/12 26/125/12 21/123/12
f 29/126/12 24/127/12 13/118/12
f 29/126/12 13/118/12 25/124/12
f 16/122/12 30/128/12 26/125/12
f 27/129/12 30/128/12 16/122/12
f 33/130/12 24/127/12 29/126/12
f 27/129/12 36/131/12 30/128/12
f 39/132/12 24/127/12 33/130/12
f 39/132/12 34/133/12 24/127/12
f 27/129/12 41/134/12 36/131/12
f 37/135/12 41/134/12 27/129/12
f 42/136/12 34/133/12 39/132/12
f 41/134/12 37/135/12 44/137/12
f 46/138/12 34/133/12 42/136/12
f 46/138/12 43/139/12 34/133/12
f 44/137/12 37/135/12 49/140/12
f 49/140/12 43/139/12 46/138/12
f 37/135/12 47/141/12 43/139/12
f 37/135/12 43/139/12 49/140/12
f 50/142/12 47/141/12 37/135/12
f 54/143/12 47/141/12 50/142/12
f 47/141/12 54/143/12 53/144/12
usemtl material_2_0
f 2/145/1 4/146/1 5/147/1
f 5/147/2 4/146/2 2/145/2
f 10/148/1 5/147/1 4/146/1
f 4/146/2 5/147/2 10/148/2
f 51/149/2 56/150/2 52/151/2
f 52/151/1 56/150/1 51/149/1
f 55/152/2 52/151/2 56/150/2
f 56/150/1 52/151/1 55/152/1
usemtl material_3_0
f 9//5 7//5 4//5
f 12//5 7//5 9//5
f 9//5 4//5 10//5
f 12//5 14//5 7//5
f 12//5 17//5 14//5
f 23//5 14//5 17//5
f 18//5 17//5 12//5
f 23//5 22//5 14//5
f 28//5 17//5 18//5
f 23//5 31//5 22//5
f 28//5 32//5 17//5
f 35//5 31//5 23//5
f 38//5 32//5 28//5
f 35//5 40//5 31//5
f 32//5 38//5 35//5
f 38//5 40//5 35//5
f 48//5 40//5 38//5
f 48//5 45//5 40//5
f 52//5 45//5 48//5
f 45//5 52//5 51//5
