# SSTK version 0.8.0
# 6
mtllib original-6.mtl
o mesh5/mesh5-geometry#mesh5-geometry
v 0.549977 0.670004 -0.269154
v 0.549977 0.687830 -0.258904
v 0.549977 0.670004 -0.258904
v 0.549977 0.687830 -0.269154
v 0.551135 0.670004 -0.258904
v 0.549353 0.670004 -0.257746
v 0.549977 0.670601 -0.271383
v 0.549353 0.687830 -0.257746
v 0.558723 0.670015 -0.258904
v 0.550021 0.670004 -0.257567
v 0.548863 0.670004 -0.258236
v 0.548684 0.670601 -0.271383
v 0.549977 0.687233 -0.271383
v 0.548863 0.687830 -0.258236
v 0.550021 0.687830 -0.257567
v 0.558266 0.671118 -0.258904
v 0.559826 0.669558 -0.258904
v 0.551135 0.670004 -0.257567
v 0.548684 0.670004 -0.269154
v 0.548684 0.672232 -0.273014
v 0.549977 0.672232 -0.273014
v 0.548684 0.687233 -0.271383
v 0.548684 0.687830 -0.269154
v 0.551135 0.687830 -0.258904
v 0.558723 0.672221 -0.258904
v 0.558266 0.671118 -0.257567
v 0.562722 0.668667 -0.258904
v 0.559826 0.669558 -0.257567
v 0.551135 0.668667 -0.257567
v 0.558723 0.670015 -0.257567
v 0.548684 0.670004 -0.258904
v 0.548684 0.687830 -0.258904
v 0.548684 0.685601 -0.273014
v 0.549977 0.685601 -0.273014
v 0.551135 0.687830 -0.257567
v 0.558712 0.683819 -0.258904
v 0.557375 0.675797 -0.258904
v 0.551135 0.668667 -0.258904
v 0.560929 0.670015 -0.258904
v 0.560929 0.670015 -0.257567
v 0.548684 0.674460 -0.273611
v 0.548684 0.683373 -0.273611
v 0.549977 0.674460 -0.273611
v 0.557375 0.683819 -0.257567
v 0.551135 0.689167 -0.258904
v 0.557375 0.683819 -0.258904
v 0.558712 0.691841 -0.258904
v 0.559826 0.672677 -0.258904
v 0.558723 0.672221 -0.257567
v 0.548461 0.668667 -0.258904
v 0.562722 0.673123 -0.258904
v 0.562722 0.668667 -0.257567
v 0.549977 0.683373 -0.273611
v 0.557375 0.675797 -0.257567
v 0.558712 0.691841 -0.257567
v 0.551135 0.689167 -0.257567
v 0.558712 0.691841 -0.262024
v 0.560048 0.665993 -0.258904
v 0.561385 0.671118 -0.258904
v 0.562722 0.673123 -0.257567
v 0.561385 0.671118 -0.257567
v 0.548461 0.668667 -0.257567
v 0.558712 0.683819 -0.257567
v 0.548461 0.689167 -0.257567
v 0.548461 0.691841 -0.258904
v 0.558712 0.683819 -0.262024
v 0.559380 0.691841 -0.257746
v 0.560048 0.675797 -0.258904
v 0.560929 0.672221 -0.258904
v 0.559826 0.672677 -0.257567
v 0.548461 0.665993 -0.258904
v 0.560048 0.665993 -0.257567
v 0.548461 0.665993 -0.257567
v 0.560048 0.675797 -0.257567
v 0.548461 0.689167 -0.258904
v 0.559380 0.683819 -0.257746
v 0.558712 0.679362 -0.262024
v 0.560048 0.691841 -0.262024
v 0.560929 0.672221 -0.257567
v 0.548461 0.691841 -0.257567
v 0.558712 0.679959 -0.264252
v 0.560048 0.683819 -0.262024
v 0.559869 0.691841 -0.258236
v 0.558712 0.691243 -0.264252
v 0.559869 0.683819 -0.258236
v 0.560048 0.679362 -0.262024
v 0.560048 0.691841 -0.258904
v 0.560048 0.691243 -0.264252
v 0.558712 0.689612 -0.265883
v 0.560048 0.679959 -0.264252
v 0.560048 0.683819 -0.258904
v 0.560048 0.689612 -0.265883
v 0.558712 0.681590 -0.265883
v 0.560048 0.681590 -0.265883
v 0.560048 0.687384 -0.266480
v 0.558712 0.687384 -0.266480
v 0.560048 0.683819 -0.266480
v 0.558712 0.683819 -0.266480
vt 0.131 5.736
vt 0.016 5.936
vt 0.016 5.736
vt 0.131 5.936
vt -13.497 5.936
vt -13.51 5.736
vt -13.497 5.736
vt -13.49 0.00301
vt -13.497 0.131
vt -13.497 0.016
vt 0.156 5.742699
vt 13.497 0.131
vt 13.49 0.00301
vt 13.497 0.016
vt -13.595126 5.736126
vt -13.4975 0.001
vt -13.51 0.016
vt -13.48451 0.0085
vt -13.497 1.611122
vt -13.4825 1.637004
vt -13.497 1.637004
vt 0.156 5.929301
vt 13.48451 0.0085
vt 13.4975 0.001
vt -13.59 5.7485
vt -13.6075 5.731
vt -13.51 0.001
vt -13.4825 0.131
vt 9.536742 5.736
vt 9.528978 5.936
vt 9.528978 5.736
vt 13.037325 5.936
vt 13.02956 5.736
vt 13.037325 5.736
vt -13.4825 1.611122
vt -13.4825 4.196892
vt -13.497 4.17101
vt -13.4825 4.17101
vt 0.174301 5.761
vt -13.4825 1.383932
vt -13.497 1.409814
vt -13.497 1.383932
vt 13.4825 0.131
vt 9.536742 5.936
vt 13.51 0.016
vt 13.02956 5.936
vt -13.595126 5.760874
vt 0.001 0.110254
vt 0.016 0.09686
vt 0.016 0.110254
vt -13.64 5.721
vt 0.016 -10.365138
vt 0.001 -10.378532
vt 0.016 -10.378532
vt -0.016 5.736
vt -0.001 5.721
vt -0.001 5.736
vt 13.51 5.736
vt 13.595126 5.736126
vt 13.4975 5.736
vt -13.4825 0.016
vt 3.474073 5.936
vt 3.481838 5.736
vt 3.481838 5.936
vt 13.4975 5.936
vt -0.131 5.736
vt -0.156 5.929301
vt -0.156 5.742699
vt -13.497 4.196892
vt -0.174301 5.911
vt -0.174301 5.761
vt 0.174301 5.911
vt -13.4825 1.409814
vt -13.497 4.056459
vt -13.4825 4.08234
vt -13.497 4.08234
vt 13.4825 0.016
vt 13.51 0.001
vt -13.595 5.891
vt -13.51 5.936
vt -13.58 5.801
vt 0.016 10.524983
vt 0.001 10.511589
vt 0.016 10.511589
vt 0.001 0.09686
vt -13.51 5.721
vt -13.619874 5.736126
vt 0.001 -10.365138
vt -0.001 14.778243
vt -0.016 14.764849
vt -0.001 14.764849
vt -0.016 5.721
vt 13.6075 5.731
vt 13.51 5.721
vt 3.474073 5.736
vt -0.131 5.936
vt 13.59 5.7485
vt -13.4825 5.635693
vt -13.497 5.609811
vt -13.4825 5.609811
vt -0.181 5.886
vt 0.181 5.786
vt -13.4825 4.056459
vt -0.016 5.936
vt 13.58 5.891
vt 13.51 5.936
vt -0.001 5.936
vt -0.016 5.951
vt -13.58 5.891
vt -13.595 5.981
vt -13.6075 5.766
vt 0.001 10.524983
vt -13.48 5.721
vt -13.64 5.771
vt -0.016 14.778243
vt 13.64 5.721
vt 13.619874 5.736126
vt 13.48 0.016
vt 13.595126 5.760874
vt -13.497 5.635693
vt -0.181 5.786
vt -13.4825 5.664475
vt -13.497 5.638593
vt -13.4825 5.638593
vt 0.181 5.886
vt -13.497 5.664475
vt 13.58 5.801
vt 13.595 5.981
vt -0.001 5.951
vt -13.51 5.951
vt -13.595 0.016
vt -13.58 0.001
vt -13.58 0.016
vt -0.051 5.981
vt -0.016 5.891
vt -0.016 5.981
vt 0.001 5.891
vt 0.016 5.801
vt 0.016 5.891
vt 0.016 14.778243
vt 0.001 14.764849
vt 0.016 14.764849
vt -13.61 5.691
vt -13.625 5.7485
vt 0.001 5.771
vt 0.016 5.721
vt 0.016 5.771
vt -0.001 10.524983
vt -0.016 10.511589
vt -0.001 10.511589
vt 13.64 5.771
vt 13.48 0.001
vt 13.48 5.721
vt -13.4825 5.886
vt -13.497 5.786
vt -13.4825 5.786
vt -13.497 5.886
vt 0.001 5.801
vt 13.595 5.891
vt 13.51 5.951
vt -13.48 0.001
vt -13.48 5.981
vt -13.595 0.001
vt -0.051 5.891
vt 13.595 0.016
vt 13.6025 0.00301
vt 13.595 0.051
vt -13.61 5.801
vt -13.619874 5.760874
vt 0.001 14.778243
vt -13.48 5.691
vt 0.016 13.690294
vt 0.001 13.647868
vt 0.016 13.647868
vt -0.016 10.524983
vt 0.001 5.721
vt 0.016 -5.521797
vt 0.001 -5.564223
vt 0.016 -5.564223
vt 13.625 5.7485
vt -0.001 5.691
vt 13.48 5.691
vt 13.6075 5.766
vt 13.61 0.001
vt 13.58 0.016
vt 13.58 0.001
vt 13.13202 5.891
vt 13.139785 5.981
vt 13.13202 5.981
vt 13.48 5.951
vt -13.48 0.016
vt -13.48 5.951
vt 13.595 0.001
vt -13.6025 0.00301
vt -0.051 5.841
vt -13.595 0.051
vt 13.61 0.051
vt 13.61 0.016
vt -0.016 -10.378532
vt -0.001 -10.365138
vt -0.016 -10.365138
vt -13.61 0.016
vt -0.016 5.691
vt 0.001 13.690294
vt -13.61 0.001
vt -0.001 0.09686
vt -0.016 0.110254
vt -0.016 0.09686
vt 0.001 -5.521797
vt 13.619874 5.760874
vt 13.61 5.691
vt 13.61 5.801
vt 13.139785 5.891
vt 13.48 5.981
vt -0.076 5.847699
vt 13.595 5.841
vt 13.61 5.891
vt -13.61 0.051
vt 13.60799 0.0085
vt -13.61 1.498734
vt -13.595 1.472853
vt -13.595 1.498734
vt -0.001 -10.378532
vt -0.001 0.110254
vt 9.628313 5.891
vt 9.620548 5.981
vt 9.620548 5.891
vt -0.001 5.981
vt -0.076 5.974301
vt -13.595 1.586906
vt -13.61 1.561024
vt -13.595 1.561024
vt 13.61 5.841
vt -13.60799 0.0085
vt 9.628313 5.981
vt -13.61 1.472853
vt -0.094301 5.956
vt -13.61 1.586906
vt 0.076 5.847699
vt 0.051 5.891
vt 0.051 5.841
vt 3.537982 5.891
vt 3.530217 5.981
vt 3.530217 5.891
vt 3.537982 5.981
vt 0.016 5.981
vt 0.051 5.981
vt 0.076 5.974301
vt -13.61 4.144847
vt -13.595 4.170729
vt -13.61 4.170729
vt -13.595 4.144847
vt -0.094301 5.866
vt -13.595 4.214569
vt -13.61 4.188688
vt -13.595 4.188688
vt 0.094301 5.866
vt 0.094301 5.956
vt -13.61 5.702765
vt -13.595 5.728647
vt -13.61 5.728647
vt -0.101 5.931
vt -13.61 4.214569
vt 0.101 5.891
vt -13.595 5.702765
vt 0.101 5.931
vt -0.101 5.891
vt -13.595 5.71641
vt -13.61 5.690528
vt -13.595 5.690528
vt -13.61 5.71641
vt -13.61 5.891
vt -13.595 5.931
vt -13.61 5.931
vn 1 0 0
vn -1 0 0
vn 0 0 -1
vn 0 0 1
vn 0 -1 0
vn 0 -0.9914448886106773 -0.13052598533534135
vn 0 1 0
vn 0 0.9914448886106773 0.13052598533534135
vn 0 0.9914448886106773 -0.1305259853353409
vn 0 -0.9914448886106773 0.1305259853353409
vn 0 -0.965925849201117 -0.25881895959357565
vn 0 0.965925849201117 0.25881895959357565
vn -0.7071067811865475 0 0.7071067811865475
vn 0.7071067811865475 0 -0.7071067811865475
vn -0.13052598533534113 0 0.9914448886106773
vn -0.2588189595935754 0 0.965925849201117
vn 0.13052598533534113 0 -0.9914448886106773
vn 0.2588189595935754 0 -0.965925849201117
vn 0 -0.7071067811865474 -0.7071067811865477
vn 0 0.7071067811865474 0.7071067811865477
vn 0 0.965925849201117 -0.2588189595935752
vn 0 -0.965925849201117 0.2588189595935752
vn 0.9238797538373538 0.38268289803626016 0
vn -0.9238797538373538 -0.38268289803626016 0
vn 0.38268289803626016 0.9238797538373538 0
vn -0.38268289803626016 -0.9238797538373538 0
vn -0.9914448886106773 0 0.13052598533534113
vn -0.965925849201117 0 0.2588189595935754
vn 0.965925849201117 0 -0.2588189595935754
vn 0.9914448886106773 0 -0.13052598533534113
vn 0 0.7071067811865477 -0.7071067811865474
vn 0 -0.7071067811865477 0.7071067811865474
vn 0.9238797538373538 -0.38268289803626016 0
vn -0.9238797538373538 0.38268289803626016 0
vn -0.38268289803626016 0.9238797538373538 0
vn 0.38268289803626016 -0.9238797538373538 0
vn 0 -0.1305259853353409 -0.9914448886106773
vn 0 -0.2588189595935752 -0.965925849201117
vn 0 0.2588189595935752 0.965925849201117
vn 0 0.1305259853353409 0.9914448886106773
vn 0 0.25881895959357565 -0.965925849201117
vn 0 0.13052598533534135 -0.9914448886106773
vn 0 -0.13052598533534135 0.9914448886106773
vn 0 -0.25881895959357565 0.965925849201117
vn 0.13052598533534113 0 0.9914448886106773
vn -0.13052598533534113 0 -0.9914448886106773
vn 0.7071067811865475 -0.7071067811865475 0
vn -0.7071067811865475 0.7071067811865475 0
vn 0.7071067811865475 0.7071067811865475 0
vn -0.7071067811865475 -0.7071067811865475 0
vn 0.2588189595935754 0 0.965925849201117
vn -0.2588189595935754 0 -0.965925849201117
vn 0.7071067811865475 0 0.7071067811865475
vn -0.7071067811865475 0 -0.7071067811865475
vn 0.9914448886106773 0 0.13052598533534113
vn 0.965925849201117 0 0.2588189595935754
vn -0.965925849201117 0 -0.2588189595935754
vn -0.9914448886106773 0 -0.13052598533534113
usemtl material_0_0
f 1/1/1 2/2/1 3/3/1
f 2/2/1 1/1/1 4/4/1
f 3/3/2 2/2/2 1/1/2
f 4/4/2 1/1/2 2/2/2
f 2/5/3 5/6/3 3/7/3
f 3/7/4 5/6/4 2/5/4
f 6/8/5 1/9/6 3/10/5
f 3/10/7 1/9/8 6/8/7
f 4/4/1 1/1/1 7/11/1
f 7/11/2 1/1/2 4/4/2
f 4/12/9 8/13/7 2/14/7
f 2/14/5 8/13/5 4/12/10
f 5/6/3 2/5/3 9/15/3
f 9/15/4 2/5/4 5/6/4
f 10/16/5 3/10/5 5/17/5
f 5/17/7 3/10/7 10/16/7
f 11/18/5 1/9/6 6/8/5
f 6/8/7 1/9/8 11/18/7
f 3/10/5 10/16/5 6/8/5
f 6/8/7 10/16/7 3/10/7
f 1/19/6 12/20/11 7/21/11
f 7/21/12 12/20/12 1/19/8
f 4/4/1 7/11/1 13/22/1
f 13/22/2 7/11/2 4/4/2
f 4/12/9 14/23/7 8/13/7
f 8/13/5 14/23/5 4/12/10
f 15/24/7 2/14/7 8/13/7
f 8/13/5 2/14/5 15/24/5
f 9/15/3 2/5/3 16/25/3
f 16/25/4 2/5/4 9/15/4
f 17/26/3 5/6/3 9/15/3
f 9/15/4 5/6/4 17/26/4
f 10/16/5 5/17/5 18/27/5
f 18/27/7 5/17/7 10/16/7
f 11/18/5 19/28/6 1/9/6
f 1/9/8 19/28/8 11/18/7
f 6/29/13 14/30/13 11/31/13
f 11/31/14 14/30/14 6/29/14
f 15/32/15 6/33/16 10/34/15
f 10/34/17 6/33/18 15/32/17
f 12/20/11 1/19/6 19/35/6
f 19/35/8 1/19/8 12/20/12
f 20/36/19 7/37/19 12/38/19
f 12/38/20 7/37/20 20/36/20
f 13/22/1 7/11/1 21/39/1
f 21/39/2 7/11/2 13/22/2
f 22/40/21 4/41/9 13/42/21
f 13/42/22 4/41/10 22/40/22
f 23/43/9 14/23/7 4/12/9
f 4/12/10 14/23/5 23/43/10
f 14/30/13 6/29/13 8/44/13
f 8/44/14 6/29/14 14/30/14
f 2/14/7 15/24/7 24/45/7
f 24/45/5 15/24/5 2/14/5
f 6/33/16 15/32/15 8/46/16
f 8/46/18 15/32/17 6/33/18
f 16/25/3 2/5/3 25/47/3
f 25/47/4 2/5/4 16/25/4
f 26/48/23 9/49/23 16/50/23
f 16/50/24 9/49/24 26/48/24
f 27/51/3 5/6/3 17/26/3
f 17/26/4 5/6/4 27/51/4
f 9/52/25 28/53/25 17/54/25
f 17/54/26 28/53/26 9/52/26
f 5/55/2 29/56/2 18/57/2
f 18/57/1 29/56/1 5/55/1
f 18/58/4 30/59/4 10/60/15
f 10/60/17 30/59/3 18/58/3
f 19/28/6 11/18/5 31/61/5
f 31/61/7 11/18/7 19/28/8
f 32/62/27 11/63/28 14/64/28
f 14/64/29 11/63/29 32/62/30
f 10/60/15 30/59/4 15/65/15
f 15/65/17 30/59/3 10/60/17
f 19/66/2 22/67/2 12/68/2
f 12/68/1 22/67/1 19/66/1
f 7/37/19 20/36/19 21/69/19
f 21/69/20 20/36/20 7/37/20
f 12/68/2 33/70/2 20/71/2
f 20/71/1 33/70/1 12/68/1
f 13/22/1 21/39/1 34/72/1
f 34/72/2 21/39/2 13/22/2
f 4/41/9 22/40/21 23/73/9
f 23/73/10 22/40/22 4/41/10
f 34/74/31 22/75/31 13/76/31
f 13/76/32 22/75/32 34/74/32
f 14/23/7 23/43/9 32/77/7
f 32/77/5 23/43/10 14/23/5
f 24/45/7 15/24/7 35/78/7
f 35/78/5 15/24/5 24/45/5
f 36/79/3 2/5/3 24/80/3
f 24/80/4 2/5/4 36/79/4
f 25/47/3 2/5/3 37/81/3
f 37/81/4 2/5/4 25/47/4
f 25/82/33 26/83/33 16/84/33
f 16/84/34 26/83/34 25/82/34
f 9/49/23 26/48/23 30/85/23
f 30/85/24 26/48/24 9/49/24
f 27/51/3 38/86/3 5/6/3
f 5/6/4 38/86/4 27/51/4
f 39/87/3 27/51/3 17/26/3
f 17/26/4 27/51/4 39/87/4
f 28/53/25 9/52/25 30/88/25
f 30/88/26 9/52/26 28/53/26
f 40/89/35 17/90/35 28/91/35
f 28/91/36 17/90/36 40/89/36
f 29/56/2 5/55/2 38/92/2
f 38/92/1 5/55/1 29/56/1
f 28/93/4 18/58/4 29/94/4
f 29/94/3 18/58/3 28/93/3
f 18/58/4 28/93/4 30/59/4
f 30/59/3 28/93/3 18/58/3
f 11/63/28 32/62/27 31/95/27
f 31/95/30 32/62/30 11/63/29
f 31/55/27 23/96/2 19/66/2
f 19/66/1 23/96/1 31/55/30
f 15/65/15 30/59/4 26/97/4
f 26/97/3 30/59/3 15/65/17
f 19/66/2 23/96/2 22/67/2
f 22/67/1 23/96/1 19/66/1
f 12/68/2 22/67/2 33/70/2
f 33/70/1 22/67/1 12/68/1
f 41/98/37 21/99/38 20/100/38
f 20/100/39 21/99/39 41/98/40
f 20/71/2 33/70/2 42/101/2
f 42/101/1 33/70/1 20/71/1
f 34/72/1 21/39/1 43/102/1
f 43/102/2 21/39/2 34/72/2
f 22/75/31 34/74/31 33/103/31
f 33/103/32 34/74/32 22/75/32
f 23/96/2 31/55/27 32/104/27
f 32/104/30 31/55/30 23/96/1
f 15/65/15 44/105/4 35/106/4
f 35/106/3 44/105/3 15/65/17
f 35/107/2 45/108/2 24/104/2
f 24/104/1 45/108/1 35/107/1
f 46/109/3 2/5/3 36/79/3
f 36/79/4 2/5/4 46/109/4
f 36/79/3 24/80/3 47/110/3
f 47/110/4 24/80/4 36/79/4
f 37/81/3 2/5/3 46/109/3
f 46/109/4 2/5/4 37/81/4
f 25/47/3 37/81/3 48/111/3
f 48/111/4 37/81/4 25/47/4
f 26/83/33 25/82/33 49/112/33
f 49/112/34 25/82/34 26/83/34
f 27/51/3 50/113/3 38/86/3
f 38/86/4 50/113/4 27/51/4
f 27/51/3 39/87/3 51/114/3
f 51/114/4 39/87/4 27/51/4
f 17/90/35 40/89/35 39/115/35
f 39/115/36 40/89/36 17/90/36
f 28/93/4 52/116/4 40/117/4
f 40/117/3 52/116/3 28/93/3
f 50/118/7 29/78/7 38/45/7
f 38/45/5 29/78/5 50/118/5
f 52/116/4 28/93/4 29/94/4
f 29/94/3 28/93/3 52/116/3
f 15/65/15 26/97/4 49/119/4
f 49/119/3 26/97/3 15/65/17
f 21/99/38 41/98/37 43/120/37
f 43/120/40 41/98/40 21/99/39
f 20/71/2 42/101/2 41/121/2
f 41/121/1 42/101/1 20/71/1
f 33/122/41 53/123/42 42/124/42
f 42/124/43 53/123/43 33/122/44
f 34/72/1 43/102/1 53/125/1
f 53/125/2 43/102/2 34/72/2
f 53/123/42 33/122/41 34/126/41
f 34/126/44 33/122/44 53/123/43
f 15/65/15 54/127/4 44/105/4
f 44/105/3 54/127/3 15/65/17
f 44/105/4 55/128/45 35/106/4
f 35/106/3 55/128/46 44/105/3
f 45/108/2 35/107/2 56/129/2
f 56/129/1 35/107/1 45/108/1
f 47/110/3 24/80/3 45/130/3
f 45/130/4 24/80/4 47/110/4
f 36/131/5 44/132/5 46/133/5
f 46/133/7 44/132/7 36/131/7
f 57/134/2 36/135/2 47/136/2
f 47/136/1 36/135/1 57/134/1
f 44/137/1 37/138/1 46/139/1
f 46/139/2 37/138/2 44/137/2
f 48/111/3 37/81/3 51/114/3
f 51/114/4 37/81/4 48/111/4
f 48/140/36 49/141/36 25/142/36
f 25/142/35 49/141/35 48/140/35
f 58/143/3 50/113/3 27/51/3
f 27/51/4 50/113/4 58/143/4
f 51/114/3 39/87/3 59/144/3
f 59/144/4 39/87/4 51/114/4
f 60/145/1 27/146/1 51/147/1
f 51/147/2 27/146/2 60/145/2
f 61/148/34 39/149/34 40/150/34
f 40/150/33 39/149/33 61/148/33
f 40/117/4 52/116/4 60/151/4
f 60/151/3 52/116/3 40/117/3
f 29/78/7 50/118/7 62/152/7
f 62/152/5 50/118/5 29/78/5
f 62/153/4 52/116/4 29/94/4
f 29/94/3 52/116/3 62/153/3
f 15/65/15 49/119/4 54/127/4
f 54/127/3 49/119/3 15/65/17
f 42/154/42 43/155/37 41/156/37
f 41/156/40 43/155/40 42/154/43
f 43/155/37 42/154/42 53/157/42
f 53/157/43 42/154/43 43/155/40
f 37/138/1 44/137/1 54/158/1
f 54/158/2 44/137/2 37/138/2
f 55/128/45 44/105/4 63/159/45
f 63/159/46 44/105/3 55/128/46
f 35/106/4 55/128/45 56/160/4
f 56/160/3 55/128/46 35/106/3
f 64/161/5 45/17/5 56/27/5
f 56/27/7 45/17/7 64/161/7
f 47/110/3 45/130/3 65/162/3
f 65/162/4 45/130/4 47/110/4
f 44/132/5 36/131/5 63/163/5
f 63/163/7 36/131/7 44/132/7
f 36/135/2 57/134/2 66/164/2
f 66/164/1 57/134/1 36/135/1
f 47/165/7 67/166/7 57/167/9
f 57/167/10 67/166/5 47/165/5
f 68/168/3 51/114/3 37/81/3
f 37/81/4 51/114/4 68/168/4
f 51/114/3 69/169/3 48/111/3
f 48/111/4 69/169/4 51/114/4
f 49/141/36 48/140/36 70/170/36
f 70/170/35 48/140/35 49/141/35
f 50/113/3 58/143/3 71/171/3
f 71/171/4 58/143/4 50/113/4
f 27/172/47 72/173/47 58/174/47
f 58/174/48 72/173/48 27/172/48
f 39/149/34 61/148/34 59/175/34
f 59/175/33 61/148/33 39/149/33
f 51/114/3 59/144/3 69/169/3
f 69/169/4 59/144/4 51/114/4
f 27/146/1 60/145/1 52/176/1
f 52/176/2 60/145/2 27/146/2
f 68/177/49 60/178/49 51/179/49
f 51/179/50 60/178/50 68/177/50
f 40/117/4 60/151/4 61/180/4
f 61/180/3 60/151/3 40/117/3
f 50/92/2 73/181/2 62/56/2
f 62/56/1 73/181/1 50/92/1
f 73/182/4 52/116/4 62/153/4
f 62/153/3 52/116/3 73/182/3
f 54/127/4 49/119/4 70/183/4
f 70/183/3 49/119/3 54/127/3
f 74/184/7 37/185/7 54/186/7
f 54/186/5 37/185/5 74/184/5
f 63/187/45 67/188/51 55/189/45
f 55/189/46 67/188/52 63/187/46
f 56/160/4 55/128/45 64/190/4
f 64/190/3 55/128/46 56/160/3
f 45/17/5 64/161/5 75/191/5
f 75/191/7 64/161/7 45/17/7
f 65/162/3 45/130/3 75/192/3
f 75/192/4 45/130/4 65/162/4
f 65/118/7 55/193/7 47/165/7
f 47/165/5 55/193/5 65/118/5
f 63/163/5 36/131/5 76/194/5
f 76/194/7 36/131/7 63/163/7
f 66/164/2 57/134/2 77/195/2
f 77/195/1 57/134/1 66/164/1
f 76/194/5 36/131/5 66/196/5
f 66/196/7 36/131/7 76/194/7
f 47/165/7 55/193/7 67/166/7
f 67/166/5 55/193/5 47/165/5
f 57/167/9 67/166/7 78/197/9
f 78/197/10 67/166/5 57/167/10
f 37/185/7 74/184/7 68/198/7
f 68/198/5 74/184/5 37/185/5
f 69/199/26 70/200/26 48/201/26
f 48/201/25 70/200/25 69/199/25
f 58/202/5 73/161/5 71/191/5
f 71/191/7 73/161/7 58/202/7
f 73/181/2 50/92/2 71/203/2
f 71/203/1 50/92/1 73/181/1
f 72/173/47 27/172/47 52/204/47
f 52/204/48 27/172/48 72/173/48
f 73/161/5 58/202/5 72/205/5
f 72/205/7 58/202/7 73/161/7
f 61/206/24 69/207/24 59/208/24
f 59/208/23 69/207/23 61/206/23
f 60/178/49 68/177/49 74/209/49
f 74/209/50 68/177/50 60/178/50
f 61/180/4 60/151/4 79/210/4
f 79/210/3 60/151/3 61/180/3
f 52/116/4 73/182/4 72/211/4
f 72/211/3 73/182/3 52/116/3
f 54/127/4 70/183/4 60/151/4
f 60/151/3 70/183/3 54/127/3
f 54/127/4 60/151/4 74/212/4
f 74/212/3 60/151/3 54/127/3
f 67/188/51 63/187/45 76/213/51
f 76/213/52 63/187/46 67/188/52
f 64/190/4 55/128/45 80/214/4
f 80/214/3 55/128/46 64/190/3
f 64/129/2 65/136/2 75/108/2
f 75/108/1 65/136/1 64/129/1
f 55/193/7 65/118/7 80/152/7
f 80/152/5 65/118/5 55/193/5
f 77/195/2 57/134/2 81/215/2
f 81/215/1 57/134/1 77/195/1
f 77/216/4 82/217/4 66/159/4
f 66/159/3 82/217/3 77/216/3
f 76/194/5 66/196/5 82/218/5
f 82/218/7 66/196/7 76/194/7
f 78/197/9 67/166/7 83/219/7
f 83/219/5 67/166/5 78/197/10
f 78/220/9 84/221/21 57/222/9
f 57/222/10 84/221/22 78/220/10
f 70/200/26 69/199/26 79/223/26
f 79/223/25 69/199/25 70/200/25
f 69/207/24 61/206/24 79/224/24
f 79/224/23 61/206/23 69/207/23
f 79/210/4 60/151/4 70/183/4
f 70/183/3 60/151/3 79/210/3
f 85/225/53 67/226/53 76/227/53
f 76/227/54 67/226/54 85/225/54
f 65/136/2 64/129/2 80/228/2
f 80/228/1 64/129/1 65/136/1
f 81/215/2 57/134/2 84/229/2
f 84/229/1 57/134/1 81/215/1
f 81/230/11 86/231/11 77/232/11
f 77/232/12 86/231/12 81/230/12
f 82/217/4 77/216/4 86/233/4
f 86/233/3 77/216/3 82/217/3
f 76/194/5 82/218/5 85/234/5
f 85/234/7 82/218/7 76/194/7
f 67/226/53 85/225/53 83/235/53
f 83/235/54 85/225/54 67/226/54
f 78/197/9 83/219/7 87/198/7
f 87/198/5 83/219/5 78/197/10
f 84/221/21 78/220/9 88/236/21
f 88/236/22 78/220/10 84/221/22
f 81/215/2 84/229/2 89/237/2
f 89/237/1 84/229/1 81/215/1
f 86/231/11 81/230/11 90/238/11
f 90/238/12 81/230/12 86/231/12
f 90/239/1 82/240/1 86/241/1
f 86/241/2 82/240/2 90/239/2
f 85/234/5 82/218/5 91/202/5
f 91/202/7 82/218/7 85/234/7
f 91/242/55 83/243/56 85/244/56
f 85/244/57 83/243/57 91/242/58
f 83/243/56 91/242/55 87/245/55
f 87/245/58 91/242/58 83/243/57
f 87/246/55 82/240/1 78/247/1
f 78/247/2 82/240/2 87/246/58
f 78/247/1 90/239/1 88/248/1
f 88/248/2 90/239/2 78/247/2
f 92/249/31 84/250/31 88/251/31
f 88/251/32 84/250/32 92/249/32
f 84/250/31 92/249/31 89/252/31
f 89/252/32 92/249/32 84/250/32
f 81/215/2 89/237/2 93/253/2
f 93/253/1 89/237/1 81/215/1
f 93/254/19 90/255/19 81/256/19
f 81/256/20 90/255/20 93/254/20
f 82/240/1 90/239/1 78/247/1
f 78/247/2 90/239/2 82/240/2
f 82/240/1 87/246/55 91/139/55
f 91/139/58 87/246/58 82/240/2
f 88/248/1 90/239/1 94/257/1
f 94/257/2 90/239/2 88/248/2
f 88/248/1 94/257/1 92/258/1
f 92/258/2 94/257/2 88/248/2
f 95/259/42 89/260/41 92/261/41
f 92/261/44 89/260/44 95/259/43
f 93/253/2 89/237/2 96/262/2
f 96/262/1 89/237/1 93/253/1
f 90/255/19 93/254/19 94/263/19
f 94/263/20 93/254/20 90/255/20
f 92/258/1 94/257/1 97/264/1
f 97/264/2 94/257/2 92/258/2
f 89/260/41 95/259/42 96/265/42
f 96/265/43 95/259/43 89/260/44
f 92/258/1 97/264/1 95/266/1
f 95/266/2 97/264/2 92/258/2
f 93/253/2 96/262/2 98/267/2
f 98/267/1 96/262/1 93/253/1
f 98/268/37 94/269/38 93/270/38
f 93/270/39 94/269/39 98/268/40
f 94/269/38 98/268/37 97/271/37
f 97/271/40 98/268/40 94/269/39
f 97/272/37 96/273/42 95/274/42
f 95/274/43 96/273/43 97/272/40
f 96/273/42 97/272/37 98/79/37
f 98/79/40 97/272/40 96/273/43
