# SSTK version 0.8.0
# 37
mtllib original-37.mtl
o Group21/mesh185/mesh185-geometry#mesh185-geometry
v 0.569422 0.081919 -0.312672
v 0.568378 0.079398 -0.250964
v 0.568378 0.079398 -0.312672
v 0.569422 0.081919 -0.250964
v 0.565857 0.078354 -0.312672
v 0.568378 0.084440 -0.312672
v 0.569954 0.077823 -0.312672
v 0.568050 0.079726 -0.250281
v 0.565857 0.078354 -0.250964
v 0.565857 0.085485 -0.312672
v 0.565857 0.076126 -0.312672
v 0.569954 0.086016 -0.312672
v 0.568378 0.084440 -0.250964
v 0.568959 0.081919 -0.250281
v 0.563336 0.079398 -0.312672
v 0.563336 0.084440 -0.312672
v 0.565857 0.085485 -0.250964
v 0.565857 0.087713 -0.312672
v 0.565857 0.076126 -0.319089
v 0.571650 0.081919 -0.312672
v 0.568050 0.084113 -0.250281
v 0.565857 0.078818 -0.250281
v 0.563336 0.079398 -0.250964
v 0.563336 0.084440 -0.250964
v 0.561760 0.077823 -0.312672
v 0.569954 0.086016 -0.319089
v 0.569954 0.077823 -0.319089
v 0.561760 0.077823 -0.319089
v 0.565857 0.085021 -0.250281
v 0.562292 0.081919 -0.312672
v 0.562292 0.081919 -0.250964
v 0.561760 0.086016 -0.312672
v 0.563664 0.084113 -0.250281
v 0.565857 0.087713 -0.319089
v 0.565857 0.076229 -0.319446
v 0.561833 0.077896 -0.319446
v 0.571650 0.081919 -0.319089
v 0.563664 0.079726 -0.250281
v 0.560063 0.081919 -0.312672
v 0.569880 0.085943 -0.319446
v 0.569880 0.077896 -0.319446
v 0.560063 0.081919 -0.319089
v 0.562755 0.081919 -0.250281
v 0.561760 0.086016 -0.319089
v 0.565857 0.087610 -0.319446
v 0.569681 0.078096 -0.319707
v 0.562033 0.078096 -0.319707
v 0.560167 0.081919 -0.319446
v 0.571547 0.081919 -0.319446
v 0.561833 0.085943 -0.319446
v 0.565857 0.087327 -0.319707
v 0.565857 0.076512 -0.319707
v 0.571264 0.081919 -0.319707
v 0.560449 0.081919 -0.319707
v 0.569681 0.085743 -0.319707
v 0.562033 0.085743 -0.319707
v 0.569408 0.078369 -0.319802
v 0.570879 0.081919 -0.319802
v 0.562306 0.078369 -0.319802
v 0.560835 0.081919 -0.319802
v 0.565857 0.086941 -0.319802
v 0.562306 0.085470 -0.319802
v 0.565857 0.076898 -0.319802
v 0.569408 0.085470 -0.319802
v 0.568531 0.080376 -0.319802
v 0.563183 0.080376 -0.319802
v 0.565857 0.085007 -0.319802
v 0.563183 0.083463 -0.319802
v 0.565857 0.078832 -0.319802
v 0.568531 0.083463 -0.319802
v 0.565857 0.078832 -0.316080
v 0.563183 0.080376 -0.316080
v 0.565857 0.085007 -0.316080
v 0.568531 0.083463 -0.316080
v 0.568531 0.080376 -0.316080
v 0.563183 0.083463 -0.316080
vt -0.07874 0.098655
vt -0.760169 0.068523
vt -0.07874 0.068523
vt -0.760169 0.098655
vt 0.091815 0.091815
vt 0.091815 0.036138
vt 0.103346 0.063976
vt 0.109215 0.018738
vt -0.07874 0.04969
vt -0.760169 0.019557
vt -0.07874 0.019557
vt -0.571147 0.226616
vt -0.585896 0.201013
vt -0.577619 0.197187
vt 0.063976 0.103346
vt 0.063976 0.024606
vt 0.063976 0
vt 0.109215 0.109215
vt -0.760169 0.04969
vt -0.580266 0.226616
vt -0.324919 0.573666
vt -0.341654 0.549314
vt -0.317896 0.567849
vt 0.760169 -0.04969
vt 0.07874 -0.019557
vt 0.07874 -0.04969
vt 0.036138 0.091815
vt 0.036138 0.036138
vt -0.760169 -0.019557
vt -0.07874 -0.04969
vt -0.07874 -0.019557
vt 0.063976 0.127953
vt -0.007874 0.059106
vt -0.07874 0.108072
vt -0.07874 0.059106
vt 0.127953 0.063976
vt -0.760169 -0.04969
vt -0.585896 -0.079975
vt -0.571147 -0.105578
vt -0.577619 -0.076149
vt -0.580266 -0.105578
vt 0.088196 0.088196
vt 0.088196 0.039757
vt 0.098228 0.063976
vt -0.345588 0.55754
vt 0.760169 -0.019557
vt 0.760169 0.068523
vt 0.07874 0.098655
vt 0.07874 0.068523
vt 0.018738 0.018738
vt 0.760169 0.098655
vt -0.007874 -0.059106
vt -0.07874 -0.010141
vt -0.07874 -0.059106
vt -0.007874 0.108072
vt 0.07874 -0.059106
vt 0.007874 -0.010141
vt 0.007874 -0.059106
vt -0.07874 0.010141
vt -0.345588 -0.477937
vt -0.317896 -0.488246
vt -0.341654 -0.469711
vt -0.324919 -0.494063
vt 0.063976 0.098228
vt 0.063976 0.029724
vt 0.454782 0.505322
vt 0.42709 0.51563
vt 0.450848 0.497095
vt 0.760169 0.019557
vt 0.07874 0.04969
vt 0.07874 0.019557
vt 0.024606 0.063976
vt 0.018738 0.109215
vt 0.07874 -0.010141
vt 0.434113 -0.441844
vt 0.450848 -0.417492
vt 0.42709 -0.436027
vt -0.007874 -0.010141
vt -0.03992 0.045268
vt -0.069092 0.084263
vt -0.043145 0.042738
vt -0.007986 -0.007483
vt -0.030244 -0.050798
vt -0.004298 -0.009273
vt -0.007874 0.010141
vt 0.454782 -0.425719
vt 0.039757 0.088196
vt 0.434113 0.521447
vt 0.760169 0.04969
vt 0.64296 -0.071236
vt 0.65771 -0.045632
vt 0.649432 -0.041807
vt 0.007874 0.108072
vt 0.07874 0.059106
vt 0.07874 0.108072
vt 0.007874 0.010141
vt 0.07874 0.010141
vt -0.065403 -0.028314
vt -0.043145 0.015001
vt -0.069092 -0.026525
vt -0.065403 0.086052
vt -0.03347 -0.048268
vt 0.007562 0.058634
vt -0.001663 0.010817
vt 0.002343 0.009948
vt -0.033978 0.056242
vt -0.043203 0.104059
vt -0.037984 0.055373
vt -0.043203 0.014831
vt -0.033978 0.062648
vt -0.037984 0.063517
vt 0.039757 0.039757
vt 0.65771 0.16667
vt 0.64296 0.192274
vt 0.649432 0.162844
vt 0.652079 -0.071236
vt 0.007874 0.059106
vt 0 0.063976
vt -0.03992 0.01247
vt -0.061158 0.0134
vt -0.099564 0.040621
vt -0.102654 0.037708
vt -0.019938 0.010746
vt -0.058344 -0.016475
vt -0.016848 0.007833
vt 0.003463 0.058634
vt -0.039104 0.104059
vt -0.039104 0.014831
vt 0.029724 0.063976
vt 0.652079 0.192274
vt -0.030244 0.108536
vt -0.007986 0.065222
vt -0.004298 0.067011
vt -0.102654 0.059167
vt -0.060128 0.079355
vt -0.061158 0.083475
vt -0.03347 0.106006
vt -0.060128 0.01752
vt -0.091568 0.084093
vt -0.082298 0.03794
vt -0.078722 0.040232
vt -0.059374 -0.012355
vt -0.011685 0.014445
vt -0.002414 0.060597
vt -0.015261 0.016736
vt 0.002343 0.108942
vt 0.003463 0.060256
vt 0.007562 0.060256
vt 0.001833 0.060597
vt -0.095815 0.084093
vt -0.091568 0.039086
vt -0.082298 0.085239
vt -0.095815 0.039086
vt -0.001663 0.108073
vt -0.099564 0.056254
vt -0.019938 0.086129
vt -0.058344 0.11335
vt -0.059374 0.10923
vt -0.016848 0.089042
vt -0.06375 0.005447
vt -0.10265 0.026563
vt -0.105755 0.02346
vt -0.103343 0.024071
vt -0.115931 0.066504
vt -0.120321 0.066504
vt -0.024636 0.023442
vt -0.063535 0.002326
vt -0.02153 0.020339
vt -0.008273 0.063459
vt -0.020861 0.021025
vt -0.003883 0.063459
vt -0.011685 0.108734
vt -0.002414 0.062582
vt 0.001833 0.062582
vt -0.078722 0.082947
vt -0.105755 0.100781
vt -0.063643 0.114405
vt -0.06375 0.118794
vt -0.063535 0.121915
vt -0.024636 0.100799
vt -0.02153 0.103902
vt -0.015261 0.106443
vt -0.063643 0.009836
vt -0.100164 0.027099
vt -0.115931 0.060819
vt -0.103343 0.103253
vt -0.120321 0.060819
vt -0.063643 0.006715
vt -0.024039 0.024054
vt -0.020861 0.106298
vt -0.008273 0.063865
vt -0.003883 0.063865
vt -0.10265 0.097678
vt -0.063643 0.117526
vt -0.024039 0.10327
vt -0.063976 0.008523
vt -0.093504 0.046929
vt -0.103188 0.024765
vt -0.103188 0.103188
vt -0.11943 0.063976
vt -0.100164 0.100225
vt -0.024765 0.024765
vt -0.034449 0.046929
vt -0.024765 0.103188
vt -0.008523 0.063976
vt -0.063976 0.098072
vt -0.063976 0.11943
vt -0.034449 0.081024
vt -0.063976 0.029881
vt -0.093504 0.081024
vt 0.041103 0.070346
vt 0 0.104441
vt 0 0.070346
vt 0 0.081024
vt -0.041103 0.046929
vt 0 0.046929
vt -0.041103 -0.006369
vt 0 -0.040465
vt 0 -0.006369
vt -0.041103 0.104441
vt 0.041103 -0.040465
vt 0.041103 0.104441
vt -0.041103 -0.040465
vt 0.041103 0.081024
vt -0.041103 0.081024
vt -0.041103 0.070346
vt 0.041103 -0.006369
vt 0.041103 0.046929
vn 1 0 0
vn 0.7071067811865475 -0.7071067811865475 0
vn -0.7071067811865475 0.7071067811865475 0
vn -1 0 0
vn 0 -1 0
vn 0 1 0
vn 0 0 1
vn 0 0 -1
vn 0.7071067811865475 0.7071067811865475 0
vn -0.7071067811865475 -0.7071067811865475 0
vn 0.8276449778484966 0 0.5612519849783713
vn 0.5852332527968254 -0.5852332527968254 0.5612522424380095
vn -0.5852332527968254 0.5852332527968254 -0.5612522424380095
vn -0.8276449778484966 0 -0.5612519849783713
vn 0 -0.8276449778484966 0.5612519849783713
vn 0 0.8276449778484966 -0.5612519849783713
vn 0.5852332527968254 0.5852332527968251 0.5612522424380098
vn -0.5852332527968254 -0.5852332527968251 -0.5612522424380098
vn 0 0.8276449778484961 0.5612519849783716
vn 0 -0.8276449778484961 -0.5612519849783716
vn -0.5852332527968251 -0.5852332527968254 0.5612522424380098
vn 0.5852332527968251 0.5852332527968254 -0.5612522424380098
vn -0.5852332527968251 0.5852332527968251 0.5612522424380099
vn 0.5852332527968251 -0.5852332527968251 -0.5612522424380099
vn 0 -0.8480289205647107 -0.5299499503593258
vn 0.6791211176285417 -0.6791211176285417 -0.2785480482464763
vn 0 -0.960422285059139 -0.2785480826747547
vn 0 0.960422285059139 0.2785480826747547
vn -0.6791211176285417 0.6791211176285417 0.2785480482464763
vn 0 0.8480289205647107 0.5299499503593258
vn -0.5996469844937289 -0.5996469844937288 -0.5299499862960234
vn -0.6791211176285415 -0.6791211176285414 -0.27854804824647594
vn 0.6791211176285415 0.6791211176285414 0.27854804824647594
vn 0.5996469844937289 0.5996469844937288 0.5299499862960234
vn -0.8276449778484961 0 0.5612519849783716
vn 0.8276449778484961 0 -0.5612519849783716
vn 0.5996469844937288 0.5996469844937289 -0.5299499862960234
vn 0 0.9604222850591391 -0.2785480826747543
vn 0.6791211176285414 0.6791211176285415 -0.27854804824647594
vn -0.6791211176285414 -0.6791211176285415 0.27854804824647594
vn 0 -0.9604222850591391 0.2785480826747543
vn -0.5996469844937288 -0.5996469844937289 0.5299499862960234
vn 0.5996469844937287 -0.5996469844937287 -0.5299499862960237
vn -0.5996469844937287 0.5996469844937287 0.5299499862960237
vn -0.9604222850591391 0 -0.2785480826747543
vn 0.9604222850591391 0 0.2785480826747543
vn 0.960422285059139 0 -0.2785480826747547
vn -0.960422285059139 0 0.2785480826747547
vn 0 0.8480289205647108 -0.5299499503593252
vn 0 -0.8480289205647108 0.5299499503593252
vn 0.33278982232622345 -0.33278982232622345 -0.8823275289325166
vn -0.33278982232622345 0.33278982232622345 0.8823275289325166
vn -0.3327898223262238 -0.33278982232622345 -0.8823275289325166
vn 0.3327898223262238 0.33278982232622345 0.8823275289325166
vn -0.8480289205647108 0 -0.5299499503593252
vn 0.8480289205647108 0 0.5299499503593252
vn 0.8480289205647107 0 -0.5299499503593258
vn -0.8480289205647107 0 0.5299499503593258
vn -0.599646984493729 0.599646984493729 -0.5299499862960232
vn -0.6791211176285415 0.6791211176285415 -0.27854804824647567
vn 0.6791211176285415 -0.6791211176285415 0.27854804824647567
vn 0.599646984493729 -0.599646984493729 0.5299499862960232
vn 0 0.47063499933899333 -0.8823279987607701
vn 0 -0.47063499933899333 0.8823279987607701
vn 0 -0.470634999338993 -0.8823279987607705
vn 0 0.470634999338993 0.8823279987607705
vn 0.470634999338993 0 -0.8823279987607705
vn -0.470634999338993 0 0.8823279987607705
vn -0.47063499933899333 0 -0.8823279987607701
vn 0.47063499933899333 0 0.8823279987607701
vn 0.33278982232622345 0.3327898223262238 -0.8823275289325166
vn -0.33278982232622345 -0.3327898223262238 0.8823275289325166
vn -0.3327898223262237 0.3327898223262237 -0.8823275289325165
vn 0.3327898223262237 -0.3327898223262237 0.8823275289325165
vn 0.16991698960286447 -0.16991698960286447 -0.970698940603419
vn -0.16991698960286447 0.16991698960286447 0.970698940603419
vn 0.24029898101614075 0 -0.9706989233138175
vn -0.24029898101614075 0 0.9706989233138175
vn -0.16991698960286492 -0.16991698960286447 -0.970698940603419
vn 0.16991698960286492 0.16991698960286447 0.970698940603419
vn -0.2402989810161411 0 -0.9706989233138172
vn 0.2402989810161411 0 0.9706989233138172
vn 0 0.2402989810161411 -0.9706989233138172
vn 0 -0.2402989810161411 0.9706989233138172
vn -0.1699169896028649 0.1699169896028649 -0.9706989406034189
vn 0.1699169896028649 -0.1699169896028649 0.9706989406034189
vn 0 -0.24029898101614075 -0.9706989233138175
vn 0 0.24029898101614075 0.9706989233138175
vn 0.16991698960286447 0.16991698960286492 -0.970698940603419
vn -0.16991698960286447 -0.16991698960286492 0.970698940603419
vn -0.5000001748438417 0.8660253028382762 0
vn 0.5000001748438417 -0.8660253028382762 0
vn 0.5000001748438417 0.8660253028382762 0
vn -0.5000001748438417 -0.8660253028382762 0
usemtl material_0_0
f 1/1/1 2/2/2 3/3/2
f 2/2/2 1/1/1 4/4/1
f 3/3/3 2/2/3 1/1/4
f 4/4/4 1/1/4 2/2/3
f 2/4/2 5/3/5 3/1/2
f 3/1/3 5/3/6 2/4/3
f 6/5/7 3/6/7 1/7/7
f 1/7/8 3/6/8 6/5/8
f 3/6/7 7/8/7 1/7/7
f 1/7/8 7/8/8 3/6/8
f 6/9/9 4/10/1 1/11/1
f 1/11/4 4/10/4 6/9/10
f 4/12/11 8/13/12 2/14/12
f 2/14/13 8/13/13 4/12/14
f 5/3/5 2/4/2 9/2/5
f 9/2/6 2/4/3 5/3/6
f 10/15/7 5/16/7 3/6/7
f 3/6/8 5/16/8 10/15/8
f 5/16/7 11/17/7 3/6/7
f 3/6/8 11/17/8 5/16/8
f 10/15/7 3/6/7 6/5/7
f 6/5/8 3/6/8 10/15/8
f 12/18/7 6/5/7 1/7/7
f 1/7/8 6/5/8 12/18/8
f 3/6/7 11/17/7 7/8/7
f 7/8/8 11/17/8 3/6/8
f 12/18/7 1/7/7 7/8/7
f 7/8/8 1/7/8 12/18/8
f 4/10/1 6/9/9 13/19/9
f 13/19/10 6/9/10 4/10/4
f 8/13/12 4/12/11 14/20/11
f 14/20/14 4/12/14 8/13/13
f 8/21/12 9/22/15 2/23/12
f 2/23/13 9/22/16 8/21/13
f 9/24/5 15/25/10 5/26/5
f 5/26/6 15/25/9 9/24/6
f 16/27/7 5/16/7 10/15/7
f 10/15/8 5/16/8 16/27/8
f 15/28/7 11/17/7 5/16/7
f 5/16/8 11/17/8 15/28/8
f 17/29/6 6/30/9 10/31/6
f 10/31/5 6/30/10 17/29/5
f 18/32/7 10/15/7 6/5/7
f 6/5/8 10/15/8 18/32/8
f 18/32/7 6/5/7 12/18/7
f 12/18/8 6/5/8 18/32/8
f 19/33/5 7/34/2 11/35/5
f 11/35/6 7/34/3 19/33/6
f 12/18/7 7/8/7 20/36/7
f 20/36/8 7/8/8 12/18/8
f 6/30/9 17/29/6 13/37/9
f 13/37/10 17/29/5 6/30/10
f 21/38/17 4/39/11 13/40/17
f 13/40/18 4/39/14 21/38/18
f 4/39/11 21/38/17 14/41/11
f 14/41/14 21/38/18 4/39/14
f 21/42/7 8/43/7 14/44/7
f 14/44/8 8/43/8 21/42/8
f 9/22/15 8/21/12 22/45/15
f 22/45/16 8/21/13 9/22/16
f 15/25/10 9/24/5 23/46/10
f 23/46/9 9/24/6 15/25/9
f 16/27/7 15/28/7 5/16/7
f 5/16/8 15/28/8 16/27/8
f 24/47/3 10/48/6 16/49/3
f 16/49/2 10/48/5 24/47/2
f 18/32/7 16/27/7 10/15/7
f 10/15/8 16/27/8 18/32/8
f 15/28/7 25/50/7 11/17/7
f 11/17/8 25/50/8 15/28/8
f 10/48/6 24/47/3 17/51/6
f 17/51/5 24/47/2 10/48/5
f 26/52/9 18/53/6 12/54/9
f 12/54/10 18/53/5 26/52/10
f 7/34/2 19/33/5 27/55/2
f 27/55/3 19/33/6 7/34/3
f 11/56/5 28/57/10 19/58/5
f 19/58/6 28/57/9 11/56/6
f 27/33/2 20/34/1 7/35/2
f 7/35/3 20/34/4 27/33/3
f 20/59/1 26/33/9 12/35/9
f 12/35/10 26/33/10 20/59/4
f 29/60/19 13/61/17 17/62/19
f 17/62/20 13/61/18 29/60/20
f 13/61/17 29/60/19 21/63/17
f 21/63/18 29/60/20 13/61/18
f 29/64/7 8/43/7 21/42/7
f 21/42/8 8/43/8 29/64/8
f 29/64/7 22/65/7 8/43/7
f 8/43/8 22/65/8 29/64/8
f 22/66/15 23/67/21 9/68/15
f 9/68/16 23/67/22 22/66/16
f 23/69/10 30/70/4 15/71/10
f 15/71/9 30/70/1 23/69/9
f 15/28/7 16/27/7 30/72/7
f 30/72/8 16/27/8 15/28/8
f 16/48/3 31/47/4 24/51/3
f 24/51/2 31/47/1 16/48/2
f 32/73/7 16/27/7 18/32/7
f 18/32/8 16/27/8 32/73/8
f 30/72/7 25/50/7 15/28/7
f 15/28/8 25/50/8 30/72/8
f 28/57/10 11/56/5 25/74/10
f 25/74/9 11/56/6 28/57/9
f 33/75/23 17/76/19 24/77/23
f 24/77/24 17/76/20 33/75/24
f 18/53/6 26/52/9 34/78/6
f 34/78/5 26/52/10 18/53/5
f 35/79/25 27/80/26 19/81/27
f 19/81/28 27/80/29 35/79/30
f 36/82/31 19/83/27 28/84/32
f 28/84/33 19/83/28 36/82/34
f 20/34/1 27/33/2 37/55/1
f 37/55/4 27/33/3 20/34/4
f 26/33/9 20/59/1 37/85/1
f 37/85/4 20/59/4 26/33/10
f 17/76/19 33/75/23 29/86/19
f 29/86/20 33/75/24 17/76/20
f 33/87/7 22/65/7 29/64/7
f 29/64/8 22/65/8 33/87/8
f 23/67/21 22/66/15 38/88/21
f 38/88/22 22/66/16 23/67/22
f 30/70/4 23/69/10 31/89/4
f 31/89/1 23/69/9 30/70/1
f 31/47/4 16/48/3 30/49/4
f 30/49/1 16/48/2 31/47/1
f 16/27/7 32/73/7 30/72/7
f 30/72/8 32/73/8 16/27/8
f 31/90/35 33/91/23 24/92/23
f 24/92/24 33/91/24 31/90/36
f 34/93/6 32/94/3 18/95/6
f 18/95/5 32/94/2 34/93/5
f 32/73/7 25/50/7 30/72/7
f 30/72/8 25/50/8 32/73/8
f 39/94/4 28/96/10 25/97/10
f 25/97/9 28/96/9 39/94/1
f 40/98/37 34/99/38 26/100/39
f 26/100/40 34/99/41 40/98/42
f 27/80/26 35/79/25 41/101/43
f 41/101/44 35/79/30 27/80/29
f 19/83/27 36/82/31 35/102/25
f 35/102/30 36/82/34 19/83/28
f 42/103/45 36/104/31 28/105/32
f 28/105/33 36/104/34 42/103/46
f 41/106/43 37/107/47 27/108/26
f 27/108/29 37/107/48 41/106/44
f 37/109/47 40/110/37 26/111/39
f 26/111/40 40/110/42 37/109/48
f 33/87/7 38/112/7 22/65/7
f 22/65/8 38/112/8 33/87/8
f 38/113/21 31/114/35 23/115/21
f 23/115/22 31/114/36 38/113/22
f 33/91/23 31/90/35 43/116/35
f 43/116/36 31/90/36 33/91/24
f 32/94/3 34/93/6 44/117/3
f 44/117/2 34/93/5 32/94/2
f 25/50/7 32/73/7 39/118/7
f 39/118/8 32/73/8 25/50/8
f 28/96/10 39/94/4 42/117/4
f 42/117/1 39/94/1 28/96/9
f 34/99/38 40/98/37 45/119/49
f 45/119/50 40/98/42 34/99/41
f 35/120/25 46/121/51 41/122/43
f 41/122/44 46/121/52 35/120/30
f 47/123/53 35/124/25 36/125/31
f 36/125/34 35/124/30 47/123/54
f 36/104/31 42/103/45 48/126/55
f 48/126/56 42/103/46 36/104/34
f 37/107/47 41/106/43 49/127/57
f 49/127/58 41/106/44 37/107/48
f 40/110/37 37/109/47 49/128/57
f 49/128/58 37/109/48 40/110/42
f 38/112/7 33/87/7 43/129/7
f 43/129/8 33/87/8 38/112/8
f 31/114/35 38/113/21 43/130/35
f 43/130/36 38/113/22 31/114/36
f 34/131/38 50/132/59 44/133/60
f 44/133/61 50/132/62 34/131/41
f 42/117/4 32/95/3 44/93/3
f 44/93/2 32/95/2 42/117/1
f 32/95/3 42/117/4 39/94/4
f 39/94/1 42/117/1 32/95/2
f 40/134/37 51/135/63 45/136/49
f 45/136/50 51/135/64 40/134/42
f 50/132/59 34/131/38 45/137/49
f 45/137/50 34/131/41 50/132/62
f 46/121/51 35/120/25 52/138/65
f 52/138/66 35/120/30 46/121/52
f 53/139/67 41/140/43 46/141/51
f 46/141/52 41/140/44 53/139/68
f 35/124/25 47/123/53 52/142/65
f 52/142/66 47/123/54 35/124/30
f 36/143/31 54/144/69 47/145/53
f 47/145/54 54/144/70 36/143/34
f 44/146/60 48/147/55 42/148/45
f 42/148/46 48/147/56 44/146/61
f 54/144/69 36/143/31 48/149/55
f 48/149/56 36/143/34 54/144/70
f 41/140/43 53/139/67 49/150/57
f 49/150/58 53/139/68 41/140/44
f 53/151/67 40/152/37 49/153/57
f 49/153/58 40/152/42 53/151/68
f 48/147/55 44/146/60 50/154/59
f 50/154/62 44/146/61 48/147/56
f 51/135/63 40/134/37 55/155/71
f 55/155/72 40/134/42 51/135/64
f 56/156/73 45/157/49 51/158/63
f 51/158/64 45/157/50 56/156/74
f 45/157/49 56/156/73 50/159/59
f 50/159/62 56/156/74 45/157/50
f 52/160/65 57/161/75 46/162/51
f 46/162/52 57/161/76 52/160/66
f 46/163/51 58/164/77 53/165/67
f 53/165/68 58/164/78 46/163/52
f 59/166/79 52/167/65 47/168/53
f 47/168/54 52/167/66 59/166/80
f 60/169/81 47/170/53 54/171/69
f 54/171/70 47/170/54 60/169/82
f 50/172/59 54/173/69 48/174/55
f 48/174/56 54/173/70 50/172/62
f 40/152/37 53/151/67 55/175/71
f 55/175/72 53/151/68 40/152/42
f 55/176/71 61/177/83 51/178/63
f 51/178/64 61/177/84 55/176/72
f 51/179/63 62/180/85 56/181/73
f 56/181/74 62/180/86 51/179/64
f 54/173/69 50/172/59 56/182/73
f 56/182/74 50/172/62 54/173/70
f 57/161/75 52/160/65 63/183/87
f 63/183/88 52/160/66 57/161/76
f 58/164/77 46/163/51 57/184/75
f 57/184/76 46/163/52 58/164/78
f 58/185/77 55/186/71 53/187/67
f 53/187/68 55/186/72 58/185/78
f 52/167/65 59/166/79 63/188/87
f 63/188/88 59/166/80 52/167/66
f 47/170/53 60/169/81 59/189/79
f 59/189/80 60/169/82 47/170/54
f 56/190/73 60/191/81 54/192/69
f 54/192/70 60/191/82 56/190/74
f 61/177/83 55/176/71 64/193/89
f 64/193/90 55/176/72 61/177/84
f 62/180/85 51/179/63 61/194/83
f 61/194/84 51/179/64 62/180/86
f 60/191/81 56/190/73 62/195/85
f 62/195/86 56/190/74 60/191/82
f 63/196/8 65/197/8 57/198/8
f 57/198/7 65/197/7 63/196/7
f 57/198/8 64/199/8 58/200/8
f 58/200/7 64/199/7 57/198/7
f 55/186/71 58/185/77 64/201/89
f 64/201/90 58/185/78 55/186/72
f 59/202/8 66/203/8 63/196/8
f 63/196/7 66/203/7 59/202/7
f 62/204/8 59/202/8 60/205/8
f 60/205/7 59/202/7 62/204/7
f 67/206/8 61/207/8 64/199/8
f 64/199/7 61/207/7 67/206/7
f 68/208/8 62/204/8 61/207/8
f 61/207/7 62/204/7 68/208/7
f 63/196/8 69/209/8 65/197/8
f 65/197/7 69/209/7 63/196/7
f 57/198/8 65/197/8 64/199/8
f 64/199/7 65/197/7 57/198/7
f 66/203/8 59/202/8 68/208/8
f 68/208/7 59/202/7 66/203/7
f 63/196/8 66/203/8 69/209/8
f 69/209/7 66/203/7 63/196/7
f 59/202/8 62/204/8 68/208/8
f 68/208/7 62/204/7 59/202/7
f 68/208/8 61/207/8 67/206/8
f 67/206/7 61/207/7 68/208/7
f 67/206/8 64/199/8 70/210/8
f 70/210/7 64/199/7 67/206/7
f 71/211/91 65/212/91 69/213/91
f 69/213/92 65/212/92 71/211/92
f 70/210/8 64/199/8 65/197/8
f 65/197/7 64/199/7 70/210/7
f 68/214/1 72/215/1 66/216/1
f 66/216/4 72/215/4 68/214/4
f 72/217/93 69/218/93 66/219/93
f 66/219/94 69/218/94 72/217/94
f 73/220/92 68/213/92 67/212/92
f 67/212/91 68/213/91 73/220/91
f 74/221/94 67/219/94 70/218/94
f 70/218/93 67/219/93 74/221/93
f 65/212/91 71/211/91 75/222/91
f 75/222/92 71/211/92 65/212/92
f 69/218/93 72/217/93 71/223/93
f 71/223/94 72/217/94 69/218/94
f 65/216/4 74/224/4 70/214/4
f 70/214/1 74/224/1 65/216/1
f 72/215/1 68/214/1 76/225/1
f 76/225/4 68/214/4 72/215/4
f 68/213/92 73/220/92 76/226/92
f 76/226/91 73/220/91 68/213/91
f 67/219/94 74/221/94 73/227/94
f 73/227/93 74/221/93 67/219/93
f 71/209/8 74/210/8 75/197/8
f 75/197/7 74/210/7 71/209/7
f 74/224/4 65/216/4 75/228/4
f 75/228/1 65/216/1 74/224/1
f 72/203/8 73/206/8 71/209/8
f 71/209/7 73/206/7 72/203/7
f 73/206/8 72/203/8 76/208/8
f 76/208/7 72/203/7 73/206/7
f 71/209/8 73/206/8 74/210/8
f 74/210/7 73/206/7 71/209/7
