# SSTK version 0.8.0
# 41
mtllib original-41.mtl
o Group24/mesh193/mesh193-geometry#mesh193-geometry
v 0.529625 -0.287226 -0.224946
v 0.529625 -0.287226 -0.242772
v 0.534082 -0.287226 -0.224946
v 0.529625 -0.286629 -0.245001
v 0.534082 -0.287226 -0.242772
v 0.534082 -0.286629 -0.222718
v 0.529625 -0.286629 -0.222718
v 0.529625 -0.284998 -0.246632
v 0.534082 -0.286629 -0.245001
v 0.534082 -0.284998 -0.221087
v 0.529625 -0.284998 -0.221087
v 0.534082 -0.284998 -0.246632
v 0.529625 -0.282770 -0.247229
v 0.529625 -0.282770 -0.220490
v 0.534082 -0.282770 -0.247229
v 0.534082 -0.282770 -0.220490
v 0.529625 -0.175813 -0.247229
v 0.534082 -0.175813 -0.220490
v 0.534082 -0.175813 -0.247229
v 0.529625 -0.175813 -0.220490
v 0.529625 -0.173585 -0.246632
v 0.534082 -0.173585 -0.246632
v 0.534082 -0.173585 -0.221087
v 0.529625 -0.173585 -0.221087
v 0.534082 -0.171953 -0.245001
v 0.529625 -0.171953 -0.245001
v 0.534082 -0.171953 -0.222718
v 0.529625 -0.171953 -0.222718
v 0.534082 -0.171356 -0.242772
v 0.534082 -0.171356 -0.224946
v 0.529625 -0.171356 -0.242772
v 0.529625 -0.171356 -0.224946
vt 0 0.05
vt 0 0.25
vt 0.05 0.05
vt -0.006699 0.275
vt 0.05 0.25
vt 0.05 0.048296
vt 0.05 0.022414
vt 0 0.048296
vt -0.006699 0.025
vt 0 0.241481
vt 0 0.267363
vt 0.05 0.241481
vt 0.006699 0.025
vt 0 0.022414
vt -0.025 0.293301
vt 0.05 0.267363
vt 0.006699 0.275
vt 0.05 0.012941
vt 0.05 -0.012941
vt 0 0.012941
vt 0 0.199191
vt 0 0.225073
vt 0.05 0.199191
vt -0.025 0.006699
vt 0.025 0.006699
vt 0 -0.012941
vt 0.05 0.225073
vt -0.05 0.3
vt 0.025 0.293301
vt 0 -0.022414
vt 0.05 -0.022414
vt 0 -0.048296
vt 0 0.10006
vt 0 0.125942
vt 0.05 0.10006
vt -0.05 0
vt 0.05 0.3
vt 0.05 -0.048296
vt 0.05 0.125942
vt -1.25 0.3
vt 0.05 0
vt -0.05 0.05
vt -0.05 1.25
vt 0.05 1.25
vt 0 1.25
vt -1.25 0
vt 1.25 0.3
vt 1.25 0
vt 0 -1.129762
vt 0 -1.155643
vt -0.05 -1.129762
vt -1.275 0.293301
vt 1.275 0.293301
vt -0.05 1.207407
vt -0.05 1.233289
vt 0 1.207407
vt -0.05 -1.155643
vt -1.275 0.006699
vt 1.275 0.006699
vt 0 1.233289
vt -0.05 -0.694166
vt 0 -0.694166
vt -0.05 -0.720048
vt -1.293301 0.275
vt 1.293301 0.025
vt -0.05 0.906298
vt -0.05 0.93218
vt 0 0.906298
vt 0 -0.720048
vt 1.293301 0.275
vt -1.293301 0.025
vt 0 0.93218
vt -0.05 -0.069101
vt 0 -0.069101
vt -0.05 -0.094983
vt 1.3 0.05
vt -1.3 0.25
vt 0 0.358879
vt -0.05 0.358879
vt 0 0.384761
vt 0 -0.094983
vt 1.3 0.25
vt -0.05 0.384761
vt -1.3 0.05
vt -0.05 0.25
vn 0 -0.9914448886106773 0.13052598533534068
vn 0 -0.9914448886106771 -0.13052598533534154
vn -1 0 0
vn 0 -0.9659258492011172 0.258818959593575
vn 0 -0.965925849201117 -0.2588189595935759
vn 1 0 0
vn 0 -0.7071067811865479 0.7071067811865471
vn 0 -0.7071067811865471 -0.7071067811865479
vn 0 -0.2588189595935759 0.965925849201117
vn 0 -0.13052598533534154 0.9914448886106771
vn 0 -0.258818959593575 -0.9659258492011172
vn 0 -0.13052598533534068 -0.9914448886106773
vn 0 0.13052598533534068 0.9914448886106773
vn 0 0.13052598533534154 -0.9914448886106771
vn 0 0.2588189595935759 -0.965925849201117
vn 0 0.258818959593575 0.9659258492011172
vn 0 0.7071067811865479 -0.7071067811865471
vn 0 0.7071067811865471 0.7071067811865479
vn 0 0.9659258492011172 -0.258818959593575
vn 0 0.9914448886106773 -0.13052598533534068
vn 0 0.965925849201117 0.2588189595935759
vn 0 0.9914448886106771 0.13052598533534154
usemtl material_0_0
f 1/1/1 2/2/2 3/3/1
f 2/2/3 1/1/3 4/4/3
f 5/5/2 3/3/1 2/2/2
f 3/6/1 6/7/4 1/8/1
f 7/9/3 4/4/3 1/1/3
f 2/10/2 4/11/5 5/12/2
f 3/1/6 5/2/6 6/13/6
f 7/14/4 1/8/1 6/7/4
f 8/15/3 4/4/3 7/9/3
f 9/16/5 5/12/2 4/11/5
f 9/17/6 6/13/6 5/2/6
f 6/18/7 10/19/7 7/20/7
f 4/21/8 8/22/8 9/23/8
f 11/24/3 8/15/3 7/9/3
f 10/25/6 6/13/6 9/17/6
f 11/26/7 7/20/7 10/19/7
f 12/27/8 9/23/8 8/22/8
f 13/28/3 8/15/3 11/24/3
f 12/29/6 10/25/6 9/17/6
f 11/30/9 10/31/9 14/32/10
f 8/33/11 13/34/12 12/35/11
f 14/36/3 13/28/3 11/24/3
f 15/37/6 10/25/6 12/29/6
f 16/38/10 14/32/10 10/31/9
f 15/39/12 12/35/11 13/34/12
f 17/40/3 13/28/3 14/36/3
f 16/41/6 10/25/6 15/37/6
f 16/42/10 18/43/13 14/1/10
f 15/3/12 13/1/12 19/44/14
f 17/45/14 19/44/14 13/1/12
f 20/46/3 17/40/3 14/36/3
f 19/47/6 16/41/6 15/37/6
f 18/48/6 16/41/6 19/47/6
f 20/45/13 14/1/10 18/43/13
f 17/49/14 21/50/15 19/51/14
f 21/52/3 17/40/3 20/46/3
f 22/53/6 18/48/6 19/47/6
f 18/54/13 23/55/16 20/56/13
f 22/57/15 19/51/14 21/50/15
f 24/58/3 21/52/3 20/46/3
f 23/59/6 18/48/6 22/53/6
f 24/60/16 20/56/13 23/55/16
f 22/61/17 21/62/17 25/63/17
f 26/64/3 21/52/3 24/58/3
f 27/65/6 23/59/6 22/53/6
f 23/66/18 27/67/18 24/68/18
f 26/69/17 25/63/17 21/62/17
f 25/70/6 27/65/6 22/53/6
f 28/71/3 26/64/3 24/58/3
f 28/72/18 24/68/18 27/67/18
f 25/73/19 26/74/19 29/75/20
f 30/76/6 27/65/6 25/70/6
f 31/77/3 26/64/3 28/71/3
f 28/78/21 27/79/21 32/80/22
f 31/81/20 29/75/20 26/74/19
f 29/82/6 30/76/6 25/70/6
f 30/83/22 32/80/22 27/79/21
f 32/84/3 31/77/3 28/71/3
f 29/85/20 31/2/20 30/42/22
f 32/1/22 30/42/22 31/2/20
usemtl material_1_0
f 3//20 2//22 1//20
f 4//6 1//6 2//6
f 2//22 3//20 5//22
f 1//20 6//19 3//20
f 1//6 4//6 7//6
f 5//22 4//21 2//22
f 6//3 5//3 3//3
f 6//19 1//20 7//19
f 7//6 4//6 8//6
f 4//21 5//22 9//21
f 5//3 6//3 9//3
f 7//17 10//17 6//17
f 9//18 8//18 4//18
f 7//6 8//6 11//6
f 9//3 6//3 10//3
f 10//17 7//17 11//17
f 8//18 9//18 12//18
f 11//6 8//6 13//6
f 9//3 10//3 12//3
f 14//14 10//15 11//15
f 12//16 13//13 8//16
f 11//6 13//6 14//6
f 12//3 10//3 15//3
f 10//15 14//14 16//14
f 13//13 12//16 15//13
f 14//6 13//6 17//6
f 15//3 10//3 16//3
f 14//14 18//12 16//14
f 19//10 13//13 15//13
f 13//13 19//10 17//10
f 14//6 17//6 20//6
f 15//3 16//3 19//3
f 19//3 16//3 18//3
f 18//12 14//14 20//12
f 19//10 21//9 17//10
f 20//6 17//6 21//6
f 19//3 18//3 22//3
f 20//12 23//11 18//12
f 21//9 19//10 22//9
f 20//6 21//6 24//6
f 22//3 18//3 23//3
f 23//11 20//12 24//11
f 25//7 21//7 22//7
f 24//6 21//6 26//6
f 22//3 23//3 27//3
f 24//8 27//8 23//8
f 21//7 25//7 26//7
f 22//3 27//3 25//3
f 24//6 26//6 28//6
f 27//8 24//8 28//8
f 29//1 26//4 25//4
f 25//3 27//3 30//3
f 28//6 26//6 31//6
f 32//2 27//5 28//5
f 26//4 29//1 31//1
f 25//3 30//3 29//3
f 27//5 32//2 30//2
f 28//6 31//6 32//6
f 30//2 31//1 29//1
f 31//1 30//2 32//2
