# SSTK version 0.8.0
# 54
mtllib original-54.mtl
o Group36/mesh255/mesh255-geometry#mesh255-geometry
v -0.678407 -0.159625 -0.312672
v -0.657016 -0.147101 -0.312672
v -0.657016 -0.159625 -0.312672
v -0.678407 -0.147101 -0.312672
v -0.657016 0.730791 -0.312672
v -0.655679 -0.159625 -0.312314
v -0.679744 -0.159625 -0.312314
v -0.655679 0.730791 -0.312314
v -0.678407 0.730791 -0.312672
v -0.679744 0.730791 -0.312314
v -0.654700 -0.159625 -0.311335
v -0.680723 0.730791 -0.311335
v -0.680723 -0.159625 -0.311335
v -0.654700 0.730791 -0.311335
v -0.657250 -0.159625 -0.310889
v -0.654342 -0.159625 -0.309998
v -0.679298 0.730791 -0.310889
v -0.681081 0.730791 -0.309998
v -0.656602 -0.159625 -0.310716
v -0.678172 -0.159625 -0.310889
v -0.654342 0.730791 -0.309998
v -0.656298 -0.159625 -0.310412
v -0.656124 0.730791 -0.310889
v -0.681081 -0.159625 -0.309998
v -0.678821 -0.159625 -0.310716
v -0.654342 -0.159625 -0.261868
v -0.656124 -0.159625 -0.309763
v -0.681081 0.730791 -0.261868
v -0.679125 -0.159625 -0.310412
v -0.654342 0.730791 -0.261868
v -0.656124 -0.159625 -0.262102
v -0.679298 0.730791 -0.260976
v -0.679298 -0.159625 -0.309763
v -0.681081 -0.159625 -0.261868
v -0.656124 0.730791 -0.260976
v -0.654700 -0.159625 -0.260531
v -0.656298 -0.159625 -0.261453
v -0.680723 0.730791 -0.260531
v -0.679298 -0.159625 -0.262102
v -0.654700 0.730791 -0.260531
v -0.656602 -0.159625 -0.261150
v -0.679125 -0.159625 -0.261453
v -0.680723 -0.159625 -0.260531
v -0.655679 0.730791 -0.259552
v -0.657250 -0.159625 -0.260976
v -0.678821 -0.159625 -0.261150
v -0.679744 -0.159625 -0.259552
v -0.679744 0.730791 -0.259552
v -0.655679 -0.159625 -0.259552
v -0.678172 -0.159625 -0.260976
v -0.657016 0.730791 -0.259194
v -0.678407 0.730791 -0.259194
v -0.678407 -0.159625 -0.259194
v -0.657016 -0.159625 -0.259194
v -0.678407 -0.147101 -0.259194
v -0.657016 -0.147101 -0.259194
vt 0.27 0
vt 0.03 0.140509
vt 0.03 0
vt 0.27 0.140509
vt 0.204975 9.99
vt 0.204975 0
vt 0.204975 0.140509
vt -0.675981 0.015
vt -0.68 0.27
vt -0.68 0.03
vt 0.100332 0
vt 0.084803 0.140509
vt 0.084803 0
vt 0.189446 9.99
vt -0.675981 0.285
vt 0.189446 0
vt 0.084803 9.99
vt 0.675981 0.285
vt 0.675981 0.015
vt 0.68 0.03
vt -0.665 0.004019
vt 0.488597 9.99
vt 0.473068 0
vt 0.488597 0
vt 0.100332 9.99
vt 0.68 0.27
vt 0.665 0.295981
vt -0.665 0.295981
vt 0.473068 9.99
vt -0.260936 0
vt -0.276465 9.99
vt -0.276465 0
vt 0.665 0.004019
vt -0.260936 9.99
vt -0.66 0.032633
vt 0.643381 9.99
vt 0.627852 0
vt 0.643381 0
vt 0.66 0.28
vt -0.565735 0
vt -0.550206 9.99
vt -0.565735 9.99
vt -0.658049 0.025353
vt -0.66 0.267367
vt 0.627852 9.99
vt -0.65 0
vt -0.654647 0.021951
vt 0.65 0.3
vt 0.66 0.02
vt -0.550206 0
vt -0.658049 0.274647
vt 0.65 0
vt 0.65 9.99
vt 0.11 0
vt -0.647367 0.02
vt 0.11 0.3
vt -0.654647 0.278049
vt -0.65 0.3
vt -0.11 9.99
vt -0.65 9.99
vt 0.11 9.99
vt -0.11 0
vt -0.112633 0.02
vt 0.1 0.28
vt -0.647367 0.28
vt 0.1 0.02
vt 0.106252 9.99
vt 0.090723 0
vt 0.106252 0
vt -0.105353 0.021951
vt 0.095 0.295981
vt -0.112633 0.28
vt -0.11 0.3
vt -0.183898 0
vt -0.168368 9.99
vt -0.183898 9.99
vt 0.095 0.004019
vt 0.090723 9.99
vt -0.095 0.004019
vt -0.101951 0.025353
vt -0.105353 0.278049
vt -0.168368 0
vt 0.048804 9.99
vt 0.064333 0
vt 0.064333 9.99
vt -0.1 0.032633
vt -0.101951 0.274647
vt -0.095 0.295981
vt 0.084019 0.285
vt 0.048804 0
vt 0.084019 0.015
vt -0.1 0.267367
vt -0.084019 0.285
vt -0.008272 9.99
vt 0.007257 0
vt 0.007257 9.99
vt -0.084019 0.015
vt 0.08 0.27
vt -0.281505 0
vt -0.297035 9.99
vt -0.297035 0
vt -0.008272 0
vt 0.08 0.03
vt -0.08 0.03
vt -0.281505 0.140509
vt -0.281505 9.99
vt -0.08 0.27
vt -0.008272 0.140509
vt -0.03 0
vt -0.27 0.140509
vt -0.27 0
vt -0.03 0.140509
vt -0.669291 0.029528
vt -0.669291 0.265748
vt -0.665335 0.014764
vt -0.665335 0.280512
vt -0.654528 0.003956
vt -0.654528 0.29132
vt -0.649606 0.032119
vt -0.647686 0.024954
vt -0.649606 0.263156
vt -0.644338 0.021605
vt -0.639764 0
vt -0.647686 0.270322
vt -0.637172 0.019685
vt -0.639764 0.295276
vt -0.644338 0.273671
vt -0.110859 0.019685
vt -0.108268 0
vt -0.637172 0.275591
vt -0.103694 0.021605
vt -0.110859 0.275591
vt -0.108268 0.295276
vt -0.100345 0.024954
vt -0.093504 0.003956
vt -0.103694 0.273671
vt -0.098425 0.032119
vt -0.100345 0.270322
vt -0.093504 0.29132
vt -0.098425 0.263156
vt -0.082696 0.280512
vt -0.082696 0.014764
vt -0.07874 0.029528
vt -0.07874 0.265748
vt 0.998056 -0.077297
vt -0.001941 17.556883
vt -0.001944 -0.077297
vt 0.998059 17.556882
vt -0.999998 17.552638
vt 0 -0.081542
vt 0.000002 17.552638
vt -1 -0.081542
vn 0 0 -1
vn 0 0 1
vn 0.25881895959357565 0 -0.965925849201117
vn -0.25881895959357565 0 0.965925849201117
vn 0 -1 0
vn -0.5000001748438414 0 -0.8660253028382762
vn -0.2588189595935752 0 -0.965925849201117
vn 0.2588189595935752 0 0.965925849201117
vn 0.5000001748438414 0 0.8660253028382762
vn 0.5000001748438418 0 -0.866025302838276
vn -0.5000001748438418 0 0.866025302838276
vn 0 1 0
vn 0.8660253028382762 0 -0.5000001748438414
vn -0.8660253028382762 0 0.5000001748438414
vn -0.866025302838276 0 -0.5000001748438418
vn 0.866025302838276 0 0.5000001748438418
vn 0.965925849201117 0 -0.2588189595935752
vn -0.965925849201117 0 0.2588189595935752
vn -0.965925849201117 0 -0.25881895959357565
vn 0.965925849201117 0 0.25881895959357565
vn 1 0 0
vn -1 0 0
usemtl material_0_0
f 1/1/1 2/2/1 3/3/1
f 2/2/1 1/1/1 4/4/1
f 3/3/2 2/2/2 1/1/2
f 4/4/2 1/1/2 2/2/2
f 5/5/3 3/6/3 2/7/3
f 2/7/4 3/6/4 5/5/4
f 6/8/5 1/9/5 3/10/5
f 7/11/6 4/12/7 1/13/7
f 1/13/8 4/12/8 7/11/9
f 8/14/10 3/6/3 5/5/3
f 5/5/4 3/6/4 8/14/11
f 6/8/5 7/15/5 1/9/5
f 3/6/3 8/14/10 6/16/10
f 6/16/11 8/14/11 3/6/4
f 4/12/7 7/11/6 9/17/7
f 9/17/8 7/11/9 4/12/8
f 10/18/12 8/19/12 5/20/12
f 11/21/5 7/15/5 6/8/5
f 8/22/10 11/23/13 6/24/10
f 6/24/11 11/23/14 8/22/11
f 9/17/7 7/11/6 10/25/6
f 10/25/9 7/11/9 9/17/8
f 10/18/12 5/20/12 9/26/12
f 12/27/12 8/19/12 10/18/12
f 11/21/5 13/28/5 7/15/5
f 11/23/13 8/22/10 14/29/13
f 14/29/14 8/22/11 11/23/14
f 13/30/15 10/31/6 7/32/6
f 7/32/9 10/31/9 13/30/16
f 12/27/12 14/33/12 8/19/12
f 10/31/6 13/30/15 12/34/15
f 12/34/16 13/30/16 10/31/9
f 11/21/5 15/35/5 13/28/5
f 14/36/13 16/37/17 11/38/13
f 11/38/14 16/37/18 14/36/14
f 12/27/12 17/39/12 14/33/12
f 13/40/15 18/41/19 12/42/15
f 12/42/16 18/41/20 13/40/16
f 11/21/5 19/43/5 15/35/5
f 20/44/5 13/28/5 15/35/5
f 16/37/17 14/36/13 21/45/17
f 21/45/18 14/36/14 16/37/18
f 16/46/5 22/47/5 11/21/5
f 18/48/12 17/39/12 12/27/12
f 23/49/12 14/33/12 17/39/12
f 18/41/19 13/40/15 24/50/19
f 24/50/20 13/40/16 18/41/20
f 11/21/5 22/47/5 19/43/5
f 25/51/5 13/28/5 20/44/5
f 23/49/12 21/52/12 14/33/12
f 21/53/21 26/54/21 16/52/21
f 16/52/22 26/54/22 21/53/22
f 16/46/5 27/55/5 22/47/5
f 28/56/12 17/39/12 18/48/12
f 29/57/5 24/58/5 13/28/5
f 24/46/22 28/59/22 18/60/22
f 18/60/21 28/59/21 24/46/21
f 29/57/5 13/28/5 25/51/5
f 23/49/12 30/54/12 21/52/12
f 26/54/21 21/53/21 30/61/21
f 30/61/22 21/53/22 26/54/22
f 26/62/5 31/63/5 16/46/5
f 16/46/5 31/63/5 27/55/5
f 28/56/12 32/64/12 17/39/12
f 33/65/5 24/58/5 29/57/5
f 28/59/22 24/46/22 34/62/22
f 34/62/21 24/46/21 28/59/21
f 35/66/12 30/54/12 23/49/12
f 30/67/20 36/68/16 26/69/20
f 26/69/19 36/68/15 30/67/19
f 26/62/5 37/70/5 31/63/5
f 38/71/12 32/64/12 28/56/12
f 39/72/5 24/58/5 33/65/5
f 39/72/5 34/73/5 24/58/5
f 34/74/18 38/75/14 28/76/18
f 28/76/17 38/75/13 34/74/17
f 35/66/12 40/77/12 30/54/12
f 36/68/16 30/67/20 40/78/16
f 40/78/15 30/67/19 36/68/15
f 36/79/5 41/80/5 26/62/5
f 26/62/5 41/80/5 37/70/5
f 32/64/12 38/71/12 35/66/12
f 42/81/5 34/73/5 39/72/5
f 38/75/14 34/74/18 43/82/14
f 43/82/13 34/74/17 38/75/13
f 38/71/12 40/77/12 35/66/12
f 44/83/9 36/84/16 40/85/16
f 40/85/15 36/84/15 44/83/6
f 41/80/5 36/79/5 45/86/5
f 46/87/5 34/73/5 42/81/5
f 46/87/5 43/88/5 34/73/5
f 47/30/11 38/31/14 43/32/14
f 43/32/13 38/31/13 47/30/10
f 48/89/12 40/77/12 38/71/12
f 36/84/16 44/83/9 49/90/9
f 49/90/6 44/83/6 36/84/15
f 48/89/12 44/91/12 40/77/12
f 45/86/5 36/79/5 50/92/5
f 50/92/5 43/88/5 46/87/5
f 38/31/14 47/30/11 48/34/11
f 48/34/10 47/30/10 38/31/13
f 36/79/5 47/93/5 43/88/5
f 51/94/8 49/95/9 44/96/9
f 44/96/6 49/95/6 51/94/7
f 49/97/5 47/93/5 36/79/5
f 52/98/12 44/91/12 48/89/12
f 36/79/5 43/88/5 50/92/5
f 53/99/4 48/100/11 47/101/11
f 47/101/10 48/100/10 53/99/3
f 49/95/9 51/94/8 54/102/8
f 54/102/7 51/94/7 49/95/6
f 44/91/12 52/98/12 51/103/12
f 54/104/5 47/93/5 49/97/5
f 48/100/11 55/105/4 52/106/4
f 52/106/3 55/105/3 48/100/10
f 55/105/4 48/100/11 53/99/4
f 53/99/3 48/100/10 55/105/3
f 47/93/5 54/104/5 53/107/5
f 54/102/8 51/94/8 56/108/8
f 56/108/7 51/94/7 54/102/7
f 54/109/2 55/110/2 53/111/2
f 53/111/1 55/110/1 54/109/1
f 55/110/2 54/109/2 56/112/2
f 56/112/1 54/109/1 55/110/1
usemtl material_1_0
f 3/113/12 1/114/12 6/115/12
f 1/114/12 7/116/12 6/115/12
f 6/115/12 7/116/12 11/117/12
f 7/116/12 13/118/12 11/117/12
f 13/118/12 15/119/12 11/117/12
f 15/119/12 19/120/12 11/117/12
f 15/119/12 13/118/12 20/121/12
f 11/117/12 22/122/12 16/123/12
f 19/120/12 22/122/12 11/117/12
f 20/121/12 13/118/12 25/124/12
f 22/122/12 27/125/12 16/123/12
f 13/118/12 24/126/12 29/127/12
f 25/124/12 13/118/12 29/127/12
f 16/123/12 31/128/12 26/129/12
f 27/125/12 31/128/12 16/123/12
f 29/127/12 24/126/12 33/130/12
f 31/128/12 37/131/12 26/129/12
f 33/130/12 24/126/12 39/132/12
f 24/126/12 34/133/12 39/132/12
f 26/129/12 41/134/12 36/135/12
f 37/131/12 41/134/12 26/129/12
f 39/132/12 34/133/12 42/136/12
f 45/137/12 36/135/12 41/134/12
f 42/136/12 34/133/12 46/138/12
f 34/133/12 43/139/12 46/138/12
f 50/140/12 36/135/12 45/137/12
f 46/138/12 43/139/12 50/140/12
f 43/139/12 47/141/12 36/135/12
f 36/135/12 47/141/12 49/142/12
f 50/140/12 43/139/12 36/135/12
f 49/142/12 47/141/12 54/143/12
f 53/144/12 54/143/12 47/141/12
usemtl material_2_0
f 4/145/1 5/146/1 2/147/1
f 2/147/2 5/146/2 4/145/2
f 5/146/1 4/145/1 9/148/1
f 9/148/2 4/145/2 5/146/2
f 52/149/2 56/150/2 51/151/2
f 51/151/1 56/150/1 52/149/1
f 56/150/2 52/149/2 55/152/2
f 55/152/1 52/149/1 56/150/1
usemtl material_3_0
f 5//5 8//5 10//5
f 9//5 5//5 10//5
f 10//5 8//5 12//5
f 8//5 14//5 12//5
f 14//5 17//5 12//5
f 12//5 17//5 18//5
f 17//5 14//5 23//5
f 14//5 21//5 23//5
f 18//5 17//5 28//5
f 21//5 30//5 23//5
f 17//5 32//5 28//5
f 23//5 30//5 35//5
f 28//5 32//5 38//5
f 30//5 40//5 35//5
f 35//5 38//5 32//5
f 35//5 40//5 38//5
f 38//5 40//5 48//5
f 40//5 44//5 48//5
f 48//5 44//5 52//5
f 51//5 52//5 44//5
