# SSTK version 0.8.0
# 3
mtllib original-3.mtl
o mesh2/mesh2-geometry#mesh2-geometry
v 0.562722 0.220250 -0.257567
v 0.559826 0.221142 -0.257567
v 0.551135 0.220250 -0.257567
v 0.560929 0.221598 -0.257567
v 0.551135 0.221587 -0.257567
v 0.548461 0.220250 -0.257567
v 0.562722 0.224707 -0.257567
v 0.559826 0.221142 -0.258904
v 0.558723 0.221598 -0.257567
v 0.551135 0.221587 -0.258904
v 0.548461 0.217576 -0.257567
v 0.548461 0.220250 -0.258904
v 0.562722 0.220250 -0.258904
v 0.561385 0.222701 -0.257567
v 0.560929 0.221598 -0.258904
v 0.558723 0.221598 -0.258904
v 0.550021 0.221587 -0.257567
v 0.551135 0.220250 -0.258904
v 0.560048 0.217576 -0.257567
v 0.562722 0.224707 -0.258904
v 0.560048 0.217576 -0.258904
v 0.560929 0.223804 -0.257567
v 0.558266 0.222701 -0.257567
v 0.550021 0.239413 -0.257567
v 0.549977 0.221587 -0.258904
v 0.548461 0.217576 -0.258904
v 0.560048 0.227381 -0.258904
v 0.559826 0.224261 -0.257567
v 0.560929 0.223804 -0.258904
v 0.561385 0.222701 -0.258904
v 0.549977 0.239413 -0.258904
v 0.558266 0.222701 -0.258904
v 0.549353 0.221587 -0.257746
v 0.560048 0.227381 -0.257567
v 0.557375 0.227381 -0.258904
v 0.557375 0.227381 -0.257567
v 0.558723 0.223804 -0.258904
v 0.558723 0.223804 -0.257567
v 0.549353 0.239413 -0.257746
v 0.549977 0.221587 -0.269154
v 0.559826 0.224261 -0.258904
v 0.548863 0.239413 -0.258236
v 0.548863 0.221587 -0.258236
v 0.549977 0.239413 -0.269154
v 0.557375 0.235402 -0.257567
v 0.551135 0.239413 -0.258904
v 0.548684 0.221587 -0.269154
v 0.549977 0.222184 -0.271383
v 0.557375 0.235402 -0.258904
v 0.551135 0.239413 -0.257567
v 0.558712 0.235402 -0.258904
v 0.548684 0.239413 -0.258904
v 0.548684 0.239413 -0.269154
v 0.548684 0.221587 -0.258904
v 0.548684 0.222184 -0.271383
v 0.549977 0.238816 -0.271383
v 0.558712 0.243424 -0.257567
v 0.551135 0.240750 -0.258904
v 0.558712 0.243424 -0.258904
v 0.548684 0.238816 -0.271383
v 0.548684 0.223815 -0.273014
v 0.549977 0.223815 -0.273014
v 0.558712 0.235402 -0.257567
v 0.551135 0.240750 -0.257567
v 0.558712 0.243424 -0.262024
v 0.548684 0.237185 -0.273014
v 0.549977 0.237185 -0.273014
v 0.559380 0.243424 -0.257746
v 0.548461 0.240750 -0.257567
v 0.548461 0.243424 -0.258904
v 0.558712 0.235402 -0.262024
v 0.548684 0.226044 -0.273611
v 0.548684 0.234957 -0.273611
v 0.549977 0.226044 -0.273611
v 0.559380 0.235402 -0.257746
v 0.548461 0.243424 -0.257567
v 0.548461 0.240750 -0.258904
v 0.558712 0.230946 -0.262024
v 0.560048 0.243424 -0.262024
v 0.549977 0.234957 -0.273611
v 0.559869 0.235402 -0.258236
v 0.558712 0.231543 -0.264252
v 0.560048 0.235402 -0.262024
v 0.559869 0.243424 -0.258236
v 0.558712 0.242827 -0.264252
v 0.560048 0.230946 -0.262024
v 0.560048 0.243424 -0.258904
v 0.560048 0.242827 -0.264252
v 0.560048 0.235402 -0.258904
v 0.558712 0.241196 -0.265883
v 0.560048 0.231543 -0.264252
v 0.560048 0.241196 -0.265883
v 0.558712 0.233174 -0.265883
v 0.560048 0.233174 -0.265883
v 0.560048 0.238968 -0.266480
v 0.558712 0.238968 -0.266480
v 0.560048 0.235402 -0.266480
v 0.558712 0.235402 -0.266480
vt 13.64 0.69
vt 13.6075 0.7
vt 13.51 0.69
vt 13.619874 0.705126
vt 13.51 0.705
vt 13.48 0.69
vt 13.64 0.74
vt -0.001 12.852963
vt -0.016 12.839569
vt -0.001 12.839569
vt 13.595126 0.705126
vt -0.016 0.705
vt -0.001 0.69
vt -0.001 0.705
vt 13.48 0.66
vt 13.51 0.001
vt 13.48 0.016
vt 13.48 0.001
vt 0.016 0.69
vt 0.001 0.74
vt 0.001 0.69
vt 13.625 0.7175
vt -0.016 12.852963
vt 0.016 -12.290418
vt 0.001 -12.303812
vt 0.016 -12.303812
vt 0.001 -12.290418
vt 13.4975 0.705
vt -0.016 0.69
vt -13.4975 0.001
vt -13.51 0.016
vt -13.51 0.001
vt 13.61 0.66
vt -0.001 0.66
vt 13.51 0.016
vt 0.016 0.74
vt 0.001 10.13284
vt 0.016 10.090414
vt 0.016 10.13284
vt 13.619874 0.729874
vt -0.001 5.876945
vt -0.016 5.863551
vt -0.001 5.863551
vt -13.619874 0.705126
vt -13.64 0.69
vt -13.6075 0.7
vt -13.51 0.705
vt -13.595126 0.705126
vt 0.016 -4.551178
vt 0.001 -4.537784
vt 0.001 -4.551178
vt 13.4975 0.905
vt -13.51 0.69
vt -13.497 0.016
vt -13.48 0.001
vt -13.61 0.016
vt -13.61 0.001
vt 0.001 10.090414
vt -0.016 0.66
vt -13.48 0.69
vt -13.64 0.74
vt 0.016 -9.079251
vt 0.001 -9.121677
vt 0.016 -9.121677
vt -13.61 0.66
vt 13.6075 0.735
vt -0.016 -4.537784
vt -0.001 -4.551178
vt -0.001 -4.537784
vt -0.016 5.876945
vt -13.497 0.905
vt 0.016 -4.537784
vt 13.59 0.7175
vt 13.037325 0.905
vt 13.02956 0.705
vt 13.037325 0.705
vt -13.49 0.00301
vt -13.497 0.705
vt -13.48 0.016
vt -13.48 0.66
vt -13.625 0.7175
vt 0.001 -9.079251
vt -13.61 0.77
vt -13.58 0.77
vt 13.58 0.77
vt -0.001 -12.290418
vt -0.016 -12.303812
vt -0.001 -12.303812
vt -0.016 -4.551178
vt -13.59 0.7175
vt 0.016 5.876945
vt 0.001 5.863551
vt 0.016 5.863551
vt 13.595126 0.729874
vt 13.02956 0.905
vt -13.497 0.131
vt 0.131 0.705
vt 0.016 0.905
vt 0.016 0.705
vt -13.619874 0.729874
vt 13.58 0.016
vt 13.61 0.001
vt 13.61 0.016
vt 13.61 0.77
vt -13.6075 0.735
vt -0.016 -12.290418
vt -13.595126 0.729874
vt 0.001 5.876945
vt 13.4975 0.001
vt 13.497 0.016
vt 13.49 0.00301
vt 9.528978 0.905
vt 9.536742 0.705
vt 9.536742 0.905
vt -13.48451 0.0085
vt 0.131 0.905
vt 13.58 0.001
vt 0.001 12.839569
vt 0.016 12.852963
vt 0.001 12.852963
vt 0.016 12.839569
vt 13.58 0.86
vt 13.497 0.131
vt 9.528978 0.705
vt 13.48451 0.0085
vt -13.4825 0.131
vt 0.156 0.711699
vt 0.016 0.77
vt 0.001 0.86
vt 0.001 0.77
vt -13.58 0.86
vt 13.51 0.905
vt -13.595 0.86
vt -13.51 0.905
vt 3.474073 0.905
vt 3.481838 0.705
vt 3.481838 0.905
vt 13.4825 0.131
vt -13.4825 0.016
vt -13.4825 0.334886
vt -13.497 0.309004
vt -13.4825 0.309004
vt -13.497 0.334886
vt 0.156 0.898301
vt 0.016 0.86
vt 13.595 0.95
vt -0.001 0.905
vt -0.016 0.92
vt -0.016 0.905
vt -13.595 0.95
vt 3.474073 0.705
vt 13.4825 0.016
vt -13.497 0.107695
vt -13.4825 0.081813
vt -13.4825 0.107695
vt -0.131 0.905
vt -0.131 0.705
vt -0.156 0.898301
vt -0.156 0.711699
vt -13.4825 0.639438
vt -13.497 0.613556
vt -13.4825 0.613556
vt 0.174301 0.73
vt -13.497 0.081813
vt -13.595 0.016
vt -13.58 0.001
vt -13.58 0.016
vt 13.595 0.86
vt 13.51 0.92
vt -0.001 0.92
vt -13.51 0.92
vt -0.051 0.95
vt -0.016 0.86
vt -0.016 0.95
vt -0.174301 0.88
vt -13.497 0.639438
vt -0.174301 0.73
vt 0.174301 0.88
vt -13.497 0.499004
vt -13.4825 0.524886
vt -13.497 0.524886
vt -13.595 0.001
vt 13.13202 0.86
vt 13.139785 0.95
vt 13.13202 0.95
vt 13.48 0.92
vt -13.48 0.95
vt -0.051 0.86
vt 13.595 0.016
vt 13.6025 0.00301
vt 13.595 0.051
vt -13.4825 0.499004
vt -13.4825 0.77612
vt -13.497 0.750238
vt -13.4825 0.750238
vt -0.181 0.855
vt 0.181 0.755
vt -13.6025 0.00301
vt 13.139785 0.86
vt 13.595 0.001
vt 13.48 0.95
vt -13.48 0.92
vt -0.051 0.81
vt -13.595 0.051
vt 13.61 0.051
vt -13.497 0.77902
vt -13.4825 0.804902
vt -13.497 0.804902
vt -13.497 0.77612
vt -0.181 0.755
vt -13.4825 0.77902
vt 0.181 0.855
vt 9.628313 0.86
vt 9.620548 0.95
vt 9.620548 0.86
vt -0.001 0.95
vt -0.076 0.816699
vt 13.595 0.81
vt 13.61 0.86
vt -13.61 0.051
vt 13.60799 0.0085
vt -13.61 0.196616
vt -13.595 0.170734
vt -13.595 0.196616
vt -13.4825 0.855
vt -13.497 0.755
vt -13.4825 0.755
vt -13.497 0.855
vt 9.628313 0.95
vt -13.60799 0.0085
vt -0.076 0.943301
vt -13.595 0.284788
vt -13.61 0.258906
vt -13.595 0.258906
vt 13.61 0.81
vt -13.61 0.170734
vt 3.537982 0.86
vt 3.530217 0.95
vt 3.530217 0.86
vt -0.094301 0.925
vt -13.61 0.284788
vt 0.076 0.816699
vt 0.051 0.86
vt 0.051 0.81
vt 3.537982 0.95
vt 0.016 0.95
vt 0.051 0.95
vt 0.076 0.943301
vt -13.61 0.587393
vt -13.595 0.613275
vt -13.61 0.613275
vt -13.595 0.587393
vt -0.094301 0.835
vt -13.595 0.657115
vt -13.61 0.631233
vt -13.595 0.631233
vt 0.094301 0.835
vt 0.094301 0.925
vt -13.61 0.843193
vt -13.595 0.869074
vt -13.61 0.869074
vt -0.101 0.9
vt -13.61 0.657115
vt 0.101 0.86
vt -13.595 0.843193
vt 0.101 0.9
vt -0.101 0.86
vt -13.595 0.856837
vt -13.61 0.830955
vt -13.595 0.830955
vt -13.61 0.856837
vt -13.61 0.9
vt -13.595 0.9
vt -13.61 0.86
vn 0 0 1
vn 0 0 -1
vn -0.38268289803626016 0.9238797538373538 0
vn 0.38268289803626016 -0.9238797538373538 0
vn -1 0 0
vn 1 0 0
vn 0 1 0
vn 0 -1 0
vn 0.38268289803626016 0.9238797538373538 0
vn -0.38268289803626016 -0.9238797538373538 0
vn -0.13052598533534113 0 0.9914448886106773
vn 0.13052598533534113 0 -0.9914448886106773
vn 0.7071067811865475 -0.7071067811865475 0
vn -0.7071067811865475 0.7071067811865475 0
vn -0.9238797538373538 0.38268289803626016 0
vn 0.9238797538373538 -0.38268289803626016 0
vn 0.9238797538373538 0.38268289803626016 0
vn -0.9238797538373538 -0.38268289803626016 0
vn 0.7071067811865475 0.7071067811865475 0
vn -0.7071067811865475 -0.7071067811865475 0
vn -0.2588189595935754 0 0.965925849201117
vn 0.2588189595935754 0 -0.965925849201117
vn 0 -0.9914448886106773 -0.13052598533534135
vn 0 0.9914448886106773 0.13052598533534135
vn -0.7071067811865475 0 0.7071067811865475
vn 0.7071067811865475 0 -0.7071067811865475
vn 0 0.9914448886106773 -0.1305259853353409
vn 0 -0.9914448886106773 0.1305259853353409
vn -0.9914448886106773 0 0.13052598533534113
vn -0.965925849201117 0 0.2588189595935754
vn 0.965925849201117 0 -0.2588189595935754
vn 0.9914448886106773 0 -0.13052598533534113
vn 0 -0.965925849201117 -0.25881895959357565
vn 0 0.965925849201117 0.25881895959357565
vn 0.13052598533534113 0 0.9914448886106773
vn -0.13052598533534113 0 -0.9914448886106773
vn 0 0.965925849201117 -0.2588189595935752
vn 0 -0.965925849201117 0.2588189595935752
vn 0 -0.7071067811865474 -0.7071067811865477
vn 0 0.7071067811865474 0.7071067811865477
vn 0 0.7071067811865477 -0.7071067811865474
vn 0 -0.7071067811865477 0.7071067811865474
vn 0.2588189595935754 0 0.965925849201117
vn -0.2588189595935754 0 -0.965925849201117
vn 0 -0.1305259853353409 -0.9914448886106773
vn 0 -0.2588189595935752 -0.965925849201117
vn 0 0.2588189595935752 0.965925849201117
vn 0 0.1305259853353409 0.9914448886106773
vn 0 0.13052598533534135 -0.9914448886106773
vn 0 0.25881895959357565 -0.965925849201117
vn 0 -0.25881895959357565 0.965925849201117
vn 0 -0.13052598533534135 0.9914448886106773
vn 0.7071067811865475 0 0.7071067811865475
vn -0.7071067811865475 0 -0.7071067811865475
vn 0.9914448886106773 0 0.13052598533534113
vn 0.965925849201117 0 0.2588189595935754
vn -0.965925849201117 0 -0.2588189595935754
vn -0.9914448886106773 0 -0.13052598533534113
usemtl material_0_0
f 1/1/1 2/2/1 3/3/1
f 2/2/1 1/1/1 4/4/1
f 3/3/2 2/2/2 1/1/2
f 4/4/2 1/1/2 2/2/2
f 2/2/1 5/5/1 3/3/1
f 3/3/2 5/5/2 2/2/2
f 6/6/1 1/1/1 3/3/1
f 3/3/2 1/1/2 6/6/2
f 4/4/1 1/1/1 7/7/1
f 7/7/2 1/1/2 4/4/2
f 4/8/3 8/9/3 2/10/3
f 2/10/4 8/9/4 4/8/4
f 5/5/1 2/2/1 9/11/1
f 9/11/2 2/2/2 5/5/2
f 10/12/5 3/13/5 5/14/5
f 5/14/6 3/13/6 10/12/6
f 11/15/1 1/1/1 6/6/1
f 6/6/2 1/1/2 11/15/2
f 3/16/7 12/17/7 6/18/7
f 6/18/8 12/17/8 3/16/8
f 13/19/6 7/20/6 1/21/6
f 1/21/5 7/20/5 13/19/5
f 4/4/1 7/7/1 14/22/1
f 14/22/2 7/7/2 4/4/2
f 8/9/3 4/8/3 15/23/3
f 15/23/4 4/8/4 8/9/4
f 16/24/9 2/25/9 8/26/9
f 8/26/10 2/25/10 16/24/10
f 2/25/9 16/24/9 9/27/9
f 9/27/10 16/24/10 2/25/10
f 5/5/1 9/11/1 17/28/11
f 17/28/12 9/11/2 5/5/2
f 3/13/5 10/12/5 18/29/5
f 18/29/6 10/12/6 3/13/6
f 17/30/8 10/31/8 5/32/8
f 5/32/7 10/31/7 17/30/7
f 1/1/1 11/15/1 19/33/1
f 19/33/2 11/15/2 1/1/2
f 12/29/5 11/34/5 6/13/5
f 6/13/6 11/34/6 12/29/6
f 12/17/7 3/16/7 18/35/7
f 18/35/8 3/16/8 12/17/8
f 7/20/6 13/19/6 20/36/6
f 20/36/5 13/19/5 7/20/5
f 1/37/13 21/38/13 13/39/13
f 13/39/14 21/38/14 1/37/14
f 14/22/1 7/7/1 22/40/1
f 22/40/2 7/7/2 14/22/2
f 14/41/15 15/42/15 4/43/15
f 4/43/16 15/42/16 14/41/16
f 15/44/2 13/45/2 8/46/2
f 8/46/1 13/45/1 15/44/1
f 8/46/2 10/47/2 16/48/2
f 16/48/1 10/47/1 8/46/1
f 16/49/17 23/50/17 9/51/17
f 9/51/18 23/50/18 16/49/18
f 17/28/11 9/11/1 24/52/11
f 24/52/12 9/11/2 17/28/12
f 13/45/2 18/53/2 10/47/2
f 10/47/1 18/53/1 13/45/1
f 17/30/8 25/54/8 10/31/8
f 10/31/7 25/54/7 17/30/7
f 11/55/8 21/56/8 19/57/8
f 19/57/7 21/56/7 11/55/7
f 21/38/13 1/37/13 19/58/13
f 19/58/14 1/37/14 21/38/14
f 11/34/5 12/29/5 26/59/5
f 26/59/6 12/29/6 11/34/6
f 13/45/2 12/60/2 18/53/2
f 18/53/1 12/60/1 13/45/1
f 13/45/2 15/44/2 20/61/2
f 20/61/1 15/44/1 13/45/1
f 27/62/19 7/63/19 20/64/19
f 20/64/20 7/63/20 27/62/20
f 21/65/2 12/60/2 13/45/2
f 13/45/1 12/60/1 21/65/1
f 22/40/1 7/7/1 28/66/1
f 28/66/2 7/7/2 22/40/2
f 29/67/18 14/68/18 22/69/18
f 22/69/17 14/68/17 29/67/17
f 15/42/15 14/41/15 30/70/15
f 30/70/16 14/41/16 15/42/16
f 13/45/2 10/47/2 8/46/2
f 8/46/1 10/47/1 13/45/1
f 10/47/2 31/71/2 16/48/2
f 16/48/1 31/71/1 10/47/1
f 23/50/17 16/49/17 32/72/17
f 32/72/18 16/49/18 23/50/18
f 24/52/11 9/11/1 23/73/1
f 23/73/2 9/11/2 24/52/12
f 24/74/11 33/75/21 17/76/11
f 17/76/12 33/75/22 24/74/12
f 25/54/8 17/30/8 33/77/8
f 33/77/7 17/30/7 25/54/7
f 31/71/2 10/47/2 25/78/2
f 25/78/1 10/47/1 31/71/1
f 21/56/8 11/55/8 26/79/8
f 26/79/7 11/55/7 21/56/7
f 12/60/2 21/65/2 26/80/2
f 26/80/1 21/65/1 12/60/1
f 20/61/2 15/44/2 30/81/2
f 30/81/1 15/44/1 20/61/1
f 7/63/19 27/62/19 34/82/19
f 34/82/20 27/62/20 7/63/20
f 27/83/2 20/61/2 35/84/2
f 35/84/1 20/61/1 27/83/1
f 36/85/1 28/66/1 7/7/1
f 7/7/2 28/66/2 36/85/2
f 28/86/10 29/87/10 22/88/10
f 22/88/9 29/87/9 28/86/9
f 14/68/18 29/67/18 30/89/18
f 30/89/17 29/67/17 14/68/17
f 16/48/2 31/71/2 32/90/2
f 32/90/1 31/71/1 16/48/1
f 37/91/16 23/92/16 32/93/16
f 32/93/15 23/92/15 37/91/15
f 24/52/11 23/73/1 38/94/1
f 38/94/2 23/73/2 24/52/12
f 33/75/21 24/74/11 39/95/21
f 39/95/22 24/74/12 33/75/22
f 33/77/8 40/96/23 25/54/8
f 25/54/7 40/96/24 33/77/7
f 40/97/6 31/98/6 25/99/6
f 25/99/5 31/98/5 40/97/5
f 20/61/2 30/81/2 29/100/2
f 29/100/1 30/81/1 20/61/1
f 35/101/7 34/102/7 27/103/7
f 27/103/8 34/102/8 35/101/8
f 36/85/1 7/7/1 34/104/1
f 34/104/2 7/7/2 36/85/2
f 41/105/2 35/84/2 20/61/2
f 20/61/1 35/84/1 41/105/1
f 36/85/1 38/94/1 28/66/1
f 28/66/2 38/94/2 36/85/2
f 29/87/10 28/86/10 41/106/10
f 41/106/9 28/86/9 29/87/9
f 32/90/2 31/71/2 37/107/2
f 37/107/1 31/71/1 32/90/1
f 23/92/16 37/91/16 38/108/16
f 38/108/15 37/91/15 23/92/15
f 24/52/11 38/94/1 36/85/1
f 36/85/2 38/94/2 24/52/12
f 24/109/7 31/110/7 39/111/7
f 39/111/8 31/110/8 24/109/8
f 42/112/25 33/113/25 39/114/25
f 39/114/26 33/113/26 42/112/26
f 43/115/8 40/96/23 33/77/8
f 33/77/7 40/96/24 43/115/7
f 31/98/6 40/97/6 44/116/6
f 44/116/5 40/97/5 31/98/5
f 20/61/2 29/100/2 41/105/2
f 41/105/1 29/100/1 20/61/1
f 34/102/7 35/101/7 36/117/7
f 36/117/8 35/101/8 34/102/8
f 37/107/2 35/84/2 41/105/2
f 41/105/1 35/84/1 37/107/1
f 38/118/4 41/119/4 28/120/4
f 28/120/3 41/119/3 38/118/3
f 37/107/2 31/71/2 35/84/2
f 35/84/1 31/71/1 37/107/1
f 41/119/4 38/118/4 37/121/4
f 37/121/3 38/118/3 41/119/3
f 24/52/11 36/85/1 45/122/1
f 45/122/2 36/85/2 24/52/12
f 31/110/7 24/109/7 46/35/7
f 46/35/8 24/109/8 31/110/8
f 44/123/27 39/111/7 31/110/7
f 31/110/8 39/111/8 44/123/28
f 33/113/25 42/112/25 43/124/25
f 43/124/26 42/112/26 33/113/26
f 44/123/27 42/125/7 39/111/7
f 39/111/8 42/125/8 44/123/28
f 43/115/8 47/126/23 40/96/23
f 40/96/24 47/126/24 43/115/7
f 44/116/6 40/97/6 48/127/6
f 48/127/5 40/97/5 44/116/5
f 35/128/6 45/129/6 36/130/6
f 36/130/5 45/129/5 35/128/5
f 35/84/2 31/71/2 49/131/2
f 49/131/1 31/71/1 35/84/1
f 24/52/11 45/122/1 50/132/1
f 50/132/2 45/122/2 24/52/12
f 46/35/7 24/109/7 50/16/7
f 50/16/8 24/109/8 46/35/8
f 51/133/2 31/71/2 46/134/2
f 46/134/1 31/71/1 51/133/1
f 52/135/29 43/136/30 42/137/30
f 42/137/31 43/136/31 52/135/32
f 53/138/27 42/125/7 44/123/27
f 44/123/28 42/125/8 53/138/28
f 47/126/23 43/115/8 54/139/8
f 54/139/7 43/115/7 47/126/24
f 55/140/33 40/141/23 47/142/23
f 47/142/24 40/141/24 55/140/34
f 40/141/23 55/140/33 48/143/33
f 48/143/34 55/140/34 40/141/24
f 44/116/6 48/127/6 56/144/6
f 56/144/5 48/127/5 44/116/5
f 45/129/6 35/128/6 49/145/6
f 49/145/5 35/128/5 45/129/5
f 49/131/2 31/71/2 51/133/2
f 51/133/1 31/71/1 49/131/1
f 45/122/1 57/146/35 50/132/1
f 50/132/2 57/146/36 45/122/2
f 50/147/5 58/148/5 46/149/5
f 46/149/6 58/148/6 50/147/6
f 51/133/2 46/134/2 59/150/2
f 59/150/1 46/134/1 51/133/1
f 43/136/30 52/135/29 54/151/29
f 54/151/32 52/135/32 43/136/31
f 42/125/7 53/138/27 52/152/7
f 52/152/8 53/138/28 42/125/8
f 44/153/27 60/154/37 53/155/27
f 53/155/28 60/154/38 44/153/28
f 54/12/29 53/156/5 47/157/5
f 47/157/6 53/156/6 54/12/32
f 47/157/5 60/158/5 55/159/5
f 55/159/6 60/158/6 47/157/6
f 61/160/39 48/161/39 55/162/39
f 55/162/40 48/161/40 61/160/40
f 56/144/6 48/127/6 62/163/6
f 62/163/5 48/127/5 56/144/5
f 60/154/37 44/153/27 56/164/37
f 56/164/38 44/153/28 60/154/38
f 51/165/8 45/166/8 49/167/8
f 49/167/7 45/166/7 51/165/7
f 57/146/35 45/122/1 63/168/35
f 63/168/36 45/122/2 57/146/36
f 50/132/1 57/146/35 64/169/1
f 64/169/2 57/146/36 50/132/2
f 58/148/5 50/147/5 64/170/5
f 64/170/6 50/147/6 58/148/6
f 59/150/2 46/134/2 58/171/2
f 58/171/1 46/134/1 59/150/1
f 65/172/5 51/173/5 59/174/5
f 59/174/6 51/173/6 65/172/6
f 53/156/5 54/12/29 52/149/29
f 52/149/32 54/12/32 53/156/6
f 47/157/5 53/156/5 60/158/5
f 60/158/6 53/156/6 47/157/6
f 55/159/5 60/158/5 66/175/5
f 66/175/6 60/158/6 55/159/6
f 48/161/39 61/160/39 62/176/39
f 62/176/40 61/160/40 48/161/40
f 55/159/5 66/175/5 61/177/5
f 61/177/6 66/175/6 55/159/6
f 56/144/6 62/163/6 67/178/6
f 67/178/5 62/163/5 56/144/5
f 67/179/41 60/180/41 56/181/41
f 56/181/42 60/180/42 67/179/42
f 45/166/8 51/165/8 63/182/8
f 63/182/7 51/165/7 45/166/7
f 63/183/35 68/184/43 57/185/35
f 57/185/36 68/184/44 63/183/36
f 64/169/1 57/146/35 69/186/1
f 69/186/2 57/146/36 64/169/2
f 69/55/8 58/31/8 64/32/8
f 64/32/7 58/31/7 69/55/7
f 59/150/2 58/171/2 70/187/2
f 70/187/1 58/171/1 59/150/1
f 51/173/5 65/172/5 71/188/5
f 71/188/6 65/172/6 51/173/6
f 59/189/7 68/190/7 65/191/27
f 65/191/28 68/190/8 59/189/8
f 60/180/41 67/179/41 66/192/41
f 66/192/42 67/179/42 60/180/42
f 72/193/45 62/194/46 61/195/46
f 61/195/47 62/194/47 72/193/48
f 61/177/5 66/175/5 73/196/5
f 73/196/6 66/175/6 61/177/6
f 67/178/6 62/163/6 74/197/6
f 74/197/5 62/163/5 67/178/5
f 63/182/8 51/165/8 75/198/8
f 75/198/7 51/165/7 63/182/7
f 68/184/43 63/183/35 75/199/43
f 75/199/44 63/183/36 68/184/44
f 59/189/7 57/200/7 68/190/7
f 68/190/8 57/200/8 59/189/8
f 69/186/1 57/146/35 76/201/1
f 76/201/2 57/146/36 69/186/2
f 58/31/8 69/55/8 77/79/8
f 77/79/7 69/55/7 58/31/7
f 70/187/2 58/171/2 77/202/2
f 77/202/1 58/171/1 70/187/1
f 70/17/7 57/200/7 59/189/7
f 59/189/8 57/200/8 70/17/8
f 71/188/5 65/172/5 78/203/5
f 78/203/6 65/172/6 71/188/6
f 75/198/8 51/165/8 71/204/8
f 71/204/7 51/165/7 75/198/7
f 65/191/27 68/190/7 79/205/27
f 79/205/28 68/190/8 65/191/28
f 80/206/49 66/207/50 67/208/50
f 67/208/51 66/207/51 80/206/52
f 62/194/46 72/193/45 74/209/45
f 74/209/48 72/193/48 62/194/47
f 61/177/5 73/196/5 72/210/5
f 72/210/6 73/196/6 61/177/6
f 66/207/50 80/206/49 73/211/49
f 73/211/52 80/206/52 66/207/51
f 67/178/6 74/197/6 80/212/6
f 80/212/5 74/197/5 67/178/5
f 81/213/53 68/214/53 75/215/53
f 75/215/54 68/214/54 81/213/54
f 57/200/7 70/17/7 76/18/7
f 76/18/8 70/17/8 57/200/8
f 70/174/5 69/170/5 76/216/5
f 76/216/6 69/170/6 70/174/6
f 69/170/5 70/174/5 77/148/5
f 77/148/6 70/174/6 69/170/6
f 78/203/5 65/172/5 82/217/5
f 82/217/6 65/172/6 78/203/6
f 78/218/1 83/219/1 71/168/1
f 71/168/2 83/219/2 78/218/2
f 75/198/8 71/204/8 83/220/8
f 83/220/7 71/204/7 75/198/7
f 79/205/27 68/190/7 84/221/7
f 84/221/8 68/190/8 79/205/28
f 79/222/27 85/223/37 65/224/27
f 65/224/28 85/223/38 79/222/28
f 73/225/49 74/226/45 72/227/45
f 72/227/48 74/226/48 73/225/52
f 74/226/45 73/225/49 80/228/49
f 80/228/52 73/225/52 74/226/48
f 68/214/53 81/213/53 84/229/53
f 84/229/54 81/213/54 68/214/54
f 75/198/8 83/220/8 81/230/8
f 81/230/7 83/220/7 75/198/7
f 82/217/5 65/172/5 85/231/5
f 85/231/6 65/172/6 82/217/6
f 82/232/33 86/233/33 78/234/33
f 78/234/34 86/233/34 82/232/34
f 83/219/1 78/218/1 86/235/1
f 86/235/2 78/218/2 83/219/2
f 79/205/27 84/221/7 87/103/7
f 87/103/8 84/221/8 79/205/28
f 85/223/37 79/222/27 88/236/37
f 88/236/38 79/222/28 85/223/38
f 89/237/55 84/238/56 81/239/56
f 81/239/57 84/238/57 89/237/58
f 81/230/8 83/220/8 89/56/8
f 89/56/7 83/220/7 81/230/7
f 82/217/5 85/231/5 90/240/5
f 90/240/6 85/231/6 82/217/6
f 86/233/33 82/232/33 91/241/33
f 91/241/34 82/232/34 86/233/34
f 91/242/6 83/243/6 86/244/6
f 86/244/5 83/243/5 91/242/5
f 84/238/56 89/237/55 87/245/55
f 87/245/58 89/237/58 84/238/57
f 87/246/55 83/243/6 79/247/6
f 79/247/5 83/243/5 87/246/58
f 79/247/6 91/242/6 88/248/6
f 88/248/5 91/242/5 79/247/5
f 92/249/41 85/250/41 88/251/41
f 88/251/42 85/250/42 92/249/42
f 83/243/6 87/246/55 89/145/55
f 89/145/58 87/246/58 83/243/5
f 85/250/41 92/249/41 90/252/41
f 90/252/42 92/249/42 85/250/42
f 82/217/5 90/240/5 93/253/5
f 93/253/6 90/240/6 82/217/6
f 93/254/39 91/255/39 82/256/39
f 82/256/40 91/255/40 93/254/40
f 83/243/6 91/242/6 79/247/6
f 79/247/5 91/242/5 83/243/5
f 88/248/6 91/242/6 94/257/6
f 94/257/5 91/242/5 88/248/5
f 88/248/6 94/257/6 92/258/6
f 92/258/5 94/257/5 88/248/5
f 95/259/49 90/260/50 92/261/50
f 92/261/51 90/260/51 95/259/52
f 93/253/5 90/240/5 96/262/5
f 96/262/6 90/240/6 93/253/6
f 91/255/39 93/254/39 94/263/39
f 94/263/40 93/254/40 91/255/40
f 92/258/6 94/257/6 97/264/6
f 97/264/5 94/257/5 92/258/5
f 90/260/50 95/259/49 96/265/49
f 96/265/52 95/259/52 90/260/51
f 92/258/6 97/264/6 95/266/6
f 95/266/5 97/264/5 92/258/5
f 93/253/5 96/262/5 98/267/5
f 98/267/6 96/262/6 93/253/6
f 98/268/45 94/269/46 93/270/46
f 93/270/47 94/269/47 98/268/48
f 94/269/46 98/268/45 97/271/45
f 97/271/48 98/268/48 94/269/47
f 95/272/49 98/133/45 96/273/49
f 96/273/52 98/133/48 95/272/52
f 98/133/45 95/272/49 97/274/45
f 97/274/48 95/272/52 98/133/48
