# SSTK version 0.8.0
# 74
mtllib original-74.mtl
o Group49/mesh300/mesh300-geometry#mesh300-geometry
v 0.472755 0.020095 -0.140275
v 0.470759 0.022270 -0.140275
v 0.473100 0.020917 -0.140275
v 0.470285 0.021316 -0.140275
v 0.470759 0.022270 0.332117
v 0.472755 0.020095 0.332117
v 0.468535 0.021649 -0.140275
v 0.473100 0.020917 0.332117
v 0.468535 0.021648 0.332117
v 0.470285 0.021316 0.332117
v 0.468064 0.020540 -0.140275
v 0.468535 0.045160 -0.140275
v 0.468064 0.020540 0.332117
v 0.468064 0.046268 -0.140275
v 0.468535 0.045160 0.332117
v 0.468064 0.046268 0.332117
v 0.467643 0.020839 -0.140275
v 0.470285 0.045492 -0.140275
v 0.470759 0.044538 0.332117
v 0.467643 0.045969 0.332117
v 0.467643 0.020839 0.332117
v 0.470759 0.044538 -0.140275
v 0.467643 0.045969 -0.140275
v 0.470285 0.045492 0.332117
v 0.472755 0.046713 -0.140275
v 0.473100 0.045891 0.332117
v 0.472755 0.046713 0.332117
v 0.473100 0.045891 -0.140275
vt 0.008721 0
vt 0.030764 0.024015
vt 0.004921 0.009079
vt 0.036004 0.013478
vt -0.038653 -5.216535
vt -0.008804 0
vt -0.038653 0
vt -0.006475 0
vt 0.003367 -5.216535
vt 0.003367 0
vt 0.007819 -5.216535
vt 0.038249 0
vt 0.007819 0
vt 0.055331 0.017153
vt -0.008804 -5.216535
vt -0.023169 0
vt -0.048676 -5.216535
vt -0.023169 -5.216535
vt -0.006475 -5.216535
vt 0.038249 -5.216535
vt 0.060528 0.004912
vt -0.048676 0
vt -0.030764 0.024015
vt -0.008721 0
vt -0.004921 0.009079
vt -0.036004 0.013478
vt -0.055331 0.017153
vt 0.029545 -5.216535
vt 0.055522 0
vt 0.029545 0
vt 0.055331 0.276781
vt -0.276781 0
vt -0.017153 -5.216535
vt -0.017153 0
vt -0.060528 0.004912
vt 0.055522 -5.216535
vt 0.060528 0.289022
vt -0.276781 -5.216535
vt -0.060528 0.289022
vt 0.052198 -5.216535
vt 0.057896 0
vt 0.052198 0
vt 0.036004 0.280455
vt 0.065174 0.00821
vt 0.127757 0
vt 0.10225 -5.216535
vt 0.127757 -5.216535
vt -0.055331 0.276781
vt -0.065174 0.285724
vt 0.057896 -5.216535
vt 0.030764 0.269919
vt -0.152455 -5.216535
vt -0.126477 0
vt -0.152455 0
vt 0.065174 0.285724
vt 0.10225 0
vt -0.030764 0.269919
vt -0.036004 0.280455
vt 0.117957 0
vt 0.112259 -5.216535
vt 0.117957 -5.216535
vt -0.065174 0.00821
vt 0.285724 -5.216535
vt 0.00821 0
vt 0.00821 -5.216535
vt 0.008721 0.293934
vt -0.126477 -5.216535
vt 0.285724 0
vt 0.112259 0
vt -0.108427 0
vt -0.138275 -5.216535
vt -0.108427 -5.216535
vt -0.008721 0.293934
vt 0.004921 0.284854
vt 0.091943 -5.216535
vt 0.122373 0
vt 0.091943 0
vt -0.138275 0
vt -0.004921 0.284854
vt 0.122373 -5.216535
vt -0.27451 0
vt -0.264668 -5.216535
vt -0.264668 0
vt -0.27451 -5.216535
vn 0 0 -1
vn 0 0 1
vn 0.12548900137121832 0.9920950108406222 0
vn 0.5003830717787059 0.865804124197446 0
vn -0.12548900137121832 -0.9920950108406222 0
vn -0.5003830717787059 -0.865804124197446 0
vn 0.9224628220730818 -0.38608592553078863 0
vn -0.9224628220730818 0.38608592553078863 0
vn -0.442930078390658 -0.8965561586743162 0
vn -0.06135998162097017 -0.998115701036445 0
vn 0.442930078390658 0.8965561586743162 0
vn 0.06135998162097017 0.998115701036445 0
vn 0.6045483437075948 0.7965684528779707 0
vn -0.6045483437075948 -0.7965684528779707 0
vn 0.3297769562699296 -0.9440588748130812 0
vn -0.3297769562699296 0.9440588748130812 0
vn 0.6045478621434552 -0.7965688183564416 0
vn -0.6045478621434552 0.7965688183564416 0
vn -0.5788880312040918 -0.8154070439532948 0
vn 0.5788880312040918 0.8154070439532948 0
vn 0.12548900137121832 -0.9920950108406222 0
vn -0.12548900137121832 0.9920950108406222 0
vn 0.3297769562699296 0.9440588748130812 0
vn -0.06135898538622423 0.9981157622802944 0
vn -0.3297769562699296 -0.9440588748130812 0
vn 0.06135898538622423 -0.9981157622802944 0
vn -0.5788880312040918 0.8154070439532948 0
vn 0.5788880312040918 -0.8154070439532948 0
vn -1 0 0
vn 1 0 0
vn 0.5003830717787059 -0.865804124197446 0
vn -0.5003830717787059 0.865804124197446 0
vn -0.442930078390658 0.8965561586743162 0
vn 0.442930078390658 -0.8965561586743162 0
vn 0.9224631782226707 0.3860850745928019 0
vn -0.9224631782226707 -0.3860850745928019 0
usemtl material_0_0
f 1/1/1 2/2/1 3/3/1
f 2/2/1 1/1/1 4/4/1
f 3/3/2 2/2/2 1/1/2
f 4/4/2 1/1/2 2/2/2
f 5/5/3 3/6/4 2/7/3
f 2/7/5 3/6/6 5/5/5
f 3/8/7 6/9/7 1/10/7
f 1/10/8 6/9/8 3/8/8
f 6/11/9 4/12/10 1/13/9
f 1/13/11 4/12/12 6/11/11
f 2/2/1 4/4/1 7/14/1
f 7/14/2 4/4/2 2/2/2
f 3/6/4 5/5/3 8/15/4
f 8/15/6 5/5/5 3/6/6
f 2/16/3 9/17/13 5/18/3
f 5/18/5 9/17/14 2/16/5
f 6/9/7 3/8/7 8/19/7
f 8/19/8 3/8/8 6/9/8
f 4/12/10 6/11/9 10/20/10
f 10/20/12 6/11/11 4/12/12
f 7/14/1 4/4/1 11/21/1
f 11/21/2 4/4/2 7/14/2
f 9/17/13 2/16/3 7/22/13
f 7/22/14 2/16/5 9/17/14
f 5/23/2 6/24/2 8/25/2
f 8/25/1 6/24/1 5/23/1
f 10/26/2 5/23/2 9/27/2
f 9/27/1 5/23/1 10/26/1
f 6/24/2 5/23/2 10/26/2
f 10/26/1 5/23/1 6/24/1
f 10/28/10 11/29/15 4/30/10
f 4/30/12 11/29/16 10/28/12
f 7/14/1 11/21/1 12/31/1
f 12/31/2 11/21/2 7/14/2
f 12/32/17 9/33/13 7/34/13
f 7/34/14 9/33/14 12/32/18
f 10/26/2 9/27/2 13/35/2
f 13/35/1 9/27/1 10/26/1
f 11/29/15 10/28/10 13/36/15
f 13/36/16 10/28/12 11/29/16
f 14/37/1 12/31/1 11/21/1
f 11/21/2 12/31/2 14/37/2
f 9/33/13 12/32/17 15/38/17
f 15/38/18 12/32/18 9/33/14
f 13/35/2 9/27/2 16/39/2
f 16/39/1 9/27/1 13/35/1
f 13/40/19 17/41/19 11/42/19
f 11/42/20 17/41/20 13/40/20
f 18/43/1 12/31/1 14/37/1
f 14/37/2 12/31/2 18/43/2
f 14/37/1 11/21/1 17/44/1
f 17/44/2 11/21/2 14/37/2
f 12/45/17 19/46/21 15/47/17
f 15/47/18 19/46/22 12/45/18
f 15/48/2 16/39/2 9/27/2
f 9/27/1 16/39/1 15/48/1
f 13/35/2 16/39/2 20/49/2
f 20/49/1 16/39/1 13/35/1
f 17/41/19 13/40/19 21/50/19
f 21/50/20 13/40/20 17/41/20
f 18/43/1 22/51/1 12/31/1
f 12/31/2 22/51/2 18/43/2
f 16/52/23 18/53/24 14/54/23
f 14/54/25 18/53/26 16/52/25
f 14/37/1 17/44/1 23/55/1
f 23/55/2 17/44/2 14/37/2
f 19/46/21 12/45/17 22/56/21
f 22/56/22 12/45/18 19/46/22
f 19/57/2 24/58/2 15/48/2
f 15/48/1 24/58/1 19/57/1
f 15/48/2 24/58/2 16/39/2
f 16/39/1 24/58/1 15/48/1
f 14/59/27 20/60/27 16/61/27
f 16/61/28 20/60/28 14/59/28
f 13/35/2 20/49/2 21/62/2
f 21/62/1 20/49/1 13/35/1
f 20/63/29 17/64/29 21/65/29
f 21/65/30 17/64/30 20/63/30
f 25/66/1 22/51/1 18/43/1
f 18/43/2 22/51/2 25/66/2
f 18/53/24 16/52/23 24/67/24
f 24/67/26 16/52/25 18/53/26
f 17/64/29 20/63/29 23/68/29
f 23/68/30 20/63/30 17/64/30
f 20/60/27 14/59/27 23/69/27
f 23/69/28 14/59/28 20/60/28
f 22/70/21 26/71/31 19/72/21
f 19/72/22 26/71/32 22/70/22
f 19/57/2 27/73/2 24/58/2
f 24/58/1 27/73/1 19/57/1
f 22/51/1 25/66/1 28/74/1
f 28/74/2 25/66/2 22/51/2
f 24/75/24 25/76/33 18/77/24
f 18/77/26 25/76/34 24/75/26
f 26/71/31 22/70/21 28/78/31
f 28/78/32 22/70/22 26/71/32
f 27/73/2 19/57/2 26/79/2
f 26/79/1 19/57/1 27/73/1
f 25/76/33 24/75/24 27/80/33
f 27/80/34 24/75/26 25/76/34
f 25/81/35 26/82/35 28/83/35
f 28/83/36 26/82/36 25/81/36
f 26/82/35 25/81/35 27/84/35
f 27/84/36 25/81/36 26/82/36
