# SSTK version 0.8.0
# 26
mtllib original-26.mtl
o Support_beam/mesh158/mesh158-geometry#mesh158-geometry
v 0.583610 -0.380589 0.006978
v -0.690959 -0.381926 0.006978
v 0.583610 -0.381926 0.006978
v -0.690959 -0.380589 0.006978
v 0.583610 -0.381926 -0.008174
v 0.583610 -0.380589 -0.008174
v -0.690959 -0.380589 -0.008174
v -0.690959 -0.381926 -0.008174
v -0.690959 -0.382105 -0.008842
v 0.583610 -0.381926 -0.009511
v -0.690959 -0.380947 -0.009511
v 0.583610 -0.382105 -0.008842
v 0.583610 -0.380947 -0.009511
v -0.690959 -0.382594 -0.009332
v 0.583610 -0.382594 -0.009332
v 0.583610 -0.404654 -0.009869
v -0.690959 -0.381926 -0.010490
v -0.690959 -0.383263 -0.009511
v 0.583610 -0.383263 -0.009511
v 0.583610 -0.381926 -0.010490
v 0.583610 -0.403317 -0.009511
v 0.583610 -0.405633 -0.010848
v 0.583610 -0.383263 -0.010848
v -0.690959 -0.403317 -0.009511
v -0.690959 -0.404654 -0.009869
v -0.690959 -0.383263 -0.010848
v -0.690959 -0.405633 -0.010848
v 0.583610 -0.404654 -0.010848
v 0.583610 -0.405991 -0.012185
v -0.690959 -0.404654 -0.010848
v -0.690959 -0.405991 -0.012185
v 0.583610 -0.404654 -0.057196
v -0.690959 -0.404654 -0.057196
v 0.583610 -0.405991 -0.055859
v -0.690959 -0.405991 -0.055859
v 0.583610 -0.405633 -0.057196
v 0.583610 -0.383263 -0.057196
v -0.690959 -0.405633 -0.057196
v 0.583610 -0.404654 -0.058175
v -0.690959 -0.383263 -0.057196
v -0.690959 -0.381926 -0.057554
v -0.690959 -0.404654 -0.058175
v 0.583610 -0.381926 -0.057554
v -0.690959 -0.403317 -0.058533
v 0.583610 -0.380947 -0.058533
v -0.690959 -0.380947 -0.058533
v 0.583610 -0.403317 -0.058533
v -0.690959 -0.383263 -0.058533
v 0.583610 -0.383263 -0.058533
v 0.583610 -0.380589 -0.059870
v -0.690959 -0.382594 -0.058712
v 0.583610 -0.381926 -0.058533
v -0.690959 -0.380589 -0.059870
v 0.583610 -0.381926 -0.059870
v 0.583610 -0.382594 -0.058712
v -0.690959 -0.380589 -0.075022
v 0.583610 -0.381926 -0.075022
v -0.690959 -0.382105 -0.059201
v 0.583610 -0.382105 -0.059201
v 0.583610 -0.380589 -0.075022
v -0.690959 -0.381926 -0.059870
v -0.690959 -0.381926 -0.075022
vt 14.3 0.285
vt 0 0.27
vt 14.3 0.27
vt 0 0.285
vt 0 0
vt -14.3 0.17
vt -14.3 0
vt 0.17 0.27
vt 14.3 0.17
vt 14.3 0
vt 0 0.17
vt 0.17 0.285
vt 0 -0.102091
vt 14.3 -0.094326
vt 0 -0.094326
vt 0.185 0.27
vt -14.3 -0.090444
vt 0 -0.105973
vt 0 -0.090444
vt 14.3 -0.102091
vt 0.185 0.280981
vt -14.3 -0.105973
vt 0 0.056222
vt 14.3 0.063986
vt 0 0.063986
vt 0.189019 0.015
vt -14.3 0.067869
vt 0 0.05234
vt 0 0.067869
vt 14.3 0.056222
vt 0.185 0.255
vt 0.195981 0.27
vt -14.3 0.05234
vt 0 0.19843
vt 14.3 0.206194
vt 0 0.206194
vt 14.3 0.19843
vt 0.185 0.03
vt 0.2 0.004019
vt -14.3 0.194547
vt 0 0.210076
vt -14.3 0.210076
vt 0 0.03
vt 14.3 0.255
vt 0 0.255
vt 14.3 0.03
vt 14.3 -0.018904
vt 0 -0.034433
vt 14.3 -0.034433
vt 0 -0.12305
vt 14.3 -0.138579
vt 14.3 -0.12305
vt 0.2 0.255
vt 0 0.194547
vt 0 -0.018904
vt 0 -0.138579
vt 0.2 0.015
vt -14.3 0.015
vt -14.3 0.255
vt 0 -0.192145
vt 14.3 -0.207674
vt 14.3 -0.192145
vt 0.215 0
vt 0 0.015
vt 0 -0.207674
vt 0.72 0.015
vt 14.3 0.2
vt 0 0.72
vt 0 0.2
vt 0 0.215
vt -14.3 0.705
vt -14.3 0.215
vt 0.705 0
vt 14.3 0.72
vt 0 0.705
vt 0.72 0.004019
vt 14.3 0.015
vt 0 0.696507
vt -14.3 0.680978
vt 0 0.680978
vt -14.3 0.696507
vt 0.730981 0.015
vt 0.72 0.255
vt 0 0.527488
vt -14.3 0.511959
vt 0 0.511959
vt -14.3 0.527488
vt 14.3 0.44819
vt 0 0.432661
vt 14.3 0.432661
vt 0.724019 0.27
vt 0 0.21921
vt -14.3 0.203681
vt 0 0.203681
vt 0 0.44819
vt 0.735 0.280981
vt -14.3 0.21921
vt 14.3 0.718407
vt 0 0.702878
vt 14.3 0.702878
vt 0.735 0.03
vt 0 0.718407
vt -14.3 0.03
vt 0.735 0.255
vt 14.3 0.798208
vt 0 0.782679
vt 14.3 0.782679
vt 0.735 0.27
vt 0 0.798208
vt 0.75 0.27
vt 0.75 0.285
vt 0 0.444308
vt -14.3 0.436543
vt 0 0.436543
vt 14.3 0.75
vt 0 0.92
vt 0 0.75
vt 0.92 0.27
vt -14.3 0.444308
vt 14.3 0.92
vt -14.3 0.75
vt -14.3 0.92
vt 0.92 0.285
vt 0 0.714525
vt -14.3 0.70676
vt 0 0.70676
vt -14.3 0.714525
vt 0 0.786561
vt -14.3 0.794326
vt -14.3 0.786561
vt -14.3 0.27
vt -14.3 0.285
vt 0 0.794326
vn 0 0 1
vn 0 -1 0
vn 0 -0.9914448886106773 0.1305259853353409
vn 1 0 0
vn 0 0.9914448886106773 -0.1305259853353409
vn 0 1 0
vn 0 -0.965925849201117 0.2588189595935752
vn 0 0.965925849201117 -0.2588189595935752
vn 0 -0.7071067811865477 0.7071067811865474
vn 0 0.7071067811865477 -0.7071067811865474
vn 0 -0.13052598533534135 0.9914448886106773
vn 0 -0.25881895959357565 0.965925849201117
vn 0 0.13052598533534135 -0.9914448886106773
vn 0 0.25881895959357565 -0.965925849201117
vn 0 0 -1
vn 0 -0.9914448886106773 -0.13052598533534135
vn 0 0.1305259853353409 0.9914448886106773
vn 0 -0.965925849201117 -0.25881895959357565
vn 0 -0.7071067811865474 -0.7071067811865477
vn 0 0.2588189595935752 0.965925849201117
vn 0 -0.1305259853353409 -0.9914448886106773
vn 0 -0.2588189595935752 -0.965925849201117
vn 0 0.7071067811865474 0.7071067811865477
vn 0 0.9914448886106773 0.13052598533534135
vn 0 0.965925849201117 0.25881895959357565
vn -1 0 0
usemtl material_0_0
f 1/1/1 2/2/1 3/3/1
f 2/2/1 1/1/1 4/4/1
f 2/5/2 5/6/3 3/7/2
f 5/8/4 1/4/4 3/2/4
f 6/9/5 4/5/6 1/10/6
f 5/6/3 2/5/2 8/11/3
f 1/4/4 5/8/4 6/12/4
f 4/5/6 6/9/5 7/11/5
f 9/13/7 5/14/3 8/15/3
f 6/12/4 5/8/4 10/16/4
f 6/17/5 11/18/8 7/19/5
f 5/14/3 9/13/7 12/20/7
f 6/12/4 10/16/4 13/21/4
f 11/18/8 6/17/5 13/22/8
f 14/23/9 12/24/9 9/25/9
f 10/16/4 16/26/4 13/21/4
f 13/27/10 17/28/10 11/29/10
f 12/24/9 14/23/9 15/30/9
f 19/31/4 16/26/4 10/16/4
f 13/21/4 16/26/4 20/32/4
f 17/28/10 13/27/10 20/33/10
f 18/34/11 15/35/12 14/36/12
f 15/35/12 18/34/11 19/37/11
f 16/26/4 19/31/4 21/38/4
f 20/32/4 16/26/4 22/39/4
f 23/40/13 17/41/14 20/42/14
f 24/43/11 19/44/11 18/45/11
f 19/44/11 24/43/11 21/46/11
f 21/47/11 25/48/12 16/49/12
f 25/50/9 22/51/9 16/52/9
f 20/32/4 22/39/4 23/53/4
f 17/41/14 23/40/13 26/54/13
f 25/48/12 21/47/11 24/55/11
f 22/51/9 25/50/9 27/56/9
f 23/53/4 22/39/4 28/57/4
f 28/58/15 26/45/13 23/59/13
f 27/60/7 29/61/3 22/62/7
f 29/63/4 28/57/4 22/39/4
f 26/45/13 28/58/15 30/64/15
f 29/61/3 27/60/7 31/65/3
f 28/57/4 29/63/4 32/66/4
f 28/67/6 33/68/6 30/69/6
f 31/70/3 34/71/16 29/72/3
f 32/66/4 29/63/4 34/73/4
f 33/68/6 28/67/6 32/74/6
f 34/71/16 31/70/3 35/75/16
f 32/66/4 34/73/4 36/76/4
f 37/44/17 33/64/1 32/77/1
f 38/78/18 34/79/16 35/80/16
f 34/79/16 38/78/18 36/81/18
f 32/66/4 36/76/4 39/82/4
f 33/64/1 37/44/17 40/45/17
f 32/66/4 39/82/4 37/83/4
f 42/84/19 36/85/19 38/86/19
f 36/85/19 42/84/19 39/87/19
f 43/88/20 40/89/17 37/90/17
f 37/83/4 39/82/4 43/91/4
f 44/92/21 39/93/22 42/94/22
f 40/89/17 43/88/20 41/95/20
f 43/91/4 39/82/4 45/96/4
f 39/93/22 44/92/21 47/97/21
f 45/98/23 41/99/23 43/100/23
f 45/96/4 39/82/4 47/101/4
f 41/99/23 45/98/23 46/102/23
f 48/45/21 47/103/21 44/43/21
f 45/96/4 47/101/4 49/104/4
f 50/105/24 46/106/25 45/107/25
f 47/103/21 48/45/21 49/59/21
f 45/96/4 49/104/4 52/108/4
f 46/106/25 50/105/24 53/109/24
f 45/96/4 54/110/4 50/111/4
f 51/112/22 49/113/21 48/114/21
f 45/96/4 52/108/4 54/110/4
f 50/115/24 56/116/6 53/117/24
f 50/111/4 54/110/4 57/118/4
f 49/113/21 51/112/22 55/119/22
f 56/116/6 50/115/24 60/120/6
f 54/121/16 62/116/2 57/122/2
f 50/111/4 57/118/4 60/123/4
f 58/124/19 55/125/19 51/126/19
f 55/125/19 58/124/19 59/127/19
f 58/128/18 54/129/16 59/130/18
f 57/131/15 56/4/15 60/132/15
f 62/116/2 54/121/16 61/117/16
f 56/4/15 57/131/15 62/2/15
f 54/129/16 58/128/18 61/133/16
usemtl material_1_0
f 3//15 2//15 1//15
f 4//15 1//15 2//15
f 3//6 5//5 2//6
f 3//26 1//26 5//26
f 1//2 4//2 6//3
f 7//26 2//26 4//26
f 4//4 2//4 7//4
f 8//5 2//6 5//5
f 6//26 5//26 1//26
f 7//3 6//3 4//2
f 2//26 7//26 8//26
f 8//4 7//4 2//4
f 8//5 5//5 9//8
f 10//26 5//26 6//26
f 7//3 11//7 6//3
f 8//26 7//26 11//26
f 11//4 7//4 8//4
f 12//8 9//8 5//5
f 8//26 11//26 9//26
f 9//4 11//4 8//4
f 12//4 10//4 5//4
f 5//26 10//26 12//26
f 13//26 10//26 6//26
f 13//7 6//3 11//7
f 9//10 12//10 14//10
f 9//26 11//26 14//26
f 14//4 11//4 9//4
f 10//4 12//4 15//4
f 15//26 12//26 10//26
f 13//26 16//26 10//26
f 11//9 17//9 13//9
f 15//10 14//10 12//10
f 14//26 11//26 18//26
f 18//4 11//4 14//4
f 10//4 15//4 19//4
f 19//26 15//26 10//26
f 10//26 16//26 19//26
f 20//26 16//26 13//26
f 20//9 13//9 17//9
f 18//26 11//26 17//26
f 17//4 11//4 18//4
f 14//14 15//14 18//13
f 19//13 18//13 15//14
f 21//26 19//26 16//26
f 22//26 16//26 20//26
f 20//12 17//12 23//11
f 18//26 17//26 24//26
f 24//4 17//4 18//4
f 18//13 19//13 24//13
f 21//13 24//13 19//13
f 16//14 25//14 21//13
f 16//10 22//10 25//10
f 23//26 22//26 20//26
f 26//11 23//11 17//12
f 24//26 17//26 25//26
f 25//4 17//4 24//4
f 24//13 21//13 25//14
f 27//10 25//10 22//10
f 28//26 22//26 23//26
f 23//11 26//11 28//1
f 27//26 17//26 26//26
f 26//4 17//4 27//4
f 25//26 17//26 27//26
f 27//4 17//4 25//4
f 22//8 29//5 27//8
f 22//26 28//26 29//26
f 30//1 28//1 26//11
f 27//26 26//26 30//26
f 30//4 26//4 27//4
f 31//5 27//8 29//5
f 32//26 29//26 28//26
f 30//2 33//2 28//2
f 27//26 30//26 33//26
f 33//4 30//4 27//4
f 27//26 33//26 31//26
f 31//4 33//4 27//4
f 29//5 34//24 31//5
f 34//26 29//26 32//26
f 32//2 28//2 33//2
f 31//26 33//26 35//26
f 35//4 33//4 31//4
f 35//24 31//5 34//24
f 36//26 34//26 32//26
f 32//15 33//15 37//21
f 35//26 33//26 38//26
f 38//4 33//4 35//4
f 35//24 34//24 38//25
f 36//25 38//25 34//24
f 39//26 36//26 32//26
f 40//21 37//21 33//15
f 37//26 39//26 32//26
f 33//26 41//26 38//26
f 38//4 41//4 33//4
f 38//23 36//23 42//23
f 39//23 42//23 36//23
f 37//21 40//21 43//22
f 41//26 33//26 40//26
f 40//4 33//4 41//4
f 43//26 39//26 37//26
f 38//26 41//26 42//26
f 42//4 41//4 38//4
f 42//20 39//20 44//17
f 41//22 43//22 40//21
f 45//26 39//26 43//26
f 42//26 41//26 46//26
f 46//4 41//4 42//4
f 47//17 44//17 39//20
f 42//26 46//26 44//26
f 44//4 46//4 42//4
f 43//19 41//19 45//19
f 47//26 39//26 45//26
f 46//19 45//19 41//19
f 44//17 47//17 48//17
f 44//26 46//26 48//26
f 48//4 46//4 44//4
f 49//26 47//26 45//26
f 45//18 46//18 50//16
f 49//17 48//17 47//17
f 46//26 51//26 48//26
f 48//4 51//4 46//4
f 52//26 49//26 45//26
f 53//16 50//16 46//18
f 50//26 54//26 45//26
f 48//17 49//17 51//20
f 51//26 46//26 53//26
f 53//4 46//4 51//4
f 55//4 52//4 49//4
f 49//26 52//26 55//26
f 54//26 52//26 45//26
f 53//16 56//2 50//16
f 57//26 54//26 50//26
f 55//20 51//20 49//17
f 51//26 53//26 58//26
f 58//4 53//4 51//4
f 52//4 55//4 59//4
f 59//26 55//26 52//26
f 52//4 59//4 54//4
f 54//26 59//26 52//26
f 60//2 50//16 56//2
f 61//26 53//26 56//26
f 56//4 53//4 61//4
f 57//6 62//6 54//24
f 60//26 57//26 50//26
f 51//23 55//23 58//23
f 58//26 53//26 61//26
f 61//4 53//4 58//4
f 59//23 58//23 55//23
f 59//25 54//24 58//25
f 60//1 56//1 57//1
f 61//26 56//26 62//26
f 62//4 56//4 61//4
f 61//24 54//24 62//6
f 62//1 57//1 56//1
f 61//24 58//25 54//24
