# SSTK version 0.8.0
# 57
mtllib original-57.mtl
o Group38/mesh262/mesh262-geometry#mesh262-geometry
v -0.656570 -0.152940 -0.257768
v -0.656570 -0.152940 -0.252420
v -0.678853 -0.152940 -0.257768
v -0.656570 -0.130657 -0.257768
v -0.678853 -0.152940 -0.252420
v -0.678853 -0.130657 -0.257768
v -0.656570 -0.130657 -0.252420
v -0.678853 -0.130657 -0.252420
vt 0 0
vt -0.059055 0
vt 0 0.246063
vt 0.059055 0
vt -0.059055 0.246063
vt -0.246063 0
vt -0.246063 0.246063
vt 0.059055 0.246063
vt 0.246063 0
vt 0.246063 0.246063
vn 0 -1 0
vn 0 1 0
vn 1 0 0
vn -1 0 0
vn 0 0 -1
vn 0 0 1
usemtl material_0_0
f 1/1/1 2/2/1 3/3/1
f 3/3/2 2/2/2 1/1/2
f 1/1/3 4/3/3 2/4/3
f 2/4/4 4/3/4 1/1/4
f 5/5/1 3/3/1 2/2/1
f 2/2/2 3/3/2 5/5/2
f 3/6/5 6/7/5 1/1/5
f 1/1/6 6/7/6 3/6/6
f 4/3/5 1/1/5 6/7/5
f 6/7/6 1/1/6 4/3/6
f 7/8/3 2/4/3 4/3/3
f 4/3/4 2/4/4 7/8/4
f 3/1/4 5/2/4 6/3/4
f 6/3/3 5/2/3 3/1/3
f 2/1/6 7/3/6 5/9/6
f 5/9/5 7/3/5 2/1/5
f 4/1/2 6/3/2 7/4/2
f 7/4/1 6/3/1 4/1/1
f 8/5/4 6/3/4 5/2/4
f 5/2/3 6/3/3 8/5/3
f 8/10/6 5/9/6 7/3/6
f 7/3/5 5/9/5 8/10/5
f 8/8/2 7/4/2 6/3/2
f 6/3/1 7/4/1 8/8/1
