# SSTK version 0.8.0
# 2
mtllib original-2.mtl
o mesh1/mesh1-geometry#mesh1-geometry
v 0.550823 0.158973 -0.257701
v -0.652574 0.158750 -0.257924
v 0.550601 0.158750 -0.257924
v -0.652797 0.158973 -0.257701
v -0.652100 0.158750 -0.273967
v 0.550601 0.159196 -0.257478
v -0.652574 0.158750 -0.273522
v 0.550127 0.158750 -0.273967
v 0.550601 0.727849 -0.257478
v -0.652574 0.159196 -0.257478
v 0.550601 0.158750 -0.273522
v 0.550823 0.728072 -0.257701
v -0.653020 0.159196 -0.257924
v 0.551046 0.159196 -0.257924
v 0.550601 0.728295 -0.257924
v -0.652574 0.727849 -0.257478
v 0.551046 0.727849 -0.257924
v -0.652574 0.728295 -0.257924
v -0.653020 0.727849 -0.257924
v 0.551046 0.159196 -0.273522
v -0.652100 0.728295 -0.273967
v -0.652797 0.728072 -0.257701
v -0.653020 0.727849 -0.273522
v 0.551046 0.727849 -0.273522
v -0.652574 0.728295 -0.273522
v -0.651746 0.728295 -0.273967
v -0.653020 0.159196 -0.273522
v 0.550601 0.727849 -0.273967
v -0.651675 0.728295 -0.273967
v -0.652574 0.727849 -0.273967
v 0.550601 0.159196 -0.273967
v 0.550127 0.728295 -0.273967
v -0.652574 0.159196 -0.273967
v 0.550127 0.727849 -0.273967
v 0.550601 0.728295 -0.273522
v -0.651675 0.159679 -0.273967
v 0.550127 0.159196 -0.273967
vt 13.5065 0
vt 0.005 -0.003536
vt 13.504 -0.003536
vt 0.0025 0
vt -0.005 0.005
vt -0.010315 0.185
vt -13.504 0.005
vt 13.504 0.003536
vt -0.005 0.18
vt -13.498685 0.185
vt 9.552306 0.0025
vt 9.54877 6.385
vt 9.54877 0.005
vt 0.005 0.003536
vt -13.504 0.18
vt 9.552306 6.3875
vt 13.504 6.385
vt 0.005 0.005
vt 13.504 0.005
vt 0.003536 0.005
vt -0.003536 0.005
vt 0 0.0025
vt 9.555841 0.005
vt 13.504 4.521948
vt 13.504 4.514877
vt 13.5065 4.518412
vt 0.005 6.385
vt 0.003536 6.385
vt 9.555841 6.385
vt 0.005 4.521948
vt 0.005 4.514877
vt -0.003536 6.385
vt 0.18 0.005
vt 0.010315 0.185
vt 0.0025 4.518412
vt 0 6.3875
vt -0.18 6.385
vt -0.005 6.385
vt 0.18 6.385
vt 0.005 0.18
vt 0.014291 0.185
vt -0.18 0.005
vt -9.425026 0.005
vt -9.417955 6.385
vt -9.425026 6.385
vt 0.015087 0.185
vt -0.13435 6.385
vt -0.127279 0.005
vt -0.127279 6.385
vt -9.417955 0.005
vt 13.498685 0.185
vt -0.015087 6.39
vt -0.014291 6.39
vt -0.13435 0.005
vt -13.498685 6.385
vt -13.504 6.385
vt 13.504 0.18
vt -0.015087 0.010428
vt -13.498685 0.005
vn 0 -0.7071067811865477 0.7071067811865474
vn 0 0.7071067811865477 -0.7071067811865474
vn 0 -1 0
vn 0 1 0
vn 0.7071067811865475 0 0.7071067811865475
vn -0.7071067811865475 0 -0.7071067811865475
vn 0 0 1
vn 0 0 -1
vn -0.7071067811865475 0 0.7071067811865475
vn 0.7071067811865475 0 -0.7071067811865475
vn 0 0.7071067811865474 0.7071067811865477
vn 0 -0.7071067811865474 -0.7071067811865477
vn 1 0 0
vn -1 0 0
usemtl material_0_0
f 1/1/1 2/2/1 3/3/1
f 2/2/1 1/1/1 4/4/1
f 3/3/2 2/2/2 1/1/2
f 4/4/2 1/1/2 2/2/2
f 2/5/3 5/6/3 3/7/3
f 3/7/4 5/6/4 2/5/4
f 4/4/1 1/1/1 6/8/1
f 6/8/2 1/1/2 4/4/2
f 5/6/3 2/5/3 7/9/3
f 7/9/4 2/5/4 5/6/4
f 3/7/3 5/6/3 8/10/3
f 8/10/4 5/6/4 3/7/4
f 1/11/5 9/12/5 6/13/5
f 6/13/6 9/12/6 1/11/6
f 4/4/1 6/8/1 10/14/1
f 10/14/2 6/8/2 4/4/2
f 3/7/3 8/10/3 11/15/3
f 11/15/4 8/10/4 3/7/4
f 9/12/5 1/11/5 12/16/5
f 12/16/6 1/11/6 9/12/6
f 9/17/7 10/18/7 6/19/7
f 6/19/8 10/18/8 9/17/8
f 10/20/9 13/21/9 4/22/9
f 4/22/10 13/21/10 10/20/10
f 12/16/5 1/11/5 14/23/5
f 14/23/6 1/11/6 12/16/6
f 15/24/11 9/25/11 12/26/11
f 12/26/12 9/25/12 15/24/12
f 10/18/7 9/17/7 16/27/7
f 16/27/8 9/17/8 10/18/8
f 13/21/9 10/20/9 16/28/9
f 16/28/10 10/20/10 13/21/10
f 12/16/5 14/23/5 17/29/5
f 17/29/6 14/23/6 12/16/6
f 18/30/11 9/25/11 15/24/11
f 15/24/12 9/25/12 18/30/12
f 18/30/11 16/31/11 9/25/11
f 9/25/12 16/31/12 18/30/12
f 13/21/9 16/28/9 19/32/9
f 19/32/10 16/28/10 13/21/10
f 20/33/13 17/27/13 14/18/13
f 14/18/14 17/27/14 20/33/14
f 21/34/4 18/18/4 15/19/4
f 15/19/3 18/18/3 21/34/3
f 16/31/11 18/30/11 22/35/11
f 22/35/12 18/30/12 16/31/12
f 19/32/9 16/28/9 22/36/9
f 22/36/10 16/28/10 19/32/10
f 23/37/14 13/5/14 19/38/14
f 19/38/13 13/5/13 23/37/13
f 17/27/13 20/33/13 24/39/13
f 24/39/14 20/33/14 17/27/14
f 18/18/4 21/34/4 25/40/4
f 25/40/3 21/34/3 18/18/3
f 21/34/4 15/19/4 26/41/4
f 26/41/3 15/19/3 21/34/3
f 13/5/14 23/37/14 27/42/14
f 27/42/13 23/37/13 13/5/13
f 20/43/10 28/44/10 24/45/10
f 24/45/9 28/44/9 20/43/9
f 26/41/4 15/19/4 29/46/4
f 29/46/3 15/19/3 26/41/3
f 30/47/6 27/48/6 23/49/6
f 23/49/5 27/48/5 30/47/5
f 28/44/10 20/43/10 31/50/10
f 31/50/9 20/43/9 28/44/9
f 29/46/4 15/19/4 32/51/4
f 32/51/3 15/19/3 29/46/3
f 29/52/8 30/38/8 26/53/8
f 26/53/7 30/38/7 29/52/7
f 27/48/6 30/47/6 33/54/6
f 33/54/5 30/47/5 27/48/5
f 31/7/8 34/55/8 28/56/8
f 28/56/7 34/55/7 31/7/7
f 32/51/4 15/19/4 35/57/4
f 35/57/3 15/19/3 32/51/3
f 36/58/8 30/38/8 29/52/8
f 29/52/7 30/38/7 36/58/7
f 30/38/8 36/58/8 33/5/8
f 33/5/7 36/58/7 30/38/7
f 34/55/8 31/7/8 37/59/8
f 37/59/7 31/7/7 34/55/7
